<svg width="320" height="568" viewBox="0 0 320 568" fill="none" xmlns="http://www.w3.org/2000/svg">
<g clip-path="url(#clip0)">
<rect width="320" height="568" fill="white"/>
<path d="M1 288V0H320V162C320 91 1 288 1 288Z" fill="#10172B" fill-opacity="0.9"/>
<path d="M319.5 570.006H0V507.006C0 507.006 36 491.51 75 507.006C114 522.502 83.5 547.006 159 507.006C234.5 467.006 319.5 570.006 319.5 507.006V570.006Z" fill="#10172B" fill-opacity="0.9"/>
<g clip-path="url(#clip1)">
<path opacity="0.1" d="M225.565 221.06C211.269 220.552 197.654 215.856 184.661 210.713C171.667 205.57 158.781 199.872 144.827 197.147C135.842 195.395 125.578 195.149 118.347 200.051C111.388 204.766 109.139 212.907 107.931 220.459C107.022 226.142 106.487 232.125 108.979 237.443C110.709 241.137 113.781 244.242 115.906 247.78C123.304 260.088 118.078 275.269 110.062 287.289C106.304 292.927 101.945 298.306 99.0452 304.308C96.1457 310.311 94.8044 317.188 97.3419 323.311C99.8581 329.378 105.849 333.938 112.341 337.143C125.526 343.648 141.062 345.519 156.212 346.575C189.75 348.911 223.465 347.9 257.092 346.887C269.535 346.512 282.035 346.132 294.276 344.172C301.075 343.084 308.094 341.357 313.029 337.186C319.295 331.894 320.847 322.93 316.649 316.291C309.607 305.158 290.132 302.394 285.213 290.445C282.504 283.869 285.287 276.542 289.224 270.443C297.671 257.358 311.827 245.88 312.574 230.922C313.085 220.65 306.28 210.364 295.756 205.494C284.724 200.4 269.433 201.041 261.294 209.473C252.915 218.167 238.189 221.508 225.565 221.06Z" fill="#71FF80"/>
<g opacity="0.5">
<path opacity="0.5" d="M192.925 275.357L186.449 275.493L185.39 276.973V282.088L186.712 283.031H192.925L194.247 281.55V276.703L192.925 275.357Z" fill="#71FF80"/>
<path opacity="0.2" d="M192.79 276.165C192.79 276.165 186.842 277.107 186.313 276.165L186.447 275.493L192.79 275.351V276.165Z" fill="white"/>
<path opacity="0.5" d="M193.454 290.165L194.51 291.243V296.368L193.454 297.429C193.454 297.429 189.621 298.775 187.109 297.697L185.918 296.486V291.361L186.977 290.149L193.454 290.165Z" fill="#71FF80"/>
<path opacity="0.2" d="M193.188 291.377C193.188 291.377 188.562 292.453 186.977 291.377V290.165H193.454L193.188 291.377Z" fill="white"/>
<path opacity="0.5" d="M190.941 282.995V290.277C190.926 290.565 190.8 290.836 190.589 291.03C190.379 291.223 190.102 291.324 189.819 291.31V291.31C189.535 291.324 189.258 291.223 189.048 291.03C188.838 290.836 188.711 290.565 188.696 290.277V282.995C188.696 282.376 189.277 281.897 189.95 281.968C190.211 281.985 190.456 282.099 190.639 282.288C190.822 282.478 190.93 282.73 190.941 282.995V282.995Z" fill="#71FF80"/>
<path opacity="0.5" d="M203.298 275.566L196.822 275.7L195.763 277.18V282.296L197.085 283.238H203.298L204.62 281.757V276.91L203.298 275.566Z" fill="#71FF80"/>
<path opacity="0.2" d="M203.164 276.372C203.164 276.372 197.216 277.314 196.688 276.372L196.82 275.7L203.164 275.566V276.372Z" fill="white"/>
<path opacity="0.5" d="M203.822 290.372L204.879 291.45V296.575L203.822 297.642C203.822 297.642 199.988 298.988 197.478 297.91L196.287 296.699V291.584L197.346 290.372H203.822Z" fill="#71FF80"/>
<path opacity="0.2" d="M203.561 291.584C203.561 291.584 198.935 292.66 197.35 291.584V290.372H203.822L203.561 291.584Z" fill="white"/>
<path opacity="0.5" d="M201.306 283.202V290.484C201.291 290.772 201.164 291.042 200.954 291.236C200.743 291.429 200.467 291.53 200.184 291.517V291.517C199.9 291.531 199.623 291.43 199.412 291.237C199.202 291.043 199.075 290.773 199.059 290.484V283.202C199.059 282.583 199.64 282.104 200.315 282.175C200.576 282.192 200.821 282.306 201.004 282.495C201.187 282.685 201.295 282.937 201.306 283.202V283.202Z" fill="#71FF80"/>
<path opacity="0.5" d="M216.502 279.459L211.17 279.571L210.299 280.79V285L211.387 285.777H216.502L217.59 284.557V280.567L216.502 279.459Z" fill="#71FF80"/>
<path opacity="0.2" d="M216.392 280.125C216.392 280.125 211.497 280.9 211.061 280.125L211.17 279.571L216.396 279.459L216.392 280.125Z" fill="white"/>
<path opacity="0.5" d="M216.936 291.649L217.807 292.536V296.747L216.936 297.634C216.936 297.634 213.781 298.741 211.71 297.854L210.731 296.857V292.646L211.602 291.649H216.936Z" fill="#71FF80"/>
<path opacity="0.2" d="M216.719 292.646C216.719 292.646 212.91 293.534 211.605 292.646V291.649H216.936L216.719 292.646Z" fill="white"/>
<path opacity="0.5" d="M214.869 285.747V291.742C214.856 291.979 214.752 292.202 214.578 292.361C214.405 292.52 214.177 292.603 213.943 292.591V292.591C213.71 292.603 213.482 292.52 213.309 292.361C213.136 292.202 213.032 291.979 213.02 291.742V285.747C213.028 285.62 213.061 285.497 213.118 285.384C213.175 285.271 213.255 285.171 213.352 285.092C213.449 285.012 213.562 284.954 213.682 284.921C213.803 284.889 213.929 284.882 214.052 284.902C214.267 284.915 214.469 285.009 214.619 285.165C214.77 285.321 214.859 285.528 214.869 285.747Z" fill="#71FF80"/>
<path opacity="0.5" d="M225.04 279.631L219.708 279.741L218.839 280.959V285.172L219.926 285.946H225.04L226.128 284.728V280.738L225.04 279.631Z" fill="#71FF80"/>
<path opacity="0.2" d="M224.932 280.295C224.932 280.295 220.035 281.071 219.599 280.295L219.708 279.741L224.934 279.631L224.932 280.295Z" fill="white"/>
<path opacity="0.5" d="M225.476 291.821L226.345 292.706V296.916L225.476 297.803C225.476 297.803 222.319 298.911 220.25 298.026L219.272 297.034V292.818L220.143 291.821H225.476Z" fill="#71FF80"/>
<path opacity="0.2" d="M225.257 292.818C225.257 292.818 221.45 293.703 220.143 292.818V291.821H225.476L225.257 292.818Z" fill="white"/>
<path opacity="0.5" d="M223.408 285.917V291.909C223.396 292.147 223.291 292.369 223.118 292.529C222.945 292.688 222.716 292.771 222.483 292.759C222.25 292.771 222.022 292.688 221.848 292.529C221.675 292.369 221.57 292.147 221.558 291.909V285.917C221.558 285.408 222.042 285.014 222.592 285.073C222.806 285.086 223.008 285.179 223.159 285.335C223.31 285.491 223.399 285.698 223.408 285.917V285.917Z" fill="#71FF80"/>
</g>
<path d="M299.052 301.385C298.636 300.618 297.858 300.113 297.039 299.881C296.211 299.678 295.354 299.623 294.507 299.719C293.139 299.818 291.783 300.046 290.456 300.399C289.634 300.62 288.78 300.916 288.225 301.582C288.209 301.602 288.192 301.625 288.174 301.645C287.324 301.872 286.481 302.221 285.658 302.505C284.832 302.783 283.992 303.016 283.142 303.2C284.255 302.556 285.339 301.874 286.256 300.963C286.69 300.534 287.079 300.061 287.417 299.552C288.046 299.735 288.706 299.78 289.353 299.684C290.663 299.455 291.722 298.501 292.707 297.571L295.876 294.602C296.381 294.129 296.894 293.644 297.231 293.025C297.686 292.164 297.726 291.138 297.738 290.155C297.753 288.803 297.738 287.45 297.699 286.1L298.702 286.889C298.549 285.223 298.853 283.547 299.58 282.047C299.929 281.332 300.386 280.62 300.395 279.818C300.411 278.58 299.366 277.606 298.295 277.058C297.225 276.51 296.021 276.159 295.144 275.318C293.84 274.066 293.596 272.069 292.951 270.354C292.569 269.415 292.116 268.508 291.596 267.64L290.342 265.412C289.711 264.238 289.008 263.107 288.236 262.024C286.932 260.271 285.288 258.826 283.657 257.397L275.171 249.952C273.108 248.14 271.037 246.327 268.805 244.742C264.278 241.527 259.17 239.319 254.095 237.133C252.817 236.581 251.488 236.021 250.106 236.089C249.065 236.157 248.078 236.587 247.311 237.307C246.583 237.082 245.872 236.806 245.181 236.483L245.127 236.457C245.143 236.341 245.16 236.226 245.172 236.11C245.189 235.956 245.199 235.803 245.211 235.647C245.593 235.587 245.963 235.464 246.306 235.282C246.48 235.198 246.634 235.077 246.757 234.925C246.913 234.662 246.993 234.36 246.987 234.052C247.142 231.992 247.297 229.913 247.131 227.863C246.964 225.813 246.459 223.737 245.389 221.994C245.058 221.454 244.643 220.928 244.069 220.693C243.294 220.378 242.398 220.672 241.572 220.53C240.141 220.283 239.249 218.858 238.213 217.808C235.595 215.148 231.116 214.748 228.092 216.901C226.947 217.719 226.029 218.829 225.007 219.806C223.985 220.784 222.787 221.669 221.407 221.86C221.153 221.871 220.904 221.939 220.677 222.057C220.395 222.239 220.267 222.588 220.159 222.911C219.771 224.027 219.4 225.172 219.282 226.339C219.268 226.268 219.257 226.197 219.245 226.126C219.192 226.558 219.181 226.995 219.212 227.429C219.251 227.983 219.408 228.521 219.673 229.006C219.893 229.467 220.269 229.832 220.731 230.035C221.059 230.153 221.404 230.21 221.752 230.202H221.904C221.848 230.354 221.794 230.506 221.744 230.66C221.313 231.962 221.094 233.328 221.095 234.703C221.095 241.602 226.501 247.192 233.175 247.192C233.978 247.188 234.779 247.102 235.566 246.936C235.827 247.021 236.088 247.108 236.34 247.2C236.855 247.374 237.36 247.576 237.853 247.807C238.062 247.908 238.908 248.411 239.93 249.059L239.861 249.207C238.864 250.155 238.132 251.357 237.741 252.688C237.351 254.019 237.314 255.432 237.637 256.782C238.376 259.713 240.801 262.227 240.557 265.245C240.523 265.674 240.434 266.11 240.505 266.536C240.604 267.127 240.997 267.608 241.39 268.046C241.73 268.428 242.085 268.799 242.445 269.161C242.416 271.087 242.251 273.011 242.073 274.931C242.057 275.099 242.054 275.268 242.052 275.44C242.062 276.27 242.358 277.07 242.888 277.701C243.449 278.397 243.674 279.439 243.567 280.37C243.414 281.702 242.77 282.911 242.338 284.174C240.391 289.857 242.783 296.266 241.436 302.134C241.105 303.579 240.548 304.984 240.468 306.471C240.424 307.399 240.567 308.373 240.217 309.23C239.913 309.975 239.28 310.514 238.682 311.036C237.837 311.773 237.013 312.535 236.212 313.323C235.001 312.648 233.751 312.049 232.469 311.529C232.26 311.443 232.046 311.368 231.83 311.304C230.316 309.861 228.408 308.939 226.616 307.878C225.129 307.001 223.712 306.015 222.288 305.03C220.933 304.083 219.549 303.129 218.403 301.913C217.822 301.298 217.306 300.62 216.68 300.058C216.131 299.592 215.549 299.168 214.938 298.789C212.192 296.977 209.574 294.971 207.103 292.786C205.22 291.123 203.679 288.98 201.666 287.488C200.433 286.573 198.999 285.739 197.489 285.911C197.009 285.968 196.542 286.115 196.113 286.343C195.713 286.17 195.285 286.072 194.851 286.055C193.624 286.015 192.497 286.693 191.444 287.346C185.251 291.179 178.96 294.842 172.573 298.333C171.284 299.039 169.987 299.739 168.756 300.547C166.354 302.129 164.226 304.106 162.458 306.396C162.132 306.816 161.722 307.293 161.205 307.229C161.064 307.207 160.928 307.158 160.805 307.084C160.009 306.644 159.521 305.794 159.063 304.988C158.73 304.397 158.37 303.78 157.882 303.33C157.777 303.051 157.638 302.786 157.468 302.542C158.155 300.815 158.747 299.047 159.297 297.267C159.583 296.333 159.86 295.392 160.226 294.486C161.128 292.242 162.566 290.21 163.075 287.837C163.197 287.263 163.269 286.674 163.363 286.094C168.928 284.978 173.128 279.916 173.128 273.837C173.128 266.938 167.72 261.348 161.048 261.348C154.377 261.348 148.971 266.938 148.971 273.837C148.965 275.937 149.477 278.005 150.462 279.85C151.446 281.696 152.87 283.259 154.603 284.397C154.603 284.421 154.603 284.444 154.603 284.466C154.591 284.862 154.553 285.258 154.489 285.649C154.266 286.969 153.715 288.211 153.159 289.416C152.791 290.222 152.424 291.032 152.042 291.836C151.859 291.799 151.682 291.738 151.514 291.655C151.187 291.47 151.043 291.064 150.92 290.705C150.371 289.061 149.7 287.462 148.912 285.923C148.605 285.268 148.215 284.658 147.751 284.107C146.934 283.196 145.816 282.656 144.734 282.11C144.54 282.016 144.36 281.913 144.174 281.823C144.013 281.701 143.845 281.59 143.671 281.489C142.771 280.971 141.772 280.598 141.021 279.873C140.458 279.329 140.071 278.621 139.544 278.044C138.668 277.084 137.458 276.536 136.283 276.013C135.671 275.741 135.029 275.463 134.361 275.501C134.267 275.506 134.173 275.516 134.08 275.532C133.92 275.56 133.761 275.597 133.604 275.643C133.452 275.56 133.308 275.463 133.174 275.351C132.456 274.787 132.178 273.819 131.943 272.919C131.556 271.413 131.148 269.853 131.388 268.312C131.43 268.046 131.487 267.783 131.558 267.523C131.618 267.423 131.676 267.326 131.729 267.218C133.27 266.746 134.678 265.906 135.835 264.768C136.993 263.63 137.867 262.226 138.384 260.675C138.901 259.123 139.047 257.468 138.808 255.847C138.57 254.226 137.955 252.687 137.015 251.358C136.916 251.22 136.821 251.085 136.711 250.951L136.827 250.886C137.897 250.22 138.141 248.627 137.646 247.441C137.15 246.254 136.097 245.416 135.031 244.758C134.876 244.661 134.719 244.571 134.56 244.48L134.425 244.405C134.305 244.338 134.187 244.273 134.067 244.208L133.925 244.135C133.784 244.062 133.643 243.993 133.501 243.926L133.438 243.895C133.261 243.814 133.085 243.735 132.907 243.66C132.735 243.587 132.563 243.52 132.389 243.463L132.317 243.435C132.152 243.374 131.986 243.317 131.819 243.262L131.783 243.25C130.565 242.847 129.296 242.629 128.016 242.603C126.763 242.611 125.514 242.752 124.29 243.023C123.098 243.243 121.931 243.584 120.806 244.042C118.947 244.845 117.308 246.096 116.031 247.689C115.762 247.71 115.495 247.755 115.234 247.823C114.187 248.093 113.244 248.688 112.383 249.363C111.661 249.903 111.022 250.548 110.486 251.279C109.854 252.214 109.419 253.273 109.206 254.387C108.473 257.882 109.375 261.484 110.039 264.996C110.703 268.509 111.086 272.337 109.458 275.489C108.844 276.672 107.973 277.699 107.329 278.86C106.684 280.021 106.237 281.422 106.609 282.71C107.06 284.273 108.544 285.256 109.319 286.676C110.224 288.33 109.975 290.551 108.79 291.998C108.738 292.061 108.686 292.124 108.63 292.195C108.573 292.266 108.494 292.341 108.42 292.408C109.642 292.846 111.003 292.374 112.098 291.673C112.974 291.146 113.717 290.417 114.268 289.546C115.652 287.232 115.03 284.239 115.518 281.564C116.159 278.061 118.745 274.937 118.389 271.391C118.149 269.012 116.623 267.023 115.425 264.977C114.629 263.603 113.961 262.157 113.432 260.656C113.41 260.593 113.389 260.528 113.366 260.459C113.016 259.443 112.746 258.367 112.926 257.305C112.988 256.961 113.089 256.625 113.228 256.305C113.228 256.343 113.228 256.382 113.228 256.42C113.252 257.447 113.476 258.46 113.888 259.398C115.098 261.961 118.009 263.143 119.858 265.221C119.935 265.308 120.009 265.396 120.082 265.487C120.104 265.511 120.123 265.536 120.142 265.562L120.299 265.759L120.365 265.852C120.413 265.921 120.462 265.99 120.506 266.061L120.566 266.149C120.628 266.25 120.69 266.347 120.748 266.455C121.218 265.925 121.704 265.367 121.894 264.681C121.911 264.622 121.923 264.561 121.935 264.5C121.95 264.515 121.964 264.533 121.979 264.551C122.016 264.762 122.045 264.973 122.072 265.186C122.072 265.49 122.104 265.793 122.167 266.09C122.314 267.983 122.196 269.926 122.072 271.825C122.006 272.84 122.266 274.348 121.631 275.105L121.611 275.126C121.574 275.17 121.533 275.211 121.489 275.249V275.249C121.381 275.363 121.271 275.475 121.168 275.594C119.039 278.038 118.071 281.507 118.122 284.831C118.172 288.613 119.358 292.278 120.704 295.796C121.173 297.081 121.727 298.332 122.36 299.542C122.687 300.195 123.12 300.787 123.64 301.294C124.184 301.785 124.846 302.108 125.498 302.424C125.661 302.503 125.825 302.579 125.988 302.66L126.404 302.857L129.572 304.391C130.153 305.26 130.714 306.153 131.281 307.048C131.363 307.174 131.442 307.304 131.525 307.431C132.145 308.416 132.768 309.402 133.403 310.36L138.743 318.414C139.13 319.006 139.535 319.597 140.079 320.034C140.233 320.158 140.401 320.265 140.578 320.352C140.668 320.396 140.76 320.435 140.855 320.468C140.737 320.647 140.687 320.864 140.713 321.077C140.785 321.287 140.921 321.467 141.101 321.592C142.308 322.609 143.65 323.681 144.029 325.244C144.298 326.358 144.029 327.551 144.271 328.67C144.714 330.689 146.675 331.913 148.529 332.69C152.685 334.428 157.301 335.096 161.716 334.288C166.131 333.48 170.326 331.148 173.184 327.586C174.063 326.486 174.812 325.286 175.646 324.15C176.227 323.35 176.866 322.587 177.526 321.852C178.238 321.52 178.925 321.134 179.579 320.697C180.975 319.753 182.177 318.54 183.451 317.417C184.401 316.573 185.396 315.777 186.269 314.854C187.053 313.979 187.785 313.058 188.462 312.094C190.01 310.005 191.61 307.957 193.26 305.95C194.143 304.876 195.078 303.782 196.31 303.19L196.367 303.167C196.514 304.05 197.201 304.799 197.683 305.562C199.676 308.716 201.763 311.962 204.844 313.973C206.532 315.073 208.441 315.747 210.345 316.362C215.184 317.919 220.1 319.142 225.021 320.366C225.183 320.05 225.342 319.759 225.52 319.475C225.596 319.557 225.667 319.644 225.733 319.735C225.754 319.766 225.772 319.8 225.793 319.831C225.757 319.839 225.722 319.848 225.688 319.861C225.373 320.011 225.124 320.277 224.994 320.606C224.463 321.688 224.413 322.944 224.388 324.154C224.37 325.337 224.388 326.52 224.388 327.702C224.359 328.144 224.426 328.587 224.581 329C224.957 329.788 225.911 330.082 226.765 330.182C228.247 330.35 229.742 330.208 231.216 330.005C231.302 330.359 231.441 330.698 231.629 331.008C232.457 332.388 233.887 333.299 235.376 333.833C236.864 334.367 238.442 334.58 239.988 334.893C242.735 335.449 245.545 336.338 248.276 335.712C249.366 335.461 250.406 334.976 251.495 334.763C253.99 334.282 256.576 335.256 259.089 334.866C260.302 334.669 261.45 334.176 262.549 333.61C263.104 333.363 263.606 333.009 264.03 332.569C264.433 332.108 264.675 331.454 264.508 330.856C264.413 330.513 264.196 330.222 264.051 329.898C263.857 329.381 263.746 328.835 263.724 328.282C263.522 326.188 263.174 324.112 262.683 322.069C262.669 322.012 262.654 321.952 262.638 321.893C264.537 321.127 266.238 319.922 267.919 318.724L271.532 316.149C272.694 315.315 273.884 314.478 275.189 313.894C277.19 312.999 279.406 312.743 281.587 312.745C282.48 312.745 283.374 312.79 284.262 312.873C284.149 312.999 284.064 313.148 284.013 313.311C283.835 313.874 284.117 314.493 284.537 314.905C284.957 315.317 285.505 315.55 285.999 315.836C287.362 316.618 288.498 317.754 289.289 319.13C289.785 319.995 290.145 321.046 289.831 321.998C289.444 323.192 288.064 324.016 288.143 325.274C288.19 326.015 288.776 326.628 289.444 326.902C290.112 327.176 290.853 327.172 291.573 327.151C292.752 327.113 293.965 327.02 295.02 326.474C295.731 326.106 296.333 325.55 296.923 325C297.461 324.497 298.011 323.975 298.317 323.297C298.603 322.658 298.648 321.935 298.661 321.233C298.719 317.929 298.16 314.58 298.804 311.343C298.998 310.358 299.308 309.394 299.472 308.4C299.731 306.823 299.633 305.231 299.534 303.646C299.486 302.865 299.428 302.061 299.052 301.385Z" fill="url(#paint0_linear)"/>
<path opacity="0.06" d="M258.158 255.694C257.397 256.217 257.132 257.226 257.035 258.156C256.623 262.112 258.225 266.029 258.119 270.005C258.034 273.169 256.876 276.187 255.734 279.13C253.787 284.151 252.773 289.603 252.38 294.986C251.987 300.37 251.412 305.976 248.575 310.529C247.93 311.56 247.179 312.518 246.548 313.555C245.886 314.639 245.362 315.802 244.777 316.93C243.055 320.26 240.835 323.297 238.196 325.932C237.422 326.701 236.601 327.446 235.614 327.89C234.978 328.171 234.293 328.319 233.6 328.327C232.906 328.334 232.218 328.2 231.576 327.933C230.253 327.375 229.138 326.118 229.083 324.659C229.035 323.354 229.8 322.177 230.566 321.132C233.164 317.593 236.151 314.368 239.47 311.521C240.072 311.004 240.706 310.47 241.018 309.733C241.368 308.883 241.225 307.919 241.27 306.999C241.341 305.53 241.903 304.137 242.238 302.706C243.592 296.892 241.185 290.545 243.143 284.913C243.579 283.662 244.225 282.465 244.378 281.146C244.487 280.224 244.262 279.193 243.695 278.501C243.164 277.879 242.867 277.086 242.857 276.262C242.857 276.092 242.857 275.925 242.876 275.759C243.112 273.179 243.347 270.587 243.219 267.998C243.091 265.41 242.586 262.808 241.413 260.508C240.805 259.315 240.019 258.2 239.644 256.912C239.04 254.829 239.597 252.576 240.497 250.604C241.2 249.063 242.137 247.594 243.445 246.538C245.876 244.577 249.515 244.35 252.177 245.972C254.139 247.167 255.483 249.175 256.572 251.223C257.354 252.72 258.169 253.987 258.158 255.694Z" fill="black"/>
<path d="M251.706 239.984C251.335 241.005 250.965 242.026 250.597 243.047C250.353 243.717 250.111 244.393 249.86 245.063C248.698 248.152 247.4 251.192 245.367 253.749C245.671 253.366 242.812 251.442 240.705 250.129C239.677 249.485 238.825 248.988 238.616 248.89C238.119 248.661 237.611 248.46 237.093 248.286C236.289 248.01 235.477 247.772 234.673 247.474C232.815 246.79 234.114 245.763 234.909 244.659C237.513 241.044 238.006 236.104 240.962 232.783C242.046 234.88 243.761 236.569 245.855 237.602C245.896 237.624 245.938 237.644 245.981 237.662C247.736 238.497 249.676 238.858 251.491 239.558C251.59 239.595 251.704 239.648 251.737 239.755C251.75 239.833 251.739 239.912 251.706 239.984Z" fill="#A1616A"/>
<path d="M246.653 313.001C245.812 314.228 245.288 315.651 245.131 317.139C244.974 318.626 245.187 320.13 245.752 321.511C245.895 321.897 246.118 322.247 246.405 322.538C246.77 322.829 247.196 323.031 247.649 323.129C251.493 324.243 255.597 324.024 259.534 323.326C260.867 323.117 262.178 322.777 263.447 322.311C265.396 321.552 267.137 320.34 268.855 319.13L272.49 316.579C273.667 315.753 274.854 314.923 276.168 314.344C278.181 313.459 280.411 313.204 282.604 313.206C284.487 313.208 286.367 313.391 288.217 313.752C289.45 313.995 290.927 314.245 291.794 313.328C292.289 312.81 292.436 312.051 292.533 311.336C292.916 308.551 292.909 305.726 292.512 302.944C292.502 302.71 292.419 302.485 292.274 302.303C292.137 302.185 291.971 302.108 291.794 302.081C290.081 301.686 288.362 302.505 286.697 303.066C283.239 304.237 279.524 304.377 276.005 305.341C272.312 306.352 268.844 308.266 265.027 308.655C263.207 308.84 261.38 308.678 259.557 308.72C257.865 308.757 256.288 309.352 254.631 309.423C251.437 309.567 248.66 310.135 246.653 313.001Z" fill="#A1616A"/>
<path opacity="0.06" d="M246.653 313.001C245.812 314.228 245.288 315.651 245.131 317.139C244.974 318.626 245.187 320.13 245.752 321.511C245.895 321.897 246.118 322.247 246.405 322.538C246.77 322.829 247.196 323.031 247.649 323.129C251.493 324.243 255.597 324.024 259.534 323.326C260.867 323.117 262.178 322.777 263.447 322.311C265.396 321.552 267.137 320.34 268.855 319.13L272.49 316.579C273.667 315.753 274.854 314.923 276.168 314.344C278.181 313.459 280.411 313.204 282.604 313.206C284.487 313.208 286.367 313.391 288.217 313.752C289.45 313.995 290.927 314.245 291.794 313.328C292.289 312.81 292.436 312.051 292.533 311.336C292.916 308.551 292.909 305.726 292.512 302.944C292.502 302.71 292.419 302.485 292.274 302.303C292.137 302.185 291.971 302.108 291.794 302.081C290.081 301.686 288.362 302.505 286.697 303.066C283.239 304.237 279.524 304.377 276.005 305.341C272.312 306.352 268.844 308.266 265.027 308.655C263.207 308.84 261.38 308.678 259.557 308.72C257.865 308.757 256.288 309.352 254.631 309.423C251.437 309.567 248.66 310.135 246.653 313.001Z" fill="black"/>
<path d="M249.777 308.834C249.686 309.27 249.604 309.731 249.732 310.157C249.891 310.575 250.158 310.942 250.506 311.217C253.797 314.217 258.498 314.838 262.894 315.325C264.084 315.457 265.296 315.589 266.475 315.371C267.549 315.173 268.552 314.69 269.541 314.213C271.67 313.186 273.81 312.148 275.636 310.638C277.426 309.159 278.862 307.267 280.717 305.873C282.824 304.296 285.416 303.393 287.297 301.537C288.658 300.2 289.562 298.455 289.878 296.557C290.09 295.262 290.021 293.94 289.878 292.635C289.725 291.135 289.479 289.609 288.778 288.28C287.967 286.743 286.605 285.582 285.166 284.628C282.124 282.613 278.541 281.363 274.908 281.395C269.875 281.44 265.23 284.423 261.618 287.772C257.798 291.319 254.706 295.602 252.521 300.374C251.288 303.076 250.367 305.915 249.777 308.834V308.834Z" fill="#464353"/>
<path opacity="0.06" d="M249.777 308.834C249.686 309.27 249.604 309.731 249.732 310.157C249.891 310.575 250.158 310.942 250.506 311.217C253.797 314.217 258.498 314.838 262.894 315.325C264.084 315.457 265.296 315.589 266.475 315.371C267.549 315.173 268.552 314.69 269.541 314.213C271.67 313.186 273.81 312.148 275.636 310.638C277.426 309.159 278.862 307.267 280.717 305.873C282.824 304.296 285.416 303.393 287.297 301.537C288.658 300.2 289.562 298.455 289.878 296.557C290.09 295.262 290.021 293.94 289.878 292.635C289.725 291.135 289.479 289.609 288.778 288.28C287.967 286.743 286.605 285.582 285.166 284.628C282.124 282.613 278.541 281.363 274.908 281.395C269.875 281.44 265.23 284.423 261.618 287.772C257.798 291.319 254.706 295.602 252.521 300.374C251.288 303.076 250.367 305.915 249.777 308.834V308.834Z" fill="black"/>
<path d="M258.158 255.694C257.397 256.217 257.132 257.226 257.035 258.156C256.623 262.112 258.225 266.029 258.119 270.005C258.034 273.169 256.876 276.187 255.734 279.13C253.787 284.151 252.773 289.603 252.38 294.986C251.987 300.37 251.412 305.976 248.575 310.529C247.93 311.56 247.179 312.518 246.548 313.555C245.886 314.639 245.362 315.802 244.777 316.93C243.055 320.26 240.835 323.297 238.196 325.932C237.422 326.701 236.601 327.446 235.614 327.89C234.978 328.171 234.293 328.319 233.6 328.327C232.906 328.334 232.218 328.2 231.576 327.933C230.253 327.375 229.138 326.118 229.083 324.659C229.035 323.354 229.8 322.177 230.566 321.132C233.164 317.593 236.151 314.368 239.47 311.521C240.072 311.004 240.706 310.47 241.018 309.733C241.368 308.883 241.225 307.919 241.27 306.999C241.341 305.53 241.903 304.137 242.238 302.706C243.592 296.892 241.185 290.545 243.143 284.913C243.579 283.662 244.225 282.465 244.378 281.146C244.487 280.224 244.262 279.193 243.695 278.501C243.164 277.879 242.867 277.086 242.857 276.262C242.857 276.092 242.857 275.925 242.876 275.759C243.112 273.179 243.347 270.587 243.219 267.998C243.091 265.41 242.586 262.808 241.413 260.508C240.805 259.315 240.019 258.2 239.644 256.912C239.04 254.829 239.597 252.576 240.497 250.604C241.2 249.063 242.137 247.594 243.445 246.538C245.876 244.577 249.515 244.35 252.177 245.972C254.139 247.167 255.483 249.175 256.572 251.223C257.354 252.72 258.169 253.987 258.158 255.694Z" fill="#A1616A"/>
<path d="M247.464 268.937C251.51 268.937 254.79 263.695 254.79 257.23C254.79 250.764 251.51 245.523 247.464 245.523C243.417 245.523 240.137 250.764 240.137 257.23C240.137 263.695 243.417 268.937 247.464 268.937Z" fill="#A1616A"/>
<path d="M228.78 318.406C228.996 318.717 229.143 319.072 229.21 319.447C229.277 319.821 229.262 320.206 229.167 320.575C229.857 321.08 230.697 321.329 231.545 321.28C232.388 321.233 233.216 321.039 233.994 320.707C234.67 320.455 235.311 320.113 235.899 319.689C236.909 318.929 237.641 317.84 238.221 316.713C238.548 316.09 238.827 315.284 238.415 314.724C238.253 314.534 238.055 314.379 237.834 314.267C236.343 313.4 234.79 312.648 233.189 312.018C232.749 311.811 232.271 311.702 231.787 311.698C231.193 311.732 230.653 312.063 230.181 312.433C229.119 313.274 228.264 314.354 227.68 315.587C227.498 315.982 226.949 316.918 227.221 317.324C227.345 317.511 227.802 317.576 227.996 317.695C228.303 317.873 228.571 318.115 228.78 318.406V318.406Z" fill="#FBBEBE"/>
<path opacity="0.03" d="M228.78 318.406C228.996 318.717 229.143 319.072 229.21 319.447C229.277 319.821 229.262 320.206 229.167 320.575C229.857 321.08 230.697 321.329 231.545 321.28C232.388 321.233 233.216 321.039 233.994 320.707C234.67 320.455 235.311 320.113 235.899 319.689C236.909 318.929 237.641 317.84 238.221 316.713C238.548 316.09 238.827 315.284 238.415 314.724C238.253 314.534 238.055 314.379 237.834 314.267C236.343 313.4 234.79 312.648 233.189 312.018C232.749 311.811 232.271 311.702 231.787 311.698C231.193 311.732 230.653 312.063 230.181 312.433C229.119 313.274 228.264 314.354 227.68 315.587C227.498 315.982 226.949 316.918 227.221 317.324C227.345 317.511 227.802 317.576 227.996 317.695C228.303 317.873 228.571 318.115 228.78 318.406V318.406Z" fill="black"/>
<path d="M236.795 313.839C240.07 314.458 243.081 316.07 246.3 316.94C247.603 317.291 248.944 317.531 250.189 318.047C251.433 318.564 252.606 319.447 253.142 320.705C253.369 321.308 253.519 321.939 253.59 322.581C253.729 323.49 253.843 324.505 253.313 325.25C252.753 326.039 251.697 326.212 250.75 326.329C247.347 326.74 243.945 327.154 240.53 327.446C239.839 327.489 239.151 327.572 238.469 327.697C237.908 327.811 237.36 327.984 236.802 328.118C236.081 328.29 235.347 328.398 234.615 328.513C232.744 328.787 230.851 329.061 228.971 328.852C228.114 328.755 227.154 328.473 226.776 327.685C226.62 327.276 226.553 326.837 226.583 326.399C226.573 325.229 226.563 324.06 226.583 322.891C226.6 321.69 226.658 320.444 227.192 319.374C227.325 319.046 227.575 318.782 227.891 318.635C228.086 318.578 228.29 318.559 228.491 318.58C229.498 318.615 230.539 318.659 231.439 319.116C232.153 319.477 232.734 320.078 233.462 320.405C234.84 321.028 236.502 320.58 237.898 321.166C238.223 320.145 238.15 319.112 237.908 318.065C237.666 317.019 237.327 315.992 237.224 314.923C237.22 314.688 237.176 314.456 237.093 314.237C236.988 314.018 237.023 313.805 236.795 313.839Z" fill="#464353"/>
<path opacity="0.06" d="M236.795 313.839C240.07 314.458 243.081 316.07 246.3 316.94C247.603 317.291 248.944 317.531 250.189 318.047C251.433 318.564 252.606 319.447 253.142 320.705C253.369 321.308 253.519 321.939 253.59 322.581C253.729 323.49 253.843 324.505 253.313 325.25C252.753 326.039 251.697 326.212 250.75 326.329C247.347 326.74 243.945 327.154 240.53 327.446C239.839 327.489 239.151 327.572 238.469 327.697C237.908 327.811 237.36 327.984 236.802 328.118C236.081 328.29 235.347 328.398 234.615 328.513C232.744 328.787 230.851 329.061 228.971 328.852C228.114 328.755 227.154 328.473 226.776 327.685C226.62 327.276 226.553 326.837 226.583 326.399C226.573 325.229 226.563 324.06 226.583 322.891C226.6 321.69 226.658 320.444 227.192 319.374C227.325 319.046 227.575 318.782 227.891 318.635C228.086 318.578 228.29 318.559 228.491 318.58C229.498 318.615 230.539 318.659 231.439 319.116C232.153 319.477 232.734 320.078 233.462 320.405C234.84 321.028 236.502 320.58 237.898 321.166C238.223 320.145 238.15 319.112 237.908 318.065C237.666 317.019 237.327 315.992 237.224 314.923C237.22 314.688 237.176 314.456 237.093 314.237C236.988 314.018 237.023 313.805 236.795 313.839Z" fill="black"/>
<path d="M127.395 280.228C126.735 280.015 126.098 280.61 125.728 281.213C124.191 283.674 124.317 286.958 125.546 289.591C125.839 290.259 126.242 290.87 126.739 291.399C127.405 292.067 128.262 292.495 129.061 292.976C131.279 294.31 133.18 296.128 134.628 298.298C135.575 299.719 136.32 301.282 137.394 302.605C140.038 305.861 144.383 307.336 146.948 310.648C147.561 311.436 148.08 312.351 148.899 312.924C149.386 313.265 149.953 313.467 150.542 313.51C151.131 313.553 151.721 313.435 152.25 313.168C152.78 312.901 153.229 312.495 153.553 311.992C153.877 311.489 154.063 310.907 154.092 310.307C155.089 308.814 155.904 307.166 156.68 305.542C157.828 303.063 158.799 300.502 159.583 297.88C159.872 296.954 160.15 296.021 160.518 295.12C161.426 292.897 162.872 290.884 163.383 288.535C163.588 287.592 163.638 286.613 163.936 285.698C164.203 284.877 164.66 284.133 165.268 283.53C167.281 281.537 168.365 278.633 169.966 276.287C170.616 275.339 171.291 274.393 171.721 273.321C172.151 272.248 172.315 271.02 171.915 269.936C171.514 268.852 170.467 267.977 169.333 268.038C168.825 268.091 168.333 268.245 167.883 268.491C166.32 269.247 164.886 270.253 163.636 271.472C163.09 272.007 162.573 272.573 162.088 273.167C159.723 276.045 157.872 279.538 157.71 283.287C157.655 284.572 157.756 285.998 156.955 286.993C154.744 289.743 154.034 293.524 152.149 296.516C151.276 297.896 150.275 299.325 148.783 299.954C148.562 300.062 148.319 300.111 148.074 300.096C147.478 300.027 147.136 299.388 146.884 298.832C145.901 296.664 144.763 294.572 143.479 292.574C142.972 291.785 142.413 290.977 141.602 290.514C141.048 290.2 140.406 290.06 139.885 289.694C139.159 289.183 138.78 288.314 138.402 287.5C137.179 284.87 135.63 282.411 133.794 280.182C132.954 279.163 131.847 278.111 130.55 278.263C129.315 278.41 128.56 279.733 127.395 280.228Z" fill="#FBBEBE"/>
<path opacity="0.03" d="M127.395 280.228C126.735 280.015 126.098 280.61 125.728 281.213C124.191 283.674 124.317 286.958 125.546 289.591C125.839 290.259 126.242 290.87 126.739 291.399C127.405 292.067 128.262 292.495 129.061 292.976C131.279 294.31 133.18 296.128 134.628 298.298C135.575 299.719 136.32 301.282 137.394 302.605C140.038 305.861 144.383 307.336 146.948 310.648C147.561 311.436 148.08 312.351 148.899 312.924C149.386 313.265 149.953 313.467 150.542 313.51C151.131 313.553 151.721 313.435 152.25 313.168C152.78 312.901 153.229 312.495 153.553 311.992C153.877 311.489 154.063 310.907 154.092 310.307C155.089 308.814 155.904 307.166 156.68 305.542C157.828 303.063 158.799 300.502 159.583 297.88C159.872 296.954 160.15 296.021 160.518 295.12C161.426 292.897 162.872 290.884 163.383 288.535C163.588 287.592 163.638 286.613 163.936 285.698C164.203 284.877 164.66 284.133 165.268 283.53C167.281 281.537 168.365 278.633 169.966 276.287C170.616 275.339 171.291 274.393 171.721 273.321C172.151 272.248 172.315 271.02 171.915 269.936C171.514 268.852 170.467 267.977 169.333 268.038C168.825 268.091 168.333 268.245 167.883 268.491C166.32 269.247 164.886 270.253 163.636 271.472C163.09 272.007 162.573 272.573 162.088 273.167C159.723 276.045 157.872 279.538 157.71 283.287C157.655 284.572 157.756 285.998 156.955 286.993C154.744 289.743 154.034 293.524 152.149 296.516C151.276 297.896 150.275 299.325 148.783 299.954C148.562 300.062 148.319 300.111 148.074 300.096C147.478 300.027 147.136 299.388 146.884 298.832C145.901 296.664 144.763 294.572 143.479 292.574C142.972 291.785 142.413 290.977 141.602 290.514C141.048 290.2 140.406 290.06 139.885 289.694C139.159 289.183 138.78 288.314 138.402 287.5C137.179 284.87 135.63 282.411 133.794 280.182C132.954 279.163 131.847 278.111 130.55 278.263C129.315 278.41 128.56 279.733 127.395 280.228Z" fill="black"/>
<path d="M127.259 270.809C130.077 270.809 132.361 268.71 132.361 266.12C132.361 263.53 130.077 261.43 127.259 261.43C124.441 261.43 122.157 263.53 122.157 266.12C122.157 268.71 124.441 270.809 127.259 270.809Z" fill="#FBBEBE"/>
<path d="M132.044 267.027C133.059 267.027 133.881 266.189 133.881 265.156C133.881 264.123 133.059 263.285 132.044 263.285C131.03 263.285 130.207 264.123 130.207 265.156C130.207 266.189 131.03 267.027 132.044 267.027Z" fill="#FBBEBE"/>
<path d="M127.929 266.12C131.81 266.12 134.957 265.263 134.957 264.206C134.957 263.149 131.81 262.292 127.929 262.292C124.048 262.292 120.901 263.149 120.901 264.206C120.901 265.263 124.048 266.12 127.929 266.12Z" fill="#FBBEBE"/>
<path d="M121.662 263.798C121.833 264.35 121.967 264.913 122.064 265.483C121.474 264.873 120.963 264.189 120.543 263.447C120.43 263.319 120.339 263.172 120.274 263.013C119.647 261.527 119.219 260.023 119.219 258.395C119.219 256.507 119.737 254.657 120.715 253.053C121.693 251.449 123.092 250.156 124.753 249.319C126.415 248.482 128.273 248.135 130.118 248.317C131.964 248.499 133.722 249.203 135.195 250.349C136.668 251.495 137.797 253.038 138.455 254.803C139.112 256.568 139.272 258.485 138.916 260.338C138.56 262.19 137.703 263.905 136.441 265.288C135.178 266.67 133.562 267.666 131.773 268.162C132.077 267.165 132.493 266.191 132.547 265.156C132.58 264.811 132.531 264.463 132.404 264.141C132.234 263.798 131.983 263.504 131.674 263.285C130.567 262.424 129.143 262.047 127.749 262.071C126.354 262.13 124.983 262.465 123.713 263.057C123.313 263.232 122.833 263.469 122.359 263.63C122.132 263.71 121.899 263.766 121.662 263.798V263.798Z" fill="#FBBEBE"/>
<path d="M146.872 285.95C146.236 286.989 144.875 287.306 143.679 287.214C141.449 287.046 139.42 285.834 137.698 284.375C135.975 282.917 134.469 281.221 132.708 279.818C129.431 277.202 125.74 276.151 121.571 276.09C122.386 275.402 122.086 273.77 122.151 272.698C122.295 270.529 122.43 268.304 122.151 266.167C122.122 265.937 122.089 265.71 122.051 265.483C122.117 265.554 122.186 265.623 122.258 265.694C123.498 266.906 125.024 267.77 126.69 268.202C128.355 268.635 130.101 268.621 131.76 268.162C131.653 268.505 131.569 268.856 131.51 269.211C131.27 270.734 131.672 272.28 132.069 273.772C132.305 274.665 132.586 275.623 133.308 276.181C133.776 276.544 134.367 276.686 134.922 276.877C136.03 277.261 137.052 277.864 137.93 278.651C138.542 279.197 139.091 279.834 139.748 280.309C140.372 280.711 141.029 281.056 141.712 281.342C143.389 282.13 144.973 283.108 146.435 284.257C146.711 284.432 146.926 284.692 147.049 284.998C147.085 285.161 147.088 285.329 147.057 285.493C147.027 285.657 146.964 285.812 146.872 285.95V285.95Z" fill="#FBBEBE"/>
<path d="M158.306 305.049C158.172 305.948 157.363 306.65 156.792 307.348C155.24 309.256 153.666 311.17 151.93 312.916C150.072 314.783 148.032 316.447 145.994 318.111L143.35 320.265C143.023 320.569 142.641 320.803 142.225 320.955C141.738 321.079 141.223 321.016 140.777 320.78C140.6 320.693 140.432 320.588 140.276 320.466C139.728 320.032 139.326 319.441 138.933 318.86C137.144 316.201 135.354 313.542 133.562 310.882C132.923 309.932 132.296 308.956 131.672 307.98C131.589 307.854 131.51 307.726 131.427 307.6C130.858 306.713 130.29 305.826 129.708 304.968L126.522 303.449L126.104 303.252L125.61 303.017C124.954 302.704 124.288 302.384 123.742 301.899C123.22 301.399 122.784 300.812 122.455 300.163C121.818 298.962 121.26 297.72 120.787 296.443C119.432 292.96 118.24 289.329 118.189 285.58C118.145 282.282 119.101 278.852 121.253 276.431C121.547 276.098 121.864 275.786 122.2 275.497C122.614 275.144 123.042 274.937 123.574 275.014C124.106 275.091 124.611 275.17 125.122 275.258C126.532 275.505 127.93 275.808 129.317 276.165C130.567 276.49 131.862 276.861 133.126 276.603C133.329 276.561 133.531 276.502 133.732 276.449C133.896 276.406 134.059 276.364 134.227 276.337C134.321 276.32 134.415 276.31 134.51 276.305C135.182 276.27 135.826 276.544 136.446 276.814C137.628 277.33 138.846 277.874 139.736 278.824C140.266 279.396 140.655 280.098 141.221 280.636C141.975 281.355 142.982 281.724 143.888 282.238C144.063 282.337 144.231 282.447 144.393 282.568C144.75 282.84 145.075 283.155 145.361 283.504V283.504C146.534 284.913 147.23 286.816 148.525 288.217C149.562 289.337 150.462 290.579 151.208 291.917C151.33 292.14 151.448 292.365 151.564 292.593C151.758 292.974 151.938 293.36 152.104 293.75C152.147 293.851 152.189 293.947 152.228 294.052C152.472 294.643 152.684 295.246 152.865 295.86C153.304 297.348 153.597 298.954 154.572 300.149C155.253 300.979 156.198 301.529 156.993 302.244C157.506 302.686 157.909 303.245 158.17 303.874C158.314 304.248 158.361 304.652 158.306 305.049Z" fill="#FBBEBE"/>
<path opacity="0.06" d="M152.917 293.21C152.695 293.495 152.467 293.777 152.234 294.054C152.195 294.105 152.153 294.154 152.11 294.204C150.073 296.631 147.74 298.784 145.169 300.612C143.578 301.744 141.9 302.747 140.226 303.748L137.129 305.595C135.834 306.37 134.522 307.151 133.085 307.596C132.625 307.736 132.143 307.848 131.672 307.98C131.589 307.854 131.51 307.726 131.427 307.6C130.858 306.713 130.29 305.826 129.708 304.968L126.522 303.449C128.281 302.316 129.842 300.892 131.14 299.234C133.076 296.804 134.564 294.032 136.031 291.278C136.291 290.834 136.494 290.357 136.633 289.859C136.827 289.033 136.664 288.166 136.426 287.354C135.555 284.442 133.722 281.926 131.239 280.232C129.497 279.049 127.515 278.33 125.544 277.636C124.168 277.151 122.66 276.682 121.261 276.881C121.555 276.548 121.871 276.236 122.208 275.948C122.622 275.594 123.049 275.387 123.582 275.463C124.114 275.54 124.619 275.619 125.13 275.71C126.166 276.033 127.184 276.419 128.196 276.818C128.862 277.066 129.509 277.365 130.132 277.711C130.751 278.096 131.347 278.521 131.914 278.982C133.593 280.285 135.36 281.465 137.202 282.512C139.331 283.709 141.567 284.681 143.801 285.666C144.038 285.79 144.299 285.858 144.565 285.864C144.699 285.863 144.828 285.818 144.933 285.734C145.038 285.651 145.113 285.534 145.146 285.402C145.155 285.259 145.122 285.116 145.053 284.99C144.666 284.184 143.787 283.778 142.992 283.386C139.689 281.757 136.786 279.414 133.914 277.088C133.844 277.031 133.783 276.965 133.732 276.891L134.227 276.778C137.442 279.13 140.837 281.214 144.379 283.011C144.566 283.108 144.754 283.203 144.943 283.295C145.078 283.364 145.212 283.431 145.349 283.492C146.303 283.969 147.258 284.478 147.976 285.266C148.439 285.81 148.829 286.414 149.137 287.062C149.928 288.584 150.604 290.166 151.158 291.793C151.168 291.828 151.181 291.862 151.194 291.895C151.265 292.144 151.386 292.374 151.551 292.572C151.609 292.638 151.677 292.693 151.754 292.735C152.118 292.954 152.617 292.93 152.917 293.21Z" fill="black"/>
<path d="M134.235 276.337C137.449 278.688 140.844 280.772 144.387 282.568L144.95 282.853C146.034 283.394 147.163 283.93 147.985 284.825C148.448 285.37 148.838 285.974 149.147 286.622C149.938 288.144 150.613 289.726 151.165 291.353C151.289 291.714 151.434 292.11 151.764 292.296C152.093 292.481 152.615 292.467 152.907 292.747C152.644 293.082 152.377 293.413 152.1 293.733C150.063 296.161 147.731 298.315 145.159 300.143C143.568 301.274 141.89 302.278 140.216 303.279L137.119 305.126C135.824 305.899 134.512 306.679 133.076 307.125C132.536 307.293 131.965 307.419 131.417 307.58C130.848 306.693 130.281 305.806 129.698 304.949L126.094 303.23C128.03 302.114 129.717 300.527 131.127 298.763C133.062 296.335 134.551 293.563 136.018 290.809C136.278 290.365 136.48 289.887 136.62 289.39C136.813 288.564 136.651 287.695 136.413 286.883C135.541 283.98 133.714 281.472 131.239 279.78C129.497 278.598 127.515 277.88 125.544 277.184C124.168 276.701 122.66 276.23 121.261 276.431C121.555 276.098 121.871 275.786 122.208 275.497C122.622 275.144 123.049 274.937 123.582 275.014C124.114 275.091 124.619 275.17 125.13 275.258C126.166 275.584 127.184 275.97 128.196 276.368C128.862 276.616 129.509 276.914 130.132 277.261C130.751 277.647 131.347 278.071 131.914 278.533C133.595 279.832 135.365 281.009 137.21 282.053C139.339 283.252 141.575 284.231 143.808 285.207C144.045 285.331 144.307 285.399 144.573 285.404C144.706 285.405 144.836 285.359 144.942 285.276C145.047 285.192 145.122 285.075 145.154 284.943C145.162 284.8 145.13 284.658 145.061 284.533C144.674 283.727 143.795 283.319 142.999 282.928C139.697 281.3 136.794 278.954 133.922 276.62C133.851 276.565 133.79 276.498 133.74 276.423L134.235 276.337Z" fill="#71FF80"/>
<path d="M161.354 287.038C168.064 287.038 173.504 281.499 173.504 274.665C173.504 267.832 168.064 262.292 161.354 262.292C154.644 262.292 149.205 267.832 149.205 274.665C149.205 281.499 154.644 287.038 161.354 287.038Z" fill="#71FF80"/>
<path d="M173.434 323.91C175.708 323.182 178.017 322.441 180.015 321.111C181.418 320.176 182.628 318.974 183.902 317.862C184.86 317.026 185.858 316.238 186.737 315.315C187.524 314.452 188.261 313.542 188.944 312.591C190.497 310.52 192.102 308.488 193.757 306.496C194.646 305.434 195.585 304.351 196.825 303.76C199.03 302.705 201.618 303.417 203.944 304.141C207.428 305.225 210.895 306.374 214.154 308.024C216.009 308.964 217.805 310.013 219.677 310.914C223.099 312.56 226.732 313.689 230.351 314.813C230.62 314.929 230.919 314.954 231.203 314.884C231.406 314.789 231.58 314.64 231.708 314.454C232.18 313.86 232.558 313.195 232.829 312.483C232.88 312.402 232.9 312.304 232.883 312.209C232.866 312.114 232.814 312.029 232.738 311.972C231.189 310.437 229.18 309.492 227.303 308.398C225.808 307.529 224.378 306.553 222.95 305.578C221.577 304.641 220.193 303.695 219.042 302.491C218.461 301.882 217.938 301.209 217.309 300.653C216.754 300.19 216.165 299.77 215.548 299.396C212.789 297.601 210.155 295.614 207.666 293.449C205.773 291.801 204.223 289.678 202.2 288.199C200.96 287.293 199.516 286.467 197.998 286.632C196.152 286.829 194.789 288.406 193.502 289.766C189.176 294.342 183.718 297.616 178.89 301.639C174.95 304.919 171.266 308.816 166.466 310.547C166.681 311.272 166.756 311.998 166.973 312.715C167.243 313.713 167.58 314.69 167.982 315.641C168.38 316.482 168.828 317.299 169.323 318.085L171.247 321.284C171.634 321.935 172.039 322.595 172.592 323.111C172.882 323.395 173.434 323.498 173.434 323.91Z" fill="#464353"/>
<path opacity="0.06" d="M173.434 323.91C175.708 323.182 178.017 322.441 180.015 321.111C181.418 320.176 182.628 318.974 183.902 317.862C184.86 317.026 185.858 316.238 186.737 315.315C187.524 314.452 188.261 313.542 188.944 312.591C190.497 310.52 192.102 308.488 193.757 306.496C194.646 305.434 195.585 304.351 196.825 303.76C199.03 302.705 201.618 303.417 203.944 304.141C207.428 305.225 210.895 306.374 214.154 308.024C216.009 308.964 217.805 310.013 219.677 310.914C223.099 312.56 226.732 313.689 230.351 314.813C230.62 314.929 230.919 314.954 231.203 314.884C231.406 314.789 231.58 314.64 231.708 314.454C232.18 313.86 232.558 313.195 232.829 312.483C232.88 312.402 232.9 312.304 232.883 312.209C232.866 312.114 232.814 312.029 232.738 311.972C231.189 310.437 229.18 309.492 227.303 308.398C225.808 307.529 224.378 306.553 222.95 305.578C221.577 304.641 220.193 303.695 219.042 302.491C218.461 301.882 217.938 301.209 217.309 300.653C216.754 300.19 216.165 299.77 215.548 299.396C212.789 297.601 210.155 295.614 207.666 293.449C205.773 291.801 204.223 289.678 202.2 288.199C200.96 287.293 199.516 286.467 197.998 286.632C196.152 286.829 194.789 288.406 193.502 289.766C189.176 294.342 183.718 297.616 178.89 301.639C174.95 304.919 171.266 308.816 166.466 310.547C166.681 311.272 166.756 311.998 166.973 312.715C167.243 313.713 167.58 314.69 167.982 315.641C168.38 316.482 168.828 317.299 169.323 318.085L171.247 321.284C171.634 321.935 172.039 322.595 172.592 323.111C172.882 323.395 173.434 323.498 173.434 323.91Z" fill="black"/>
<path d="M226.422 320.155C226.638 320.465 226.785 320.821 226.852 321.195C226.918 321.57 226.904 321.955 226.809 322.323C227.497 322.829 228.335 323.081 229.182 323.035C230.026 322.987 230.856 322.794 231.636 322.463C232.313 322.211 232.953 321.869 233.541 321.446C234.553 320.685 235.283 319.597 235.873 318.467C236.201 317.846 236.479 317.04 236.057 316.48C235.896 316.289 235.699 316.134 235.477 316.023C233.988 315.157 232.439 314.406 230.841 313.774C230.401 313.568 229.924 313.459 229.44 313.453C228.843 313.486 228.303 313.819 227.831 314.19C226.77 315.031 225.915 316.11 225.332 317.344C225.15 317.738 224.601 318.676 224.872 319.082C224.996 319.27 225.452 319.335 225.646 319.451C225.95 319.628 226.214 319.867 226.422 320.155V320.155Z" fill="#FBBEBE"/>
<path d="M235.285 315.491C238.56 316.112 241.572 317.722 244.791 318.592C246.093 318.942 247.435 319.183 248.679 319.699C249.924 320.216 251.097 321.099 251.633 322.357C251.859 322.96 252.009 323.591 252.08 324.233C252.219 325.142 252.333 326.157 251.803 326.902C251.244 327.691 250.187 327.866 249.24 327.98C245.838 328.394 242.435 328.806 239.021 329.098C238.331 329.142 237.644 329.225 236.963 329.348C236.402 329.465 235.854 329.636 235.297 329.77C234.577 329.944 233.841 330.05 233.109 330.165C231.238 330.437 229.345 330.713 227.465 330.502C226.608 330.405 225.648 330.123 225.27 329.335C225.114 328.926 225.048 328.487 225.077 328.049C225.077 326.88 225.057 325.71 225.077 324.541C225.094 323.34 225.152 322.094 225.687 321.024C225.82 320.697 226.069 320.433 226.385 320.285C226.58 320.228 226.784 320.209 226.985 320.23C227.992 320.265 229.033 320.308 229.933 320.766C230.647 321.127 231.162 320.048 231.89 320.372C233.27 320.992 232.335 319.11 233.729 319.695C234.054 318.674 235.436 319.281 235.196 318.235C234.956 317.188 235.817 317.643 235.719 316.567C235.714 316.332 235.67 316.1 235.587 315.881C235.479 315.67 235.513 315.457 235.285 315.491Z" fill="#464353"/>
<path opacity="0.06" d="M137.183 252.422C136.432 252.867 135.501 252.785 134.626 252.765C133.861 252.749 133.096 252.789 132.336 252.885C132.063 252.905 131.795 252.977 131.549 253.098C131.227 253.309 130.973 253.611 130.817 253.967C130.507 254.573 130.298 255.227 130.199 255.903C130.091 256.662 130.103 257.492 129.638 258.093C129.005 258.911 128.018 258.785 127.122 258.947C126.342 259.099 125.594 259.39 124.913 259.806C124.242 260.219 123.666 260.775 123.224 261.435C122.783 262.095 122.486 262.845 122.355 263.632C122.329 263.812 122.312 263.989 122.304 264.168C122.285 264.677 122.335 265.195 122.269 265.694C122.253 265.819 122.229 265.942 122.196 266.063C122.187 266.098 122.176 266.133 122.163 266.167C122.134 265.937 122.101 265.71 122.062 265.483C121.472 264.873 120.961 264.189 120.541 263.447C120.428 263.319 120.337 263.172 120.272 263.013C119.645 261.527 119.217 260.023 119.217 258.395C119.217 256.259 119.88 254.179 121.111 252.45C122.342 250.722 124.078 249.434 126.072 248.772C128.065 248.109 130.213 248.105 132.208 248.761C134.203 249.416 135.944 250.698 137.181 252.422H137.183Z" fill="black"/>
<path d="M137.82 248.543C137.322 247.37 136.271 246.538 135.191 245.885C133.062 244.592 130.612 243.78 128.126 243.747C126.873 243.747 125.622 243.879 124.395 244.141C123.199 244.359 122.027 244.697 120.897 245.152C119.033 245.942 117.385 247.181 116.095 248.763C115.824 248.784 115.555 248.828 115.292 248.895C114.239 249.164 113.29 249.753 112.425 250.421C111.701 250.955 111.058 251.595 110.517 252.319C109.883 253.245 109.445 254.294 109.23 255.4C108.492 258.862 109.4 262.434 110.066 265.909C110.732 269.384 111.121 273.181 109.485 276.303C108.868 277.486 107.991 278.491 107.333 279.642C106.675 280.794 106.237 282.179 106.611 283.457C107.056 285.01 108.554 285.996 109.336 287.393C109.815 288.307 109.986 289.357 109.823 290.379C109.659 291.402 109.171 292.342 108.432 293.055C109.661 293.488 111.03 293.021 112.137 292.327C113.015 291.807 113.761 291.085 114.318 290.22C115.71 287.925 115.092 284.963 115.576 282.311C116.221 278.842 118.822 275.747 118.464 272.235C118.222 269.869 116.689 267.908 115.483 265.879C114.679 264.527 114.003 263.099 113.465 261.616C113.077 260.557 112.764 259.42 112.955 258.308C113.019 257.969 113.121 257.638 113.259 257.322C113.259 257.36 113.259 257.397 113.259 257.435C113.281 258.456 113.507 259.462 113.921 260.392C115.361 263.388 119.196 264.492 120.82 267.387C121.294 266.861 121.787 266.309 121.981 265.623C122.151 265.012 122.064 264.362 122.089 263.727C122.157 261.953 123.216 260.281 124.699 259.367C125.379 258.95 126.127 258.659 126.907 258.509C127.801 258.345 128.788 258.47 129.423 257.652C129.888 257.06 129.876 256.22 129.987 255.464C130.085 254.787 130.293 254.132 130.604 253.526C130.759 253.17 131.014 252.868 131.336 252.658C131.583 252.536 131.851 252.464 132.125 252.446C132.884 252.349 133.649 252.309 134.413 252.325C135.298 252.347 136.244 252.428 137.003 251.965C138.071 251.302 138.317 249.725 137.82 248.543Z" fill="#464353"/>
<path opacity="0.06" d="M245.981 237.662C245.981 237.689 245.981 237.715 245.981 237.742C245.631 240.817 242.727 240.675 242.05 245.521C241.783 247.419 238.953 247.77 237.093 248.28C236.29 248.004 235.477 247.766 234.673 247.468C232.815 246.784 234.114 245.757 234.909 244.653C237.513 241.038 238.006 236.098 240.962 232.777C242.046 234.874 243.761 236.563 245.855 237.596C245.896 237.624 245.938 237.644 245.981 237.662Z" fill="black"/>
<path d="M246.049 235.897C246.048 236.364 246.023 236.83 245.971 237.293C245.615 240.493 244.047 243.426 241.601 245.468C239.154 247.51 236.023 248.5 232.871 248.227C229.72 247.955 226.797 246.441 224.724 244.009C222.651 241.576 221.591 238.416 221.769 235.2C221.947 231.984 223.35 228.966 225.679 226.787C228.008 224.608 231.08 223.439 234.241 223.53C237.403 223.621 240.405 224.963 242.61 227.273C244.815 229.582 246.048 232.676 246.049 235.897V235.897Z" fill="#A1616A"/>
<path d="M250.936 237.281C252.328 237.212 253.665 237.768 254.95 238.314C260.047 240.482 265.186 242.668 269.74 245.852C271.985 247.429 274.066 249.219 276.143 251.015L284.677 258.399C286.316 259.816 287.967 261.247 289.283 262.982C290.058 264.052 290.765 265.171 291.399 266.333L292.665 268.531C293.183 269.391 293.636 270.291 294.02 271.221C294.67 272.919 294.912 274.898 296.224 276.138C297.105 276.971 298.318 277.31 299.395 277.86C300.471 278.41 301.524 279.376 301.506 280.602C301.506 281.391 301.038 282.101 300.686 282.81C299.956 284.293 299.65 285.955 299.803 287.606L285.848 276.745C285.292 276.313 284.711 275.868 284.028 275.722C283.142 275.525 282.238 275.866 281.382 276.173C274.638 278.595 267.471 279.555 260.341 278.99C257.188 278.738 253.986 278.16 251.226 276.589C249.699 275.722 248.348 274.572 247.007 273.435C245.332 272.008 243.652 270.577 242.168 268.945C241.781 268.509 241.378 268.03 241.279 267.447C241.206 267.025 241.297 266.595 241.332 266.169C241.576 263.179 239.137 260.689 238.393 257.786C238.063 256.417 238.109 254.981 238.526 253.637C238.943 252.292 239.714 251.091 240.757 250.163C242.419 251.645 242.359 254.249 242.166 256.491C241.905 259.508 242.733 261.005 242.472 264.025C243.525 263.985 243.333 264.675 243.782 263.703C244.231 262.731 244.318 261.635 244.403 260.565C244.714 256.694 245.092 252.829 245.536 248.97C245.756 247.041 246.008 245.115 246.25 243.187C246.397 242.014 246.378 240.918 246.985 239.877C247.829 238.436 249.264 237.362 250.936 237.281Z" fill="#71FF80"/>
<path d="M252.757 240.798C253.644 240.514 254.598 240.774 255.488 241.044C257.063 241.52 258.628 242.022 260.184 242.552C261.456 242.984 262.745 243.447 263.821 244.261C264.938 245.105 265.757 246.278 266.568 247.431C267.148 248.261 267.729 249.1 268.116 250.043C268.619 251.277 268.755 252.629 268.89 253.957C268.979 254.531 268.972 255.115 268.869 255.686C268.687 256.306 268.367 256.875 267.934 257.348C267.268 258.151 266.495 258.856 265.638 259.443C263.36 261.005 260.606 261.655 257.923 262.229C255.529 262.739 253.117 263.214 250.675 263.368C249.724 263.429 248.621 263.368 248.04 262.603C247.875 262.365 247.745 262.103 247.653 261.827C246.226 257.977 245.608 253.865 245.84 249.757C245.861 249.008 245.974 248.265 246.178 247.545C246.379 246.969 246.629 246.412 246.924 245.879C247.657 244.466 248.429 243.003 249.693 242.057C251.015 241.072 252.728 240.76 254.368 240.823" fill="#A1616A"/>
<path opacity="0.06" d="M261.675 255.416C260.914 255.939 260.649 256.948 260.552 257.878C260.14 261.834 261.742 265.751 261.636 269.727C261.551 272.881 260.393 275.909 259.251 278.852C257.304 283.873 256.29 289.325 255.897 294.708C255.504 300.092 254.929 305.698 252.092 310.251C251.447 311.282 250.696 312.24 250.065 313.277C249.403 314.361 248.878 315.524 248.294 316.652C246.572 319.982 244.352 323.019 241.713 325.654C240.939 326.423 240.118 327.168 239.131 327.612C238.495 327.893 237.81 328.042 237.116 328.049C236.423 328.056 235.735 327.923 235.093 327.655C233.769 327.097 232.655 325.84 232.6 324.381C232.552 323.076 233.317 321.899 234.083 320.854C236.681 317.315 239.668 314.09 242.987 311.243C243.589 310.726 244.223 310.192 244.535 309.455C244.885 308.605 244.742 307.641 244.787 306.721C244.858 305.252 245.42 303.859 245.754 302.428C247.109 296.615 244.702 290.267 246.66 284.635C247.096 283.384 247.742 282.187 247.895 280.868C248.004 279.946 247.777 278.915 247.212 278.223C246.681 277.601 246.383 276.808 246.372 275.984C246.372 275.814 246.372 275.647 246.393 275.481C246.629 272.901 246.864 270.309 246.736 267.721C246.608 265.132 246.103 262.53 244.93 260.23C244.322 259.037 243.536 257.922 243.161 256.634C242.557 254.551 243.114 252.298 244.014 250.327C244.717 248.785 245.654 247.317 246.962 246.26C249.393 244.299 253.032 244.072 255.694 245.694C257.656 246.889 259 248.897 260.089 250.946C260.871 252.442 261.696 253.709 261.675 255.416Z" fill="black"/>
<path d="M262.116 255.416C261.355 255.939 261.09 256.948 260.993 257.878C260.581 261.834 262.184 265.751 262.077 269.727C261.992 272.881 260.834 275.909 259.692 278.852C257.745 283.873 256.733 289.325 256.338 294.708C255.943 300.092 255.37 305.698 252.533 310.251C251.888 311.282 251.139 312.24 250.506 313.277C249.846 314.361 249.32 315.524 248.735 316.652C247.012 319.982 244.792 323.019 242.154 325.654C241.38 326.423 240.557 327.168 239.57 327.612C238.934 327.893 238.249 328.042 237.556 328.049C236.862 328.056 236.175 327.923 235.533 327.655C234.211 327.097 233.096 325.84 233.042 324.381C232.991 323.076 233.756 321.899 234.524 320.854C237.122 317.315 240.109 314.09 243.428 311.243C244.03 310.726 244.667 310.192 244.976 309.455C245.329 308.605 245.183 307.641 245.228 306.721C245.3 305.252 245.861 303.859 246.196 302.428C247.551 296.615 245.143 290.267 247.102 284.635C247.537 283.384 248.186 282.187 248.338 280.868C248.445 279.946 248.22 278.915 247.655 278.223C247.114 277.605 246.808 276.811 246.792 275.984C246.792 275.814 246.792 275.647 246.813 275.481C247.047 272.901 247.282 270.309 247.154 267.721C247.026 265.132 246.521 262.53 245.348 260.23C244.74 259.037 243.954 257.922 243.579 256.634C242.975 254.551 243.532 252.298 244.432 250.327C245.137 248.785 246.072 247.317 247.38 246.26C249.811 244.299 253.45 244.072 256.112 245.694C258.074 246.889 259.418 248.897 260.507 250.946C261.309 252.442 262.129 253.709 262.116 255.416Z" fill="#A1616A"/>
<path d="M281.69 306.89L281.524 306.942Z" fill="#464353"/>
<path d="M247.789 315.686C247.796 315.62 247.808 315.554 247.824 315.489Z" fill="#464353"/>
<path d="M289.287 302.16C289.845 301.503 290.704 301.209 291.53 300.991C292.862 300.64 294.223 300.414 295.595 300.316C296.447 300.223 297.308 300.277 298.142 300.476C298.967 300.707 299.749 301.207 300.167 301.966C300.537 302.637 300.595 303.433 300.643 304.2C300.744 305.777 300.837 307.354 300.581 308.907C300.417 309.893 300.109 310.847 299.91 311.824C299.263 315.03 299.824 318.347 299.766 321.619C299.753 322.317 299.708 323.033 299.42 323.665C299.112 324.338 298.559 324.848 298.018 325.353C297.424 325.899 296.82 326.449 296.104 326.813C295.044 327.356 293.822 327.446 292.636 327.484C291.914 327.505 291.17 327.507 290.507 327.237C289.843 326.967 289.245 326.36 289.196 325.625C289.119 324.377 290.501 323.561 290.896 322.378C291.209 321.436 290.849 320.395 290.35 319.538C289.549 318.171 288.406 317.045 287.038 316.275C286.531 315.991 285.991 315.753 285.569 315.353C285.147 314.953 284.86 314.332 285.04 313.776C285.255 313.104 286.024 312.79 286.715 312.723C287.406 312.656 288.135 312.707 288.757 312.394C289.31 312.116 289.696 311.58 289.961 311.014C290.525 309.807 290.604 308.422 290.179 307.157C290.012 306.675 289.768 306.224 289.459 305.822C289.169 305.444 288.573 305.124 288.366 304.71C287.998 303.965 288.794 302.751 289.287 302.16Z" fill="#71FF80"/>
<path opacity="0.06" d="M278.04 273.593C274.842 270.715 270.384 269.932 266.204 269.059C264.05 268.611 261.907 268.111 259.774 267.561C258.372 267.198 256.967 266.812 255.516 266.711C254.064 266.611 252.57 266.818 251.327 267.571C250.084 268.324 249.147 269.688 249.14 271.16C249.14 271.752 249.277 272.331 249.235 272.917C249.167 273.859 248.654 274.691 248.304 275.572C247.768 276.965 247.686 278.496 248.069 279.94C248.689 282.24 250.473 284.267 250.319 286.642C250.061 290.618 250.14 294.773 250.942 298.667C251.743 302.56 252.744 306.471 252.721 310.454C252.697 314.438 251.513 318.627 248.592 321.28C250.571 323.173 252.991 324.519 255.624 325.193C257.875 325.767 260.552 325.71 262.154 324.001C262.526 323.606 262.834 323.08 262.756 322.538C262.677 322.196 262.536 321.872 262.34 321.582C261.239 319.573 261.373 317.097 261.86 314.854C262.348 312.611 263.182 310.431 263.393 308.14C263.548 306.478 263.374 304.789 263.686 303.149C263.926 301.893 264.444 300.711 264.756 299.471C265.675 295.793 264.709 291.931 263.749 288.266C264.553 290.149 266.072 291.617 267.644 292.895C270.028 294.831 272.912 296.54 275.943 296.197C278.642 295.889 280.939 293.979 282.524 291.738C282.538 289.146 283.421 286.695 283.264 284.109C283.163 282.973 282.963 281.848 282.668 280.748C282.371 279.518 282.068 278.276 281.506 277.147C280.765 275.647 279.275 274.703 278.04 273.593Z" fill="black"/>
<path d="M278.702 273.593C275.504 270.715 271.048 269.932 266.866 269.059C264.712 268.611 262.569 268.111 260.438 267.561C259.036 267.198 257.629 266.812 256.179 266.711C254.73 266.611 253.235 266.818 251.993 267.571C250.75 268.324 249.811 269.688 249.806 271.16C249.806 271.752 249.941 272.331 249.898 272.917C249.833 273.859 249.308 274.691 248.967 275.572C248.432 276.965 248.351 278.496 248.735 279.94C249.353 282.24 251.137 284.267 250.984 286.642C250.725 290.618 250.804 294.773 251.606 298.667C252.407 302.56 253.408 306.471 253.384 310.454C253.361 314.438 252.169 318.613 249.246 321.263C251.225 323.154 253.646 324.501 256.278 325.175C258.529 325.749 261.208 325.692 262.809 323.983C263.18 323.589 263.488 323.062 263.411 322.52C263.331 322.178 263.19 321.854 262.995 321.564C261.893 319.555 262.027 317.08 262.514 314.836C263.002 312.593 263.836 310.413 264.049 308.122C264.202 306.461 264.028 304.771 264.342 303.131C264.58 301.876 265.1 300.693 265.41 299.453C266.329 295.775 265.366 291.913 264.404 288.249C265.207 290.131 266.726 291.6 268.3 292.877C270.684 294.813 273.567 296.522 276.598 296.179C279.296 295.871 281.593 293.961 283.179 291.72C283.19 289.128 284.073 286.678 283.916 284.091C283.815 282.955 283.615 281.831 283.32 280.73C283.026 279.5 282.72 278.259 282.158 277.129C281.438 275.647 279.936 274.703 278.702 273.593Z" fill="#A1616A"/>
<path d="M256.489 323.336C255.069 322.455 253.843 321.286 252.887 319.9C252.542 319.404 252.233 318.875 251.803 318.454C251.373 318.032 250.791 317.718 250.197 317.781C249.525 317.852 248.987 318.373 248.561 318.909C247.419 320.35 246.684 322.112 245.416 323.443C243.952 324.982 241.91 325.808 239.872 326.336C237.834 326.865 235.73 327.143 233.733 327.811C233.106 328.02 232.446 328.304 232.107 328.881C231.677 329.616 231.913 330.58 232.366 331.31C233.2 332.69 234.637 333.579 236.135 334.107C237.633 334.635 239.218 334.846 240.78 335.158C243.54 335.708 246.368 336.589 249.115 335.968C250.21 335.719 251.244 335.238 252.351 335.029C254.867 334.552 257.463 335.516 259.989 335.13C261.21 334.943 262.363 334.446 263.473 333.886C264.029 333.641 264.534 333.291 264.963 332.855C265.367 332.398 265.611 331.749 265.445 331.158C265.35 330.817 265.131 330.529 264.986 330.208C264.758 329.711 264.711 329.153 264.657 328.607C264.448 326.529 264.094 324.468 263.596 322.441C263.424 321.734 263.167 320.945 262.518 320.636C262.386 320.563 262.231 320.545 262.087 320.586C261.856 320.675 261.781 320.959 261.711 321.197C261.521 321.857 261.157 322.451 260.659 322.914C260.161 323.378 259.548 323.694 258.886 323.828C258.224 323.961 257.539 323.908 256.905 323.673C256.271 323.438 255.712 323.03 255.289 322.495" fill="#71FF80"/>
<path opacity="0.06" d="M246.049 235.897C246.048 236.364 246.023 236.83 245.971 237.293C245.361 237.386 244.738 237.331 244.153 237.133C243.568 236.934 243.037 236.598 242.603 236.152C242.195 235.71 241.889 235.176 241.485 234.73C241.08 234.285 240.517 233.914 239.936 233.962C239.441 233.999 239.011 234.318 238.672 234.689C238.231 235.171 237.909 235.753 237.73 236.386C237.6 236.834 237.536 237.342 237.172 237.64C236.808 237.937 236.361 237.918 235.93 237.902C235.37 237.882 234.79 237.855 234.296 237.587C233.367 237.076 233.053 235.907 232.709 234.89C232.128 233.181 230.822 229.948 228.791 229.603C227.823 229.44 226.647 229.96 225.888 230.522C224.744 231.367 223.9 231.915 222.421 231.892C223.354 229.121 225.221 226.777 227.691 225.276C230.161 223.775 233.073 223.215 235.91 223.696C238.747 224.176 241.325 225.666 243.185 227.9C245.045 230.135 246.067 232.968 246.068 235.897H246.049Z" fill="black"/>
<path d="M222.404 231.44C222.055 231.448 221.707 231.392 221.378 231.275C220.439 230.9 219.982 229.796 219.903 228.773C219.779 227.214 220.29 225.684 220.803 224.208C220.912 223.887 221.041 223.542 221.324 223.362C221.553 223.248 221.803 223.184 222.057 223.175C223.447 222.978 224.653 222.113 225.679 221.143C226.705 220.173 227.63 219.073 228.776 218.265C231.815 216.13 236.324 216.528 238.953 219.162C239.994 220.203 240.888 221.614 242.332 221.858C243.165 221.998 244.057 221.707 244.849 222.022C245.429 222.253 245.844 222.775 246.176 223.309C247.256 225.036 247.764 227.082 247.932 229.122C248.1 231.162 247.946 233.214 247.789 235.255C247.798 235.56 247.72 235.862 247.566 236.124C247.442 236.275 247.287 236.396 247.111 236.479C246.375 236.848 245.544 236.972 244.735 236.834C243.926 236.695 243.18 236.301 242.603 235.706C242.193 235.267 241.889 234.732 241.485 234.285C241.08 233.837 240.517 233.471 239.936 233.518C239.443 233.556 239.009 233.875 238.672 234.245C238.231 234.728 237.909 235.309 237.73 235.943C237.602 236.39 237.536 236.899 237.172 237.194C236.808 237.49 236.361 237.474 235.928 237.459C235.37 237.437 234.79 237.411 234.296 237.141C233.365 236.633 233.051 235.464 232.709 234.446C232.128 232.737 230.824 229.503 228.791 229.16C227.823 228.994 226.647 229.517 225.888 230.078C224.727 230.918 223.89 231.466 222.404 231.44Z" fill="#464353"/>
<path opacity="0.06" d="M158.306 305.049C158.172 305.948 157.363 306.65 156.792 307.348C155.24 309.256 153.666 311.17 151.93 312.916C150.072 314.783 148.032 316.447 145.994 318.111L143.35 320.265C143.023 320.569 142.641 320.803 142.225 320.955C141.738 321.079 141.223 321.016 140.777 320.78C140.816 320.701 140.857 320.628 140.901 320.555L144.072 315.144C144.695 314.083 145.103 313.117 145.814 312.122C146.884 310.632 147.964 309.134 149.282 307.87C150.949 306.271 153.086 305.11 155.068 303.955C155.354 303.08 156.554 302.838 157.365 303.252C157.666 303.41 157.936 303.622 158.164 303.876C158.31 304.249 158.358 304.653 158.306 305.049V305.049Z" fill="black"/>
<path d="M144.292 315.367L141.122 320.78C140.992 320.998 140.859 321.247 140.915 321.495C140.986 321.704 141.122 321.883 141.302 322.006C142.517 323.013 143.865 324.075 144.246 325.623C144.519 326.727 144.246 327.909 144.49 329.017C144.937 331.016 146.909 332.23 148.775 332.999C152.956 334.722 157.597 335.384 162.039 334.576C166.482 333.768 170.697 331.465 173.573 327.925C174.456 326.837 175.211 325.646 176.049 324.523C178.372 321.418 181.32 318.869 184.244 316.346C188.009 313.098 190.227 308.253 193.535 304.519C194.137 303.839 194.801 303.139 195.664 302.915C196.148 302.79 196.825 302.974 196.845 303.482C196.889 304.468 197.667 305.274 198.2 306.098C200.205 309.22 202.303 312.439 205.402 314.43C207.097 315.522 209.019 316.191 210.936 316.796C215.794 318.337 220.747 319.555 225.694 320.762C225.944 320.253 226.244 319.772 226.589 319.325C227.101 318.684 227.777 318.195 228.292 317.551C229.234 316.39 229.565 314.854 229.867 313.38C226.912 311.537 223.879 309.634 220.964 307.718C219.497 306.756 218.02 305.773 216.831 304.472C216.057 303.616 215.407 302.637 214.631 301.775C213.837 300.939 212.981 300.166 212.072 299.463L205.104 293.78C203.102 292.15 201.062 290.429 199.104 288.742C198.002 287.791 196.781 286.792 195.341 286.747C194.108 286.707 192.974 287.379 191.913 288.026C185.683 291.825 179.36 295.453 172.944 298.911C171.646 299.609 170.341 300.303 169.102 301.105C166.692 302.666 164.552 304.623 162.769 306.896C162.442 307.312 162.028 307.785 161.509 307.722C161.367 307.701 161.229 307.652 161.105 307.578C160.305 307.143 159.815 306.301 159.363 305.503C158.91 304.704 158.404 303.865 157.593 303.451C156.782 303.037 155.584 303.279 155.296 304.156C153.304 305.345 151.175 306.496 149.507 308.095C148.189 309.358 147.109 310.855 146.038 312.347C145.324 313.342 144.914 314.308 144.292 315.367Z" fill="#464353"/>
<path opacity="0.06" d="M139.099 282.353C139.099 282.353 142.287 283.794 144.573 285.42Z" fill="black"/>
<path d="M298.756 285.316C298.814 287.155 298.861 288.998 298.839 290.835C298.828 291.809 298.787 292.824 298.328 293.677C298.001 294.29 297.484 294.769 296.973 295.239L293.785 298.182C292.796 299.094 291.73 300.046 290.412 300.273C288.904 300.533 287.431 299.786 285.981 299.287C284.521 298.787 282.993 298.525 281.452 298.513C280.569 298.513 279.679 298.584 278.808 298.442C278.178 298.32 277.56 298.141 276.962 297.908L274.083 296.89C274.165 296.151 274.858 295.68 275.438 295.213C277.5 293.51 278.404 290.772 279.054 288.152C279.583 286.107 279.959 284.024 280.18 281.921C280.279 280.88 280.324 279.822 280.109 278.799C279.906 277.973 279.621 277.172 279.257 276.406L278.245 274.082C277.664 272.769 276.503 272.185 275.32 271.411C277.105 272.101 279.28 272.371 280.637 273.739C280.899 274.042 281.209 274.298 281.555 274.496C281.924 274.675 282.344 274.693 282.749 274.76C284.764 275.067 286.477 276.356 288.141 277.549C290.179 279.01 292.273 280.383 294.424 281.667C295.392 282.246 296.391 282.816 297.206 283.607C298.02 284.397 298.659 285.45 298.711 286.595" fill="#464353"/>
<path opacity="0.06" d="M125.182 282.087C122.645 282.597 121.325 285.635 121.474 288.262C121.617 290.609 122.564 292.831 124.149 294.541C125.208 295.674 126.528 296.549 127.484 297.774C128.897 299.579 129.388 301.966 130.652 303.884C131.57 305.276 132.857 306.368 134.136 307.415C137.086 309.812 140.132 312.081 143.274 314.221C144.552 315.091 145.949 315.97 147.486 315.936C148.934 315.905 150.267 315.039 151.212 313.92C152.156 312.8 152.76 311.44 153.374 310.1C155.584 305.191 157.81 300.23 158.867 294.939C159.198 293.277 159.421 291.564 160.16 290.044C160.741 288.862 161.6 287.849 162.367 286.78C164.177 284.245 165.448 281.352 166.098 278.288C166.52 276.289 166.662 274.149 165.969 272.237C165.276 270.324 163.594 268.667 161.59 268.517C160.005 268.399 158.449 269.226 157.384 270.431C156.32 271.635 155.693 273.175 155.265 274.734C154.652 276.977 154.416 279.31 154.568 281.633C154.692 283.508 155.068 285.4 154.75 287.253C154.526 288.56 153.966 289.78 153.413 290.983C151.982 294.085 150.529 297.228 148.367 299.853C147.662 300.709 146.692 301.574 145.614 301.373C144.124 301.097 143.729 299.175 142.993 297.825C142.092 296.169 140.38 295.174 139.039 293.859C137.131 291.986 135.987 289.475 134.63 287.157C133.273 284.838 131.518 282.55 129.017 281.661C126.516 280.772 123.183 281.913 122.54 284.531" fill="black"/>
<path opacity="0.06" d="M127.097 283.886C124.557 284.397 121.325 284.73 121.484 287.362C121.625 289.709 122.572 291.931 124.159 293.64C125.217 294.775 126.537 295.651 127.494 296.875C128.906 298.68 129.398 301.066 130.662 302.985C131.58 304.379 132.867 305.471 134.146 306.516C137.096 308.914 140.142 311.183 143.284 313.323C144.561 314.194 145.959 315.073 147.496 315.039C148.943 315.008 150.277 314.141 151.222 313.023C152.166 311.905 152.77 310.543 153.384 309.201C155.594 304.292 157.82 299.331 158.877 294.04C159.208 292.38 159.43 290.665 160.17 289.148C160.75 287.965 161.61 286.952 162.376 285.881C164.187 283.347 165.458 280.455 166.108 277.391C166.53 275.391 166.671 273.252 165.978 271.338C165.285 269.424 163.603 267.77 161.6 267.618C160.015 267.5 158.459 268.33 157.394 269.532C156.33 270.735 155.702 272.276 155.275 273.837C154.661 276.08 154.426 278.413 154.578 280.736C154.702 282.613 155.077 284.505 154.76 286.356C154.535 287.665 153.976 288.885 153.422 290.088C151.992 293.191 150.538 296.331 148.376 298.958C147.672 299.814 146.702 300.677 145.624 300.478C144.134 300.2 143.739 298.278 143.003 296.93C142.101 295.274 140.39 294.279 139.049 292.964C137.14 291.093 135.996 288.58 134.64 286.262C133.283 283.944 131.527 281.657 129.027 280.766C126.526 279.875 129.657 285.582 129.013 288.199" fill="black"/>
<path d="M125.182 281.635C122.645 282.146 121.325 285.183 121.474 287.811C121.617 290.159 122.563 292.381 124.149 294.091C125.208 295.225 126.528 296.1 127.484 297.324C128.897 299.13 129.388 301.517 130.652 303.435C131.57 304.829 132.857 305.921 134.136 306.967C137.086 309.364 140.132 311.633 143.274 313.772C144.552 314.643 145.949 315.522 147.486 315.489C148.934 315.457 150.267 314.592 151.212 313.472C152.156 312.353 152.76 310.993 153.374 309.652C155.584 304.744 157.81 299.782 158.867 294.49C159.198 292.83 159.421 291.115 160.16 289.597C160.741 288.414 161.6 287.401 162.367 286.331C164.178 283.796 165.449 280.905 166.098 277.841C166.52 275.84 166.662 273.701 165.969 271.787C165.276 269.873 163.594 268.219 161.59 268.069C160.005 267.949 158.449 268.779 157.384 269.983C156.32 271.188 155.693 272.727 155.265 274.287C154.652 276.53 154.416 278.863 154.568 281.186C154.692 283.06 155.068 284.953 154.75 286.804C154.526 288.113 153.966 289.333 153.413 290.535C151.982 293.638 150.529 296.78 148.367 299.406C147.662 300.261 146.692 301.125 145.614 300.926C144.124 300.648 143.729 298.728 142.993 297.377C142.092 295.72 140.38 294.724 139.039 293.411C137.131 291.539 135.987 289.027 134.63 286.709C133.273 284.391 131.518 282.104 129.017 281.215C126.516 280.326 123.183 281.468 122.54 284.086" fill="#FBBEBE"/>
<g opacity="0.06">
<path opacity="0.06" d="M115.483 265.889C114.679 264.537 114.003 263.109 113.465 261.626L113.399 261.428C112.99 260.982 112.647 260.478 112.379 259.932C111.964 259.002 111.739 257.997 111.717 256.975C111.717 256.938 111.717 256.901 111.717 256.863C111.578 257.179 111.476 257.509 111.413 257.849C111.219 258.96 111.539 260.096 111.922 261.156C112.461 262.64 113.137 264.067 113.941 265.42C115.143 267.466 116.678 269.437 116.916 271.785C117.274 275.298 114.672 278.391 114.03 281.862C113.538 284.513 114.161 287.476 112.77 289.77C112.213 290.636 111.467 291.357 110.588 291.876C110.038 292.233 109.435 292.499 108.802 292.664C108.686 292.804 108.562 292.935 108.43 293.058C109.659 293.492 111.028 293.025 112.135 292.331C113.013 291.811 113.76 291.089 114.316 290.224C115.708 287.929 115.09 284.967 115.574 282.315C116.219 278.846 118.82 275.751 118.462 272.239C118.222 269.877 116.689 267.908 115.483 265.889Z" fill="black"/>
<path opacity="0.06" d="M137.82 248.543C137.322 247.37 136.271 246.538 135.191 245.885C133.822 245.049 132.332 244.437 130.776 244.072C131.775 244.427 132.736 244.883 133.645 245.434C134.725 246.088 135.774 246.918 136.275 248.093C136.777 249.268 136.527 250.853 135.451 251.507C134.692 251.971 133.745 251.888 132.861 251.868C132.096 251.85 131.332 251.89 130.573 251.986C130.299 252.006 130.031 252.079 129.783 252.199C129.46 252.412 129.206 252.717 129.052 253.076C128.74 253.683 128.531 254.337 128.432 255.014C128.324 255.771 128.334 256.601 127.869 257.202C127.238 258.02 126.251 257.896 125.353 258.058C124.573 258.21 123.825 258.501 123.144 258.917C121.662 259.83 120.603 261.497 120.535 263.277C120.512 263.912 120.597 264.561 120.429 265.172C120.32 265.528 120.15 265.862 119.926 266.157C120.268 266.531 120.568 266.943 120.82 267.385C121.294 266.859 121.788 266.307 121.981 265.621C122.151 265.01 122.064 264.36 122.089 263.725C122.157 261.951 123.216 260.279 124.699 259.365C125.379 258.948 126.127 258.657 126.907 258.507C127.801 258.343 128.788 258.468 129.423 257.65C129.888 257.058 129.876 256.218 129.987 255.462C130.085 254.785 130.293 254.13 130.604 253.524C130.759 253.168 131.014 252.866 131.336 252.657C131.583 252.534 131.851 252.462 132.125 252.444C132.884 252.347 133.649 252.307 134.413 252.323C135.298 252.345 136.244 252.426 137.003 251.963C138.071 251.302 138.317 249.725 137.82 248.543Z" fill="black"/>
</g>
<path opacity="0.06" d="M125.146 267.378C125.146 267.378 127.432 269.38 131.773 268.166C131.773 268.162 129.085 269.24 125.146 267.378Z" fill="black"/>
<path opacity="0.06" d="M247.746 233.591C247.751 233.895 247.67 234.195 247.514 234.454C247.39 234.605 247.235 234.726 247.059 234.807C246.324 235.177 245.493 235.302 244.684 235.163C243.875 235.025 243.129 234.631 242.553 234.036C242.143 233.595 241.839 233.051 241.434 232.615C241.03 232.18 240.466 231.799 239.886 231.846C239.392 231.886 238.961 232.205 238.622 232.574C238.183 233.058 237.861 233.639 237.679 234.271C237.553 234.72 237.486 235.227 237.124 235.525C236.762 235.822 236.313 235.803 235.879 235.787C235.32 235.767 234.739 235.742 234.248 235.471C233.317 234.963 233.003 233.792 232.658 232.777C232.078 231.066 230.773 227.833 228.743 227.488C227.775 227.324 226.596 227.847 225.839 228.407C224.696 229.252 223.852 229.8 222.371 229.787C222.022 229.793 221.675 229.737 221.345 229.621C220.493 229.28 220.039 228.338 219.901 227.403C219.849 227.832 219.838 228.264 219.868 228.694C219.95 229.716 220.406 230.819 221.345 231.196C221.675 231.312 222.022 231.368 222.371 231.362C223.852 231.385 224.694 230.837 225.839 229.992C226.6 229.432 227.775 228.907 228.743 229.073C230.765 229.408 232.082 232.641 232.651 234.35C232.995 235.367 233.309 236.538 234.24 237.046C234.731 237.315 235.312 237.342 235.871 237.362C236.305 237.378 236.781 237.38 237.116 237.1C237.451 236.82 237.546 236.293 237.672 235.846C237.852 235.214 238.175 234.633 238.614 234.149C238.953 233.78 239.388 233.461 239.878 233.421C240.474 233.374 241.039 233.743 241.427 234.19C241.814 234.638 242.135 235.176 242.545 235.611C243.122 236.206 243.867 236.6 244.676 236.738C245.485 236.877 246.316 236.752 247.051 236.382C247.226 236.3 247.382 236.179 247.506 236.029C247.663 235.769 247.743 235.469 247.738 235.164C247.89 233.504 247.954 231.836 247.932 230.169C247.916 231.31 247.833 232.452 247.746 233.591Z" fill="black"/>
<path d="M113.383 317.683C113.383 317.683 113.691 317.334 113.112 317.196V316.622H113.461C113.46 315.929 113.226 315.257 112.797 314.719C112.368 314.181 111.771 313.809 111.105 313.665V312.97H111.196V312.065H108.957V312.97H109.021V313.673C108.361 313.824 107.772 314.199 107.349 314.736C106.927 315.274 106.697 315.942 106.698 316.63H107.006V317.18C107.006 317.18 106.272 317.533 107.006 318.166C107.739 318.798 107.625 319.256 107.625 319.256C107.625 319.256 107.317 320.439 106.7 320.592V331.558C106.7 331.878 106.761 332.195 106.881 332.491C107.001 332.787 107.178 333.056 107.4 333.282C107.622 333.509 107.886 333.688 108.176 333.811C108.467 333.933 108.778 333.997 109.092 333.997H110.983C111.618 333.997 112.227 333.74 112.676 333.282C113.125 332.825 113.377 332.205 113.377 331.558V320.592C113.377 320.592 112.296 319.766 112.489 319.256C112.749 318.71 113.048 318.184 113.383 317.683V317.683Z" fill="#464353"/>
</g>
</g>
<defs>
<linearGradient id="paint0_linear" x1="203.426" y1="335.93" x2="203.426" y2="215.509" gradientUnits="userSpaceOnUse">
<stop stop-color="#808080" stop-opacity="0.25"/>
<stop offset="0.54" stop-color="#808080" stop-opacity="0.12"/>
<stop offset="1" stop-color="#808080" stop-opacity="0.1"/>
</linearGradient>
<clipPath id="clip0">
<rect width="320" height="568" fill="white"/>
</clipPath>
<clipPath id="clip1">
<rect width="223" height="152" fill="white" transform="translate(96 196)"/>
</clipPath>
</defs>
</svg>
