<svg width="320" height="568" viewBox="0 0 320 568" fill="none" xmlns="http://www.w3.org/2000/svg">
<g clip-path="url(#clip0)">
<rect width="320" height="568" fill="white"/>
<path d="M0 288V0H320V162C320 91 0 288 0 288Z" fill="#10172B" fill-opacity="0.9"/>
<path d="M320 570H0V506.719C0 506.719 36.0563 491.153 75.1174 506.719C114.178 522.284 83.6307 546.897 159.249 506.719C234.867 466.54 320 570 320 506.719V570Z" fill="#10172B" fill-opacity="0.9"/>
<g clip-path="url(#clip1)">
<path opacity="0.1" d="M215.928 224.358C200.158 223.782 185.139 218.469 170.805 212.649C156.472 206.83 142.256 200.381 126.863 197.298C116.951 195.315 105.628 195.037 97.6514 200.584C89.9753 205.92 87.4942 215.132 86.1619 223.677C85.1583 230.108 84.569 236.878 87.317 242.896C89.2259 247.076 92.6144 250.589 94.9589 254.593C103.12 268.521 97.3546 285.699 88.5127 299.301C84.3662 305.68 79.5577 311.767 76.3592 318.559C73.1607 325.352 71.681 333.134 74.4802 340.062C77.256 346.928 83.8644 352.087 91.0259 355.714C105.571 363.075 122.71 365.192 139.422 366.388C176.419 369.031 213.612 367.887 250.706 366.74C264.434 366.316 278.223 365.886 291.726 363.668C299.226 362.437 306.969 360.483 312.413 355.763C319.325 349.774 321.038 339.632 316.406 332.119C308.638 319.521 287.154 316.394 281.729 302.872C278.739 295.431 281.81 287.14 286.153 280.238C295.471 265.432 311.088 252.443 311.912 235.517C312.475 223.894 304.968 212.254 293.359 206.743C281.188 200.979 264.32 201.704 255.342 211.246C246.099 221.083 229.854 224.864 215.928 224.358Z" fill="#71FF80"/>
<g opacity="0.5">
<path opacity="0.5" d="M179.922 285.798L172.778 285.952L171.61 287.627V293.415L173.068 294.481H179.922L181.38 292.806V287.321L179.922 285.798Z" fill="#71FF80"/>
<path opacity="0.2" d="M179.773 286.713C179.773 286.713 173.211 287.779 172.628 286.713L172.776 285.953L179.773 285.792V286.713Z" fill="white"/>
<path opacity="0.5" d="M180.505 302.555L181.671 303.775V309.574L180.505 310.774C180.505 310.774 176.277 312.298 173.506 311.078L172.193 309.708V303.909L173.361 302.537L180.505 302.555Z" fill="#71FF80"/>
<path opacity="0.2" d="M180.212 303.927C180.212 303.927 175.109 305.145 173.361 303.927V302.555H180.505L180.212 303.927Z" fill="white"/>
<path opacity="0.5" d="M177.733 294.442V302.682C177.717 303.008 177.577 303.314 177.345 303.533C177.113 303.752 176.807 303.867 176.495 303.851V303.851C176.183 303.867 175.877 303.752 175.645 303.533C175.413 303.314 175.273 303.008 175.257 302.682V294.442C175.257 293.742 175.897 293.2 176.64 293.28C176.928 293.298 177.198 293.427 177.4 293.642C177.602 293.857 177.721 294.142 177.733 294.442V294.442Z" fill="#71FF80"/>
<path opacity="0.5" d="M191.364 286.035L184.22 286.187L183.052 287.862V293.65L184.511 294.717H191.364L192.823 293.041V287.556L191.364 286.035Z" fill="#71FF80"/>
<path opacity="0.2" d="M191.217 286.947C191.217 286.947 184.656 288.014 184.073 286.947L184.218 286.187L191.217 286.035V286.947Z" fill="white"/>
<path opacity="0.5" d="M191.943 302.789L193.109 304.009V309.809L191.943 311.015C191.943 311.015 187.713 312.539 184.944 311.319L183.631 309.949V304.161L184.799 302.789H191.943Z" fill="#71FF80"/>
<path opacity="0.2" d="M191.655 304.161C191.655 304.161 186.552 305.379 184.803 304.161V302.789H191.943L191.655 304.161Z" fill="white"/>
<path opacity="0.5" d="M189.167 294.676V302.916C189.15 303.242 189.01 303.548 188.779 303.767C188.547 303.986 188.241 304.1 187.929 304.085V304.085C187.616 304.101 187.31 303.987 187.078 303.768C186.846 303.549 186.706 303.243 186.688 302.916V294.676C186.688 293.976 187.329 293.434 188.074 293.514C188.362 293.533 188.632 293.662 188.834 293.876C189.036 294.091 189.155 294.376 189.167 294.676V294.676Z" fill="#71FF80"/>
<path opacity="0.5" d="M205.931 290.441L200.048 290.568L199.087 291.946V296.711L200.287 297.59H205.931L207.131 296.209V291.694L205.931 290.441Z" fill="#71FF80"/>
<path opacity="0.2" d="M205.809 291.194C205.809 291.194 200.409 292.071 199.929 291.194L200.048 290.568L205.813 290.441L205.809 291.194Z" fill="white"/>
<path opacity="0.5" d="M206.409 304.234L207.37 305.238V310.003L206.409 311.006C206.409 311.006 202.929 312.26 200.644 311.256L199.564 310.128V305.363L200.525 304.234H206.409Z" fill="#71FF80"/>
<path opacity="0.2" d="M206.17 305.363C206.17 305.363 201.968 306.367 200.529 305.363V304.234H206.409L206.17 305.363Z" fill="white"/>
<path opacity="0.5" d="M204.129 297.556V304.339C204.115 304.608 204 304.86 203.808 305.04C203.617 305.22 203.365 305.314 203.108 305.301V305.301C202.851 305.314 202.599 305.22 202.408 305.04C202.218 304.86 202.103 304.608 202.09 304.339V297.556C202.098 297.413 202.135 297.272 202.198 297.145C202.261 297.017 202.349 296.904 202.456 296.814C202.563 296.724 202.687 296.659 202.82 296.621C202.953 296.584 203.092 296.577 203.228 296.599C203.464 296.614 203.687 296.72 203.854 296.897C204.02 297.074 204.118 297.308 204.129 297.556Z" fill="#71FF80"/>
<path opacity="0.5" d="M215.349 290.635L209.467 290.759L208.508 292.138V296.905L209.708 297.781H215.349L216.549 296.403V291.888L215.349 290.635Z" fill="#71FF80"/>
<path opacity="0.2" d="M215.23 291.386C215.23 291.386 209.828 292.265 209.347 291.386L209.467 290.759L215.232 290.635L215.23 291.386Z" fill="white"/>
<path opacity="0.5" d="M215.83 304.429L216.788 305.43V310.195L215.83 311.198C215.83 311.198 212.347 312.452 210.065 311.45L208.986 310.328V305.557L209.947 304.429H215.83Z" fill="#71FF80"/>
<path opacity="0.2" d="M215.588 305.557C215.588 305.557 211.388 306.559 209.947 305.557V304.429H215.83L215.588 305.557Z" fill="white"/>
<path opacity="0.5" d="M213.549 297.748V304.529C213.535 304.798 213.42 305.05 213.229 305.23C213.038 305.41 212.786 305.504 212.529 305.49C212.271 305.504 212.019 305.41 211.828 305.23C211.637 305.05 211.522 304.798 211.508 304.529V297.748C211.508 297.172 212.042 296.726 212.648 296.793C212.885 296.808 213.108 296.914 213.274 297.09C213.441 297.266 213.539 297.501 213.549 297.748V297.748Z" fill="#71FF80"/>
</g>
<path d="M296.995 315.251C296.536 314.384 295.677 313.813 294.774 313.549C293.86 313.32 292.915 313.258 291.981 313.366C290.472 313.479 288.976 313.736 287.512 314.136C286.605 314.386 285.663 314.72 285.05 315.474C285.033 315.497 285.014 315.523 284.995 315.546C284.058 315.802 283.127 316.197 282.219 316.518C281.308 316.834 280.382 317.097 279.443 317.306C280.671 316.576 281.867 315.804 282.879 314.774C283.357 314.289 283.787 313.754 284.16 313.177C284.854 313.384 285.581 313.435 286.295 313.326C287.741 313.068 288.909 311.988 289.996 310.935L293.491 307.576C294.048 307.04 294.614 306.492 294.985 305.791C295.487 304.817 295.532 303.657 295.545 302.544C295.562 301.013 295.545 299.483 295.502 297.955L296.608 298.848C296.44 296.963 296.776 295.067 297.578 293.369C297.962 292.56 298.466 291.754 298.477 290.846C298.494 289.446 297.341 288.344 296.16 287.724C294.979 287.104 293.651 286.707 292.684 285.754C291.245 284.338 290.976 282.078 290.265 280.137C289.843 279.075 289.343 278.048 288.77 277.066L287.386 274.545C286.69 273.217 285.915 271.936 285.063 270.711C283.624 268.728 281.811 267.093 280.011 265.476L270.651 257.051C268.375 255.001 266.09 252.949 263.628 251.156C258.634 247.517 252.999 245.019 247.401 242.545C245.991 241.921 244.524 241.287 243 241.363C241.852 241.441 240.763 241.928 239.917 242.742C239.114 242.487 238.33 242.176 237.568 241.809L237.508 241.78C237.525 241.649 237.544 241.519 237.557 241.388C237.577 241.214 237.587 241.04 237.6 240.864C238.022 240.796 238.43 240.656 238.809 240.451C239.001 240.356 239.171 240.218 239.306 240.047C239.478 239.749 239.566 239.407 239.56 239.059C239.731 236.728 239.902 234.375 239.718 232.055C239.534 229.735 238.977 227.386 237.796 225.415C237.431 224.803 236.974 224.208 236.34 223.942C235.486 223.586 234.498 223.918 233.586 223.757C232.008 223.478 231.024 221.866 229.881 220.677C226.992 217.668 222.052 217.215 218.716 219.651C217.452 220.577 216.44 221.832 215.313 222.939C214.185 224.045 212.864 225.047 211.341 225.263C211.061 225.275 210.786 225.351 210.536 225.486C210.225 225.691 210.084 226.086 209.964 226.452C209.537 227.714 209.127 229.01 208.997 230.331C208.982 230.251 208.969 230.17 208.956 230.09C208.898 230.579 208.886 231.073 208.92 231.564C208.963 232.191 209.136 232.8 209.428 233.349C209.671 233.871 210.086 234.284 210.596 234.513C210.957 234.647 211.338 234.711 211.721 234.703H211.89C211.828 234.875 211.768 235.046 211.713 235.22C211.237 236.694 210.996 238.24 210.998 239.795C210.998 247.602 216.961 253.928 224.323 253.928C225.209 253.924 226.093 253.826 226.96 253.638C227.249 253.734 227.537 253.832 227.814 253.937C228.383 254.133 228.94 254.363 229.484 254.624C229.715 254.738 230.648 255.307 231.775 256.04L231.698 256.208C230.598 257.281 229.792 258.64 229.36 260.147C228.929 261.653 228.889 263.252 229.245 264.78C230.061 268.097 232.736 270.941 232.467 274.356C232.429 274.842 232.33 275.335 232.409 275.817C232.518 276.486 232.952 277.03 233.385 277.525C233.761 277.958 234.152 278.378 234.549 278.788C234.517 280.967 234.335 283.144 234.139 285.317C234.122 285.506 234.117 285.698 234.115 285.892C234.127 286.832 234.453 287.737 235.038 288.451C235.657 289.238 235.905 290.418 235.787 291.471C235.619 292.979 234.908 294.346 234.431 295.776C232.283 302.207 234.922 309.458 233.436 316.099C233.071 317.734 232.456 319.324 232.369 321.006C232.32 322.057 232.478 323.159 232.091 324.129C231.756 324.972 231.058 325.581 230.398 326.172C229.466 327.006 228.557 327.869 227.673 328.76C226.337 327.997 224.958 327.319 223.544 326.73C223.313 326.633 223.078 326.548 222.839 326.476C221.17 324.843 219.064 323.799 217.087 322.599C215.447 321.606 213.884 320.491 212.313 319.376C210.818 318.305 209.292 317.225 208.028 315.849C207.387 315.153 206.817 314.386 206.127 313.75C205.521 313.223 204.879 312.743 204.206 312.314C201.176 310.263 198.288 307.994 195.562 305.521C193.485 303.639 191.785 301.214 189.565 299.526C188.204 298.491 186.622 297.547 184.957 297.741C184.427 297.806 183.912 297.972 183.439 298.23C182.997 298.034 182.526 297.924 182.047 297.904C180.693 297.859 179.45 298.627 178.289 299.365C171.456 303.703 164.517 307.847 157.47 311.798C156.048 312.597 154.618 313.389 153.26 314.303C150.61 316.094 148.262 318.33 146.312 320.921C145.953 321.396 145.501 321.936 144.93 321.865C144.774 321.84 144.624 321.784 144.488 321.7C143.611 321.202 143.073 320.241 142.567 319.329C142.2 318.66 141.802 317.961 141.264 317.453C141.149 317.136 140.996 316.836 140.807 316.561C141.565 314.607 142.219 312.606 142.825 310.592C143.141 309.534 143.446 308.47 143.85 307.444C144.845 304.906 146.431 302.606 146.993 299.92C147.128 299.271 147.207 298.604 147.311 297.949C153.45 296.686 158.083 290.958 158.083 284.079C158.083 276.272 152.117 269.946 144.757 269.946C137.397 269.946 131.434 276.272 131.434 284.079C131.427 286.455 131.993 288.795 133.079 290.883C134.164 292.971 135.736 294.74 137.647 296.028C137.647 296.055 137.647 296.082 137.647 296.106C137.634 296.555 137.592 297.002 137.521 297.445C137.276 298.939 136.667 300.344 136.054 301.707C135.649 302.619 135.243 303.536 134.822 304.446C134.621 304.404 134.425 304.335 134.24 304.241C133.879 304.031 133.721 303.572 133.584 303.166C132.979 301.306 132.239 299.497 131.37 297.755C131.031 297.014 130.6 296.323 130.089 295.7C129.188 294.67 127.953 294.059 126.76 293.441C126.546 293.334 126.348 293.218 126.143 293.115C125.966 292.977 125.78 292.851 125.588 292.738C124.595 292.151 123.493 291.73 122.665 290.909C122.043 290.293 121.616 289.493 121.035 288.839C120.068 287.753 118.734 287.133 117.438 286.541C116.763 286.234 116.054 285.919 115.317 285.962C115.214 285.967 115.11 285.979 115.008 285.997C114.831 286.029 114.655 286.07 114.483 286.122C114.314 286.029 114.156 285.918 114.009 285.792C113.216 285.154 112.909 284.059 112.651 283.039C112.224 281.335 111.773 279.571 112.038 277.827C112.084 277.526 112.147 277.228 112.226 276.934C112.292 276.821 112.356 276.711 112.414 276.589C114.113 276.055 115.667 275.104 116.944 273.816C118.221 272.529 119.185 270.94 119.755 269.184C120.326 267.428 120.486 265.556 120.224 263.722C119.961 261.888 119.282 260.146 118.245 258.641C118.136 258.485 118.031 258.334 117.91 258.182L118.038 258.108C119.218 257.354 119.487 255.552 118.941 254.209C118.394 252.866 117.233 251.918 116.056 251.173C115.885 251.064 115.712 250.961 115.537 250.859L115.388 250.774C115.255 250.698 115.125 250.625 114.993 250.551L114.837 250.469C114.681 250.386 114.525 250.308 114.369 250.232L114.299 250.196C114.105 250.105 113.91 250.016 113.714 249.931C113.524 249.848 113.334 249.773 113.142 249.708L113.063 249.677C112.881 249.608 112.698 249.543 112.514 249.48L112.473 249.467C111.13 249.011 109.73 248.764 108.318 248.735C106.936 248.744 105.559 248.903 104.208 249.21C102.893 249.459 101.605 249.846 100.365 250.364C98.3139 251.272 96.5059 252.688 95.0971 254.49C94.8002 254.514 94.5058 254.565 94.2174 254.642C93.0623 254.948 92.0224 255.621 91.0723 256.384C90.2765 256.995 89.5714 257.726 88.9798 258.552C88.2831 259.611 87.8027 260.808 87.5684 262.07C86.7592 266.025 87.7542 270.1 88.4866 274.075C89.2189 278.05 89.6417 282.381 87.846 285.948C87.1691 287.286 86.2083 288.449 85.4973 289.762C84.7863 291.076 84.293 292.662 84.703 294.119C85.2005 295.888 86.8382 297.001 87.6923 298.607C88.6915 300.478 88.4161 302.992 87.1094 304.629C87.0517 304.701 86.9941 304.772 86.9321 304.852C86.8702 304.933 86.7827 305.017 86.7015 305.093C88.0488 305.588 89.5499 305.055 90.7584 304.261C91.7249 303.665 92.5446 302.841 93.152 301.854C94.6786 299.236 93.9932 295.85 94.5313 292.823C95.238 288.859 98.0907 285.324 97.6978 281.311C97.433 278.618 95.7505 276.368 94.4288 274.052C93.5503 272.498 92.8139 270.861 92.2296 269.163C92.2061 269.092 92.1826 269.018 92.157 268.94C91.7705 267.791 91.4737 266.573 91.6723 265.371C91.74 264.982 91.8518 264.602 92.0054 264.24C92.0054 264.282 92.0054 264.327 92.0054 264.369C92.0313 265.532 92.2789 266.678 92.7335 267.74C94.068 270.64 97.2793 271.978 99.3184 274.329C99.4038 274.427 99.485 274.528 99.5661 274.63C99.5896 274.657 99.6109 274.686 99.6323 274.715L99.8052 274.938L99.8778 275.043C99.9312 275.121 99.9846 275.199 100.034 275.279L100.1 275.38C100.168 275.493 100.237 275.603 100.301 275.725C100.819 275.125 101.355 274.494 101.565 273.718C101.584 273.651 101.597 273.582 101.609 273.513C101.627 273.53 101.641 273.551 101.659 273.571C101.699 273.809 101.731 274.048 101.761 274.289C101.761 274.633 101.796 274.976 101.866 275.313C102.028 277.454 101.898 279.653 101.761 281.801C101.688 282.95 101.975 284.657 101.274 285.513L101.253 285.538C101.212 285.588 101.167 285.634 101.118 285.676V285.676C100.999 285.805 100.877 285.933 100.764 286.066C98.4152 288.832 97.3476 292.758 97.4031 296.519C97.4586 300.799 98.7675 304.946 100.251 308.928C100.77 310.381 101.38 311.797 102.079 313.166C102.44 313.905 102.917 314.575 103.491 315.149C104.091 315.704 104.821 316.07 105.54 316.427C105.72 316.516 105.901 316.603 106.081 316.694L106.54 316.917L110.035 318.653C110.676 319.637 111.295 320.647 111.92 321.66C112.01 321.802 112.098 321.95 112.189 322.092C112.873 323.208 113.56 324.323 114.26 325.407L120.151 334.521C120.579 335.19 121.025 335.86 121.625 336.355C121.795 336.495 121.98 336.615 122.176 336.714C122.275 336.764 122.377 336.808 122.481 336.846C122.352 337.048 122.296 337.293 122.325 337.535C122.404 337.772 122.554 337.976 122.752 338.117C124.085 339.268 125.564 340.481 125.983 342.25C126.28 343.51 125.983 344.86 126.25 346.127C126.739 348.411 128.902 349.796 130.947 350.675C135.531 352.642 140.624 353.399 145.494 352.484C150.364 351.57 154.991 348.931 158.145 344.9C159.115 343.655 159.941 342.297 160.861 341.012C161.502 340.107 162.206 339.243 162.934 338.411C163.72 338.036 164.477 337.599 165.2 337.104C166.739 336.036 168.065 334.664 169.47 333.393C170.519 332.438 171.616 331.537 172.579 330.493C173.444 329.503 174.251 328.46 174.998 327.37C176.706 325.006 178.471 322.688 180.291 320.417C181.265 319.202 182.296 317.964 183.656 317.294L183.718 317.268C183.881 318.267 184.639 319.115 185.17 319.978C187.37 323.547 189.671 327.221 193.071 329.496C194.932 330.74 197.038 331.503 199.139 332.199C204.477 333.961 209.9 335.344 215.328 336.73C215.507 336.373 215.682 336.042 215.879 335.721C215.963 335.814 216.041 335.913 216.114 336.016C216.137 336.051 216.156 336.089 216.18 336.125C216.141 336.133 216.102 336.144 216.064 336.158C215.716 336.328 215.442 336.629 215.298 337.002C214.713 338.226 214.657 339.647 214.63 341.017C214.61 342.355 214.63 343.693 214.63 345.032C214.598 345.531 214.671 346.032 214.843 346.499C215.257 347.392 216.31 347.724 217.252 347.838C218.887 348.027 220.536 347.867 222.163 347.637C222.256 348.038 222.41 348.421 222.617 348.772C223.531 350.334 225.109 351.364 226.751 351.969C228.393 352.573 230.133 352.814 231.839 353.169C234.869 353.798 237.969 354.804 240.982 354.095C242.184 353.811 243.331 353.263 244.533 353.022C247.285 352.477 250.138 353.579 252.909 353.138C254.248 352.915 255.514 352.357 256.727 351.717C257.338 351.437 257.893 351.037 258.36 350.539C258.805 350.017 259.072 349.277 258.888 348.601C258.783 348.213 258.544 347.882 258.384 347.517C258.169 346.931 258.047 346.314 258.023 345.688C257.8 343.318 257.416 340.969 256.874 338.657C256.859 338.592 256.842 338.525 256.825 338.458C258.92 337.591 260.797 336.228 262.65 334.871L266.637 331.958C267.918 331.015 269.231 330.067 270.67 329.407C272.878 328.394 275.322 328.104 277.729 328.106C278.713 328.106 279.7 328.157 280.68 328.251C280.555 328.393 280.461 328.562 280.404 328.746C280.208 329.384 280.52 330.085 280.983 330.551C281.446 331.017 282.05 331.28 282.595 331.604C284.099 332.489 285.352 333.775 286.225 335.331C286.771 336.31 287.169 337.499 286.823 338.576C286.396 339.928 284.873 340.861 284.961 342.284C285.012 343.122 285.659 343.816 286.396 344.126C287.132 344.436 287.95 344.432 288.744 344.407C290.045 344.365 291.383 344.26 292.547 343.642C293.331 343.225 293.995 342.596 294.646 341.974C295.24 341.405 295.846 340.814 296.183 340.046C296.499 339.324 296.548 338.505 296.563 337.711C296.627 333.973 296.01 330.183 296.721 326.52C296.935 325.405 297.277 324.314 297.458 323.19C297.744 321.405 297.635 319.603 297.526 317.81C297.473 316.926 297.409 316.016 296.995 315.251Z" fill="url(#paint0_linear)"/>
<path opacity="0.06" d="M251.882 263.549C251.043 264.14 250.751 265.282 250.644 266.335C250.189 270.811 251.957 275.244 251.84 279.743C251.746 283.323 250.469 286.738 249.209 290.068C247.061 295.749 245.942 301.919 245.509 308.011C245.075 314.103 244.441 320.446 241.311 325.599C240.6 326.766 239.771 327.85 239.075 329.023C238.345 330.25 237.767 331.566 237.122 332.842C235.222 336.61 232.773 340.047 229.862 343.029C229.008 343.899 228.103 344.742 227.014 345.244C226.312 345.562 225.556 345.73 224.791 345.738C224.026 345.747 223.268 345.595 222.56 345.293C221.099 344.661 219.869 343.238 219.81 341.588C219.756 340.111 220.6 338.779 221.445 337.597C224.311 333.592 227.606 329.943 231.267 326.721C231.931 326.136 232.631 325.532 232.975 324.698C233.362 323.736 233.204 322.646 233.253 321.604C233.332 319.942 233.951 318.365 234.32 316.746C235.815 310.168 233.159 302.985 235.32 296.613C235.8 295.196 236.513 293.842 236.682 292.35C236.801 291.306 236.554 290.139 235.928 289.356C235.342 288.653 235.015 287.755 235.004 286.823C235.004 286.631 235.004 286.441 235.025 286.254C235.285 283.334 235.544 280.401 235.403 277.472C235.262 274.543 234.705 271.599 233.411 268.996C232.74 267.646 231.873 266.384 231.459 264.927C230.793 262.569 231.408 260.02 232.401 257.789C233.176 256.045 234.209 254.383 235.653 253.188C238.334 250.968 242.349 250.712 245.285 252.547C247.45 253.899 248.931 256.172 250.134 258.49C250.996 260.183 251.895 261.617 251.882 263.549Z" fill="black"/>
<path d="M244.766 245.771C244.356 246.926 243.948 248.082 243.542 249.237C243.273 249.996 243.006 250.761 242.729 251.519C241.448 255.014 240.015 258.454 237.773 261.347C238.108 260.914 234.954 258.737 232.629 257.252C231.495 256.522 230.556 255.96 230.325 255.849C229.777 255.59 229.216 255.362 228.645 255.166C227.759 254.854 226.862 254.584 225.976 254.247C223.926 253.473 225.359 252.311 226.236 251.062C229.108 246.971 229.653 241.381 232.913 237.623C234.109 239.996 236 241.907 238.311 243.076C238.356 243.101 238.403 243.123 238.45 243.143C240.386 244.089 242.526 244.497 244.529 245.289C244.638 245.331 244.764 245.392 244.8 245.512C244.813 245.6 244.801 245.69 244.766 245.771Z" fill="#A1616A"/>
<path d="M239.191 328.396C238.263 329.784 237.686 331.395 237.512 333.078C237.339 334.761 237.575 336.463 238.198 338.025C238.355 338.462 238.601 338.858 238.917 339.188C239.32 339.517 239.79 339.746 240.29 339.857C244.531 341.117 249.057 340.869 253.4 340.08C254.872 339.843 256.318 339.459 257.718 338.931C259.868 338.072 261.787 336.701 263.684 335.331L267.693 332.445C268.992 331.51 270.301 330.571 271.75 329.915C273.971 328.914 276.431 328.626 278.85 328.628C280.928 328.631 283.001 328.838 285.042 329.246C286.402 329.52 288.031 329.804 288.988 328.766C289.534 328.18 289.697 327.321 289.803 326.511C290.226 323.361 290.218 320.164 289.78 317.016C289.769 316.751 289.677 316.497 289.517 316.291C289.366 316.157 289.183 316.07 288.988 316.039C287.098 315.593 285.202 316.518 283.366 317.154C279.55 318.479 275.453 318.637 271.571 319.728C267.497 320.872 263.671 323.038 259.46 323.478C257.453 323.687 255.437 323.504 253.426 323.551C251.56 323.594 249.82 324.267 247.992 324.348C244.469 324.51 241.405 325.153 239.191 328.396Z" fill="#A1616A"/>
<path opacity="0.06" d="M239.191 328.396C238.263 329.784 237.686 331.395 237.512 333.078C237.339 334.761 237.575 336.463 238.198 338.025C238.355 338.462 238.601 338.858 238.917 339.188C239.32 339.517 239.79 339.746 240.29 339.857C244.531 341.117 249.057 340.869 253.4 340.08C254.872 339.843 256.318 339.459 257.718 338.931C259.868 338.072 261.787 336.701 263.684 335.331L267.693 332.445C268.992 331.51 270.301 330.571 271.75 329.915C273.971 328.914 276.431 328.626 278.85 328.628C280.928 328.631 283.001 328.838 285.042 329.246C286.402 329.52 288.031 329.804 288.988 328.766C289.534 328.18 289.697 327.321 289.803 326.511C290.226 323.361 290.218 320.164 289.78 317.016C289.769 316.751 289.677 316.497 289.517 316.291C289.366 316.157 289.183 316.07 288.988 316.039C287.098 315.593 285.202 316.518 283.366 317.154C279.55 318.479 275.453 318.637 271.571 319.728C267.497 320.872 263.671 323.038 259.46 323.478C257.453 323.687 255.437 323.504 253.426 323.551C251.56 323.594 249.82 324.267 247.992 324.348C244.469 324.51 241.405 325.153 239.191 328.396Z" fill="black"/>
<path d="M242.637 323.681C242.537 324.174 242.447 324.696 242.588 325.177C242.763 325.651 243.058 326.066 243.442 326.377C247.072 329.772 252.258 330.475 257.107 331.026C258.42 331.175 259.757 331.325 261.057 331.077C262.242 330.854 263.348 330.308 264.439 329.768C266.788 328.606 269.15 327.43 271.163 325.722C273.138 324.049 274.722 321.907 276.768 320.33C279.093 318.546 281.952 317.524 284.028 315.423C285.528 313.911 286.526 311.936 286.874 309.789C287.109 308.323 287.032 306.826 286.874 305.35C286.705 303.652 286.434 301.926 285.661 300.422C284.766 298.682 283.263 297.369 281.677 296.289C278.32 294.009 274.368 292.595 270.36 292.631C264.809 292.682 259.684 296.057 255.7 299.847C251.486 303.861 248.075 308.707 245.665 314.107C244.304 317.165 243.288 320.378 242.637 323.681V323.681Z" fill="#464353"/>
<path opacity="0.06" d="M242.637 323.681C242.537 324.174 242.447 324.696 242.588 325.177C242.763 325.651 243.058 326.066 243.442 326.377C247.072 329.772 252.258 330.475 257.107 331.026C258.42 331.175 259.757 331.325 261.057 331.077C262.242 330.854 263.348 330.308 264.439 329.768C266.788 328.606 269.15 327.43 271.163 325.722C273.138 324.049 274.722 321.907 276.768 320.33C279.093 318.546 281.952 317.524 284.028 315.423C285.528 313.911 286.526 311.936 286.874 309.789C287.109 308.323 287.032 306.826 286.874 305.35C286.705 303.652 286.434 301.926 285.661 300.422C284.766 298.682 283.263 297.369 281.677 296.289C278.32 294.009 274.368 292.595 270.36 292.631C264.809 292.682 259.684 296.057 255.7 299.847C251.486 303.861 248.075 308.707 245.665 314.107C244.304 317.165 243.288 320.378 242.637 323.681V323.681Z" fill="black"/>
<path d="M251.882 263.549C251.043 264.14 250.751 265.282 250.644 266.335C250.189 270.811 251.957 275.244 251.84 279.743C251.746 283.323 250.469 286.738 249.209 290.068C247.061 295.749 245.942 301.919 245.509 308.011C245.075 314.103 244.441 320.446 241.311 325.599C240.6 326.766 239.771 327.85 239.075 329.023C238.345 330.25 237.767 331.566 237.122 332.842C235.222 336.61 232.773 340.047 229.862 343.029C229.008 343.899 228.103 344.742 227.014 345.244C226.312 345.562 225.556 345.73 224.791 345.738C224.026 345.747 223.268 345.595 222.56 345.293C221.099 344.661 219.869 343.238 219.81 341.588C219.756 340.111 220.6 338.779 221.445 337.597C224.311 333.592 227.606 329.943 231.267 326.721C231.931 326.136 232.631 325.532 232.975 324.698C233.362 323.736 233.204 322.646 233.253 321.604C233.332 319.942 233.951 318.365 234.32 316.746C235.815 310.168 233.159 302.985 235.32 296.613C235.8 295.196 236.513 293.842 236.682 292.35C236.801 291.306 236.554 290.139 235.928 289.356C235.342 288.653 235.015 287.755 235.004 286.823C235.004 286.631 235.004 286.441 235.025 286.254C235.285 283.334 235.544 280.401 235.403 277.472C235.262 274.543 234.705 271.599 233.411 268.996C232.74 267.646 231.873 266.384 231.459 264.927C230.793 262.569 231.408 260.02 232.401 257.789C233.176 256.045 234.209 254.383 235.653 253.188C238.334 250.968 242.349 250.712 245.285 252.547C247.45 253.899 248.931 256.172 250.134 258.49C250.996 260.183 251.895 261.617 251.882 263.549Z" fill="#A1616A"/>
<path d="M240.085 278.534C244.549 278.534 248.167 272.603 248.167 265.286C248.167 257.97 244.549 252.039 240.085 252.039C235.622 252.039 232.004 257.97 232.004 265.286C232.004 272.603 235.622 278.534 240.085 278.534Z" fill="#A1616A"/>
<path d="M219.474 334.512C219.713 334.864 219.875 335.266 219.949 335.69C220.023 336.113 220.006 336.549 219.901 336.966C220.663 337.537 221.589 337.819 222.526 337.764C223.455 337.712 224.369 337.492 225.227 337.115C225.973 336.831 226.679 336.444 227.328 335.964C228.442 335.103 229.249 333.872 229.89 332.596C230.251 331.891 230.558 330.979 230.103 330.346C229.925 330.131 229.707 329.955 229.463 329.828C227.818 328.848 226.105 327.997 224.338 327.283C223.853 327.049 223.326 326.926 222.792 326.922C222.137 326.96 221.541 327.334 221.02 327.754C219.849 328.705 218.905 329.926 218.262 331.323C218.061 331.769 217.454 332.828 217.756 333.288C217.892 333.5 218.396 333.573 218.61 333.707C218.949 333.909 219.244 334.183 219.474 334.512V334.512Z" fill="#FBBEBE"/>
<path opacity="0.03" d="M219.474 334.512C219.713 334.864 219.875 335.266 219.949 335.69C220.023 336.113 220.006 336.549 219.901 336.966C220.663 337.537 221.589 337.819 222.526 337.764C223.455 337.712 224.369 337.492 225.227 337.115C225.973 336.831 226.679 336.444 227.328 335.964C228.442 335.103 229.249 333.872 229.89 332.596C230.251 331.891 230.558 330.979 230.103 330.346C229.925 330.131 229.707 329.955 229.463 329.828C227.818 328.848 226.105 327.997 224.338 327.283C223.853 327.049 223.326 326.926 222.792 326.922C222.137 326.96 221.541 327.334 221.02 327.754C219.849 328.705 218.905 329.926 218.262 331.323C218.061 331.769 217.454 332.828 217.756 333.288C217.892 333.5 218.396 333.573 218.61 333.707C218.949 333.909 219.244 334.183 219.474 334.512V334.512Z" fill="black"/>
<path d="M228.316 329.344C231.929 330.044 235.251 331.869 238.802 332.853C240.239 333.25 241.719 333.522 243.092 334.106C244.465 334.691 245.759 335.69 246.35 337.113C246.6 337.796 246.766 338.51 246.843 339.237C246.997 340.265 247.123 341.414 246.538 342.257C245.921 343.149 244.755 343.345 243.711 343.477C239.957 343.943 236.204 344.412 232.437 344.742C231.674 344.79 230.915 344.885 230.163 345.025C229.544 345.154 228.94 345.351 228.325 345.502C227.528 345.696 226.719 345.819 225.912 345.948C223.847 346.259 221.759 346.569 219.686 346.332C218.74 346.223 217.681 345.904 217.264 345.012C217.092 344.549 217.019 344.053 217.051 343.557C217.04 342.232 217.03 340.91 217.051 339.587C217.07 338.228 217.134 336.819 217.723 335.608C217.87 335.237 218.145 334.938 218.494 334.771C218.709 334.707 218.934 334.686 219.156 334.709C220.267 334.749 221.415 334.798 222.408 335.315C223.196 335.724 223.837 336.404 224.639 336.774C226.16 337.479 227.994 336.973 229.533 337.635C229.892 336.48 229.811 335.311 229.544 334.126C229.277 332.942 228.903 331.78 228.79 330.571C228.786 330.305 228.737 330.042 228.645 329.795C228.53 329.547 228.568 329.306 228.316 329.344Z" fill="#464353"/>
<path opacity="0.06" d="M228.316 329.344C231.929 330.044 235.251 331.869 238.802 332.853C240.239 333.25 241.719 333.522 243.092 334.106C244.465 334.691 245.759 335.69 246.35 337.113C246.6 337.796 246.766 338.51 246.843 339.237C246.997 340.265 247.123 341.414 246.538 342.257C245.921 343.149 244.755 343.345 243.711 343.477C239.957 343.943 236.204 344.412 232.437 344.742C231.674 344.79 230.915 344.885 230.163 345.025C229.544 345.154 228.94 345.351 228.325 345.502C227.528 345.696 226.719 345.819 225.912 345.948C223.847 346.259 221.759 346.569 219.686 346.332C218.74 346.223 217.681 345.904 217.264 345.012C217.092 344.549 217.019 344.053 217.051 343.557C217.04 342.232 217.03 340.91 217.051 339.587C217.07 338.228 217.134 336.819 217.723 335.608C217.87 335.237 218.145 334.938 218.494 334.771C218.709 334.707 218.934 334.686 219.156 334.709C220.267 334.749 221.415 334.798 222.408 335.315C223.196 335.724 223.837 336.404 224.639 336.774C226.16 337.479 227.994 336.973 229.533 337.635C229.892 336.48 229.811 335.311 229.544 334.126C229.277 332.942 228.903 331.78 228.79 330.571C228.786 330.305 228.737 330.042 228.645 329.795C228.53 329.547 228.568 329.306 228.316 329.344Z" fill="black"/>
<path d="M107.633 291.31C106.905 291.07 106.202 291.743 105.794 292.426C104.099 295.209 104.238 298.926 105.594 301.906C105.916 302.661 106.361 303.353 106.909 303.951C107.644 304.707 108.589 305.191 109.471 305.736C111.918 307.246 114.015 309.302 115.612 311.758C116.656 313.366 117.478 315.135 118.663 316.632C121.58 320.317 126.373 321.985 129.203 325.733C129.879 326.625 130.452 327.66 131.355 328.309C131.892 328.695 132.517 328.924 133.167 328.972C133.817 329.021 134.468 328.887 135.052 328.585C135.636 328.283 136.132 327.824 136.489 327.255C136.846 326.685 137.052 326.027 137.084 325.347C138.183 323.658 139.082 321.794 139.938 319.956C141.205 317.15 142.276 314.252 143.141 311.285C143.459 310.237 143.767 309.182 144.172 308.162C145.174 305.646 146.769 303.369 147.333 300.71C147.559 299.644 147.614 298.535 147.943 297.5C148.238 296.571 148.741 295.73 149.412 295.047C151.633 292.792 152.829 289.506 154.594 286.852C155.312 285.779 156.057 284.708 156.531 283.494C157.005 282.281 157.186 280.891 156.744 279.665C156.302 278.438 155.147 277.447 153.896 277.517C153.336 277.577 152.793 277.751 152.297 278.03C150.572 278.884 148.991 280.023 147.612 281.402C147.009 282.008 146.439 282.649 145.904 283.321C143.295 286.577 141.254 290.53 141.074 294.772C141.014 296.227 141.126 297.839 140.242 298.966C137.803 302.077 137.02 306.356 134.94 309.742C133.977 311.303 132.873 312.92 131.227 313.632C130.984 313.754 130.715 313.809 130.445 313.792C129.788 313.714 129.41 312.992 129.132 312.363C128.047 309.909 126.792 307.542 125.376 305.281C124.817 304.388 124.2 303.474 123.305 302.95C122.695 302.595 121.986 302.437 121.411 302.022C120.611 301.444 120.192 300.46 119.776 299.539C118.426 296.564 116.718 293.781 114.692 291.259C113.765 290.106 112.544 288.915 111.113 289.087C109.751 289.254 108.918 290.751 107.633 291.31Z" fill="#FBBEBE"/>
<path opacity="0.03" d="M107.633 291.31C106.905 291.07 106.202 291.743 105.794 292.426C104.099 295.209 104.238 298.926 105.594 301.906C105.916 302.661 106.361 303.353 106.909 303.951C107.644 304.707 108.589 305.191 109.471 305.736C111.918 307.246 114.015 309.302 115.612 311.758C116.656 313.366 117.478 315.135 118.663 316.632C121.58 320.317 126.373 321.985 129.203 325.733C129.879 326.625 130.452 327.66 131.355 328.309C131.892 328.695 132.517 328.924 133.167 328.972C133.817 329.021 134.468 328.887 135.052 328.585C135.636 328.283 136.132 327.824 136.489 327.255C136.846 326.685 137.052 326.027 137.084 325.347C138.183 323.658 139.082 321.794 139.938 319.956C141.205 317.15 142.276 314.252 143.141 311.285C143.459 310.237 143.767 309.182 144.172 308.162C145.174 305.646 146.769 303.369 147.333 300.71C147.559 299.644 147.614 298.535 147.943 297.5C148.238 296.571 148.741 295.73 149.412 295.047C151.633 292.792 152.829 289.506 154.594 286.852C155.312 285.779 156.057 284.708 156.531 283.494C157.005 282.281 157.186 280.891 156.744 279.665C156.302 278.438 155.147 277.447 153.896 277.517C153.336 277.577 152.793 277.751 152.297 278.03C150.572 278.884 148.991 280.023 147.612 281.402C147.009 282.008 146.439 282.649 145.904 283.321C143.295 286.577 141.254 290.53 141.074 294.772C141.014 296.227 141.126 297.839 140.242 298.966C137.803 302.077 137.02 306.356 134.94 309.742C133.977 311.303 132.873 312.92 131.227 313.632C130.984 313.754 130.715 313.809 130.445 313.792C129.788 313.714 129.41 312.992 129.132 312.363C128.047 309.909 126.792 307.542 125.376 305.281C124.817 304.388 124.2 303.474 123.305 302.95C122.695 302.595 121.986 302.437 121.411 302.022C120.611 301.444 120.192 300.46 119.776 299.539C118.426 296.564 116.718 293.781 114.692 291.259C113.765 290.106 112.544 288.915 111.113 289.087C109.751 289.254 108.918 290.751 107.633 291.31Z" fill="black"/>
<path d="M107.483 280.653C110.592 280.653 113.112 278.277 113.112 275.346C113.112 272.415 110.592 270.04 107.483 270.04C104.375 270.04 101.855 272.415 101.855 275.346C101.855 278.277 104.375 280.653 107.483 280.653Z" fill="#FBBEBE"/>
<path d="M112.762 276.372C113.881 276.372 114.788 275.425 114.788 274.255C114.788 273.086 113.881 272.139 112.762 272.139C111.642 272.139 110.735 273.086 110.735 274.255C110.735 275.425 111.642 276.372 112.762 276.372Z" fill="#FBBEBE"/>
<path d="M108.222 275.346C112.504 275.346 115.975 274.376 115.975 273.18C115.975 271.984 112.504 271.014 108.222 271.014C103.94 271.014 100.469 271.984 100.469 273.18C100.469 274.376 103.94 275.346 108.222 275.346Z" fill="#FBBEBE"/>
<path d="M101.308 272.719C101.497 273.343 101.645 273.98 101.753 274.626C101.102 273.935 100.538 273.161 100.074 272.322C99.9494 272.177 99.849 272.011 99.7775 271.831C99.0857 270.149 98.6138 268.447 98.6138 266.605C98.6137 264.468 99.1853 262.375 100.264 260.56C101.343 258.745 102.886 257.281 104.719 256.334C106.552 255.387 108.602 254.995 110.637 255.201C112.673 255.407 114.613 256.203 116.238 257.5C117.863 258.797 119.108 260.543 119.833 262.54C120.559 264.537 120.735 266.707 120.343 268.803C119.95 270.9 119.004 272.84 117.612 274.404C116.219 275.969 114.436 277.096 112.463 277.657C112.798 276.528 113.257 275.426 113.317 274.255C113.353 273.865 113.299 273.471 113.159 273.107C112.971 272.719 112.695 272.387 112.354 272.139C111.132 271.164 109.561 270.738 108.024 270.765C106.485 270.831 104.972 271.21 103.572 271.88C103.13 272.078 102.6 272.346 102.077 272.529C101.828 272.619 101.57 272.683 101.308 272.719V272.719Z" fill="#FBBEBE"/>
<path d="M129.119 297.786C128.417 298.961 126.916 299.32 125.596 299.216C123.137 299.026 120.899 297.654 118.999 296.004C117.098 294.353 115.437 292.435 113.494 290.847C109.879 287.887 105.807 286.698 101.208 286.628C102.107 285.85 101.776 284.003 101.849 282.79C102.007 280.336 102.156 277.818 101.849 275.4C101.817 275.139 101.78 274.882 101.738 274.626C101.81 274.706 101.887 274.784 101.966 274.864C103.334 276.236 105.018 277.213 106.855 277.703C108.692 278.192 110.618 278.176 112.448 277.657C112.33 278.046 112.238 278.442 112.172 278.844C111.908 280.568 112.352 282.317 112.789 284.005C113.05 285.016 113.359 286.1 114.156 286.731C114.673 287.142 115.324 287.302 115.937 287.518C117.158 287.953 118.286 288.636 119.255 289.526C119.929 290.144 120.536 290.864 121.26 291.402C121.948 291.857 122.673 292.248 123.427 292.571C125.277 293.462 127.024 294.569 128.637 295.87C128.941 296.068 129.178 296.362 129.314 296.708C129.354 296.892 129.357 297.083 129.323 297.268C129.29 297.454 129.221 297.63 129.119 297.786V297.786Z" fill="#FBBEBE"/>
<path d="M141.732 319.398C141.585 320.415 140.692 321.209 140.062 321.999C138.35 324.158 136.614 326.324 134.699 328.3C132.649 330.413 130.398 332.295 128.15 334.178L125.233 336.616C124.873 336.959 124.452 337.225 123.993 337.396C123.455 337.537 122.887 337.466 122.396 337.198C122.2 337.1 122.015 336.981 121.843 336.843C121.238 336.353 120.794 335.683 120.361 335.025C118.388 332.017 116.413 329.008 114.436 325.998C113.731 324.923 113.039 323.819 112.352 322.715C112.26 322.572 112.172 322.427 112.08 322.284C111.453 321.281 110.827 320.277 110.184 319.306L106.67 317.587L106.209 317.364L105.664 317.098C104.94 316.744 104.206 316.382 103.604 315.833C103.027 315.267 102.547 314.603 102.184 313.868C101.481 312.51 100.866 311.104 100.343 309.659C98.8487 305.718 97.5334 301.609 97.4779 297.366C97.4288 293.635 98.4836 289.753 100.858 287.014C101.182 286.637 101.531 286.284 101.902 285.957C102.359 285.558 102.831 285.324 103.418 285.411C104.005 285.498 104.562 285.587 105.126 285.687C106.681 285.967 108.223 286.309 109.753 286.713C111.132 287.081 112.561 287.501 113.955 287.208C114.179 287.162 114.401 287.095 114.624 287.034C114.805 286.985 114.984 286.938 115.17 286.907C115.273 286.889 115.377 286.877 115.482 286.872C116.223 286.831 116.934 287.141 117.617 287.447C118.922 288.031 120.265 288.647 121.247 289.722C121.832 290.369 122.261 291.163 122.885 291.772C123.717 292.586 124.828 293.003 125.827 293.586C126.02 293.697 126.206 293.822 126.384 293.958C126.778 294.267 127.137 294.622 127.452 295.018V295.018C128.746 296.613 129.514 298.765 130.943 300.351C132.086 301.618 133.08 303.024 133.902 304.538C134.037 304.79 134.167 305.044 134.295 305.303C134.509 305.733 134.707 306.171 134.891 306.612C134.938 306.726 134.985 306.835 135.027 306.953C135.296 307.622 135.531 308.305 135.73 308.999C136.215 310.683 136.537 312.501 137.613 313.853C138.365 314.792 139.407 315.414 140.284 316.224C140.849 316.724 141.294 317.356 141.582 318.068C141.741 318.491 141.792 318.949 141.732 319.398Z" fill="#FBBEBE"/>
<path opacity="0.06" d="M135.787 306.001C135.543 306.324 135.291 306.642 135.034 306.956C134.991 307.014 134.944 307.069 134.897 307.125C132.65 309.872 130.077 312.309 127.24 314.377C125.485 315.657 123.634 316.793 121.787 317.926L118.371 320.016C116.942 320.892 115.495 321.776 113.91 322.28C113.402 322.438 112.87 322.565 112.352 322.715C112.26 322.572 112.172 322.427 112.08 322.284C111.453 321.281 110.827 320.277 110.184 319.306L106.67 317.587C108.611 316.305 110.333 314.693 111.764 312.818C113.9 310.067 115.542 306.931 117.16 303.815C117.447 303.312 117.67 302.772 117.824 302.209C118.038 301.274 117.858 300.293 117.596 299.374C116.634 296.079 114.613 293.232 111.873 291.315C109.952 289.977 107.765 289.162 105.592 288.377C104.073 287.829 102.41 287.298 100.866 287.523C101.19 287.146 101.539 286.794 101.911 286.468C102.367 286.066 102.839 285.832 103.426 285.919C104.014 286.006 104.571 286.095 105.135 286.198C106.277 286.564 107.4 287.001 108.517 287.452C109.251 287.733 109.965 288.071 110.652 288.462C111.336 288.898 111.992 289.379 112.619 289.901C114.47 291.375 116.419 292.71 118.452 293.896C120.801 295.25 123.267 296.349 125.731 297.465C125.992 297.605 126.28 297.681 126.574 297.688C126.721 297.687 126.864 297.636 126.98 297.541C127.096 297.447 127.179 297.315 127.215 297.166C127.224 297.003 127.189 296.841 127.112 296.7C126.685 295.787 125.716 295.328 124.838 294.884C121.196 293.041 117.993 290.389 114.824 287.757C114.747 287.693 114.68 287.618 114.623 287.534L115.17 287.407C118.716 290.068 122.461 292.426 126.369 294.46C126.576 294.57 126.783 294.677 126.99 294.781C127.14 294.859 127.287 294.935 127.439 295.004C128.492 295.544 129.544 296.12 130.336 297.012C130.847 297.627 131.278 298.31 131.617 299.044C132.49 300.766 133.235 302.556 133.847 304.397C133.858 304.437 133.872 304.475 133.887 304.513C133.965 304.795 134.099 305.055 134.28 305.278C134.344 305.353 134.42 305.416 134.504 305.463C134.906 305.711 135.457 305.684 135.787 306.001Z" fill="black"/>
<path d="M115.179 286.907C118.724 289.568 122.469 291.926 126.378 293.958L126.999 294.282C128.195 294.893 129.44 295.499 130.347 296.512C130.857 297.129 131.288 297.813 131.628 298.546C132.501 300.268 133.246 302.058 133.855 303.9C133.992 304.308 134.152 304.756 134.515 304.966C134.878 305.176 135.454 305.16 135.777 305.477C135.486 305.856 135.192 306.231 134.886 306.592C132.639 309.34 130.066 311.778 127.23 313.846C125.475 315.126 123.623 316.262 121.776 317.395L118.36 319.485C116.932 320.359 115.484 321.243 113.9 321.747C113.304 321.936 112.674 322.079 112.07 322.262C111.442 321.258 110.816 320.254 110.174 319.284L106.198 317.339C108.333 316.077 110.195 314.281 111.749 312.285C113.885 309.536 115.527 306.4 117.145 303.284C117.432 302.781 117.655 302.241 117.809 301.678C118.023 300.744 117.843 299.76 117.581 298.841C116.619 295.556 114.603 292.718 111.873 290.804C109.952 289.466 107.765 288.654 105.592 287.866C104.073 287.32 102.41 286.787 100.866 287.014C101.191 286.637 101.54 286.284 101.911 285.957C102.367 285.558 102.839 285.324 103.426 285.411C104.014 285.498 104.571 285.587 105.135 285.687C106.277 286.055 107.4 286.492 108.517 286.943C109.252 287.223 109.966 287.561 110.652 287.953C111.336 288.389 111.992 288.87 112.619 289.392C114.473 290.863 116.425 292.194 118.46 293.376C120.809 294.732 123.275 295.841 125.739 296.945C126.001 297.085 126.289 297.162 126.583 297.168C126.73 297.168 126.873 297.117 126.989 297.023C127.105 296.928 127.188 296.795 127.223 296.646C127.233 296.484 127.197 296.323 127.121 296.182C126.694 295.27 125.724 294.808 124.847 294.366C121.204 292.524 118.001 289.869 114.833 287.228C114.755 287.165 114.687 287.09 114.632 287.005L115.179 286.907Z" fill="#71FF80"/>
<path d="M145.095 299.017C152.497 299.017 158.497 292.749 158.497 285.016C158.497 277.283 152.497 271.014 145.095 271.014C137.693 271.014 131.692 277.283 131.692 285.016C131.692 292.749 137.693 299.017 145.095 299.017Z" fill="#71FF80"/>
<path d="M158.421 340.74C160.929 339.917 163.477 339.078 165.68 337.573C167.228 336.515 168.563 335.155 169.968 333.897C171.025 332.951 172.126 332.059 173.096 331.015C173.964 330.038 174.777 329.009 175.53 327.932C177.244 325.588 179.014 323.29 180.84 321.035C181.82 319.833 182.856 318.608 184.224 317.939C186.656 316.746 189.511 317.551 192.078 318.37C195.921 319.596 199.745 320.897 203.341 322.764C205.386 323.828 207.368 325.014 209.432 326.034C213.208 327.896 217.215 329.175 221.208 330.446C221.505 330.578 221.834 330.606 222.148 330.526C222.372 330.419 222.564 330.251 222.705 330.04C223.226 329.368 223.643 328.616 223.941 327.809C223.998 327.718 224.019 327.607 224.001 327.5C223.982 327.392 223.925 327.297 223.841 327.232C222.133 325.494 219.916 324.426 217.845 323.188C216.197 322.204 214.619 321.1 213.043 319.996C211.529 318.936 210.003 317.865 208.732 316.503C208.092 315.813 207.515 315.053 206.821 314.424C206.208 313.9 205.559 313.424 204.878 313.001C201.834 310.97 198.929 308.722 196.184 306.271C194.095 304.406 192.385 302.004 190.154 300.331C188.785 299.305 187.192 298.37 185.518 298.558C183.481 298.781 181.978 300.565 180.558 302.104C175.786 307.281 169.765 310.986 164.44 315.539C160.092 319.251 156.029 323.661 150.734 325.619C150.971 326.44 151.054 327.261 151.293 328.073C151.591 329.201 151.963 330.307 152.406 331.383C152.845 332.335 153.339 333.259 153.885 334.149L156.008 337.769C156.435 338.505 156.881 339.252 157.492 339.837C157.812 340.158 158.421 340.274 158.421 340.74Z" fill="#464353"/>
<path opacity="0.06" d="M158.421 340.74C160.929 339.917 163.477 339.078 165.68 337.573C167.228 336.515 168.563 335.155 169.968 333.897C171.025 332.951 172.126 332.059 173.096 331.015C173.964 330.038 174.777 329.009 175.53 327.932C177.244 325.588 179.014 323.29 180.84 321.035C181.82 319.833 182.856 318.608 184.224 317.939C186.656 316.746 189.511 317.551 192.078 318.37C195.921 319.596 199.745 320.897 203.341 322.764C205.386 323.828 207.368 325.014 209.432 326.034C213.208 327.896 217.215 329.175 221.208 330.446C221.505 330.578 221.834 330.606 222.148 330.526C222.372 330.419 222.564 330.251 222.705 330.04C223.226 329.368 223.643 328.616 223.941 327.809C223.998 327.718 224.019 327.607 224.001 327.5C223.982 327.392 223.925 327.297 223.841 327.232C222.133 325.494 219.916 324.426 217.845 323.188C216.197 322.204 214.619 321.1 213.043 319.996C211.529 318.936 210.003 317.865 208.732 316.503C208.092 315.813 207.515 315.053 206.821 314.424C206.208 313.9 205.559 313.424 204.878 313.001C201.834 310.97 198.929 308.722 196.184 306.271C194.095 304.406 192.385 302.004 190.154 300.331C188.785 299.305 187.192 298.37 185.518 298.558C183.481 298.781 181.978 300.565 180.558 302.104C175.786 307.281 169.765 310.986 164.44 315.539C160.092 319.251 156.029 323.661 150.734 325.619C150.971 326.44 151.054 327.261 151.293 328.073C151.591 329.201 151.963 330.307 152.406 331.383C152.845 332.335 153.339 333.259 153.885 334.149L156.008 337.769C156.435 338.505 156.881 339.252 157.492 339.837C157.812 340.158 158.421 340.274 158.421 340.74Z" fill="black"/>
<path d="M216.874 336.491C217.112 336.842 217.274 337.244 217.347 337.668C217.421 338.092 217.405 338.528 217.301 338.945C218.06 339.518 218.983 339.802 219.918 339.75C220.85 339.696 221.765 339.477 222.626 339.103C223.372 338.818 224.078 338.431 224.727 337.952C225.844 337.091 226.649 335.86 227.3 334.581C227.661 333.879 227.968 332.967 227.503 332.333C227.325 332.117 227.107 331.941 226.862 331.816C225.22 330.836 223.511 329.985 221.748 329.27C221.263 329.037 220.736 328.914 220.202 328.907C219.545 328.945 218.949 329.322 218.428 329.741C217.258 330.693 216.314 331.914 215.672 333.31C215.471 333.756 214.864 334.818 215.163 335.277C215.3 335.489 215.804 335.563 216.017 335.695C216.353 335.895 216.645 336.166 216.874 336.491V336.491Z" fill="#FBBEBE"/>
<path d="M226.651 331.213C230.263 331.916 233.586 333.738 237.137 334.722C238.574 335.119 240.053 335.391 241.426 335.976C242.799 336.56 244.093 337.559 244.685 338.982C244.934 339.666 245.1 340.379 245.178 341.106C245.332 342.134 245.457 343.283 244.872 344.126C244.255 345.018 243.09 345.217 242.045 345.346C238.292 345.815 234.538 346.281 230.772 346.611C230.011 346.661 229.253 346.755 228.502 346.894C227.883 347.026 227.278 347.22 226.663 347.372C225.869 347.568 225.058 347.688 224.251 347.818C222.186 348.126 220.098 348.438 218.025 348.199C217.079 348.09 216.02 347.771 215.603 346.879C215.43 346.416 215.357 345.92 215.39 345.424C215.39 344.102 215.368 342.777 215.39 341.454C215.409 340.095 215.473 338.686 216.062 337.475C216.209 337.104 216.484 336.805 216.833 336.638C217.048 336.574 217.273 336.553 217.495 336.576C218.605 336.616 219.754 336.665 220.747 337.182C221.535 337.591 222.103 336.37 222.906 336.736C224.428 337.439 223.397 335.309 224.934 335.971C225.293 334.816 226.817 335.503 226.552 334.318C226.288 333.134 227.238 333.649 227.129 332.431C227.124 332.166 227.075 331.903 226.984 331.655C226.864 331.416 226.903 331.175 226.651 331.213Z" fill="#464353"/>
<path opacity="0.06" d="M118.431 259.846C117.602 260.35 116.575 260.256 115.61 260.234C114.766 260.216 113.922 260.261 113.084 260.37C112.782 260.392 112.487 260.474 112.215 260.611C111.86 260.85 111.58 261.192 111.408 261.595C111.066 262.28 110.836 263.021 110.727 263.785C110.607 264.644 110.62 265.583 110.108 266.263C109.409 267.189 108.32 267.046 107.332 267.229C106.471 267.402 105.647 267.731 104.896 268.202C104.155 268.669 103.519 269.298 103.032 270.045C102.545 270.792 102.218 271.64 102.073 272.531C102.045 272.734 102.026 272.935 102.017 273.138C101.996 273.713 102.051 274.3 101.979 274.864C101.961 275.005 101.934 275.145 101.898 275.282C101.888 275.322 101.876 275.361 101.861 275.4C101.829 275.139 101.793 274.882 101.75 274.626C101.099 273.935 100.535 273.161 100.072 272.322C99.9472 272.177 99.8468 272.011 99.7753 271.831C99.0835 270.149 98.6116 268.447 98.6116 266.605C98.6115 264.188 99.3428 261.834 100.701 259.878C102.059 257.922 103.974 256.465 106.173 255.715C108.372 254.965 110.741 254.961 112.942 255.703C115.144 256.445 117.064 257.895 118.428 259.846H118.431Z" fill="black"/>
<path d="M119.133 255.456C118.584 254.129 117.425 253.188 116.233 252.449C113.885 250.986 111.182 250.067 108.44 250.029C107.057 250.029 105.677 250.179 104.323 250.475C103.004 250.722 101.711 251.105 100.465 251.62C98.4083 252.513 96.5903 253.915 95.1676 255.706C94.8687 255.73 94.5723 255.78 94.2815 255.855C93.1199 256.159 92.0737 256.826 91.1192 257.582C90.3205 258.186 89.6112 258.91 89.0139 259.73C88.315 260.777 87.8315 261.964 87.594 263.216C86.7805 267.133 87.7819 271.175 88.5164 275.108C89.2509 279.04 89.6801 283.336 87.8759 286.869C87.1948 288.208 86.2275 289.345 85.5015 290.648C84.7756 291.951 84.293 293.519 84.7051 294.964C85.1962 296.722 86.8489 297.837 87.7115 299.419C88.2398 300.453 88.4283 301.64 88.2482 302.798C88.068 303.955 87.5292 305.018 86.7143 305.825C88.0702 306.316 89.5798 305.787 90.8011 305.002C91.7694 304.413 92.5933 303.596 93.2075 302.617C94.7427 300.021 94.0615 296.668 94.5953 293.668C95.3064 289.742 98.1761 286.24 97.781 282.265C97.5141 279.589 95.8231 277.369 94.4928 275.074C93.6055 273.543 92.8598 271.928 92.2658 270.249C91.8388 269.052 91.4929 267.764 91.7043 266.506C91.7742 266.122 91.8867 265.748 92.0395 265.391C92.0395 265.434 92.0395 265.476 92.0395 265.518C92.0638 266.674 92.3123 267.812 92.7697 268.864C94.3583 272.255 98.5882 273.504 100.38 276.78C100.903 276.185 101.447 275.56 101.661 274.784C101.849 274.093 101.753 273.357 101.78 272.638C101.855 270.631 103.023 268.739 104.659 267.704C105.409 267.233 106.234 266.904 107.095 266.734C108.081 266.549 109.17 266.689 109.871 265.764C110.383 265.094 110.37 264.144 110.492 263.288C110.6 262.522 110.83 261.781 111.173 261.095C111.344 260.692 111.625 260.351 111.98 260.114C112.253 259.975 112.549 259.893 112.851 259.873C113.688 259.764 114.532 259.718 115.375 259.737C116.351 259.761 117.395 259.853 118.232 259.328C119.411 258.579 119.682 256.794 119.133 255.456Z" fill="#464353"/>
<path opacity="0.06" d="M238.45 243.143C238.45 243.175 238.45 243.203 238.45 243.235C238.063 246.714 234.86 246.554 234.113 252.037C233.819 254.185 230.697 254.582 228.645 255.159C227.759 254.847 226.862 254.577 225.976 254.24C223.926 253.466 225.359 252.304 226.236 251.055C229.108 246.964 229.653 241.374 232.913 237.616C234.109 239.989 236 241.9 238.311 243.07C238.356 243.101 238.403 243.123 238.45 243.143Z" fill="black"/>
<path d="M238.524 241.147C238.524 241.675 238.496 242.202 238.439 242.726C238.046 246.348 236.316 249.667 233.618 251.977C230.919 254.287 227.465 255.408 223.988 255.099C220.512 254.791 217.287 253.078 215 250.326C212.713 247.573 211.544 243.997 211.741 240.358C211.937 236.719 213.485 233.304 216.054 230.838C218.623 228.372 222.012 227.05 225.5 227.152C228.987 227.255 232.299 228.774 234.731 231.388C237.163 234.001 238.524 237.502 238.524 241.147V241.147Z" fill="#A1616A"/>
<path d="M243.916 242.713C245.451 242.635 246.927 243.264 248.344 243.882C253.966 246.335 259.635 248.809 264.659 252.411C267.136 254.196 269.431 256.221 271.723 258.253L281.137 266.609C282.945 268.213 284.766 269.832 286.218 271.795C287.073 273.006 287.852 274.272 288.552 275.587L289.949 278.074C290.521 279.048 291.02 280.066 291.443 281.119C292.161 283.039 292.428 285.279 293.875 286.682C294.847 287.626 296.185 288.009 297.373 288.632C298.56 289.254 299.721 290.347 299.702 291.734C299.702 292.627 299.185 293.43 298.797 294.233C297.992 295.911 297.655 297.791 297.823 299.66L282.428 287.369C281.816 286.881 281.175 286.376 280.421 286.211C279.443 285.988 278.446 286.374 277.503 286.722C270.063 289.463 262.156 290.549 254.291 289.91C250.813 289.624 247.281 288.971 244.236 287.193C242.552 286.211 241.061 284.911 239.581 283.624C237.735 282.009 235.881 280.39 234.243 278.543C233.816 278.05 233.372 277.508 233.263 276.847C233.182 276.37 233.283 275.884 233.321 275.402C233.59 272.018 230.9 269.201 230.08 265.915C229.716 264.366 229.766 262.742 230.226 261.221C230.686 259.699 231.537 258.339 232.687 257.29C234.521 258.967 234.455 261.914 234.241 264.45C233.953 267.865 234.867 269.558 234.579 272.975C235.74 272.931 235.529 273.711 236.024 272.612C236.52 271.512 236.616 270.272 236.71 269.06C237.053 264.68 237.469 260.306 237.959 255.94C238.202 253.756 238.48 251.577 238.747 249.396C238.909 248.068 238.888 246.828 239.558 245.651C240.489 244.02 242.071 242.804 243.916 242.713Z" fill="#71FF80"/>
<path d="M245.925 246.692C246.903 246.371 247.956 246.665 248.938 246.971C250.674 247.509 252.401 248.078 254.118 248.677C255.521 249.166 256.943 249.69 258.13 250.611C259.362 251.566 260.265 252.893 261.16 254.198C261.8 255.137 262.441 256.087 262.868 257.154C263.423 258.55 263.572 260.08 263.722 261.584C263.82 262.232 263.812 262.894 263.698 263.54C263.498 264.241 263.145 264.885 262.667 265.42C261.932 266.329 261.08 267.127 260.135 267.791C257.622 269.558 254.583 270.294 251.624 270.943C248.983 271.521 246.322 272.058 243.628 272.232C242.579 272.301 241.362 272.232 240.722 271.367C240.539 271.097 240.395 270.801 240.295 270.488C238.72 266.132 238.039 261.479 238.294 256.83C238.317 255.983 238.443 255.142 238.668 254.327C238.889 253.676 239.164 253.045 239.49 252.443C240.299 250.843 241.151 249.188 242.545 248.118C244.003 247.002 245.893 246.65 247.702 246.721" fill="#A1616A"/>
<path opacity="0.06" d="M255.762 263.234C254.923 263.825 254.63 264.967 254.524 266.02C254.069 270.497 255.837 274.929 255.719 279.428C255.625 282.997 254.349 286.423 253.089 289.753C250.941 295.435 249.822 301.605 249.388 307.696C248.955 313.788 248.321 320.132 245.191 325.284C244.48 326.451 243.651 327.535 242.955 328.708C242.225 329.935 241.646 331.251 241.001 332.527C239.101 336.295 236.652 339.732 233.742 342.714C232.888 343.584 231.982 344.427 230.893 344.929C230.192 345.247 229.436 345.415 228.671 345.424C227.906 345.432 227.147 345.281 226.439 344.978C224.979 344.347 223.749 342.924 223.689 341.273C223.636 339.797 224.479 338.465 225.325 337.283C228.191 333.277 231.486 329.628 235.147 326.406C235.811 325.822 236.511 325.217 236.855 324.383C237.241 323.422 237.083 322.331 237.132 321.289C237.211 319.628 237.831 318.051 238.2 316.431C239.695 309.853 237.038 302.671 239.199 296.298C239.68 294.882 240.393 293.528 240.562 292.035C240.681 290.991 240.431 289.825 239.808 289.042C239.222 288.338 238.894 287.44 238.881 286.508C238.881 286.316 238.881 286.127 238.905 285.939C239.165 283.019 239.423 280.086 239.283 277.157C239.142 274.229 238.584 271.284 237.29 268.681C236.62 267.332 235.753 266.069 235.339 264.613C234.673 262.255 235.288 259.705 236.28 257.475C237.056 255.73 238.089 254.069 239.532 252.873C242.214 250.654 246.228 250.397 249.164 252.233C251.329 253.585 252.811 255.858 254.013 258.175C254.876 259.868 255.786 261.302 255.762 263.234Z" fill="black"/>
<path d="M256.249 263.234C255.41 263.825 255.117 264.967 255.01 266.02C254.556 270.497 256.324 274.929 256.206 279.428C256.112 282.997 254.835 286.423 253.576 289.753C251.428 295.435 250.311 301.605 249.875 307.696C249.44 313.788 248.808 320.132 245.677 325.284C244.966 326.451 244.14 327.535 243.442 328.708C242.714 329.935 242.133 331.251 241.488 332.527C239.588 336.295 237.139 339.732 234.229 342.714C233.374 343.584 232.467 344.427 231.378 344.929C230.676 345.247 229.921 345.415 229.156 345.424C228.391 345.432 227.632 345.281 226.924 344.978C225.466 344.347 224.236 342.924 224.176 341.273C224.121 339.797 224.964 338.465 225.812 337.283C228.677 333.277 231.973 329.628 235.633 326.406C236.298 325.822 237 325.217 237.342 324.383C237.73 323.422 237.57 322.331 237.619 321.289C237.698 319.628 238.317 318.051 238.687 316.431C240.181 309.853 237.525 302.671 239.686 296.298C240.167 294.882 240.882 293.528 241.05 292.035C241.168 290.991 240.92 289.825 240.297 289.042C239.7 288.343 239.362 287.444 239.344 286.508C239.344 286.316 239.344 286.127 239.368 285.939C239.626 283.019 239.885 280.086 239.744 277.157C239.603 274.229 239.046 271.284 237.752 268.681C237.081 267.332 236.214 266.069 235.8 264.613C235.134 262.255 235.749 259.705 236.742 257.475C237.519 255.73 238.55 254.069 239.994 252.873C242.675 250.654 246.69 250.397 249.625 252.233C251.791 253.585 253.272 255.858 254.474 258.175C255.358 259.868 256.264 261.302 256.249 263.234Z" fill="#A1616A"/>
<path d="M277.842 321.481L277.658 321.539Z" fill="#464353"/>
<path d="M240.444 331.434C240.452 331.359 240.465 331.284 240.483 331.211Z" fill="#464353"/>
<path d="M286.223 316.128C286.838 315.385 287.786 315.053 288.697 314.805C290.166 314.408 291.667 314.153 293.181 314.042C294.121 313.937 295.071 313.998 295.991 314.223C296.901 314.484 297.763 315.05 298.225 315.909C298.632 316.668 298.696 317.569 298.75 318.436C298.861 320.221 298.963 322.005 298.682 323.763C298.5 324.878 298.161 325.958 297.941 327.064C297.227 330.691 297.847 334.445 297.783 338.148C297.768 338.938 297.719 339.747 297.4 340.463C297.061 341.224 296.45 341.802 295.854 342.373C295.199 342.991 294.533 343.613 293.743 344.026C292.573 344.639 291.225 344.742 289.916 344.784C289.12 344.809 288.3 344.811 287.568 344.505C286.835 344.2 286.176 343.513 286.122 342.681C286.037 341.269 287.561 340.345 287.997 339.007C288.343 337.941 287.946 336.763 287.395 335.793C286.511 334.246 285.251 332.972 283.741 332.101C283.182 331.78 282.586 331.51 282.121 331.057C281.655 330.604 281.339 329.902 281.538 329.273C281.775 328.512 282.623 328.157 283.385 328.082C284.147 328.006 284.952 328.064 285.638 327.709C286.248 327.395 286.673 326.788 286.966 326.148C287.588 324.781 287.675 323.215 287.207 321.782C287.022 321.238 286.754 320.728 286.413 320.272C286.092 319.844 285.435 319.483 285.206 319.014C284.801 318.171 285.678 316.797 286.223 316.128Z" fill="#71FF80"/>
<path opacity="0.06" d="M273.815 283.802C270.288 280.546 265.37 279.66 260.758 278.672C258.383 278.165 256.018 277.6 253.665 276.977C252.119 276.566 250.569 276.129 248.968 276.015C247.366 275.902 245.718 276.136 244.347 276.988C242.976 277.84 241.943 279.384 241.934 281.05C241.934 281.719 242.086 282.375 242.039 283.037C241.964 284.103 241.398 285.045 241.012 286.042C240.421 287.618 240.33 289.351 240.754 290.985C241.437 293.588 243.406 295.881 243.235 298.569C242.951 303.068 243.038 307.77 243.922 312.175C244.806 316.581 245.91 321.006 245.885 325.514C245.859 330.022 244.552 334.762 241.33 337.764C243.513 339.906 246.183 341.43 249.087 342.192C251.571 342.841 254.524 342.777 256.291 340.843C256.701 340.397 257.041 339.801 256.956 339.188C256.867 338.801 256.712 338.434 256.496 338.106C255.282 335.833 255.429 333.031 255.967 330.493C256.505 327.954 257.425 325.487 257.658 322.895C257.829 321.015 257.637 319.103 257.98 317.248C258.245 315.827 258.817 314.488 259.161 313.085C260.175 308.923 259.11 304.553 258.051 300.407C258.937 302.537 260.613 304.199 262.347 305.644C264.977 307.835 268.159 309.768 271.503 309.38C274.479 309.032 277.014 306.871 278.762 304.335C278.777 301.402 279.751 298.629 279.578 295.702C279.466 294.417 279.246 293.144 278.92 291.899C278.594 290.507 278.258 289.102 277.639 287.824C276.821 286.127 275.177 285.058 273.815 283.802Z" fill="black"/>
<path d="M274.545 283.802C271.018 280.546 266.103 279.66 261.489 278.672C259.113 278.165 256.749 277.6 254.398 276.977C252.852 276.566 251.299 276.129 249.7 276.015C248.101 275.902 246.452 276.136 245.082 276.988C243.711 277.84 242.675 279.384 242.669 281.05C242.669 281.719 242.818 282.375 242.771 283.037C242.699 284.103 242.12 285.045 241.744 286.042C241.154 287.618 241.064 289.351 241.488 290.985C242.169 293.588 244.138 295.881 243.969 298.569C243.683 303.068 243.771 307.77 244.655 312.175C245.539 316.581 246.643 321.006 246.617 325.514C246.591 330.022 245.276 334.746 242.052 337.744C244.235 339.885 246.905 341.409 249.809 342.172C252.292 342.821 255.247 342.757 257.013 340.823C257.423 340.376 257.763 339.781 257.677 339.167C257.589 338.78 257.434 338.414 257.218 338.086C256.003 335.813 256.151 333.011 256.689 330.473C257.227 327.934 258.147 325.467 258.382 322.875C258.55 320.995 258.358 319.083 258.704 317.228C258.967 315.807 259.541 314.468 259.883 313.065C260.897 308.903 259.834 304.533 258.773 300.387C259.659 302.517 261.335 304.179 263.071 305.624C265.701 307.814 268.881 309.748 272.224 309.36C275.201 309.012 277.735 306.851 279.484 304.315C279.497 301.381 280.47 298.609 280.297 295.682C280.186 294.397 279.966 293.124 279.64 291.879C279.315 290.487 278.978 289.082 278.359 287.804C277.564 286.127 275.907 285.058 274.545 283.802Z" fill="#A1616A"/>
<path d="M250.042 340.091C248.475 339.094 247.123 337.771 246.068 336.203C245.688 335.641 245.346 335.043 244.872 334.566C244.398 334.088 243.756 333.734 243.1 333.805C242.359 333.885 241.766 334.474 241.296 335.081C240.036 336.712 239.225 338.706 237.826 340.211C236.212 341.953 233.959 342.888 231.711 343.486C229.463 344.084 227.142 344.398 224.938 345.154C224.246 345.391 223.518 345.712 223.145 346.366C222.671 347.198 222.931 348.288 223.431 349.114C224.351 350.675 225.935 351.681 227.588 352.279C229.241 352.877 230.989 353.115 232.713 353.468C235.757 354.09 238.877 355.087 241.907 354.385C243.115 354.103 244.255 353.559 245.477 353.323C248.252 352.783 251.116 353.874 253.902 353.437C255.249 353.225 256.522 352.663 257.746 352.029C258.359 351.752 258.917 351.356 259.39 350.862C259.836 350.345 260.105 349.611 259.921 348.942C259.817 348.556 259.575 348.23 259.415 347.867C259.163 347.305 259.112 346.673 259.052 346.056C258.822 343.704 258.431 341.372 257.882 339.078C257.692 338.277 257.408 337.385 256.693 337.035C256.547 336.953 256.376 336.933 256.217 336.979C255.963 337.08 255.879 337.401 255.803 337.671C255.593 338.417 255.192 339.089 254.642 339.614C254.093 340.138 253.416 340.496 252.686 340.647C251.956 340.798 251.2 340.738 250.5 340.472C249.801 340.206 249.184 339.745 248.718 339.138" fill="#71FF80"/>
<path opacity="0.06" d="M238.525 241.147C238.524 241.675 238.496 242.202 238.439 242.726C237.766 242.831 237.079 242.769 236.434 242.545C235.788 242.321 235.202 241.94 234.724 241.435C234.273 240.935 233.936 240.331 233.49 239.826C233.043 239.322 232.422 238.903 231.782 238.957C231.235 238.999 230.761 239.36 230.387 239.78C229.901 240.326 229.545 240.983 229.347 241.7C229.204 242.206 229.134 242.782 228.733 243.119C228.331 243.456 227.838 243.433 227.362 243.415C226.745 243.393 226.104 243.362 225.56 243.059C224.535 242.481 224.189 241.158 223.809 240.007C223.168 238.073 221.727 234.415 219.487 234.025C218.42 233.84 217.121 234.428 216.284 235.064C215.022 236.021 214.091 236.641 212.46 236.614C213.489 233.479 215.548 230.826 218.273 229.128C220.998 227.43 224.211 226.796 227.34 227.34C230.47 227.884 233.314 229.57 235.366 232.098C237.417 234.626 238.544 237.832 238.546 241.147H238.525Z" fill="black"/>
<path d="M212.441 236.104C212.056 236.112 211.673 236.049 211.309 235.916C210.274 235.492 209.77 234.243 209.682 233.086C209.546 231.321 210.109 229.59 210.675 227.92C210.795 227.556 210.938 227.166 211.25 226.963C211.502 226.833 211.778 226.761 212.059 226.751C213.592 226.528 214.922 225.548 216.054 224.451C217.185 223.354 218.206 222.109 219.47 221.194C222.822 218.779 227.797 219.229 230.697 222.209C231.846 223.387 232.832 224.984 234.425 225.261C235.343 225.419 236.327 225.089 237.201 225.446C237.841 225.707 238.298 226.298 238.665 226.902C239.857 228.856 240.416 231.172 240.602 233.48C240.788 235.789 240.617 238.111 240.444 240.42C240.454 240.765 240.369 241.107 240.199 241.403C240.062 241.575 239.891 241.712 239.697 241.805C238.885 242.223 237.968 242.364 237.075 242.207C236.183 242.05 235.36 241.603 234.724 240.931C234.271 240.433 233.936 239.829 233.49 239.322C233.043 238.816 232.422 238.401 231.782 238.455C231.237 238.497 230.759 238.858 230.387 239.278C229.901 239.824 229.545 240.482 229.347 241.198C229.207 241.705 229.134 242.28 228.733 242.615C228.331 242.949 227.838 242.931 227.36 242.914C226.745 242.889 226.104 242.86 225.56 242.554C224.533 241.979 224.187 240.656 223.809 239.505C223.168 237.571 221.729 233.911 219.487 233.523C218.42 233.335 217.121 233.927 216.284 234.562C215.003 235.512 214.081 236.133 212.441 236.104Z" fill="#464353"/>
<path opacity="0.06" d="M141.732 319.398C141.585 320.415 140.692 321.209 140.062 321.999C138.35 324.158 136.614 326.324 134.699 328.3C132.649 330.413 130.398 332.295 128.15 334.178L125.233 336.616C124.873 336.959 124.452 337.225 123.993 337.396C123.455 337.537 122.887 337.466 122.396 337.198C122.438 337.109 122.483 337.026 122.532 336.944L126.03 330.821C126.717 329.621 127.168 328.528 127.951 327.401C129.132 325.715 130.324 324.02 131.778 322.59C133.616 320.781 135.973 319.467 138.16 318.16C138.476 317.17 139.8 316.895 140.694 317.364C141.026 317.543 141.324 317.783 141.576 318.071C141.736 318.492 141.79 318.949 141.732 319.398V319.398Z" fill="black"/>
<path d="M126.273 331.073L122.776 337.198C122.633 337.446 122.485 337.727 122.547 338.008C122.626 338.244 122.776 338.446 122.974 338.585C124.315 339.725 125.801 340.927 126.222 342.678C126.523 343.928 126.222 345.266 126.491 346.52C126.984 348.781 129.16 350.155 131.218 351.025C135.83 352.975 140.95 353.724 145.851 352.81C150.751 351.895 155.401 349.29 158.574 345.284C159.548 344.052 160.381 342.705 161.305 341.434C163.867 337.921 167.119 335.036 170.346 332.181C174.499 328.505 176.946 323.023 180.595 318.798C181.259 318.028 181.991 317.236 182.943 316.982C183.477 316.842 184.224 317.049 184.246 317.625C184.295 318.74 185.153 319.652 185.74 320.585C187.952 324.118 190.267 327.76 193.685 330.013C195.556 331.249 197.676 332.005 199.79 332.69C205.149 334.434 210.613 335.813 216.071 337.178C216.346 336.602 216.677 336.058 217.057 335.552C217.623 334.827 218.368 334.274 218.936 333.544C219.976 332.23 220.341 330.493 220.674 328.824C217.414 326.739 214.068 324.586 210.852 322.418C209.234 321.33 207.605 320.217 206.294 318.744C205.44 317.776 204.722 316.668 203.866 315.693C202.99 314.747 202.047 313.872 201.043 313.076L193.357 306.646C191.149 304.801 188.898 302.854 186.738 300.944C185.523 299.869 184.175 298.738 182.587 298.687C181.227 298.642 179.975 299.403 178.805 300.135C171.933 304.434 164.958 308.539 157.88 312.452C156.448 313.242 155.009 314.027 153.642 314.935C150.983 316.702 148.623 318.916 146.656 321.488C146.295 321.959 145.838 322.494 145.266 322.423C145.108 322.398 144.957 322.343 144.819 322.26C143.938 321.767 143.397 320.814 142.898 319.911C142.398 319.008 141.841 318.057 140.946 317.589C140.052 317.12 138.73 317.395 138.412 318.387C136.215 319.732 133.866 321.035 132.025 322.844C130.571 324.274 129.38 325.967 128.199 327.656C127.411 328.782 126.958 329.875 126.273 331.073Z" fill="#464353"/>
<path opacity="0.06" d="M120.544 293.715C120.544 293.715 124.061 295.346 126.583 297.186Z" fill="black"/>
<path d="M296.668 297.068C296.732 299.149 296.783 301.234 296.76 303.313C296.747 304.415 296.702 305.564 296.196 306.53C295.835 307.223 295.265 307.765 294.702 308.296L291.185 311.627C290.094 312.659 288.917 313.737 287.463 313.993C285.8 314.288 284.175 313.442 282.576 312.878C280.965 312.311 279.279 312.015 277.579 312.001C276.606 312.001 275.624 312.082 274.663 311.921C273.968 311.783 273.286 311.581 272.626 311.316L269.451 310.166C269.54 309.329 270.305 308.796 270.945 308.267C273.219 306.34 274.216 303.242 274.934 300.277C275.517 297.963 275.932 295.606 276.177 293.227C276.285 292.049 276.335 290.851 276.098 289.693C275.874 288.759 275.559 287.852 275.158 286.985L274.041 284.355C273.401 282.87 272.12 282.21 270.815 281.333C272.784 282.114 275.184 282.419 276.68 283.967C276.969 284.31 277.311 284.6 277.693 284.824C278.1 285.027 278.564 285.047 279.01 285.123C281.233 285.471 283.122 286.93 284.959 288.279C287.206 289.933 289.517 291.486 291.889 292.939C292.957 293.595 294.059 294.239 294.958 295.134C295.857 296.028 296.561 297.219 296.619 298.515" fill="#464353"/>
<path opacity="0.06" d="M105.192 293.414C102.393 293.992 100.937 297.429 101.101 300.402C101.259 303.058 102.303 305.572 104.052 307.507C105.22 308.789 106.676 309.78 107.731 311.165C109.29 313.208 109.832 315.909 111.226 318.08C112.238 319.654 113.658 320.89 115.07 322.075C118.324 324.787 121.684 327.354 125.15 329.777C126.559 330.76 128.101 331.755 129.796 331.717C131.393 331.682 132.864 330.702 133.906 329.435C134.948 328.169 135.615 326.629 136.291 325.113C138.73 319.558 141.185 313.944 142.351 307.957C142.716 306.077 142.962 304.138 143.777 302.419C144.418 301.08 145.366 299.934 146.212 298.725C148.209 295.856 149.611 292.583 150.328 289.116C150.794 286.854 150.95 284.431 150.185 282.268C149.421 280.104 147.565 278.228 145.355 278.059C143.607 277.925 141.89 278.862 140.716 280.224C139.541 281.587 138.849 283.329 138.377 285.094C137.701 287.632 137.441 290.272 137.609 292.901C137.745 295.022 138.16 297.163 137.81 299.26C137.562 300.739 136.945 302.12 136.334 303.48C134.756 306.991 133.153 310.547 130.768 313.518C129.99 314.486 128.921 315.465 127.731 315.238C126.087 314.926 125.652 312.751 124.84 311.223C123.845 309.349 121.958 308.223 120.478 306.735C118.373 304.616 117.111 301.774 115.614 299.151C114.117 296.528 112.181 293.938 109.422 292.932C106.663 291.926 102.987 293.218 102.278 296.18" fill="black"/>
<path opacity="0.06" d="M107.304 295.45C104.503 296.028 100.937 296.405 101.112 299.383C101.268 302.039 102.313 304.554 104.063 306.487C105.231 307.772 106.687 308.763 107.742 310.148C109.3 312.191 109.843 314.89 111.237 317.063C112.249 318.64 113.669 319.875 115.08 321.057C118.334 323.771 121.695 326.339 125.161 328.76C126.57 329.746 128.111 330.74 129.807 330.703C131.404 330.667 132.875 329.685 133.917 328.421C134.959 327.156 135.625 325.615 136.302 324.096C138.74 318.541 141.196 312.927 142.362 306.94C142.727 305.062 142.972 303.121 143.788 301.404C144.429 300.065 145.377 298.919 146.222 297.708C148.22 294.84 149.622 291.568 150.339 288.101C150.804 285.837 150.96 283.416 150.196 281.251C149.431 279.085 147.576 277.213 145.366 277.041C143.617 276.908 141.901 277.847 140.726 279.207C139.552 280.568 138.86 282.312 138.388 284.079C137.712 286.617 137.452 289.257 137.62 291.886C137.756 294.009 138.17 296.151 137.82 298.245C137.573 299.726 136.955 301.107 136.345 302.468C134.767 305.979 133.163 309.532 130.778 312.505C130.001 313.474 128.931 314.45 127.742 314.225C126.098 313.911 125.662 311.736 124.851 310.21C123.856 308.336 121.969 307.21 120.489 305.722C118.384 303.605 117.122 300.761 115.625 298.138C114.128 295.515 112.191 292.928 109.433 291.919C106.674 290.911 110.129 297.369 109.418 300.331" fill="black"/>
<path d="M105.192 292.903C102.393 293.481 100.937 296.918 101.101 299.891C101.259 302.548 102.303 305.063 104.052 306.998C105.22 308.281 106.676 309.271 107.731 310.656C109.29 312.699 109.832 315.401 111.226 317.571C112.238 319.148 113.658 320.384 115.07 321.568C118.324 324.281 121.684 326.847 125.15 329.268C126.559 330.254 128.101 331.249 129.796 331.211C131.393 331.175 132.864 330.196 133.906 328.929C134.948 327.662 135.615 326.123 136.291 324.606C138.73 319.052 141.185 313.438 142.351 307.449C142.716 305.571 142.962 303.63 143.777 301.912C144.418 300.574 145.366 299.428 146.212 298.216C148.209 295.349 149.612 292.076 150.328 288.609C150.794 286.345 150.95 283.925 150.185 281.759C149.421 279.593 147.565 277.722 145.355 277.552C143.607 277.416 141.89 278.355 140.716 279.718C139.541 281.081 138.849 282.823 138.377 284.587C137.701 287.126 137.441 289.765 137.609 292.394C137.745 294.516 138.16 296.657 137.81 298.752C137.562 300.233 136.945 301.613 136.334 302.974C134.756 306.485 133.153 310.041 130.768 313.012C129.99 313.98 128.921 314.957 127.731 314.732C126.087 314.417 125.652 312.244 124.84 310.716C123.845 308.841 121.958 307.714 120.478 306.229C118.373 304.109 117.111 301.268 115.614 298.645C114.117 296.021 112.181 293.434 109.422 292.428C106.663 291.422 102.987 292.713 102.278 295.676" fill="#FBBEBE"/>
<g opacity="0.06">
<path opacity="0.06" d="M94.4929 275.085C93.6056 273.554 92.8599 271.939 92.2659 270.26L92.1933 270.037C91.7427 269.532 91.3638 268.962 91.068 268.344C90.6103 267.292 90.3618 266.154 90.3378 264.999C90.3378 264.956 90.3378 264.914 90.3378 264.871C90.185 265.228 90.0725 265.603 90.0026 265.987C89.7891 267.245 90.1414 268.53 90.5641 269.73C91.1586 271.408 91.9042 273.023 92.7911 274.554C94.1171 276.87 95.8103 279.1 96.0729 281.757C96.468 285.732 93.5983 289.232 92.8894 293.16C92.347 296.16 93.0346 299.512 91.4994 302.109C90.8857 303.088 90.0617 303.903 89.093 304.491C88.4854 304.895 87.8202 305.197 87.1222 305.383C86.9949 305.541 86.858 305.69 86.7122 305.829C88.0681 306.32 89.5777 305.791 90.799 305.006C91.7674 304.417 92.5912 303.601 93.2054 302.622C94.7406 300.025 94.0595 296.673 94.5933 293.673C95.3043 289.747 98.174 286.245 97.779 282.27C97.5142 279.598 95.8231 277.369 94.4929 275.085Z" fill="black"/>
<path opacity="0.06" d="M119.133 255.456C118.584 254.129 117.425 253.188 116.233 252.449C114.723 251.503 113.08 250.81 111.363 250.397C112.465 250.799 113.525 251.315 114.527 251.938C115.719 252.679 116.876 253.618 117.429 254.948C117.982 256.277 117.707 258.07 116.52 258.811C115.683 259.335 114.638 259.241 113.663 259.219C112.819 259.199 111.976 259.244 111.139 259.353C110.837 259.376 110.541 259.457 110.268 259.594C109.911 259.835 109.631 260.18 109.461 260.586C109.117 261.272 108.886 262.013 108.777 262.779C108.658 263.636 108.668 264.575 108.156 265.255C107.46 266.181 106.371 266.04 105.38 266.223C104.52 266.396 103.695 266.725 102.944 267.196C101.308 268.228 100.14 270.115 100.066 272.13C100.04 272.848 100.134 273.582 99.9483 274.273C99.8285 274.677 99.6405 275.054 99.3932 275.389C99.7715 275.811 100.102 276.277 100.38 276.778C100.903 276.183 101.447 275.558 101.661 274.782C101.849 274.09 101.753 273.354 101.78 272.636C101.855 270.628 103.023 268.737 104.659 267.702C105.409 267.23 106.234 266.902 107.095 266.732C108.081 266.547 109.17 266.687 109.871 265.761C110.383 265.092 110.37 264.142 110.492 263.285C110.6 262.52 110.83 261.779 111.173 261.093C111.344 260.69 111.625 260.349 111.98 260.111C112.253 259.973 112.549 259.891 112.851 259.87C113.688 259.762 114.532 259.716 115.375 259.734C116.351 259.759 117.395 259.85 118.232 259.326C119.411 258.579 119.682 256.794 119.133 255.456Z" fill="black"/>
</g>
<path opacity="0.06" d="M105.152 276.769C105.152 276.769 107.673 279.036 112.463 277.662C112.463 277.657 109.497 278.877 105.152 276.769Z" fill="black"/>
<path opacity="0.06" d="M240.397 238.537C240.402 238.882 240.313 239.22 240.141 239.514C240.004 239.685 239.833 239.821 239.639 239.913C238.828 240.332 237.911 240.473 237.019 240.316C236.127 240.16 235.304 239.714 234.668 239.041C234.216 238.542 233.88 237.926 233.434 237.433C232.988 236.94 232.367 236.51 231.726 236.563C231.182 236.608 230.705 236.969 230.332 237.386C229.848 237.934 229.492 238.591 229.292 239.307C229.153 239.815 229.078 240.389 228.679 240.725C228.28 241.062 227.784 241.04 227.306 241.022C226.689 241 226.049 240.971 225.506 240.665C224.479 240.09 224.133 238.765 223.753 237.616C223.113 235.68 221.674 232.022 219.434 231.631C218.366 231.446 217.066 232.037 216.231 232.671C214.969 233.628 214.038 234.248 212.405 234.232C212.02 234.24 211.637 234.176 211.273 234.045C210.334 233.659 209.832 232.593 209.68 231.535C209.622 232.02 209.61 232.509 209.644 232.996C209.734 234.152 210.237 235.401 211.273 235.827C211.637 235.959 212.02 236.022 212.405 236.014C214.038 236.041 214.967 235.421 216.231 234.464C217.07 233.831 218.366 233.237 219.434 233.425C221.665 233.804 223.117 237.462 223.745 239.396C224.125 240.547 224.471 241.872 225.498 242.447C226.04 242.751 226.681 242.782 227.298 242.804C227.776 242.822 228.301 242.824 228.671 242.508C229.04 242.191 229.145 241.595 229.283 241.089C229.483 240.373 229.839 239.716 230.323 239.168C230.697 238.751 231.177 238.39 231.718 238.345C232.375 238.292 232.999 238.709 233.426 239.215C233.853 239.722 234.207 240.331 234.66 240.823C235.296 241.496 236.118 241.942 237.01 242.099C237.903 242.255 238.819 242.114 239.631 241.696C239.824 241.602 239.995 241.466 240.132 241.296C240.305 241.002 240.394 240.662 240.389 240.317C240.556 238.438 240.627 236.552 240.602 234.665C240.585 235.956 240.493 237.248 240.397 238.537Z" fill="black"/>
<path d="M92.1762 333.694C92.1762 333.694 92.5157 333.299 91.8773 333.143V332.494H92.2616C92.2608 331.709 92.0022 330.949 91.5293 330.34C91.0563 329.731 90.3975 329.31 89.6631 329.148V328.36H89.7634V327.337H87.293V328.36H87.3635V329.157C86.6359 329.327 85.9857 329.751 85.5199 330.36C85.0541 330.968 84.8006 331.724 84.8012 332.503H85.1407V333.125C85.1407 333.125 84.3315 333.524 85.1407 334.24C85.95 334.956 85.824 335.474 85.824 335.474C85.824 335.474 85.4845 336.812 84.8034 336.986V349.395C84.8031 349.757 84.8711 350.116 85.0036 350.451C85.1361 350.785 85.3305 351.089 85.5756 351.346C85.8207 351.602 86.1117 351.805 86.432 351.944C86.7524 352.083 87.0957 352.154 87.4425 352.154H89.5285C90.229 352.154 90.9009 351.863 91.3962 351.346C91.8915 350.828 92.1698 350.127 92.1698 349.395V336.986C92.1698 336.986 90.9762 336.051 91.1897 335.474C91.4762 334.856 91.8059 334.261 92.1762 333.694V333.694Z" fill="#464353"/>
</g>
</g>
<defs>
<linearGradient id="paint0_linear" x1="191.505" y1="354.342" x2="191.505" y2="218.076" gradientUnits="userSpaceOnUse">
<stop stop-color="#808080" stop-opacity="0.25"/>
<stop offset="0.54" stop-color="#808080" stop-opacity="0.12"/>
<stop offset="1" stop-color="#808080" stop-opacity="0.1"/>
</linearGradient>
<clipPath id="clip0">
<rect width="320" height="568" fill="white"/>
</clipPath>
<clipPath id="clip1">
<rect width="246" height="172" fill="white" transform="translate(73 196)"/>
</clipPath>
</defs>
</svg>
