<svg width="253" height="198" viewBox="0 0 253 198" fill="none" xmlns="http://www.w3.org/2000/svg">
<g clip-path="url(#clip0)">
<path d="M134.711 87.3311L133.497 89.412L149.716 101.005L150.931 98.9239L134.711 87.3311Z" fill="#2F2E41"/>
<path d="M151.734 100.972C153.747 97.5247 154.747 94.2785 153.968 93.7218C153.189 93.165 150.926 95.5086 148.913 98.9562C146.901 102.404 145.901 105.65 146.68 106.207C147.459 106.764 149.722 104.42 151.734 100.972Z" fill="#2F2E41"/>
<path d="M135.514 89.3797C137.527 85.932 138.527 82.6858 137.748 82.1291C136.969 81.5723 134.706 83.9159 132.694 87.3635C130.681 90.8112 129.681 94.0573 130.46 94.6141C131.239 95.1708 133.502 92.8273 135.514 89.3797Z" fill="#2F2E41"/>
<path d="M188.378 198C224.068 198 253 195.558 253 192.546C253 189.534 224.068 187.092 188.378 187.092C152.689 187.092 123.757 189.534 123.757 192.546C123.757 195.558 152.689 198 188.378 198Z" fill="#8F5AFF"/>
<path d="M64.6216 171.86C100.311 171.86 129.243 169.418 129.243 166.406C129.243 163.394 100.311 160.952 64.6216 160.952C28.9321 160.952 0 163.394 0 166.406C0 169.418 28.9321 171.86 64.6216 171.86Z" fill="#8F5AFF"/>
<path d="M241.535 166.394C241.323 175.157 239.997 183.842 237.595 192.195C237.54 192.389 237.483 192.58 237.425 192.773H222.721C222.737 192.6 222.752 192.406 222.768 192.195C223.749 179.723 229.401 103.814 222.643 90.8331C223.233 91.8862 242.675 126.765 241.535 166.394Z" fill="#8F5AFF"/>
<path d="M240.432 192.195C240.309 192.389 240.181 192.583 240.05 192.773H229.019C229.103 192.609 229.2 192.415 229.312 192.195C231.135 188.555 236.528 177.675 241.535 166.394C246.916 154.272 251.852 141.69 251.436 137.137C251.564 138.164 255.288 169.473 240.432 192.195Z" fill="#8F5AFF"/>
<path d="M137.346 179.384C137.454 183.832 138.127 188.24 139.346 192.48C139.374 192.578 139.403 192.675 139.432 192.774H146.896C146.888 192.685 146.88 192.587 146.872 192.48C146.374 186.149 143.505 147.619 146.936 141.03C146.636 141.565 136.768 159.269 137.346 179.384Z" fill="#8F5AFF"/>
<path d="M137.906 192.48C137.969 192.578 138.034 192.677 138.1 192.774H143.699C143.657 192.69 143.607 192.591 143.55 192.48C142.625 190.633 139.888 185.11 137.346 179.384C134.615 173.231 132.11 166.845 132.321 164.533C132.256 165.055 130.366 180.946 137.906 192.48Z" fill="#8F5AFF"/>
<path d="M146.872 83.0802C146.872 83.0802 134.403 96.6017 139.64 98.2574C144.877 99.9131 150.862 85.8397 150.862 85.8397L146.872 83.0802Z" fill="#A0616A"/>
<path d="M159.341 128.612L157.845 136.338L169.067 136.89L167.321 128.612H159.341Z" fill="#A0616A"/>
<path d="M194.753 176.351L193.257 184.077L204.479 184.629L202.733 176.351H194.753Z" fill="#A0616A"/>
<path d="M175.052 77.0093L176.05 81.4245C176.05 81.4245 148.369 75.3536 149.865 90.8068C151.361 106.26 157.845 121.161 157.845 121.161C157.845 121.161 157.346 126.128 158.344 126.956C159.341 127.784 158.344 130.543 158.344 130.543C158.344 130.543 167.571 131.923 167.82 129.44C167.954 127.779 167.87 126.106 167.571 124.472C167.571 124.472 168.07 124.472 167.571 121.713C167.072 118.954 165.057 96.699 163.561 93.6635C163.561 93.6635 176.798 104.88 183.78 103.5C183.78 103.5 182.783 114.538 186.773 129.164C190.763 143.789 190.763 145.445 190.763 145.445C190.763 145.445 195.501 173.315 194.254 176.627L194.005 178.006H203.232C203.232 178.006 202.484 163.381 203.232 161.45C203.98 159.518 203.98 142.961 199.741 134.683C196.739 128.82 197.298 111.822 198.94 105.103C200.319 99.4607 200.667 95.1181 199.859 89.342C198.994 83.1651 196.413 79.9363 193.257 77.0093H175.052Z" fill="#2F2E41"/>
<path d="M182.409 35.4791C187.367 35.4791 191.387 31.0314 191.387 25.545C191.387 20.0585 187.367 15.6108 182.409 15.6108C177.451 15.6108 173.431 20.0585 173.431 25.545C173.431 31.0314 177.451 35.4791 182.409 35.4791Z" fill="#A0616A"/>
<path d="M180.04 32.5816C180.04 32.5816 182.783 41.412 182.534 43.0676C182.284 44.7233 190.514 39.7563 190.514 39.7563C190.514 39.7563 187.272 30.9259 188.269 28.4424L180.04 32.5816Z" fill="#A0616A"/>
<path d="M190.015 36.7209L181.287 40.5842L181.785 43.8955C181.785 43.8955 181.037 44.9993 181.287 45.5512C181.536 46.1031 178.045 48.3107 178.544 49.1386C179.042 49.9664 175.551 53.2778 175.8 54.1056C176.05 54.9335 167.82 59.9006 172.309 69.5588C172.309 69.5588 174.636 72.9066 174.345 76.8657C174.335 77.0049 174.321 77.1447 174.304 77.2853C173.805 81.4245 193.257 76.7334 193.257 76.7334V72.0423C193.257 72.0423 195.003 71.2144 194.753 67.6271C194.504 64.0398 193.008 65.6955 194.753 63.7638C196.499 61.8322 196.499 62.1081 196.25 60.4525C196.15 59.7913 196.13 57.414 196.142 54.7966C196.165 49.2662 194.537 43.8822 191.511 39.4804L190.015 36.7209Z" fill="#71FF80"/>
<path d="M185.277 43.8955L169.067 62.66L145.376 83.3561L150.613 88.0473L194.254 55.7613C194.254 55.7613 197.995 38.1006 185.277 43.8955Z" fill="#71FF80"/>
<path d="M160.089 132.751C160.089 132.751 158.344 129.44 157.097 130.543L148.369 138.27C148.369 138.27 132.907 143.237 147.87 147.1C147.87 147.1 156.099 148.48 157.845 147.1C159.591 145.72 162.334 145.996 163.082 146.548C163.83 147.1 173.307 146.272 173.307 144.065C173.307 141.857 168.08 132.209 168.08 132.209C168.08 132.209 165.077 136.062 160.089 132.751Z" fill="#2F2E41"/>
<path d="M195.501 180.49C195.501 180.49 193.756 177.179 192.509 178.282L183.78 186.009C183.78 186.009 168.319 190.976 183.282 194.839C183.282 194.839 191.511 196.219 193.257 194.839C195.003 193.46 197.746 193.736 198.494 194.288C199.242 194.839 208.718 194.012 208.718 191.804C208.718 189.596 203.492 179.948 203.492 179.948C203.492 179.948 200.489 183.801 195.501 180.49Z" fill="#2F2E41"/>
<path d="M171.65 21.6052C171.65 21.6052 173.168 6.84016 186.15 11.0324C186.15 11.0324 195.335 8.96529 198.579 21.6583L201.871 34.966L200.364 34.0993L199.698 35.7961L197.293 36.5247L196.219 34.2751L195.767 37.0443L179.156 40.7605C179.156 40.7605 184.774 33.6581 184.734 23.256L183.079 25.2667L171.65 21.6052Z" fill="#2F2E41"/>
<path d="M82.4426 9.59924H61.6768V38.2536H82.4426V9.59924Z" fill="#2F2E41"/>
<path d="M44.5291 143.261L41.6974 154.793L46.4172 158.636L47.6755 157.588L49.878 145.707L44.5291 143.261Z" fill="#FFB8B8"/>
<path d="M80.0827 142.213L79.1389 156.19H85.1169V143.261L80.0827 142.213Z" fill="#FFB8B8"/>
<path d="M61.2047 53.8037V62.1904L72.8463 64.2869L82.9144 59.7443L81.0266 54.5024L61.2047 53.8037Z" fill="#FFB8B8"/>
<path d="M70.6438 60.7926L60.5755 58.696L58.0584 81.4098L51.7658 109.715C51.7658 109.715 42.3268 133.826 43.5853 139.417L44.2146 141.164L43.5853 144.309L49.878 147.105L52.3951 142.562C52.3951 142.562 54.2829 145.707 57.4292 139.068C60.5755 132.428 73.7901 91.1942 73.7901 91.1942L75.9926 98.183C75.4228 100.339 75.3151 102.612 75.6779 104.822C76.3072 108.317 76.9365 119.15 76.9365 119.15C76.9365 119.15 73.4755 138.019 78.195 139.417L79.1389 143.611L85.7462 144.309L87.0047 140.116C87.0047 140.116 93.2974 137.67 91.7242 125.44C90.151 113.209 89.5218 73.0231 89.5218 73.0231L83.3234 56.0492L70.6438 60.7926Z" fill="#2F2E41"/>
<path d="M43.5853 154.094C43.5853 154.094 42.0121 152.696 41.3829 153.046C40.7536 153.395 34.1463 162.83 34.1463 162.83C34.1463 162.83 27.2243 168.77 32.2585 169.469C37.2927 170.168 51.1365 162.481 51.1365 160.733C51.1365 158.986 48.2276 154.61 48.2276 154.61C48.2276 154.61 46.1024 156.54 43.5853 154.094Z" fill="#2F2E41"/>
<path d="M78.5096 153.046C78.5096 153.046 84.1731 152.655 85.117 153.724C86.0609 154.793 85.7462 160.034 85.7462 160.034C85.7462 160.034 86.3755 169.469 81.3414 169.469C76.3072 169.469 77.5657 163.179 77.5657 163.179L78.5096 153.046Z" fill="#2F2E41"/>
<path d="M72.8462 23.0528C77.1904 23.0528 80.7121 19.1415 80.7121 14.3167C80.7121 9.49193 77.1904 5.58066 72.8462 5.58066C68.5021 5.58066 64.9804 9.49193 64.9804 14.3167C64.9804 19.1415 68.5021 23.0528 72.8462 23.0528Z" fill="#FFB8B8"/>
<path d="M67.6548 19.7331C67.6548 19.7331 72.0597 25.6736 63.2499 30.2163C54.4402 34.7591 69.5426 53.629 69.5426 53.629C69.5426 53.629 87.1621 46.2907 85.5889 31.9636C85.5889 31.9636 74.8914 29.8669 77.4085 20.0825L67.6548 19.7331Z" fill="#FFB8B8"/>
<path d="M62.9353 29.8669C62.9353 29.8669 55.6987 28.8186 55.3841 35.458C55.0694 42.0974 55.3841 58.1718 55.3841 58.1718C55.3841 58.1718 52.2377 72.1495 53.8109 84.38C53.8109 84.38 51.9231 98.7072 56.9572 98.0083C61.9914 97.3094 58.2158 83.3317 58.2158 83.3317L60.4182 60.6179L59.4743 43.8447L63.5645 33.7108L62.9353 29.8669Z" fill="#FFB8B8"/>
<path d="M83.7619 31.4107C83.7619 31.4107 90.623 31.2647 90.9377 36.8558C91.2523 42.4468 88.7352 59.5696 88.7352 59.5696L84.9596 61.6662L81.4987 49.7851L83.7619 31.4107Z" fill="#FFB8B8"/>
<path d="M85.7463 60.0937L85.117 61.8409L87.0048 67.0826C87.0048 67.0826 79.4536 73.722 80.0828 75.1197C80.7121 76.5175 84.1731 73.3725 84.1731 73.3725L89.2072 76.1681C89.2072 76.1681 93.2974 71.2759 91.4096 66.7331C90.3638 64.2909 89.4889 61.7636 88.7927 59.1733C88.7927 59.1733 86.0609 59.0454 85.7463 60.0937Z" fill="#FFB8B8"/>
<path d="M61.5194 28.6439L60.5755 40.1755C60.5755 40.1755 56.1707 45.0677 61.2048 51.7071L60.5755 56.9487C60.5755 56.9487 72.217 56.2499 74.4194 56.9487C76.6219 57.6476 83.4236 56.386 83.4236 56.386L83.5438 52.406C83.5438 52.406 86.6901 47.5138 85.7462 40.1755C84.8023 32.8372 85.7462 30.3911 85.7462 30.3911L83.5438 30.0416C83.5438 30.0416 82.1279 40.6996 72.3743 41.748C72.3743 41.748 60.2609 42.971 63.7219 28.6439L61.5194 28.6439Z" fill="#8F5AFF"/>
<path d="M73.6328 0.164245C73.6328 0.164245 65.4523 -0.398996 63.5645 5.25081C61.6767 10.9006 58.3731 13.8667 58.3731 13.8667C58.3731 13.8667 53.169 17.8844 55.771 25.0564C55.771 25.0564 47.6755 31.0986 53.0243 36.4659C53.0243 36.4659 52.7097 41.8332 55.856 45.5055C55.856 45.5055 58.3731 46.918 57.4292 47.7654C56.4853 48.6129 63.7218 48.0479 63.0926 40.4207C62.4633 32.7935 66.7109 27.4208 66.7109 27.4208C66.7109 27.4208 62.6206 17.5318 64.5084 14.142C65.6546 12.0838 66.1468 10.549 67.0983 9.66076C67.6283 9.17773 68.1197 8.64507 68.5671 8.0687C68.9891 7.475 69.5636 7.0365 70.215 6.81086C70.8664 6.58522 71.5643 6.583 72.2169 6.80449C75.0486 7.65195 75.6779 10.1944 75.6779 10.1944C75.6779 10.1944 77.723 16.2679 81.184 19.0928C84.645 21.9177 78.5096 26.8612 78.5096 26.8612C78.5096 26.8612 79.5761 32.6815 82.3465 36.1274C85.1169 39.5732 81.5481 42.5769 81.3413 42.9631C80.8694 43.8446 78.9846 49.411 86.7703 49.4357C86.7703 49.4357 88.5779 45.223 91.0949 42.6806C93.612 40.1382 91.7242 32.7935 91.7242 32.7935C91.7242 32.7935 95.4998 30.2511 91.4096 24.0363C91.4096 24.0363 92.6681 18.3865 89.2072 14.7142C89.2071 14.7142 84.3303 -1.81318 73.6328 0.164245Z" fill="#2F2E41"/>
<path d="M64.3512 15.5398C64.7856 15.5398 65.1377 14.914 65.1377 14.142C65.1377 13.37 64.7856 12.7442 64.3512 12.7442C63.9167 12.7442 63.5646 13.37 63.5646 14.142C63.5646 14.914 63.9167 15.5398 64.3512 15.5398Z" fill="#FFB8B8"/>
<path d="M26.7813 158.281H7.47272V160.758H26.7813V158.281Z" fill="#2F2E41"/>
<path d="M26.7813 166.951C27.7086 166.951 28.4603 163.624 28.4603 159.519C28.4603 155.415 27.7086 152.088 26.7813 152.088C25.854 152.088 25.1023 155.415 25.1023 159.519C25.1023 163.624 25.854 166.951 26.7813 166.951Z" fill="#2F2E41"/>
<path d="M7.47271 166.951C8.40001 166.951 9.15173 163.624 9.15173 159.519C9.15173 155.415 8.40001 152.088 7.47271 152.088C6.54542 152.088 5.7937 155.415 5.7937 159.519C5.7937 163.624 6.54542 166.951 7.47271 166.951Z" fill="#2F2E41"/>
<path d="M22.1977 158.281H2.88916V160.758H22.1977V158.281Z" fill="#2F2E41"/>
<path d="M22.1977 166.951C23.125 166.951 23.8768 163.624 23.8768 159.519C23.8768 155.415 23.125 152.088 22.1977 152.088C21.2705 152.088 20.5187 155.415 20.5187 159.519C20.5187 163.624 21.2705 166.951 22.1977 166.951Z" fill="#2F2E41"/>
<path d="M2.88916 166.951C3.81645 166.951 4.56817 163.624 4.56817 159.519C4.56817 155.415 3.81645 152.088 2.88916 152.088C1.96186 152.088 1.21014 155.415 1.21014 159.519C1.21014 163.624 1.96186 166.951 2.88916 166.951Z" fill="#2F2E41"/>
<path d="M241.857 183.25H222.549V185.727H241.857V183.25Z" fill="#2F2E41"/>
<path d="M241.857 191.92C242.785 191.92 243.536 188.593 243.536 184.489C243.536 180.384 242.785 177.057 241.857 177.057C240.93 177.057 240.178 180.384 240.178 184.489C240.178 188.593 240.93 191.92 241.857 191.92Z" fill="#2F2E41"/>
<path d="M222.549 191.92C223.476 191.92 224.228 188.593 224.228 184.489C224.228 180.384 223.476 177.057 222.549 177.057C221.621 177.057 220.87 180.384 220.87 184.489C220.87 188.593 221.621 191.92 222.549 191.92Z" fill="#2F2E41"/>
</g>
<defs>
<clipPath id="clip0">
<rect width="253" height="198" fill="white"/>
</clipPath>
</defs>
</svg>
