<svg width="307" height="220" viewBox="0 0 307 220" fill="none" xmlns="http://www.w3.org/2000/svg">
<g clip-path="url(#clip0)">
<path d="M307 205.442C307 193.48 302.36 183.784 296.637 183.784C293.04 183.784 289.871 187.616 288.013 193.432C287.385 193.091 286.713 192.914 286.033 192.912C284.3 192.912 282.699 194.073 281.393 196.038C279.718 188.787 276.166 183.784 272.055 183.784C268.211 183.784 264.858 188.161 263.069 194.657C262.075 193.559 260.823 192.943 259.523 192.912C255.13 192.912 251.569 200.353 251.569 209.533C251.551 212.593 251.976 215.63 252.822 218.483H304.91C306.221 214.855 307 210.339 307 205.442Z" fill="#71FF80"/>
<path d="M269.847 80.3766C261.686 57.2817 245.715 37.5799 226.42 34.3688C221.319 33.5197 215.993 33.8603 211.26 36.4904C205.046 39.9429 200.468 46.9116 195.84 53.3401C186.041 66.9473 175.076 79.0314 163.161 89.3532C157.281 94.4461 150.973 99.1978 143.991 100.501C129.993 103.114 116.147 90.6259 109.763 74.1209C105.775 63.8107 103.932 51.7057 100.708 40.9817C96.9951 40.9724 92.5716 40.9742 87.8126 41.0029C74.658 41.0822 63.9507 41.3364 63.9507 41.3364C63.9507 41.3364 76.678 19.2828 87.7648 27.4535C91.3079 30.0646 95.0188 32.3947 98.4292 34.3576C96.4918 29.4823 94.0479 25.0957 90.6859 21.5688C84.0566 14.6145 75.078 12.6638 66.5896 13.1817C57.6761 13.7255 48.6808 16.8473 41.4379 23.6651C28.5352 35.8106 23.2069 57.1887 18.6466 77.1089L29.6695 84.3377C34.3976 78.9905 41.3115 73.7009 47.6843 78.3975C58.7711 86.5682 71.5071 91.9932 71.5071 91.9932C71.5071 91.9932 60.8866 91.8675 47.732 91.9468C45.5227 91.9601 43.385 91.9785 41.3529 91.9996L163.733 172.256C204.098 173 234.533 170.144 272.889 172.256C274.889 172.366 279.389 158.649 279.404 155.039C279.509 129.597 278.008 103.471 269.847 80.3766ZM230.653 87.2986C217.498 87.378 206.791 87.6322 206.791 87.6322C206.791 87.6322 219.518 65.5786 230.605 73.7493C241.692 81.92 254.428 87.345 254.428 87.345C254.428 87.345 243.807 87.2193 230.653 87.2986L230.653 87.2986Z" fill="#8F5AFF"/>
<path opacity="0.3" d="M264.93 162.774C264.93 154.077 260.813 147.027 255.736 147.027C252.544 147.027 249.733 149.813 248.085 154.042C247.519 153.792 246.925 153.664 246.328 153.664C244.783 153.698 243.308 154.512 242.211 155.937C240.725 150.664 237.574 147.027 233.927 147.027C230.517 147.027 227.542 150.209 225.955 154.932C225.024 154.115 223.93 153.674 222.809 153.664C218.912 153.664 215.753 159.074 215.753 165.749C215.741 168 216.122 170.226 216.864 172.256H263.075C264.315 169.361 264.954 166.092 264.93 162.774Z" fill="#71FF80"/>
<path d="M307 219.11H23.3093V218.366H306.716L307 219.11Z" fill="#2F2E41"/>
<path d="M283.691 173H0V172.256H283.406L283.691 173Z" fill="#2F2E41"/>
<path d="M120.421 104.542C120.421 104.542 122.207 87.4015 125.185 92.0761C128.163 96.7506 125.185 103.762 125.185 103.762L122.803 107.658L120.421 105.321V104.542Z" fill="#FFB8B8"/>
<path d="M113.274 109.995C113.274 109.995 119.23 101.425 120.421 102.983C121.612 104.542 125.185 105.321 124.59 108.437C123.994 111.553 111.487 121.682 111.487 121.682L113.274 109.995Z" fill="#71FF80"/>
<path opacity="0.1" d="M113.274 109.995C113.274 109.995 119.23 101.425 120.421 102.983C121.612 104.542 125.185 105.321 124.59 108.437C123.994 111.553 111.487 121.682 111.487 121.682L113.274 109.995Z" fill="black"/>
<path d="M79.3264 109.216V115.449C79.3264 115.449 78.7308 129.473 82.3042 128.694C85.8776 127.914 84.0909 116.228 84.0909 116.228L83.4954 109.216H79.3264Z" fill="#FFB8B8"/>
<path d="M81.1131 154.404C81.1131 154.404 75.753 165.311 73.9663 166.09C72.1796 166.869 62.6505 173.881 61.4594 180.893L53.1214 194.916L57.2904 201.928C57.2904 201.928 76.3486 175.439 81.7087 173.102C87.0688 170.765 92.4289 159.078 92.4289 159.078L81.1131 154.404Z" fill="#FFB8B8"/>
<path d="M123.398 136.484C123.398 136.484 134.714 138.822 132.928 148.171C131.141 157.52 113.869 176.997 113.869 176.997L113.274 181.672L106.723 183.23L103.745 179.334L104.34 176.997C104.34 176.997 111.487 168.427 112.083 165.311C112.678 162.194 119.23 149.729 122.207 148.95L118.038 145.833L123.398 136.484Z" fill="#FFB8B8"/>
<path d="M54.9081 194.916C54.9081 194.916 57.2904 190.242 53.717 191.021C50.1436 191.8 47.7613 192.579 47.7613 195.695C47.7613 198.812 50.7391 220.626 54.3125 219.068C57.8859 217.51 54.9081 210.498 54.9081 210.498C54.9081 210.498 56.6948 204.266 57.8859 203.486C59.0771 202.707 59.0771 198.812 57.8859 198.812C56.6948 198.812 54.3125 196.475 54.9081 194.916Z" fill="#2F2E41"/>
<path d="M105.531 177.776C105.531 177.776 105.531 173.881 103.149 177.776C100.767 181.672 99.5758 184.788 101.958 187.125C104.34 189.463 112.678 194.916 112.678 194.916C112.678 194.916 121.612 197.254 120.421 191.8C120.421 191.8 114.465 187.904 114.465 184.788C114.465 181.672 114.465 176.218 112.678 177.776C110.892 179.334 105.531 180.114 105.531 177.776Z" fill="#2F2E41"/>
<path d="M94.2157 119.344C94.2157 119.344 85.8777 120.903 86.4733 136.484C86.4733 136.484 75.7531 150.508 78.7309 155.183C81.7087 159.857 88.26 168.427 90.6423 166.09C93.0245 163.753 100.171 145.834 100.171 145.834C100.171 145.834 116.847 153.625 119.825 149.729C122.803 145.834 125.781 136.484 125.781 136.484L110.892 126.356L94.2157 119.344Z" fill="#2F2E41"/>
<path d="M117.443 74.9363C121.39 74.9363 124.59 70.7505 124.59 65.5871C124.59 60.4238 121.39 56.238 117.443 56.238C113.496 56.238 110.296 60.4238 110.296 65.5871C110.296 70.7505 113.496 74.9363 117.443 74.9363Z" fill="#FFB8B8"/>
<path d="M112.083 66.3662C112.083 66.3662 107.914 74.9362 106.723 75.7153C105.531 76.4944 115.061 84.2853 115.061 84.2853C115.061 84.2853 115.061 74.1571 118.038 71.8199L112.083 66.3662Z" fill="#FFB8B8"/>
<path d="M111.487 74.9362C111.487 74.9362 101.958 71.0407 100.171 77.2735C98.3846 83.5062 94.2156 95.1926 94.8112 102.984C95.4068 110.774 96.5979 109.216 94.8112 111.554C93.0245 113.891 91.8333 112.333 92.4289 115.449C93.0245 118.565 93.62 118.565 93.0245 120.124C92.4289 121.682 100.171 127.135 106.723 127.914L113.274 128.694C113.274 128.694 113.274 114.67 114.465 111.554C115.656 108.437 118.038 102.204 118.038 99.8672V93.6829C118.038 89.5668 117.217 85.5218 115.656 81.948C115.656 81.948 112.083 74.9362 111.487 74.9362Z" fill="#71FF80"/>
<path d="M104.34 78.0526C104.34 78.0526 82.3043 80.3899 79.922 88.1808C77.5397 95.9717 76.3486 111.554 78.7309 111.554C81.1131 111.554 84.091 113.112 84.6865 111.554C85.2821 109.995 87.6644 94.4136 88.2599 94.4136C88.8555 94.4136 106.723 92.0763 106.723 92.0763C106.723 92.0763 114.465 79.6108 104.34 78.0526Z" fill="#71FF80"/>
<path d="M117.73 63.2693C117.73 63.2693 119.627 58.9578 121.997 62.7027C124.368 66.4476 128.224 59.5657 127.632 58.0972C127.04 56.6288 124.95 58.1632 121.367 56.6311C117.784 55.0989 110.882 51.9775 109.726 62.1595C108.57 72.3415 111.323 71.2741 111.323 71.2741C111.323 71.2741 112.585 62.2517 113.725 64.8433L114.866 67.4349L115.855 67.7535L117.73 63.2693Z" fill="#2F2E41"/>
<path d="M185.141 39.4121C189.956 39.4121 193.86 34.3053 193.86 28.0057C193.86 21.7062 189.956 16.5994 185.141 16.5994C180.325 16.5994 176.421 21.7062 176.421 28.0057C176.421 34.3053 180.325 39.4121 185.141 39.4121Z" fill="#2F2E41"/>
<path d="M182.353 36.4483C182.353 36.4483 182.805 47.0729 181.902 47.0729C181 47.0729 187.542 52.0901 187.542 52.0901L191.603 49.1389V45.5973C191.603 45.5973 186.189 44.7119 188.445 37.0386C190.701 29.3652 182.353 36.4483 182.353 36.4483Z" fill="#9F616A"/>
<path d="M163.402 153.024L162.725 161.878L164.982 162.763L166.786 160.403L167.463 153.024H163.402Z" fill="#9F616A"/>
<path d="M195.89 158.041L197.018 163.649L200.176 166.305L203.561 163.944L199.725 155.68L195.89 158.041Z" fill="#9F616A"/>
<path d="M184.497 41.0229C188.11 41.0229 191.039 37.191 191.039 32.4641C191.039 27.7373 188.11 23.9054 184.497 23.9054C180.883 23.9054 177.954 27.7373 177.954 32.4641C177.954 37.191 180.883 41.0229 184.497 41.0229Z" fill="#9F616A"/>
<path d="M180.548 64.4856L178.969 63.6002C178.969 63.6002 176.262 61.5343 176.036 57.4026C175.811 53.2708 178.292 47.9584 178.292 47.9584L181.902 46.4828L186.143 50.9984L186.189 58.2879L180.548 64.4856Z" fill="#9F616A"/>
<path d="M178.969 48.5487L178.067 47.9584C178.067 47.9584 173.555 47.6633 173.103 54.7464C172.652 61.8295 171.073 73.6346 171.073 73.6346C171.073 73.6346 167.463 81.8982 167.689 90.7521L165.884 98.4254C165.884 98.4254 163.402 109.64 166.335 109.64C169.268 109.64 169.042 97.54 169.042 97.54C169.042 97.54 174.457 80.4226 174.908 77.4713C175.359 74.52 179.195 60.6489 178.067 56.8123C176.939 52.9756 178.969 48.5487 178.969 48.5487Z" fill="#9F616A"/>
<path d="M182.353 67.1417V70.3881C182.353 70.3881 183.933 72.7492 183.256 74.2248C182.579 75.7005 181.902 78.6517 181.902 78.6517L185.061 85.1446L195.664 86.3251L197.773 67.8442L182.353 67.1417Z" fill="#9F616A"/>
<path d="M192.28 46.4828L194.085 45.3023C194.085 45.3023 197.92 41.7608 201.079 41.1705L210.78 32.6118L217.097 12.8382C217.097 12.8382 216.871 2.21354 218.676 3.39405C220.481 4.57457 220.255 13.7236 220.255 13.7236C220.255 13.7236 216.871 32.0215 213.938 37.0387C211.005 42.0559 200.402 50.3195 200.402 50.3195C200.402 50.3195 197.469 54.7464 197.695 56.8123C197.92 58.8782 192.28 46.4828 192.28 46.4828Z" fill="#9F616A"/>
<path d="M183.933 78.6518C183.933 78.6518 181.451 76.5859 179.872 80.1275C178.292 83.669 175.36 84.5544 173.555 95.179C171.75 105.804 167.463 122.626 166.335 123.807C165.207 124.987 160.469 137.382 163.177 154.795H167.689L171.524 129.709C171.524 129.709 183.933 109.64 184.835 101.377L188.896 132.365C188.896 132.365 189.122 144.17 192.506 149.778L196.115 160.993L200.853 158.041L195.439 129.709C195.439 129.709 198.146 101.082 196.341 93.1131L196.082 82.6663C196.082 82.6663 188.67 83.0788 183.933 78.6518Z" fill="#2F2E41"/>
<path d="M164.982 160.402H162.274C161.823 160.402 158.213 164.239 159.793 166.305C161.372 168.371 163.853 172.207 163.853 172.207C163.853 172.207 172.652 173.671 172.878 171.605C173.103 169.54 169.042 165.124 169.042 165.124L167.914 160.402C167.914 160.402 165.658 157.156 164.982 160.402Z" fill="#2F2E41"/>
<path d="M200.853 163.354C200.853 163.354 197.018 163.059 196.341 162.763C195.664 162.468 194.311 170.437 196.341 171.027C198.372 171.617 206.719 172.503 206.719 172.503C206.719 172.503 213.262 172.208 212.81 169.847C212.359 167.486 203.561 162.763 203.561 162.763C203.561 162.763 202.432 159.812 200.853 163.354Z" fill="#2F2E41"/>
<path d="M183.03 46.1876L181.902 45.3022L180.548 46.7779C180.548 46.7779 184.609 50.3194 183.707 53.5658C182.805 56.8123 178.969 63.6002 178.969 63.6002C178.969 63.6002 182.353 68.6174 182.353 70.3882C182.353 70.3882 191.152 66.2564 197.695 70.3882C197.695 70.3882 197.695 64.4856 198.597 63.3051C199.5 62.1246 199.951 57.9928 197.695 54.4512C196.105 51.8453 194.672 49.0825 193.408 46.1876L191.152 44.4169L189.99 44.899C189.99 44.899 192.28 48.2535 190.024 48.5487C187.768 48.8438 184.158 47.9584 183.03 46.1876Z" fill="#71FF80"/>
<path d="M191.513 8.55884C190.747 9.67806 189.697 10.3974 188.557 10.5846C186.586 10.9529 188.135 15.0043 188.135 15.0043C188.135 15.0043 187.572 13.5311 188.698 12.242C189.824 10.9529 191.513 10.2162 191.513 8.55884Z" fill="#2F2E41"/>
<path d="M187.713 19.0301C189.056 19.0301 190.144 17.6069 190.144 15.8513C190.144 14.0957 189.056 12.6725 187.713 12.6725C186.371 12.6725 185.283 14.0957 185.283 15.8513C185.283 17.6069 186.371 19.0301 187.713 19.0301Z" fill="#2F2E41"/>
<path d="M190.55 18.9814C188.673 17.6987 185.444 16.6898 183.728 16.7619L184.162 14.5911C185.681 15.9411 188.893 16.9688 190.984 16.8105L190.55 18.9814Z" fill="#71FF80"/>
<path d="M186.672 19.1724C186.672 19.1724 183.714 24.1479 177.797 25.2535C171.881 26.3592 176.529 38.5215 176.529 38.5215C176.529 38.5215 174.839 34.0989 178.22 30.229C181.601 26.3592 186.672 24.1479 186.672 19.1724Z" fill="#2F2E41"/>
<path d="M186.898 18.8773C186.898 18.8773 188.588 26.617 191.124 27.7227C193.659 28.8283 192.392 40.4378 188.165 41.5435C188.165 41.5435 191.758 35.1859 189.645 30.2104C187.532 25.2349 186.264 21.3651 186.898 18.8773Z" fill="#2F2E41"/>
<path d="M226.685 5.90247H211.118V8.26349H226.685V5.90247Z" fill="#2F2E41"/>
<path d="M226.685 14.1662C227.433 14.1662 228.039 10.995 228.039 7.08309C228.039 3.17121 227.433 0 226.685 0C225.938 0 225.332 3.17121 225.332 7.08309C225.332 10.995 225.938 14.1662 226.685 14.1662Z" fill="#2F2E41"/>
<path d="M211.118 14.1662C211.866 14.1662 212.472 10.995 212.472 7.08309C212.472 3.17121 211.866 0 211.118 0C210.371 0 209.765 3.17121 209.765 7.08309C209.765 10.995 210.371 14.1662 211.118 14.1662Z" fill="#2F2E41"/>
<path d="M234.582 164.688H219.015V167.049H234.582V164.688Z" fill="#2F2E41"/>
<path d="M234.582 172.951C235.329 172.951 235.935 169.78 235.935 165.868C235.935 161.956 235.329 158.785 234.582 158.785C233.834 158.785 233.228 161.956 233.228 165.868C233.228 169.78 233.834 172.951 234.582 172.951Z" fill="#2F2E41"/>
<path d="M219.015 172.951C219.762 172.951 220.368 169.78 220.368 165.868C220.368 161.956 219.762 158.785 219.015 158.785C218.267 158.785 217.661 161.956 217.661 165.868C217.661 169.78 218.267 172.951 219.015 172.951Z" fill="#2F2E41"/>
<path opacity="0.3" d="M55.1463 162.774C55.1463 154.077 51.03 147.027 45.9523 147.027C42.7609 147.027 39.9501 149.813 38.3016 154.042C37.7355 153.792 37.1421 153.664 36.5446 153.664C34.9995 153.698 33.5243 154.512 32.4278 155.937C30.9418 150.664 27.7907 147.027 24.1435 147.027C20.7333 147.027 17.7591 150.209 16.1719 154.932C15.2408 154.115 14.1465 153.674 13.0252 153.664C9.12843 153.664 5.96943 159.074 5.96943 165.749C5.95802 168 6.33815 170.226 7.08106 172.256H53.2921C54.5313 169.361 55.1704 166.092 55.1463 162.774Z" fill="#71FF80"/>
</g>
<defs>
<clipPath id="clip0">
<rect width="307" height="219.148" fill="white"/>
</clipPath>
</defs>
</svg>
