<svg width="223" height="152" viewBox="0 0 223 152" fill="none" xmlns="http://www.w3.org/2000/svg">
<g clip-path="url(#clip0)">
<path opacity="0.1" d="M129.565 25.0603C115.269 24.5517 101.654 19.8563 88.661 14.7134C75.6675 9.57048 62.7806 3.87171 48.8271 1.1475C39.8422 -0.604905 29.5779 -0.851305 22.3467 4.05109C15.3883 8.76623 13.1392 16.9073 11.9314 24.459C11.0217 30.142 10.4875 36.1247 12.9785 41.443C14.7089 45.137 17.7807 48.2417 19.9059 51.78C27.3036 64.0882 22.0776 79.2685 14.0625 91.289C10.3036 96.9266 5.94471 102.306 3.04523 108.308C0.145763 114.311 -1.19558 121.188 1.34194 127.311C3.85817 133.378 9.84874 137.938 16.3406 141.143C29.5257 147.648 45.0624 149.519 60.2121 150.575C93.7495 152.911 127.465 151.9 161.092 150.887C173.535 150.512 186.035 150.132 198.276 148.172C205.075 147.084 212.094 145.357 217.029 141.186C223.295 135.894 224.847 126.93 220.649 120.291C213.607 109.158 194.132 106.394 189.213 94.4449C186.504 87.8689 189.287 80.5419 193.224 74.443C201.671 61.3581 215.827 49.8798 216.575 34.9222C217.086 24.6502 210.28 14.3645 199.756 9.49361C188.724 4.4 173.433 5.04064 165.294 13.4735C156.915 22.1665 142.189 25.5077 129.565 25.0603Z" fill="#71FF80"/>
<g opacity="0.5">
<path opacity="0.5" d="M96.9252 79.3568L90.4488 79.4928L89.3901 80.9732V86.0884L90.7121 87.0307H96.9252L98.2472 85.5503V80.7031L96.9252 79.3568Z" fill="#71FF80"/>
<path opacity="0.2" d="M96.7897 80.1652C96.7897 80.1652 90.8418 81.1074 90.3134 80.1652L90.4469 79.493L96.7897 79.3511V80.1652Z" fill="white"/>
<path opacity="0.5" d="M97.4536 94.1647L98.5104 95.243V100.368L97.4536 101.429C97.4536 101.429 93.6212 102.775 91.1088 101.697L89.9185 100.486V95.3612L90.9772 94.1489L97.4536 94.1647Z" fill="#71FF80"/>
<path opacity="0.2" d="M97.1885 95.377C97.1885 95.377 92.5625 96.4533 90.9772 95.377V94.1647H97.4537L97.1885 95.377Z" fill="white"/>
<path opacity="0.5" d="M94.9413 86.9954V94.2771C94.9262 94.5654 94.7997 94.836 94.5893 95.0295C94.3789 95.2231 94.1018 95.3239 93.8187 95.31C93.5355 95.3239 93.2584 95.2231 93.048 95.0295C92.8376 94.836 92.7111 94.5654 92.696 94.2771V86.9954C92.696 86.3764 93.2767 85.8974 93.9503 85.9684C94.2108 85.9847 94.4563 86.0986 94.6392 86.2883C94.8222 86.4779 94.9298 86.7298 94.9413 86.9954Z" fill="#71FF80"/>
<path opacity="0.5" d="M107.298 79.5659L100.822 79.7L99.7628 81.1803V86.2956L101.085 87.2379H107.298L108.62 85.7575V80.9103L107.298 79.5659Z" fill="#71FF80"/>
<path opacity="0.2" d="M107.164 80.3721C107.164 80.3721 101.216 81.3144 100.688 80.3721L100.82 79.7L107.164 79.5659V80.3721Z" fill="white"/>
<path opacity="0.5" d="M107.822 94.3717L108.879 95.4499V100.575L107.822 101.642C107.822 101.642 103.988 102.988 101.478 101.91L100.287 100.699V95.584L101.346 94.3717H107.822Z" fill="#71FF80"/>
<path opacity="0.2" d="M107.561 95.584C107.561 95.584 102.935 96.6603 101.35 95.584V94.3717H107.822L107.561 95.584Z" fill="white"/>
<path opacity="0.5" d="M105.306 87.2024V94.484C105.291 94.7722 105.164 95.0424 104.954 95.2359C104.743 95.4294 104.467 95.5304 104.184 95.517C103.9 95.5309 103.623 95.4301 103.412 95.2366C103.202 95.0431 103.075 94.7726 103.059 94.484V87.2024C103.059 86.5834 103.64 86.1044 104.315 86.1754C104.576 86.1917 104.821 86.3056 105.004 86.4953C105.187 86.6849 105.295 86.9368 105.306 87.2024Z" fill="#71FF80"/>
<path opacity="0.5" d="M120.502 83.4591L115.17 83.5714L114.299 84.7896V89.0001L115.387 89.7768H120.502L121.59 88.5566V84.5669L120.502 83.4591Z" fill="#71FF80"/>
<path opacity="0.2" d="M120.392 84.1253C120.392 84.1253 115.497 84.9 115.061 84.1253L115.17 83.5714L120.396 83.4591L120.392 84.1253Z" fill="white"/>
<path opacity="0.5" d="M120.936 95.649L121.807 96.536V100.747L120.936 101.634C120.936 101.634 117.781 102.741 115.71 101.854L114.731 100.857V96.6464L115.602 95.649H120.936Z" fill="#71FF80"/>
<path opacity="0.2" d="M120.719 96.6465C120.719 96.6465 116.91 97.5335 115.605 96.6465V95.649H120.936L120.719 96.6465Z" fill="white"/>
<path opacity="0.5" d="M118.869 89.7472V95.7417C118.856 95.9791 118.752 96.2018 118.578 96.3611C118.405 96.5203 118.177 96.6031 117.944 96.5913C117.711 96.6031 117.482 96.5202 117.309 96.3609C117.136 96.2017 117.032 95.9789 117.02 95.7417V89.7472C117.028 89.6204 117.061 89.4966 117.118 89.3837C117.175 89.2708 117.255 89.1714 117.352 89.0917C117.449 89.0121 117.562 88.954 117.682 88.9213C117.803 88.8885 117.929 88.8818 118.052 88.9015C118.267 88.9149 118.469 89.0087 118.62 89.1649C118.77 89.321 118.859 89.5284 118.869 89.7472Z" fill="#71FF80"/>
<path opacity="0.5" d="M129.04 83.6306L123.708 83.7409L122.839 84.9592V89.1716L123.926 89.9463H129.04L130.128 88.7281V84.7384L129.04 83.6306Z" fill="#71FF80"/>
<path opacity="0.2" d="M128.932 84.2948C128.932 84.2948 124.035 85.0715 123.599 84.2948L123.708 83.7409L128.934 83.6306L128.932 84.2948Z" fill="white"/>
<path opacity="0.5" d="M129.476 95.8205L130.345 96.7056V100.916L129.476 101.803C129.476 101.803 126.319 102.911 124.25 102.026L123.272 101.034V96.818L124.143 95.8205H129.476Z" fill="#71FF80"/>
<path opacity="0.2" d="M129.257 96.8179C129.257 96.8179 125.45 97.703 124.143 96.8179V95.8205H129.476L129.257 96.8179Z" fill="white"/>
<path opacity="0.5" d="M127.408 89.9167V95.9092C127.396 96.1467 127.291 96.3694 127.118 96.5286C126.945 96.6878 126.716 96.7706 126.483 96.7588C126.25 96.7706 126.022 96.6878 125.848 96.5286C125.675 96.3694 125.57 96.1467 125.558 95.9092V89.9167C125.558 89.4082 126.042 89.0139 126.592 89.0731C126.806 89.086 127.008 89.1794 127.159 89.3352C127.31 89.491 127.399 89.6982 127.408 89.9167Z" fill="#71FF80"/>
</g>
<path d="M203.052 105.385C202.636 104.618 201.858 104.113 201.039 103.881C200.211 103.678 199.354 103.623 198.507 103.719C197.139 103.818 195.783 104.046 194.456 104.399C193.634 104.62 192.78 104.916 192.225 105.582C192.209 105.602 192.192 105.625 192.174 105.645C191.324 105.872 190.481 106.221 189.658 106.505C188.832 106.783 187.992 107.016 187.142 107.2C188.255 106.556 189.339 105.874 190.256 104.963C190.69 104.534 191.079 104.061 191.417 103.552C192.046 103.735 192.706 103.78 193.353 103.684C194.663 103.455 195.722 102.501 196.707 101.571L199.876 98.6019C200.381 98.1288 200.894 97.6439 201.231 97.0249C201.686 96.1635 201.726 95.1385 201.738 94.1549C201.753 92.8026 201.738 91.4504 201.699 90.1001L202.702 90.8886C202.549 89.2231 202.853 87.5472 203.58 86.0473C203.929 85.3317 204.386 84.6201 204.395 83.8178C204.411 82.5799 203.366 81.6061 202.295 81.0581C201.225 80.5102 200.021 80.1593 199.144 79.3176C197.84 78.0658 197.596 76.069 196.951 74.3541C196.569 73.4151 196.116 72.5076 195.596 71.6397L194.342 69.4122C193.711 68.2384 193.008 67.1067 192.236 66.0237C190.932 64.2713 189.288 62.8264 187.657 61.3973L179.171 53.952C177.108 52.1405 175.037 50.327 172.805 48.7421C168.278 45.5271 163.17 43.3193 158.095 41.1332C156.817 40.5813 155.488 40.0215 154.106 40.0885C153.065 40.1572 152.078 40.5872 151.311 41.3067C150.583 41.0818 149.872 40.8065 149.181 40.4828L149.127 40.4571C149.143 40.3408 149.16 40.2265 149.172 40.1102C149.189 39.9564 149.199 39.8027 149.211 39.647C149.593 39.587 149.963 39.4638 150.306 39.2823C150.48 39.1985 150.634 39.0767 150.757 38.9255C150.913 38.6623 150.993 38.3596 150.987 38.0522C151.142 35.9923 151.297 33.9127 151.131 31.8626C150.964 29.8126 150.459 27.7369 149.389 25.9944C149.058 25.4542 148.643 24.9279 148.069 24.6934C147.294 24.378 146.398 24.6717 145.572 24.5297C144.141 24.2833 143.249 22.8582 142.213 21.8075C139.595 19.1483 135.116 18.7482 132.092 20.9007C130.947 21.7188 130.029 22.8286 129.007 23.8063C127.985 24.784 126.787 25.6691 125.407 25.8603C125.153 25.8713 124.904 25.9386 124.677 26.0574C124.395 26.2388 124.267 26.5877 124.159 26.911C123.771 28.0267 123.4 29.1719 123.282 30.3389C123.268 30.2679 123.257 30.197 123.245 30.126C123.192 30.5582 123.181 30.9946 123.212 31.429C123.251 31.9826 123.408 32.5208 123.673 33.0059C123.893 33.4671 124.269 33.8323 124.731 34.0349C125.059 34.1529 125.404 34.2096 125.752 34.2025H125.904C125.848 34.3543 125.794 34.506 125.744 34.6598C125.313 35.9625 125.094 37.3281 125.095 38.7027C125.095 45.602 130.501 51.1923 137.175 51.1923C137.978 51.1883 138.779 51.1025 139.566 50.9361C139.827 51.0208 140.088 51.1076 140.34 51.2002C140.855 51.3736 141.36 51.5763 141.853 51.8074C142.062 51.9079 142.908 52.4105 143.93 53.0591L143.861 53.2069C142.864 54.1553 142.132 55.3567 141.741 56.6879C141.351 58.0191 141.314 59.4322 141.637 60.7823C142.376 63.7135 144.801 66.2268 144.557 69.2447C144.523 69.6744 144.434 70.11 144.505 70.5358C144.604 71.1272 144.997 71.6082 145.39 72.0458C145.73 72.4282 146.085 72.7988 146.445 73.1615C146.416 75.0873 146.251 77.0112 146.073 78.9312C146.057 79.0988 146.054 79.2683 146.052 79.4398C146.062 80.2699 146.358 81.0699 146.888 81.7008C147.449 82.3966 147.674 83.4394 147.567 84.3698C147.414 85.7023 146.77 86.9107 146.338 88.1742C144.391 93.8572 146.783 100.266 145.436 106.134C145.105 107.579 144.548 108.984 144.468 110.471C144.424 111.399 144.567 112.373 144.217 113.23C143.913 113.975 143.28 114.514 142.682 115.036C141.837 115.773 141.013 116.535 140.212 117.323C139.001 116.648 137.751 116.049 136.469 115.529C136.26 115.443 136.046 115.368 135.83 115.304C134.316 113.861 132.408 112.939 130.616 111.878C129.129 111.001 127.712 110.015 126.288 109.03C124.933 108.083 123.549 107.129 122.403 105.913C121.822 105.298 121.306 104.62 120.68 104.058C120.131 103.592 119.549 103.168 118.938 102.789C116.192 100.977 113.574 98.9713 111.103 96.7864C109.22 95.1227 107.679 92.98 105.666 91.4878C104.433 90.5732 102.999 89.7394 101.489 89.9109C101.009 89.9685 100.542 90.1147 100.113 90.3426C99.7129 90.1698 99.2854 90.0723 98.8511 90.0547C97.6239 90.0153 96.4974 90.6934 95.4445 91.3459C89.2507 95.1792 82.9601 98.8418 76.5728 102.333C75.2837 103.039 73.9868 103.739 72.7558 104.547C70.3539 106.129 68.2257 108.106 66.4575 110.396C66.1323 110.816 65.722 111.293 65.2052 111.229C65.0637 111.207 64.9277 111.158 64.8045 111.084C64.009 110.644 63.5213 109.794 63.0625 108.988C62.7296 108.397 62.3696 107.78 61.8818 107.33C61.7774 107.051 61.6382 106.786 61.4676 106.542C62.1548 104.815 62.747 103.047 63.2967 101.267C63.5832 100.333 63.86 99.3924 64.2258 98.4856C65.1278 96.2424 66.5659 94.2101 67.075 91.8367C67.1969 91.2631 67.2685 90.6737 67.3633 90.0942C72.9281 88.9785 77.1283 83.9164 77.1283 77.8372C77.1283 70.938 71.7203 65.3476 65.0484 65.3476C58.3765 65.3476 52.9705 70.938 52.9705 77.8372C52.9645 79.9372 53.4773 82.0049 54.4615 83.8502C55.4458 85.6955 56.87 87.259 58.603 88.397C58.603 88.4206 58.603 88.4443 58.603 88.466C58.5914 88.8624 58.5532 89.2575 58.4888 89.6487C58.2662 90.9694 57.7146 92.2113 57.1591 93.4157C56.7913 94.2219 56.4236 95.0321 56.0422 95.8363C55.8593 95.7989 55.6817 95.7379 55.5138 95.655C55.1867 95.4697 55.0435 95.0636 54.9196 94.7048C54.3714 93.0609 53.7004 91.4622 52.9124 89.9227C52.6051 89.2683 52.2146 88.6579 51.7511 88.1072C50.9343 87.1965 49.8155 86.6564 48.7336 86.1104C48.54 86.0157 48.36 85.9132 48.1742 85.8226C48.0135 85.7009 47.8454 85.5896 47.6709 85.4894C46.7709 84.971 45.7722 84.5984 45.0212 83.873C44.4579 83.329 44.0708 82.6213 43.5443 82.0438C42.6675 81.0838 41.4578 80.5358 40.2829 80.0134C39.6713 79.7414 39.0287 79.4634 38.3609 79.5009C38.2668 79.5056 38.1731 79.5161 38.0802 79.5324C37.9196 79.5603 37.7607 79.5972 37.6041 79.6428C37.4517 79.5604 37.3077 79.4627 37.1744 79.3511C36.4563 78.7873 36.1776 77.8194 35.9434 76.9186C35.5563 75.4126 35.1479 73.8534 35.3879 72.3119C35.4296 72.0459 35.4865 71.7827 35.5582 71.5234C35.6182 71.4229 35.6763 71.3263 35.7285 71.2179C37.2695 70.7462 38.6775 69.9062 39.8352 68.7681C40.9929 67.6299 41.8667 66.2264 42.3839 64.6747C42.9011 63.1229 43.0467 61.4677 42.8085 59.847C42.5703 58.2263 41.9552 56.6871 41.0145 55.3575C40.9158 55.2195 40.821 55.0855 40.7107 54.9514L40.8268 54.8864C41.8972 54.2201 42.141 52.6274 41.6455 51.4407C41.15 50.254 40.0971 49.4163 39.0306 48.7579C38.8757 48.6613 38.719 48.5706 38.5602 48.48L38.4248 48.405C38.3048 48.338 38.1867 48.273 38.0667 48.2079L37.9254 48.135C37.7841 48.0621 37.6428 47.9931 37.5015 47.926L37.4376 47.8945C37.2615 47.8137 37.0853 47.7348 36.9073 47.6599C36.735 47.587 36.5627 47.52 36.3885 47.4628L36.3169 47.4352C36.1524 47.3741 35.9859 47.3169 35.8195 47.2617L35.7827 47.2499C34.5652 46.8469 33.296 46.629 32.0161 46.6034C30.7632 46.611 29.5144 46.7517 28.2902 47.0232C27.0982 47.243 25.931 47.5845 24.8061 48.0423C22.9471 48.8447 21.3081 50.0964 20.0311 51.6891C19.7619 51.7099 19.4951 51.7547 19.2337 51.8231C18.1865 52.0932 17.2439 52.6885 16.3826 53.3626C15.6611 53.9028 15.022 54.5484 14.4857 55.2787C13.8542 56.2144 13.4186 57.2726 13.2063 58.3873C12.4727 61.8822 13.3747 65.4836 14.0386 68.9963C14.7025 72.509 15.0857 76.3371 13.4579 79.4891C12.8444 80.6718 11.9734 81.6988 11.3288 82.8598C10.6843 84.0209 10.2372 85.4224 10.6088 86.7096C11.0598 88.2728 12.5444 89.2564 13.3186 90.6757C14.2244 92.3295 13.9747 94.5511 12.7902 95.998C12.7379 96.061 12.6857 96.1241 12.6295 96.1951C12.5734 96.266 12.494 96.3409 12.4205 96.408C13.6418 96.8456 15.0025 96.3745 16.098 95.6727C16.9742 95.1456 17.7172 94.4173 18.2678 93.5458C19.6517 91.2316 19.0304 88.2393 19.5182 85.5643C20.1589 82.0615 22.7448 78.9371 22.3886 75.3909C22.1486 73.0117 20.6234 71.0227 19.4253 68.9766C18.6289 67.6033 17.9614 66.1566 17.4316 64.6557C17.4104 64.5926 17.3891 64.5276 17.3658 64.4586C17.0155 63.4434 16.7465 62.3671 16.9265 61.3046C16.9879 60.9605 17.0892 60.625 17.2284 60.3052C17.2284 60.3427 17.2284 60.3821 17.2284 60.4196C17.252 61.4472 17.4763 62.4598 17.8884 63.3981C19.0982 65.9606 22.0093 67.1434 23.8577 69.221C23.9351 69.3078 24.0087 69.3965 24.0822 69.4871C24.1035 69.5108 24.1229 69.5364 24.1422 69.562L24.299 69.7592L24.3648 69.8518C24.4132 69.9208 24.4616 69.9898 24.5061 70.0608L24.5661 70.1495C24.6281 70.25 24.69 70.3466 24.7481 70.455C25.2184 69.9247 25.7042 69.3669 25.8939 68.6809C25.9113 68.6218 25.923 68.5607 25.9346 68.4996C25.9501 68.5153 25.9636 68.5331 25.9791 68.5508C26.0159 68.7617 26.0449 68.9727 26.072 69.1855C26.072 69.4897 26.1038 69.793 26.1668 70.0903C26.3139 71.9827 26.1959 73.9263 26.072 75.8246C26.0062 76.8398 26.2656 78.3477 25.6307 79.1047L25.6113 79.1264C25.5741 79.1705 25.5333 79.2114 25.4894 79.2486C25.381 79.3629 25.2707 79.4753 25.1681 79.5935C23.039 82.0378 22.0712 85.5072 22.1215 88.8306C22.1718 92.6134 23.3583 96.2779 24.7036 99.7965C25.1734 101.081 25.7269 102.332 26.3604 103.542C26.6874 104.195 27.1199 104.787 27.6398 105.294C28.1837 105.785 28.8457 106.108 29.4979 106.424C29.6605 106.503 29.8251 106.579 29.9876 106.66L30.4038 106.857L33.5723 108.391C34.153 109.26 34.7143 110.153 35.2814 111.048C35.3627 111.174 35.4421 111.304 35.5253 111.431C36.1447 112.416 36.7679 113.402 37.4028 114.36L42.743 122.414C43.1301 123.006 43.5346 123.597 44.0785 124.034C44.2333 124.158 44.4007 124.265 44.5779 124.352C44.6679 124.396 44.7603 124.435 44.8547 124.468C44.7375 124.647 44.6873 124.864 44.7134 125.077C44.7848 125.287 44.9205 125.467 45.1005 125.592C46.3083 126.609 47.6496 127.681 48.029 129.244C48.2981 130.358 48.029 131.551 48.271 132.67C48.7142 134.689 50.6749 135.913 52.5292 136.69C56.6848 138.428 61.3012 139.096 65.7162 138.288C70.1312 137.48 74.3256 135.148 77.1844 131.586C78.0631 130.486 78.8122 129.286 79.6464 128.15C80.2271 127.35 80.8658 126.587 81.5259 125.852C82.2381 125.52 82.9246 125.134 83.5795 124.697C84.975 123.753 86.177 122.54 87.4506 121.417C88.401 120.573 89.3959 119.777 90.2688 118.854C91.0526 117.979 91.7849 117.058 92.4618 116.094C94.0102 114.005 95.6096 111.957 97.26 109.95C98.1427 108.876 99.0775 107.782 100.31 107.19L100.367 107.167C100.514 108.05 101.201 108.799 101.683 109.562C103.676 112.716 105.763 115.962 108.844 117.973C110.532 119.073 112.441 119.747 114.345 120.362C119.184 121.919 124.1 123.142 129.021 124.366C129.183 124.05 129.342 123.759 129.52 123.475C129.596 123.557 129.667 123.644 129.733 123.735C129.754 123.766 129.772 123.8 129.793 123.831C129.757 123.839 129.722 123.848 129.688 123.861C129.373 124.011 129.124 124.277 128.994 124.606C128.463 125.688 128.413 126.944 128.388 128.154C128.37 129.337 128.388 130.52 128.388 131.702C128.359 132.144 128.426 132.587 128.581 133C128.957 133.788 129.911 134.082 130.765 134.182C132.247 134.35 133.742 134.208 135.216 134.005C135.302 134.359 135.441 134.698 135.629 135.008C136.457 136.388 137.887 137.299 139.376 137.833C140.864 138.367 142.442 138.58 143.988 138.893C146.735 139.449 149.545 140.338 152.276 139.712C153.366 139.461 154.406 138.976 155.495 138.763C157.99 138.282 160.576 139.256 163.089 138.866C164.302 138.669 165.45 138.176 166.549 137.61C167.104 137.363 167.606 137.009 168.03 136.569C168.433 136.108 168.675 135.454 168.508 134.856C168.413 134.513 168.196 134.222 168.051 133.898C167.857 133.381 167.746 132.835 167.724 132.282C167.522 130.188 167.174 128.112 166.683 126.069C166.669 126.012 166.654 125.952 166.638 125.893C168.537 125.127 170.238 123.922 171.919 122.724L175.532 120.149C176.694 119.315 177.884 118.478 179.189 117.894C181.19 116.999 183.406 116.743 185.587 116.745C186.48 116.745 187.374 116.79 188.262 116.873C188.149 116.999 188.064 117.148 188.013 117.311C187.835 117.874 188.117 118.493 188.537 118.905C188.957 119.317 189.505 119.55 189.999 119.836C191.362 120.618 192.498 121.754 193.289 123.13C193.785 123.995 194.145 125.046 193.831 125.998C193.444 127.192 192.064 128.016 192.143 129.274C192.19 130.015 192.776 130.628 193.444 130.902C194.112 131.176 194.853 131.172 195.573 131.151C196.752 131.113 197.965 131.02 199.02 130.474C199.731 130.106 200.333 129.55 200.923 129C201.461 128.497 202.011 127.975 202.317 127.297C202.603 126.658 202.648 125.935 202.661 125.233C202.719 121.929 202.16 118.58 202.804 115.343C202.998 114.358 203.308 113.394 203.472 112.4C203.731 110.823 203.633 109.231 203.534 107.646C203.486 106.865 203.428 106.061 203.052 105.385Z" fill="url(#paint0_linear)"/>
<path opacity="0.06" d="M162.158 59.6941C161.397 60.2165 161.132 61.2258 161.035 62.1562C160.623 66.1124 162.225 70.0292 162.119 74.0051C162.034 77.1689 160.876 80.1868 159.734 83.1299C157.787 88.1505 156.773 93.6029 156.38 98.9863C155.987 104.37 155.412 109.976 152.575 114.529C151.93 115.56 151.179 116.518 150.548 117.555C149.886 118.639 149.362 119.802 148.777 120.93C147.055 124.26 144.835 127.297 142.196 129.932C141.422 130.701 140.601 131.446 139.614 131.89C138.978 132.171 138.293 132.319 137.6 132.327C136.906 132.334 136.218 132.2 135.576 131.933C134.253 131.375 133.138 130.118 133.083 128.659C133.035 127.354 133.8 126.177 134.566 125.132C137.164 121.593 140.151 118.368 143.47 115.521C144.072 115.004 144.707 114.47 145.018 113.733C145.368 112.883 145.225 111.919 145.27 110.999C145.341 109.53 145.903 108.137 146.238 106.706C147.592 100.892 145.185 94.5451 147.143 88.9134C147.579 87.6617 148.225 86.4651 148.378 85.1464C148.487 84.2239 148.262 83.1929 147.695 82.501C147.164 81.8793 146.867 81.0857 146.857 80.2617C146.857 80.0922 146.857 79.9247 146.876 79.7591C147.112 77.1788 147.347 74.5866 147.219 71.9984C147.091 69.4102 146.586 66.8082 145.413 64.5078C144.805 63.3153 144.019 62.1996 143.644 60.9124C143.04 58.8288 143.597 56.5757 144.497 54.6045C145.2 53.063 146.137 51.5944 147.445 50.5379C149.876 48.5765 153.515 48.3498 156.177 49.9721C158.139 51.1667 159.483 53.1754 160.572 55.2234C161.354 56.7196 162.169 57.9871 162.158 59.6941Z" fill="black"/>
<path d="M155.706 43.9836C155.335 45.0047 154.965 46.0258 154.597 47.0469C154.353 47.7171 154.111 48.3932 153.86 49.0634C152.698 52.1523 151.4 55.1919 149.367 57.7486C149.671 57.3661 146.812 55.4422 144.705 54.1294C143.677 53.4848 142.825 52.9881 142.616 52.8895C142.119 52.6609 141.611 52.4596 141.093 52.2863C140.289 52.0104 139.477 51.7718 138.673 51.4742C136.815 50.7902 138.114 49.7632 138.909 48.6593C141.513 45.0441 142.006 40.1043 144.962 36.7828C146.046 38.8801 147.761 40.5691 149.855 41.6024C149.896 41.6241 149.938 41.6438 149.981 41.6615C151.736 42.4973 153.676 42.858 155.491 43.5578C155.59 43.5953 155.704 43.6485 155.737 43.7549C155.75 43.8326 155.739 43.9122 155.706 43.9836Z" fill="#A1616A"/>
<path d="M150.653 117.001C149.812 118.228 149.288 119.651 149.131 121.138C148.974 122.626 149.187 124.13 149.752 125.511C149.895 125.897 150.118 126.247 150.405 126.538C150.77 126.829 151.196 127.031 151.649 127.129C155.493 128.243 159.597 128.024 163.534 127.326C164.867 127.117 166.178 126.777 167.447 126.311C169.396 125.552 171.137 124.34 172.855 123.13L176.49 120.579C177.667 119.753 178.854 118.923 180.168 118.344C182.181 117.458 184.411 117.204 186.604 117.206C188.487 117.208 190.367 117.391 192.217 117.752C193.45 117.995 194.927 118.245 195.794 117.328C196.289 116.81 196.436 116.051 196.533 115.335C196.916 112.551 196.909 109.726 196.512 106.944C196.502 106.71 196.419 106.485 196.274 106.303C196.137 106.185 195.971 106.108 195.794 106.081C194.081 105.686 192.362 106.504 190.697 107.066C187.239 108.237 183.524 108.377 180.005 109.341C176.312 110.352 172.844 112.266 169.027 112.655C167.207 112.84 165.38 112.678 163.557 112.72C161.865 112.757 160.288 113.352 158.631 113.423C155.437 113.567 152.66 114.135 150.653 117.001Z" fill="#A1616A"/>
<path opacity="0.06" d="M150.653 117.001C149.812 118.228 149.288 119.651 149.131 121.138C148.974 122.626 149.187 124.13 149.752 125.511C149.895 125.897 150.118 126.247 150.405 126.538C150.77 126.829 151.196 127.031 151.649 127.129C155.493 128.243 159.597 128.024 163.534 127.326C164.867 127.117 166.178 126.777 167.447 126.311C169.396 125.552 171.137 124.34 172.855 123.13L176.49 120.579C177.667 119.753 178.854 118.923 180.168 118.344C182.181 117.458 184.411 117.204 186.604 117.206C188.487 117.208 190.367 117.391 192.217 117.752C193.45 117.995 194.927 118.245 195.794 117.328C196.289 116.81 196.436 116.051 196.533 115.335C196.916 112.551 196.909 109.726 196.512 106.944C196.502 106.71 196.419 106.485 196.274 106.303C196.137 106.185 195.971 106.108 195.794 106.081C194.081 105.686 192.362 106.504 190.697 107.066C187.239 108.237 183.524 108.377 180.005 109.341C176.312 110.352 172.844 112.266 169.027 112.655C167.207 112.84 165.38 112.678 163.557 112.72C161.865 112.757 160.288 113.352 158.631 113.423C155.437 113.567 152.66 114.135 150.653 117.001Z" fill="black"/>
<path d="M153.777 112.834C153.686 113.27 153.604 113.731 153.732 114.157C153.891 114.575 154.158 114.942 154.506 115.217C157.797 118.217 162.498 118.838 166.894 119.325C168.084 119.457 169.296 119.589 170.475 119.371C171.549 119.173 172.552 118.691 173.541 118.213C175.67 117.186 177.81 116.148 179.636 114.638C181.426 113.159 182.862 111.267 184.717 109.873C186.824 108.296 189.416 107.393 191.297 105.537C192.658 104.2 193.562 102.455 193.878 100.557C194.09 99.2622 194.021 97.9396 193.878 96.6346C193.725 95.1345 193.479 93.6088 192.778 92.2802C191.967 90.7427 190.605 89.5816 189.166 88.6275C186.124 86.613 182.541 85.3632 178.908 85.3948C173.875 85.4401 169.23 88.4225 165.618 91.7716C161.798 95.3187 158.706 99.602 156.521 104.374C155.288 107.076 154.367 109.915 153.777 112.834Z" fill="#464353"/>
<path opacity="0.06" d="M153.777 112.834C153.686 113.27 153.604 113.731 153.732 114.157C153.891 114.575 154.158 114.942 154.506 115.217C157.797 118.217 162.498 118.838 166.894 119.325C168.084 119.457 169.296 119.589 170.475 119.371C171.549 119.173 172.552 118.691 173.541 118.213C175.67 117.186 177.81 116.148 179.636 114.638C181.426 113.159 182.862 111.267 184.717 109.873C186.824 108.296 189.416 107.393 191.297 105.537C192.658 104.2 193.562 102.455 193.878 100.557C194.09 99.2622 194.021 97.9396 193.878 96.6346C193.725 95.1345 193.479 93.6088 192.778 92.2802C191.967 90.7427 190.605 89.5816 189.166 88.6275C186.124 86.613 182.541 85.3632 178.908 85.3948C173.875 85.4401 169.23 88.4225 165.618 91.7716C161.798 95.3187 158.706 99.602 156.521 104.374C155.288 107.076 154.367 109.915 153.777 112.834Z" fill="black"/>
<path d="M162.158 59.6941C161.397 60.2165 161.132 61.2258 161.035 62.1562C160.623 66.1124 162.225 70.0292 162.119 74.0051C162.034 77.1689 160.876 80.1868 159.734 83.1299C157.787 88.1505 156.773 93.6029 156.38 98.9863C155.987 104.37 155.412 109.976 152.575 114.529C151.93 115.56 151.179 116.518 150.548 117.555C149.886 118.639 149.362 119.802 148.777 120.93C147.055 124.26 144.835 127.297 142.196 129.932C141.422 130.701 140.601 131.446 139.614 131.89C138.978 132.171 138.293 132.319 137.6 132.327C136.906 132.334 136.218 132.2 135.576 131.933C134.253 131.375 133.138 130.118 133.083 128.659C133.035 127.354 133.8 126.177 134.566 125.132C137.164 121.593 140.151 118.368 143.47 115.521C144.072 115.004 144.707 114.47 145.018 113.733C145.368 112.883 145.225 111.919 145.27 110.999C145.341 109.53 145.903 108.137 146.238 106.706C147.592 100.892 145.185 94.5451 147.143 88.9134C147.579 87.6617 148.225 86.4651 148.378 85.1464C148.487 84.2239 148.262 83.1929 147.695 82.501C147.164 81.8793 146.867 81.0857 146.857 80.2617C146.857 80.0922 146.857 79.9247 146.876 79.7591C147.112 77.1788 147.347 74.5866 147.219 71.9984C147.091 69.4102 146.586 66.8082 145.413 64.5078C144.805 63.3153 144.019 62.1996 143.644 60.9124C143.04 58.8288 143.597 56.5757 144.497 54.6045C145.2 53.063 146.137 51.5944 147.445 50.5379C149.876 48.5765 153.515 48.3498 156.177 49.9721C158.139 51.1667 159.483 53.1754 160.572 55.2234C161.354 56.7196 162.169 57.9871 162.158 59.6941Z" fill="#A1616A"/>
<path d="M151.464 72.9367C155.51 72.9367 158.79 67.6953 158.79 61.2297C158.79 54.7641 155.51 49.5227 151.464 49.5227C147.417 49.5227 144.137 54.7641 144.137 61.2297C144.137 67.6953 147.417 72.9367 151.464 72.9367Z" fill="#A1616A"/>
<path d="M132.78 122.406C132.996 122.717 133.143 123.072 133.21 123.447C133.277 123.821 133.262 124.206 133.167 124.575C133.857 125.08 134.697 125.329 135.545 125.28C136.388 125.233 137.216 125.039 137.994 124.707C138.67 124.455 139.311 124.113 139.899 123.689C140.909 122.929 141.641 121.84 142.221 120.713C142.548 120.09 142.827 119.284 142.415 118.724C142.253 118.534 142.055 118.379 141.834 118.267C140.343 117.4 138.79 116.648 137.189 116.018C136.749 115.811 136.271 115.702 135.787 115.698C135.193 115.732 134.653 116.063 134.181 116.433C133.119 117.274 132.264 118.354 131.68 119.587C131.498 119.982 130.949 120.918 131.221 121.324C131.345 121.511 131.802 121.576 131.996 121.695C132.303 121.873 132.571 122.115 132.78 122.406Z" fill="#FBBEBE"/>
<path opacity="0.03" d="M132.78 122.406C132.996 122.717 133.143 123.072 133.21 123.447C133.277 123.821 133.262 124.206 133.167 124.575C133.857 125.08 134.697 125.329 135.545 125.28C136.388 125.233 137.216 125.039 137.994 124.707C138.67 124.455 139.311 124.113 139.899 123.689C140.909 122.929 141.641 121.84 142.221 120.713C142.548 120.09 142.827 119.284 142.415 118.724C142.253 118.534 142.055 118.379 141.834 118.267C140.343 117.4 138.79 116.648 137.189 116.018C136.749 115.811 136.271 115.702 135.787 115.698C135.193 115.732 134.653 116.063 134.181 116.433C133.119 117.274 132.264 118.354 131.68 119.587C131.498 119.982 130.949 120.918 131.221 121.324C131.345 121.511 131.802 121.576 131.996 121.695C132.303 121.873 132.571 122.115 132.78 122.406Z" fill="black"/>
<path d="M140.795 117.839C144.07 118.458 147.081 120.07 150.3 120.94C151.603 121.291 152.944 121.531 154.189 122.047C155.433 122.564 156.606 123.447 157.142 124.705C157.369 125.308 157.519 125.939 157.59 126.581C157.729 127.49 157.843 128.505 157.313 129.25C156.753 130.039 155.697 130.212 154.75 130.328C151.347 130.74 147.945 131.154 144.53 131.446C143.839 131.489 143.151 131.572 142.469 131.697C141.908 131.811 141.36 131.984 140.802 132.118C140.081 132.29 139.347 132.398 138.615 132.513C136.744 132.787 134.851 133.061 132.971 132.852C132.114 132.755 131.154 132.473 130.776 131.685C130.62 131.276 130.553 130.837 130.583 130.399C130.573 129.229 130.563 128.06 130.583 126.891C130.6 125.69 130.658 124.444 131.192 123.374C131.325 123.046 131.575 122.782 131.891 122.635C132.086 122.578 132.29 122.559 132.491 122.58C133.498 122.615 134.539 122.659 135.439 123.116C136.153 123.477 136.734 124.078 137.462 124.405C138.84 125.028 140.502 124.58 141.898 125.166C142.223 124.145 142.15 123.112 141.908 122.065C141.666 121.018 141.327 119.991 141.224 118.923C141.22 118.688 141.176 118.456 141.093 118.237C140.988 118.018 141.023 117.805 140.795 117.839Z" fill="#464353"/>
<path opacity="0.06" d="M140.795 117.839C144.07 118.458 147.081 120.07 150.3 120.94C151.603 121.291 152.944 121.531 154.189 122.047C155.433 122.564 156.606 123.447 157.142 124.705C157.369 125.308 157.519 125.939 157.59 126.581C157.729 127.49 157.843 128.505 157.313 129.25C156.753 130.039 155.697 130.212 154.75 130.328C151.347 130.74 147.945 131.154 144.53 131.446C143.839 131.489 143.151 131.572 142.469 131.697C141.908 131.811 141.36 131.984 140.802 132.118C140.081 132.29 139.347 132.398 138.615 132.513C136.744 132.787 134.851 133.061 132.971 132.852C132.114 132.755 131.154 132.473 130.776 131.685C130.62 131.276 130.553 130.837 130.583 130.399C130.573 129.229 130.563 128.06 130.583 126.891C130.6 125.69 130.658 124.444 131.192 123.374C131.325 123.046 131.575 122.782 131.891 122.635C132.086 122.578 132.29 122.559 132.491 122.58C133.498 122.615 134.539 122.659 135.439 123.116C136.153 123.477 136.734 124.078 137.462 124.405C138.84 125.028 140.502 124.58 141.898 125.166C142.223 124.145 142.15 123.112 141.908 122.065C141.666 121.018 141.327 119.991 141.224 118.923C141.22 118.688 141.176 118.456 141.093 118.237C140.988 118.018 141.023 117.805 140.795 117.839Z" fill="black"/>
<path d="M31.3949 84.2278C30.7348 84.0149 30.098 84.6102 29.7283 85.2134C28.1915 87.6735 28.3173 90.9575 29.5464 93.5911C29.8388 94.2589 30.2422 94.8704 30.7387 95.3987C31.4045 96.0669 32.262 96.4947 33.0614 96.9756C35.2794 98.3102 37.1804 100.128 38.628 102.298C39.5745 103.719 40.3197 105.282 41.394 106.605C44.0379 109.861 48.3833 111.336 50.9479 114.648C51.5615 115.436 52.0802 116.351 52.8989 116.924C53.3856 117.265 53.9529 117.467 54.542 117.51C55.1311 117.553 55.7209 117.435 56.2502 117.168C56.7796 116.901 57.2294 116.495 57.5531 115.992C57.8769 115.489 58.063 114.907 58.0921 114.307C59.0889 112.814 59.9037 111.166 60.6799 109.542C61.8283 107.063 62.7986 104.502 63.5832 101.88C63.8716 100.954 64.1504 100.021 64.5181 99.1203C65.4259 96.8968 66.8718 94.8842 67.3828 92.5345C67.5879 91.5923 67.6382 90.6126 67.9363 89.6979C68.2033 88.877 68.66 88.1333 69.268 87.5296C71.281 85.5367 72.3649 82.6331 73.9656 80.2874C74.6159 79.3392 75.2915 78.3931 75.7211 77.3207C76.1508 76.2484 76.3154 75.0203 75.9147 73.9361C75.514 72.852 74.4669 71.9768 73.3327 72.0379C72.8251 72.0915 72.3326 72.2455 71.8829 72.4912C70.3198 73.2467 68.886 74.253 67.6363 75.4717C67.0899 76.0073 66.5729 76.5732 66.0879 77.167C63.7226 80.0449 61.8722 83.5379 61.7096 87.2872C61.6554 88.5724 61.7561 89.9976 60.9548 90.993C58.7443 93.7429 58.034 97.5236 56.1488 100.516C55.2758 101.896 54.2751 103.325 52.7828 103.954C52.5624 104.062 52.3186 104.111 52.0744 104.096C51.4782 104.027 51.1356 103.388 50.884 102.832C49.9007 100.664 48.7628 98.5723 47.4794 96.5735C46.9723 95.785 46.4129 94.9768 45.6019 94.5136C45.0483 94.2002 44.4057 94.0602 43.885 93.6936C43.1592 93.183 42.7798 92.3137 42.4024 91.4996C41.1791 88.8703 39.6304 86.4112 37.7938 84.1825C36.9538 83.1634 35.8466 82.1108 34.5498 82.2625C33.3149 82.4104 32.5601 83.7331 31.3949 84.2278Z" fill="#FBBEBE"/>
<path opacity="0.03" d="M31.3949 84.2278C30.7348 84.0149 30.098 84.6102 29.7283 85.2134C28.1915 87.6735 28.3173 90.9575 29.5464 93.5911C29.8388 94.2589 30.2422 94.8704 30.7387 95.3987C31.4045 96.0669 32.262 96.4947 33.0614 96.9756C35.2794 98.3102 37.1804 100.128 38.628 102.298C39.5745 103.719 40.3197 105.282 41.394 106.605C44.0379 109.861 48.3833 111.336 50.9479 114.648C51.5615 115.436 52.0802 116.351 52.8989 116.924C53.3856 117.265 53.9529 117.467 54.542 117.51C55.1311 117.553 55.7209 117.435 56.2502 117.168C56.7796 116.901 57.2294 116.495 57.5531 115.992C57.8769 115.489 58.063 114.907 58.0921 114.307C59.0889 112.814 59.9037 111.166 60.6799 109.542C61.8283 107.063 62.7986 104.502 63.5832 101.88C63.8716 100.954 64.1504 100.021 64.5181 99.1203C65.4259 96.8968 66.8718 94.8842 67.3828 92.5345C67.5879 91.5923 67.6382 90.6126 67.9363 89.6979C68.2033 88.877 68.66 88.1333 69.268 87.5296C71.281 85.5367 72.3649 82.6331 73.9656 80.2874C74.6159 79.3392 75.2915 78.3931 75.7211 77.3207C76.1508 76.2484 76.3154 75.0203 75.9147 73.9361C75.514 72.852 74.4669 71.9768 73.3327 72.0379C72.8251 72.0915 72.3326 72.2455 71.8829 72.4912C70.3198 73.2467 68.886 74.253 67.6363 75.4717C67.0899 76.0073 66.5729 76.5732 66.0879 77.167C63.7226 80.0449 61.8722 83.5379 61.7096 87.2872C61.6554 88.5724 61.7561 89.9976 60.9548 90.993C58.7443 93.7429 58.034 97.5236 56.1488 100.516C55.2758 101.896 54.2751 103.325 52.7828 103.954C52.5624 104.062 52.3186 104.111 52.0744 104.096C51.4782 104.027 51.1356 103.388 50.884 102.832C49.9007 100.664 48.7628 98.5723 47.4794 96.5735C46.9723 95.785 46.4129 94.9768 45.6019 94.5136C45.0483 94.2002 44.4057 94.0602 43.885 93.6936C43.1592 93.183 42.7798 92.3137 42.4024 91.4996C41.1791 88.8703 39.6304 86.4112 37.7938 84.1825C36.9538 83.1634 35.8466 82.1108 34.5498 82.2625C33.3149 82.4104 32.5601 83.7331 31.3949 84.2278Z" fill="black"/>
<path d="M31.2593 74.8094C34.0771 74.8094 36.3614 72.7098 36.3614 70.1199C36.3614 67.5299 34.0771 65.4304 31.2593 65.4304C28.4415 65.4304 26.1572 67.5299 26.1572 70.1199C26.1572 72.7098 28.4415 74.8094 31.2593 74.8094Z" fill="#FBBEBE"/>
<path d="M36.0441 71.0266C37.0585 71.0266 37.8809 70.1891 37.8809 69.156C37.8809 68.1228 37.0585 67.2853 36.0441 67.2853C35.0296 67.2853 34.2072 68.1228 34.2072 69.156C34.2072 70.1891 35.0296 71.0266 36.0441 71.0266Z" fill="#FBBEBE"/>
<path d="M31.929 70.1199C35.8105 70.1199 38.9571 69.2629 38.9571 68.2058C38.9571 67.1487 35.8105 66.2918 31.929 66.2918C28.0476 66.2918 24.901 67.1487 24.901 68.2058C24.901 69.2629 28.0476 70.1199 31.929 70.1199Z" fill="#FBBEBE"/>
<path d="M25.6617 67.7978C25.8327 68.3498 25.9672 68.9128 26.0643 69.4832C25.4742 68.8731 24.963 68.1888 24.543 67.4469C24.4298 67.319 24.3388 67.1723 24.2739 67.0132C23.6468 65.5269 23.2191 64.0229 23.2191 62.3947C23.2189 60.5068 23.7371 58.6565 24.715 57.0528C25.693 55.449 27.0918 54.1556 28.7535 53.3188C30.4151 52.4819 32.2734 52.1349 34.1185 52.3169C35.9636 52.499 37.722 53.2027 39.195 54.3488C40.6681 55.4949 41.7972 57.0376 42.4547 58.8027C43.1123 60.5678 43.2721 62.485 42.9162 64.3377C42.5603 66.1905 41.7028 67.905 40.4406 69.2876C39.1783 70.6702 37.5617 71.6658 35.7731 72.162C36.077 71.1646 36.4931 70.1908 36.5473 69.1559C36.58 68.8107 36.5309 68.4626 36.4041 68.1408C36.2343 67.7984 35.9835 67.5044 35.6744 67.2853C34.5673 66.4238 33.1427 66.0473 31.7491 66.071C30.3539 66.13 28.9832 66.4648 27.7134 67.0566C27.3128 67.232 26.8328 67.4686 26.3585 67.6302C26.1325 67.71 25.899 67.7661 25.6617 67.7978Z" fill="#FBBEBE"/>
<path d="M50.8724 89.9503C50.2356 90.9891 48.8749 91.3064 47.6787 91.2138C45.449 91.0462 43.4205 89.834 41.6978 88.3753C39.9752 86.9166 38.4693 85.2213 36.708 83.8178C33.4311 81.202 29.7399 80.1514 25.5707 80.0903C26.3856 79.4023 26.0856 77.7701 26.1514 76.6978C26.2946 74.5295 26.4301 72.304 26.1514 70.1672C26.1224 69.9366 26.0895 69.7099 26.0508 69.4832C26.1166 69.5541 26.1862 69.6231 26.2579 69.6941C27.4977 70.9058 29.0245 71.77 30.6895 72.2025C32.3546 72.635 34.1013 72.621 35.7595 72.1621C35.6529 72.5054 35.5695 72.8558 35.5098 73.2107C35.2698 74.7345 35.6724 76.2799 36.0692 77.7721C36.3054 78.6651 36.586 79.6231 37.308 80.1809C37.7764 80.5436 38.3667 80.6856 38.9222 80.8768C40.0296 81.2611 41.0517 81.864 41.9301 82.6509C42.5417 83.1969 43.0914 83.8336 43.7476 84.3086C44.3716 84.7107 45.029 85.0563 45.7122 85.3416C47.389 86.1296 48.9732 87.1076 50.435 88.257C50.7108 88.4323 50.9255 88.6916 51.0485 88.9982C51.0847 89.1607 51.0877 89.329 51.0574 89.4928C51.0271 89.6566 50.9641 89.8123 50.8724 89.9503Z" fill="#FBBEBE"/>
<path d="M62.3058 109.049C62.1722 109.948 61.3631 110.65 60.7922 111.348C59.2398 113.256 57.6662 115.17 55.93 116.916C54.0719 118.783 52.0318 120.447 49.9937 122.111L47.3497 124.265C47.0235 124.569 46.6412 124.803 46.2251 124.955C45.7377 125.079 45.2226 125.016 44.7773 124.78C44.6 124.693 44.432 124.588 44.276 124.466C43.7282 124.032 43.3256 123.441 42.9327 122.86C41.1443 120.201 39.3539 117.542 37.5615 114.882C36.9228 113.932 36.2957 112.956 35.6724 111.981C35.5892 111.854 35.5098 111.726 35.4266 111.6C34.8575 110.713 34.2904 109.826 33.7078 108.968L30.5219 107.449L30.1038 107.252L29.6102 107.017C28.9541 106.704 28.2882 106.384 27.7424 105.899C27.2198 105.399 26.7845 104.812 26.4553 104.163C25.8178 102.962 25.2603 101.72 24.7868 100.443C23.4319 96.9599 22.2396 93.3289 22.1893 89.5797C22.1448 86.2818 23.1009 82.8519 25.2533 80.4313C25.5475 80.0982 25.8637 79.786 26.1998 79.4969C26.614 79.1441 27.0417 78.9371 27.574 79.014C28.1063 79.0909 28.6115 79.1697 29.1225 79.2584C30.5316 79.5055 31.9297 79.8077 33.3168 80.1652C34.5672 80.4904 35.8621 80.861 37.126 80.6028C37.3293 80.5614 37.5306 80.5022 37.7319 80.449C37.8964 80.4057 38.059 80.3643 38.2274 80.3367C38.3208 80.3202 38.4152 80.3097 38.51 80.3051C39.1816 80.2696 39.8261 80.5436 40.4455 80.8137C41.6281 81.3302 42.8456 81.8742 43.736 82.8243C44.2663 83.396 44.6554 84.0977 45.2206 84.6359C45.9754 85.3554 46.9819 85.724 47.8878 86.2385C48.0627 86.3373 48.2315 86.4473 48.3929 86.5677C48.7502 86.8404 49.075 87.1546 49.3607 87.504C50.5337 88.9134 51.2305 90.8156 52.5254 92.2171C53.5617 93.3368 54.4623 94.579 55.2081 95.9171C55.33 96.1399 55.4481 96.3646 55.5642 96.5932C55.7578 96.9737 55.9378 97.36 56.1042 97.7503C56.1468 97.8509 56.1894 97.9475 56.2281 98.0519C56.4717 98.6425 56.6842 99.2459 56.8649 99.8595C57.3043 101.348 57.5965 102.954 58.5721 104.149C59.2534 104.979 60.1979 105.529 60.9935 106.244C61.5058 106.686 61.9089 107.245 62.1703 107.874C62.3139 108.248 62.3606 108.652 62.3058 109.049Z" fill="#FBBEBE"/>
<path opacity="0.06" d="M56.9171 97.2102C56.6952 97.4954 56.4674 97.7766 56.2338 98.0539C56.1951 98.1052 56.1525 98.1544 56.11 98.2037C54.0725 100.631 51.7402 102.784 49.169 104.612C47.578 105.744 45.8999 106.747 44.2256 107.748L41.1287 109.595C39.8338 110.37 38.5215 111.151 37.0853 111.596C36.6247 111.736 36.1427 111.848 35.6724 111.98C35.5891 111.854 35.5098 111.726 35.4266 111.6C34.8575 110.713 34.2904 109.826 33.7078 108.968L30.5218 107.449C32.2813 106.316 33.8423 104.892 35.1401 103.234C37.0757 100.804 38.5641 98.0322 40.0313 95.2784C40.2914 94.8339 40.4937 94.3568 40.6332 93.8592C40.8268 93.0332 40.6642 92.1659 40.4261 91.3538C39.5546 88.4419 37.7222 85.926 35.2388 84.2318C33.4968 83.0491 31.5148 82.3296 29.5444 81.6357C28.1682 81.1508 26.6604 80.6816 25.261 80.8807C25.5547 80.5478 25.871 80.2362 26.2075 79.9483C26.6217 79.5935 27.0494 79.3865 27.5817 79.4634C28.114 79.5403 28.6192 79.6191 29.1302 79.7098C30.1657 80.0331 31.1838 80.4195 32.1961 80.8176C32.862 81.0662 33.509 81.3647 34.1317 81.7106C34.7514 82.096 35.3468 82.5206 35.9143 82.982C37.5926 84.2849 39.3597 85.4647 41.2023 86.5125C43.3314 87.709 45.567 88.6808 47.8006 89.6664C48.0375 89.7903 48.2989 89.8577 48.5651 89.8635C48.6985 89.8633 48.828 89.8178 48.9331 89.7343C49.0383 89.6508 49.1131 89.5339 49.1458 89.4023C49.1547 89.2587 49.1224 89.1156 49.0529 88.9903C48.6658 88.1841 47.7871 87.778 46.9915 87.3857C43.6895 85.7575 40.7861 83.4137 37.9138 81.0877C37.844 81.0314 37.7827 80.965 37.7318 80.8906L38.2273 80.7782C41.4418 83.1296 44.8368 85.2139 48.3793 87.0112C48.5664 87.1084 48.7542 87.203 48.9426 87.295C49.0781 87.364 49.2116 87.431 49.349 87.4922C50.3033 87.9692 51.2575 88.4778 51.9756 89.2662C52.4387 89.8101 52.8292 90.4139 53.1369 91.062C53.9281 92.5842 54.6036 94.1657 55.1577 95.7929C55.1682 95.8277 55.1805 95.8619 55.1944 95.8954C55.2647 96.144 55.3861 96.3745 55.5506 96.5715C55.6085 96.6376 55.6773 96.693 55.7538 96.7352C56.1177 96.954 56.6171 96.9303 56.9171 97.2102Z" fill="black"/>
<path d="M38.2351 80.3367C41.4492 82.6881 44.8442 84.7718 48.3871 86.5677L48.9503 86.8535C50.0342 87.3936 51.1627 87.9298 51.9853 88.8247C52.448 89.3696 52.8385 89.974 53.1466 90.6224C53.9383 92.1441 54.6132 93.7257 55.1654 95.3533C55.2893 95.7141 55.4345 96.1103 55.7635 96.2956C56.0925 96.4809 56.6151 96.4671 56.9074 96.747C56.6442 97.0821 56.3771 97.4133 56.1003 97.7326C54.0634 100.161 51.731 102.315 49.1594 104.143C47.5683 105.274 45.8902 106.278 44.2159 107.279L41.119 109.126C39.8242 109.899 38.5118 110.68 37.0757 111.125C36.5356 111.293 35.9646 111.419 35.4169 111.58C34.8478 110.693 34.2807 109.806 33.6981 108.949L30.0941 107.23C32.0296 106.114 33.7175 104.527 35.1265 102.763C37.0621 100.335 38.5506 97.5631 40.0177 94.8093C40.2775 94.3645 40.4798 93.8875 40.6197 93.39C40.8132 92.5641 40.6506 91.6948 40.4126 90.8826C39.5406 87.9801 37.7135 85.472 35.2388 83.7804C33.4968 82.5976 31.5148 81.8801 29.5444 81.1843C28.1682 80.7013 26.6604 80.2302 25.261 80.4313C25.5552 80.0982 25.8714 79.786 26.2075 79.4969C26.6217 79.1441 27.0494 78.9371 27.5817 79.014C28.114 79.0909 28.6192 79.1697 29.1302 79.2584C30.1657 79.5837 31.1838 79.97 32.1961 80.3682C32.8624 80.616 33.5094 80.9144 34.1317 81.2612C34.7514 81.6465 35.3468 82.0712 35.9143 82.5326C37.5954 83.8325 39.3651 85.009 41.21 86.0532C43.3391 87.2517 45.5747 88.2314 47.8083 89.2071C48.0452 89.3311 48.3066 89.3986 48.5729 89.4042C48.7064 89.4047 48.8362 89.3595 48.9415 89.2758C49.0468 89.1922 49.1215 89.075 49.1536 88.943C49.1622 88.8 49.13 88.6576 49.0607 88.533C48.6735 87.7267 47.7948 87.3187 46.9993 86.9284C43.6972 85.3002 40.7939 82.9544 37.9215 80.6205C37.8512 80.5648 37.7898 80.4983 37.7396 80.4234L38.2351 80.3367Z" fill="#71FF80"/>
<path d="M65.3542 91.0384C72.0643 91.0384 77.5038 85.4987 77.5038 78.6651C77.5038 71.8315 72.0643 66.2918 65.3542 66.2918C58.6442 66.2918 53.2047 71.8315 53.2047 78.6651C53.2047 85.4987 58.6442 91.0384 65.3542 91.0384Z" fill="#71FF80"/>
<path d="M77.4341 127.91C79.7084 127.182 82.0175 126.441 84.015 125.111C85.4183 124.176 86.628 122.974 87.9016 121.862C88.8597 121.026 89.8585 120.238 90.7372 119.315C91.5245 118.452 92.2612 117.542 92.9437 116.591C94.4974 114.52 96.1019 112.488 97.7575 110.496C98.6459 109.434 99.5846 108.351 100.825 107.76C103.03 106.706 105.618 107.417 107.944 108.141C111.428 109.225 114.895 110.374 118.154 112.024C120.009 112.964 121.805 114.013 123.677 114.914C127.099 116.56 130.732 117.689 134.351 118.813C134.62 118.929 134.919 118.954 135.203 118.884C135.406 118.789 135.58 118.64 135.708 118.454C136.18 117.86 136.558 117.195 136.829 116.483C136.88 116.402 136.9 116.304 136.883 116.209C136.866 116.114 136.814 116.029 136.738 115.972C135.189 114.437 133.18 113.492 131.303 112.398C129.808 111.529 128.378 110.553 126.95 109.578C125.577 108.641 124.193 107.695 123.042 106.491C122.461 105.882 121.938 105.209 121.309 104.653C120.754 104.19 120.165 103.77 119.548 103.396C116.789 101.601 114.155 99.6143 111.666 97.4487C109.773 95.8008 108.223 93.6778 106.2 92.1994C104.96 91.2926 103.516 90.4667 101.998 90.6323C100.152 90.8294 98.7891 92.4064 97.502 93.7665C93.176 98.3417 87.7177 101.616 82.8904 105.639C78.9496 108.919 75.2663 112.816 70.4661 114.547C70.6809 115.272 70.7564 115.998 70.9732 116.715C71.2433 117.713 71.5803 118.69 71.9816 119.641C72.3796 120.482 72.8275 121.299 73.323 122.085L75.2469 125.284C75.634 125.935 76.0385 126.595 76.5921 127.111C76.8825 127.395 77.4341 127.498 77.4341 127.91Z" fill="#464353"/>
<path opacity="0.06" d="M77.4341 127.91C79.7084 127.182 82.0175 126.441 84.015 125.111C85.4183 124.176 86.628 122.974 87.9016 121.862C88.8597 121.026 89.8585 120.238 90.7372 119.315C91.5245 118.452 92.2612 117.542 92.9437 116.591C94.4974 114.52 96.1019 112.488 97.7575 110.496C98.6459 109.434 99.5846 108.351 100.825 107.76C103.03 106.706 105.618 107.417 107.944 108.141C111.428 109.225 114.895 110.374 118.154 112.024C120.009 112.964 121.805 114.013 123.677 114.914C127.099 116.56 130.732 117.689 134.351 118.813C134.62 118.929 134.919 118.954 135.203 118.884C135.406 118.789 135.58 118.64 135.708 118.454C136.18 117.86 136.558 117.195 136.829 116.483C136.88 116.402 136.9 116.304 136.883 116.209C136.866 116.114 136.814 116.029 136.738 115.972C135.189 114.437 133.18 113.492 131.303 112.398C129.808 111.529 128.378 110.553 126.95 109.578C125.577 108.641 124.193 107.695 123.042 106.491C122.461 105.882 121.938 105.209 121.309 104.653C120.754 104.19 120.165 103.77 119.548 103.396C116.789 101.601 114.155 99.6143 111.666 97.4487C109.773 95.8008 108.223 93.6778 106.2 92.1994C104.96 91.2926 103.516 90.4667 101.998 90.6323C100.152 90.8294 98.7891 92.4064 97.502 93.7665C93.176 98.3417 87.7177 101.616 82.8904 105.639C78.9496 108.919 75.2663 112.816 70.4661 114.547C70.6809 115.272 70.7564 115.998 70.9732 116.715C71.2433 117.713 71.5803 118.69 71.9816 119.641C72.3796 120.482 72.8275 121.299 73.323 122.085L75.2469 125.284C75.634 125.935 76.0385 126.595 76.5921 127.111C76.8825 127.395 77.4341 127.498 77.4341 127.91Z" fill="black"/>
<path d="M130.422 124.155C130.638 124.465 130.785 124.821 130.852 125.195C130.918 125.57 130.904 125.955 130.809 126.323C131.497 126.829 132.335 127.081 133.182 127.035C134.026 126.987 134.856 126.794 135.636 126.463C136.313 126.211 136.953 125.869 137.541 125.446C138.553 124.685 139.283 123.597 139.873 122.467C140.201 121.846 140.479 121.04 140.057 120.48C139.896 120.289 139.699 120.134 139.477 120.023C137.988 119.157 136.439 118.406 134.841 117.774C134.401 117.568 133.924 117.459 133.44 117.453C132.843 117.486 132.303 117.819 131.831 118.19C130.77 119.031 129.915 120.11 129.332 121.344C129.15 121.738 128.601 122.676 128.872 123.082C128.996 123.27 129.452 123.335 129.646 123.451C129.95 123.628 130.215 123.867 130.422 124.155Z" fill="#FBBEBE"/>
<path d="M139.285 119.491C142.56 120.112 145.572 121.722 148.791 122.592C150.093 122.942 151.435 123.183 152.679 123.699C153.924 124.216 155.097 125.099 155.633 126.357C155.859 126.96 156.009 127.591 156.08 128.233C156.219 129.142 156.333 130.157 155.803 130.902C155.244 131.691 154.187 131.866 153.24 131.98C149.838 132.394 146.435 132.806 143.021 133.098C142.331 133.142 141.644 133.225 140.963 133.348C140.402 133.465 139.854 133.636 139.297 133.77C138.577 133.944 137.841 134.05 137.109 134.165C135.238 134.437 133.345 134.713 131.465 134.502C130.608 134.405 129.648 134.123 129.27 133.335C129.114 132.926 129.048 132.487 129.077 132.049C129.077 130.88 129.057 129.71 129.077 128.541C129.094 127.34 129.152 126.094 129.687 125.024C129.82 124.697 130.069 124.433 130.385 124.285C130.58 124.228 130.784 124.209 130.985 124.23C131.992 124.265 133.033 124.308 133.933 124.766C134.647 125.127 135.162 124.048 135.89 124.372C137.27 124.992 136.335 123.11 137.729 123.695C138.054 122.674 139.436 123.281 139.196 122.235C138.956 121.188 139.817 121.643 139.719 120.567C139.714 120.332 139.67 120.1 139.587 119.881C139.479 119.67 139.513 119.457 139.285 119.491Z" fill="#464353"/>
<path opacity="0.06" d="M41.1829 56.4219C40.4319 56.8674 39.5009 56.7847 38.6261 56.7649C37.8609 56.7488 37.0957 56.789 36.3363 56.8852C36.0628 56.9046 35.7955 56.9769 35.5485 57.0981C35.2269 57.3093 34.9727 57.6114 34.8169 57.9674C34.5071 58.5733 34.2985 59.2275 34.1994 59.9031C34.091 60.662 34.1026 61.4919 33.6381 62.0931C33.0052 62.9112 32.018 62.785 31.1219 62.9467C30.3419 63.0991 29.5944 63.39 28.9134 63.8061C28.2419 64.2191 27.6657 64.7746 27.2241 65.4349C26.7826 66.0952 26.486 66.8446 26.3546 67.6322C26.3294 67.8116 26.312 67.989 26.3043 68.1684C26.2849 68.677 26.3352 69.1954 26.2694 69.6941C26.2535 69.8186 26.2289 69.9418 26.1959 70.0627C26.1873 70.0983 26.1763 70.1332 26.163 70.1672C26.1339 69.9366 26.101 69.7099 26.0623 69.4832C25.4722 68.8731 24.961 68.1888 24.541 67.4469C24.4277 67.319 24.3368 67.1723 24.2719 67.0133C23.6448 65.527 23.217 64.0229 23.217 62.3947C23.2169 60.2594 23.8798 58.1788 25.111 56.4504C26.3421 54.722 28.0784 53.4344 30.0715 52.7717C32.0647 52.109 34.2125 52.1052 36.2079 52.7608C38.2033 53.4165 39.944 54.6979 41.181 56.4219H41.1829Z" fill="black"/>
<path d="M41.8198 52.5426C41.3223 51.3697 40.2713 50.5379 39.1913 49.8854C37.0621 48.5923 34.6117 47.7802 32.1265 47.7467C30.8725 47.747 29.622 47.8791 28.3947 48.1409C27.1987 48.3586 26.0271 48.6974 24.8971 49.1521C23.0327 49.9418 21.3847 51.1811 20.095 52.7634C19.8241 52.7843 19.5554 52.8285 19.2917 52.8955C18.2388 53.1635 17.2904 53.7529 16.4252 54.4212C15.7011 54.9553 15.0581 55.5949 14.5167 56.3194C13.8831 57.2448 13.4448 58.2939 13.2296 59.4004C12.4921 62.8619 13.3999 66.4337 14.0657 69.909C14.7316 73.3842 15.1206 77.1808 13.4851 80.3032C12.8676 81.4859 11.9908 82.4912 11.3327 83.6424C10.6746 84.7936 10.2372 86.1794 10.6108 87.4567C11.0559 89.01 12.5541 89.9956 13.336 91.3932C13.8149 92.3074 13.9859 93.3565 13.8226 94.3793C13.6593 95.402 13.1708 96.3419 12.4321 97.0545C13.6612 97.4882 15.0296 97.021 16.1368 96.3271C17.0146 95.8066 17.7614 95.0852 18.3182 94.2199C19.7098 91.9254 19.0924 88.9627 19.5763 86.3114C20.2208 82.8421 22.8222 79.7473 22.4641 76.2346C22.2222 73.8691 20.6892 71.9078 19.4834 69.8794C18.679 68.5267 18.003 67.099 17.4646 65.6157C17.0775 64.5571 16.7639 63.4197 16.9555 62.308C17.0189 61.9686 17.1209 61.6378 17.2594 61.3224C17.2594 61.3598 17.2594 61.3973 17.2594 61.4347C17.2815 62.4558 17.5067 63.4617 17.9214 64.3916C19.3614 67.3878 23.1958 68.4917 24.8197 71.3874C25.2939 70.8611 25.7875 70.3091 25.981 69.6231C26.1514 69.0121 26.0643 68.3616 26.0894 67.7268C26.1572 65.9528 27.2159 64.2812 28.6986 63.3665C29.3791 62.9497 30.1268 62.6594 30.9071 62.509C31.8013 62.3454 32.7884 62.4696 33.4233 61.6516C33.8878 61.0602 33.8762 60.2205 33.9865 59.4635C34.0847 58.787 34.2934 58.1321 34.604 57.5258C34.7592 57.17 35.0136 56.8684 35.3356 56.6585C35.5829 56.5363 35.8511 56.464 36.1253 56.4456C36.8841 56.3494 37.6487 56.3092 38.4132 56.3254C39.2977 56.347 40.2442 56.4279 41.0029 55.9646C42.0714 55.3023 42.3172 53.7253 41.8198 52.5426Z" fill="#464353"/>
<path opacity="0.06" d="M149.981 41.6615C149.981 41.6891 149.981 41.7147 149.981 41.7423C149.631 44.8174 146.727 44.6755 146.05 49.5207C145.783 51.419 142.953 51.7699 141.093 52.2804C140.29 52.0045 139.477 51.7659 138.673 51.4683C136.815 50.7843 138.114 49.7573 138.909 48.6534C141.513 45.0382 142.006 40.0984 144.962 36.7769C146.046 38.8742 147.761 40.5632 149.855 41.5965C149.896 41.6241 149.938 41.6438 149.981 41.6615Z" fill="black"/>
<path d="M150.049 39.8973C150.048 40.3636 150.023 40.8295 149.971 41.2929C149.615 44.4934 148.047 47.4263 145.601 49.4681C143.154 51.5099 140.023 52.4997 136.871 52.2272C133.72 51.9547 130.797 50.4414 128.724 48.0088C126.651 45.5763 125.591 42.4163 125.769 39.2003C125.947 35.9844 127.35 32.9661 129.679 30.7868C132.008 28.6075 135.08 27.4391 138.241 27.5299C141.403 27.6207 144.405 28.9634 146.61 31.2728C148.815 33.5822 150.048 36.6762 150.049 39.8973Z" fill="#A1616A"/>
<path d="M154.936 41.2811C156.328 41.2121 157.665 41.768 158.95 42.314C164.047 44.4823 169.186 46.6684 173.74 49.8519C175.985 51.4289 178.066 53.2187 180.143 55.0145L188.677 62.3987C190.316 63.816 191.967 65.2471 193.283 66.9817C194.058 68.0516 194.765 69.1709 195.399 70.3328L196.665 72.5307C197.183 73.391 197.636 74.2905 198.02 75.2214C198.67 76.9186 198.912 78.8977 200.224 80.1376C201.105 80.9714 202.318 81.3105 203.395 81.8604C204.471 82.4104 205.524 83.3763 205.506 84.6024C205.506 85.3909 205.038 86.1005 204.686 86.8101C203.956 88.293 203.65 89.9548 203.803 91.6061L189.848 80.7447C189.292 80.313 188.711 79.8675 188.028 79.7217C187.142 79.5245 186.238 79.8656 185.382 80.1731C178.638 82.5954 171.471 83.5548 164.341 82.9899C161.188 82.7376 157.986 82.16 155.226 80.589C153.699 79.7217 152.348 78.5724 151.007 77.4351C149.332 76.0079 147.652 74.5768 146.168 72.9446C145.781 72.509 145.378 72.03 145.279 71.4465C145.206 71.0247 145.297 70.595 145.332 70.1692C145.576 67.1788 143.137 64.6892 142.393 61.7856C142.063 60.4165 142.109 58.9813 142.526 57.6369C142.943 56.2925 143.714 55.0907 144.757 54.1629C146.419 55.6453 146.359 58.2493 146.166 60.4905C145.905 63.5085 146.733 65.0046 146.472 68.0245C147.525 67.9851 147.333 68.675 147.782 67.7032C148.231 66.7314 148.318 65.6354 148.403 64.565C148.714 60.6936 149.092 56.8287 149.536 52.9704C149.756 51.0405 150.008 49.1147 150.25 47.1868C150.397 46.014 150.378 44.918 150.985 43.8772C151.829 42.4362 153.264 41.3619 154.936 41.2811Z" fill="#71FF80"/>
<path d="M156.757 44.7977C157.644 44.5139 158.598 44.7741 159.488 45.0441C161.063 45.5198 162.628 46.0225 164.184 46.5521C165.456 46.9838 166.745 47.447 167.821 48.2611C168.938 49.1048 169.757 50.2777 170.568 51.4308C171.148 52.2607 171.729 53.1005 172.116 54.0427C172.619 55.2767 172.755 56.6289 172.89 57.9575C172.979 58.5309 172.972 59.1154 172.869 59.6863C172.687 60.3061 172.367 60.8748 171.934 61.348C171.268 62.1512 170.495 62.8564 169.638 63.4434C167.36 65.0046 164.606 65.6551 161.923 66.2287C159.529 66.7393 157.117 67.2143 154.675 67.3681C153.724 67.4292 152.621 67.3681 152.04 66.6033C151.875 66.3648 151.745 66.1032 151.653 65.8266C150.226 61.9769 149.608 57.865 149.84 53.7569C149.861 53.008 149.974 52.2649 150.178 51.5452C150.379 50.9692 150.629 50.4119 150.924 49.8795C151.657 48.4661 152.429 47.0035 153.693 46.0573C155.015 45.0717 156.728 44.7603 158.368 44.8233" fill="#A1616A"/>
<path opacity="0.06" d="M165.675 59.4162C164.914 59.9386 164.649 60.9478 164.552 61.8782C164.14 65.8345 165.742 69.7513 165.636 73.7272C165.551 76.8811 164.393 79.9089 163.251 82.8519C161.304 87.8726 160.29 93.325 159.897 98.7083C159.504 104.092 158.929 109.698 156.092 114.251C155.447 115.282 154.696 116.24 154.065 117.277C153.403 118.361 152.878 119.524 152.294 120.652C150.572 123.982 148.352 127.019 145.713 129.654C144.939 130.423 144.118 131.168 143.131 131.612C142.495 131.893 141.81 132.042 141.116 132.049C140.423 132.056 139.735 131.923 139.093 131.655C137.769 131.097 136.655 129.84 136.6 128.381C136.552 127.076 137.317 125.899 138.083 124.854C140.681 121.315 143.668 118.09 146.987 115.243C147.589 114.726 148.223 114.192 148.535 113.455C148.885 112.605 148.742 111.641 148.787 110.721C148.858 109.252 149.42 107.859 149.754 106.428C151.109 100.614 148.702 94.2672 150.66 88.6354C151.096 87.3837 151.742 86.1872 151.895 84.8685C152.004 83.9459 151.777 82.915 151.212 82.2231C150.681 81.6011 150.383 80.8079 150.372 79.9838C150.372 79.8143 150.372 79.6467 150.393 79.4812C150.629 76.9008 150.864 74.3087 150.736 71.7205C150.608 69.1323 150.103 66.5303 148.93 64.2299C148.322 63.0373 147.536 61.9216 147.161 60.6344C146.557 58.5508 147.114 56.2978 148.014 54.3265C148.717 52.7851 149.654 51.3165 150.962 50.2599C153.393 48.2986 157.032 48.0719 159.694 49.6942C161.656 50.8888 163 52.8974 164.089 54.9455C164.871 56.4417 165.696 57.7091 165.675 59.4162Z" fill="black"/>
<path d="M166.116 59.4162C165.355 59.9386 165.09 60.9478 164.993 61.8782C164.581 65.8345 166.183 69.7513 166.077 73.7272C165.992 76.8811 164.834 79.9089 163.692 82.8519C161.745 87.8726 160.733 93.325 160.338 98.7083C159.943 104.092 159.37 109.698 156.533 114.251C155.888 115.282 155.139 116.24 154.506 117.277C153.846 118.361 153.32 119.524 152.735 120.652C151.012 123.982 148.792 127.019 146.154 129.654C145.38 130.423 144.557 131.168 143.57 131.612C142.934 131.893 142.249 132.042 141.556 132.049C140.862 132.056 140.175 131.923 139.533 131.655C138.211 131.097 137.096 129.84 137.042 128.381C136.991 127.076 137.756 125.899 138.524 124.854C141.122 121.315 144.109 118.09 147.428 115.243C148.03 114.726 148.667 114.192 148.976 113.455C149.329 112.605 149.183 111.641 149.228 110.721C149.3 109.252 149.861 107.859 150.196 106.428C151.551 100.614 149.143 94.2672 151.102 88.6354C151.537 87.3837 152.186 86.1872 152.338 84.8685C152.445 83.9459 152.22 82.915 151.655 82.2231C151.114 81.6054 150.808 80.8112 150.792 79.9838C150.792 79.8143 150.792 79.6467 150.813 79.4812C151.047 76.9008 151.282 74.3087 151.154 71.7205C151.026 69.1323 150.521 66.5303 149.348 64.2299C148.74 63.0373 147.954 61.9216 147.579 60.6344C146.975 58.5508 147.532 56.2978 148.432 54.3265C149.137 52.7851 150.072 51.3165 151.38 50.2599C153.811 48.2986 157.45 48.0719 160.112 49.6942C162.074 50.8888 163.418 52.8974 164.507 54.9455C165.309 56.4417 166.129 57.7091 166.116 59.4162Z" fill="#A1616A"/>
<path d="M185.69 110.89L185.524 110.942L185.69 110.89Z" fill="#464353"/>
<path d="M151.789 119.686C151.796 119.62 151.808 119.554 151.824 119.489L151.789 119.686Z" fill="#464353"/>
<path d="M193.287 106.16C193.845 105.503 194.704 105.209 195.53 104.991C196.862 104.64 198.223 104.414 199.595 104.316C200.447 104.223 201.308 104.277 202.142 104.476C202.967 104.707 203.749 105.207 204.167 105.966C204.537 106.637 204.595 107.433 204.643 108.2C204.744 109.777 204.837 111.354 204.581 112.907C204.417 113.893 204.109 114.847 203.91 115.824C203.263 119.03 203.824 122.347 203.766 125.619C203.753 126.317 203.708 127.033 203.42 127.665C203.112 128.338 202.559 128.848 202.018 129.353C201.424 129.899 200.82 130.449 200.104 130.813C199.044 131.356 197.822 131.446 196.636 131.484C195.914 131.505 195.17 131.507 194.507 131.237C193.843 130.967 193.245 130.36 193.196 129.625C193.119 128.377 194.501 127.561 194.896 126.378C195.209 125.436 194.849 124.395 194.35 123.538C193.549 122.171 192.406 121.045 191.038 120.275C190.531 119.991 189.991 119.753 189.569 119.353C189.147 118.953 188.86 118.332 189.04 117.776C189.255 117.104 190.024 116.79 190.715 116.723C191.406 116.656 192.135 116.707 192.757 116.394C193.31 116.116 193.696 115.58 193.961 115.014C194.525 113.807 194.604 112.422 194.179 111.157C194.012 110.675 193.768 110.224 193.459 109.822C193.169 109.444 192.573 109.124 192.366 108.71C191.998 107.965 192.794 106.751 193.287 106.16Z" fill="#71FF80"/>
<path opacity="0.06" d="M182.04 77.5927C178.842 74.7148 174.384 73.9322 170.204 73.059C168.05 72.6108 165.907 72.1115 163.774 71.5608C162.372 71.1981 160.967 70.8118 159.516 70.7112C158.064 70.6107 156.57 70.8177 155.327 71.5707C154.084 72.3237 153.147 73.6878 153.14 75.1603C153.14 75.7516 153.277 76.3312 153.235 76.9166C153.167 77.8589 152.654 78.6907 152.304 79.5718C151.768 80.9647 151.686 82.496 152.069 83.94C152.689 86.2404 154.473 88.2669 154.319 90.6422C154.061 94.6181 154.14 98.7734 154.942 102.667C155.743 106.56 156.744 110.471 156.721 114.454C156.697 118.438 155.513 122.627 152.592 125.28C154.571 127.173 156.991 128.519 159.624 129.193C161.875 129.767 164.552 129.71 166.154 128.001C166.526 127.606 166.834 127.08 166.756 126.538C166.677 126.196 166.536 125.872 166.34 125.582C165.239 123.573 165.373 121.097 165.86 118.854C166.348 116.611 167.182 114.431 167.393 112.14C167.548 110.478 167.374 108.789 167.686 107.149C167.926 105.893 168.444 104.711 168.756 103.471C169.675 99.7925 168.709 95.9309 167.749 92.2664C168.553 94.1489 170.072 95.6175 171.644 96.8948C174.028 98.8306 176.912 100.54 179.943 100.197C182.642 99.8891 184.939 97.979 186.524 95.7377C186.538 93.1456 187.421 90.6954 187.264 88.1091C187.163 86.9731 186.963 85.8485 186.668 84.7482C186.371 83.5182 186.068 82.2763 185.506 81.1468C184.765 79.6467 183.275 78.7025 182.04 77.5927Z" fill="black"/>
<path d="M182.702 77.5927C179.504 74.7148 175.048 73.9322 170.866 73.059C168.712 72.6108 166.569 72.1115 164.438 71.5608C163.036 71.1981 161.629 70.8118 160.179 70.7112C158.73 70.6107 157.235 70.8177 155.993 71.5707C154.75 72.3237 153.811 73.6878 153.806 75.1603C153.806 75.7516 153.941 76.3312 153.898 76.9166C153.833 77.8589 153.308 78.6907 152.967 79.5718C152.432 80.9649 152.351 82.4963 152.735 83.94C153.353 86.2404 155.137 88.2668 154.984 90.6422C154.725 94.6181 154.804 98.7734 155.606 102.667C156.407 106.56 157.408 110.471 157.384 114.454C157.361 118.438 156.169 122.613 153.246 125.263C155.225 127.154 157.646 128.501 160.278 129.175C162.529 129.749 165.208 129.692 166.809 127.983C167.18 127.589 167.488 127.062 167.411 126.52C167.331 126.178 167.19 125.854 166.995 125.564C165.893 123.555 166.027 121.08 166.514 118.836C167.002 116.593 167.836 114.413 168.049 112.122C168.202 110.461 168.028 108.771 168.342 107.131C168.58 105.876 169.1 104.693 169.41 103.453C170.329 99.7748 169.366 95.9132 168.404 92.2487C169.207 94.1312 170.726 95.5997 172.3 96.8771C174.684 98.8128 177.567 100.522 180.598 100.179C183.296 99.8713 185.593 97.9612 187.179 95.72C187.19 93.1278 188.073 90.6776 187.916 88.0914C187.815 86.9554 187.615 85.8307 187.32 84.7305C187.026 83.5005 186.72 82.2586 186.159 81.1291C185.438 79.6467 183.936 78.7025 182.702 77.5927Z" fill="#A1616A"/>
<path d="M160.489 127.336C159.069 126.455 157.843 125.286 156.887 123.9C156.542 123.404 156.233 122.875 155.803 122.454C155.373 122.032 154.791 121.718 154.197 121.781C153.525 121.852 152.987 122.373 152.561 122.909C151.419 124.35 150.684 126.112 149.416 127.443C147.952 128.982 145.91 129.808 143.872 130.336C141.834 130.865 139.73 131.143 137.733 131.811C137.106 132.02 136.446 132.304 136.107 132.881C135.677 133.616 135.913 134.58 136.366 135.31C137.2 136.69 138.637 137.579 140.135 138.107C141.633 138.635 143.218 138.846 144.78 139.158C147.54 139.708 150.368 140.589 153.115 139.968C154.21 139.719 155.244 139.238 156.351 139.029C158.867 138.552 161.463 139.516 163.989 139.13C165.21 138.943 166.363 138.446 167.473 137.886C168.029 137.641 168.534 137.291 168.963 136.855C169.367 136.398 169.611 135.749 169.445 135.158C169.35 134.817 169.131 134.529 168.986 134.208C168.758 133.711 168.711 133.153 168.657 132.607C168.448 130.529 168.094 128.468 167.596 126.441C167.424 125.734 167.167 124.945 166.518 124.636C166.386 124.563 166.231 124.545 166.087 124.586C165.856 124.675 165.781 124.959 165.711 125.197C165.521 125.857 165.157 126.451 164.659 126.914C164.161 127.378 163.548 127.694 162.886 127.828C162.224 127.961 161.539 127.908 160.905 127.673C160.271 127.438 159.712 127.03 159.289 126.495" fill="#71FF80"/>
<path opacity="0.06" d="M150.049 39.8973C150.048 40.3636 150.023 40.8295 149.971 41.2929C149.361 41.3859 148.738 41.331 148.153 41.1327C147.568 40.9344 147.037 40.5982 146.603 40.1516C146.195 39.71 145.889 39.1758 145.485 38.7303C145.08 38.2848 144.517 37.9142 143.936 37.9615C143.441 37.999 143.011 38.3183 142.672 38.6889C142.231 39.1714 141.909 39.7528 141.73 40.3861C141.6 40.8336 141.536 41.3422 141.172 41.6398C140.808 41.9375 140.361 41.9178 139.93 41.902C139.37 41.8823 138.79 41.8547 138.296 41.5866C137.367 41.0761 137.053 39.9071 136.709 38.89C136.128 37.1809 134.822 33.9482 132.791 33.6032C131.823 33.4396 130.647 33.96 129.888 34.5218C128.744 35.3674 127.9 35.9154 126.421 35.8918C127.354 33.1209 129.221 30.7766 131.691 29.2758C134.161 27.7751 137.073 27.2152 139.91 27.6958C142.747 28.1764 145.325 29.6663 147.185 31.9004C149.045 34.1346 150.067 36.9682 150.068 39.8973H150.049Z" fill="black"/>
<path d="M126.404 35.4404C126.055 35.4481 125.707 35.392 125.378 35.2748C124.439 34.9003 123.982 33.7964 123.903 32.7733C123.779 31.2141 124.29 29.6845 124.803 28.208C124.912 27.8867 125.041 27.5418 125.324 27.3624C125.553 27.248 125.803 27.1842 126.057 27.1751C127.447 26.978 128.653 26.1126 129.679 25.1428C130.705 24.173 131.63 23.073 132.776 22.2648C135.815 20.13 140.324 20.5282 142.953 23.1617C143.994 24.2025 144.888 25.6139 146.332 25.8583C147.165 25.9983 148.057 25.7066 148.849 26.022C149.429 26.2526 149.844 26.775 150.176 27.3091C151.256 29.0359 151.764 31.082 151.932 33.1222C152.1 35.1624 151.946 37.2145 151.789 39.2547C151.798 39.5601 151.72 39.8618 151.566 40.124C151.442 40.2752 151.287 40.3964 151.111 40.4788C150.375 40.8482 149.544 40.9724 148.735 40.8337C147.926 40.6951 147.18 40.3005 146.603 39.7061C146.193 39.2665 145.889 38.7323 145.485 38.2848C145.08 37.8374 144.517 37.4707 143.936 37.518C143.443 37.5555 143.009 37.8748 142.672 38.2454C142.231 38.7279 141.909 39.3093 141.73 39.9426C141.602 40.3901 141.536 40.8987 141.172 41.1943C140.808 41.49 140.361 41.4743 139.928 41.4585C139.37 41.4368 138.79 41.4112 138.296 41.1411C137.365 40.6326 137.051 39.4636 136.709 38.4465C136.128 36.7374 134.824 33.5027 132.791 33.1597C131.823 32.9941 130.647 33.5165 129.888 34.0783C128.727 34.918 127.89 35.466 126.404 35.4404Z" fill="#464353"/>
<path opacity="0.06" d="M62.3058 109.049C62.1722 109.948 61.3631 110.65 60.7921 111.348C59.2398 113.256 57.6662 115.17 55.93 116.916C54.0719 118.783 52.0318 120.447 49.9936 122.111L47.3496 124.265C47.0235 124.569 46.6412 124.803 46.2251 124.955C45.7377 125.079 45.2226 125.016 44.7773 124.78C44.816 124.701 44.8566 124.628 44.9012 124.555L48.0716 119.144C48.6949 118.083 49.1033 117.117 49.8136 116.122C50.884 114.632 51.964 113.134 53.2822 111.87C54.9487 110.271 57.0855 109.11 59.0676 107.955C59.354 107.08 60.5541 106.838 61.3651 107.252C61.6656 107.41 61.9363 107.622 62.1645 107.876C62.3097 108.249 62.3584 108.652 62.3058 109.049Z" fill="black"/>
<path d="M48.2923 119.367L45.1218 124.78C44.9921 124.998 44.8586 125.247 44.9147 125.495C44.9859 125.704 45.1218 125.883 45.3018 126.006C46.5174 127.013 47.8645 128.075 48.2458 129.623C48.5187 130.727 48.2458 131.909 48.4897 133.017C48.9368 135.016 50.9092 136.23 52.775 136.999C56.9559 138.722 61.5973 139.384 66.0394 138.576C70.4816 137.768 74.6972 135.465 77.5735 131.925C78.4561 130.837 79.2109 129.646 80.049 128.523C82.3717 125.418 85.3196 122.869 88.2442 120.346C92.0089 117.098 94.227 112.253 97.5349 108.519C98.1369 107.839 98.8008 107.139 99.664 106.915C100.148 106.79 100.825 106.974 100.845 107.482C100.889 108.468 101.667 109.274 102.2 110.098C104.205 113.22 106.303 116.439 109.402 118.43C111.097 119.522 113.019 120.191 114.936 120.796C119.794 122.337 124.747 123.555 129.694 124.762C129.944 124.253 130.244 123.772 130.589 123.325C131.101 122.684 131.777 122.195 132.292 121.551C133.234 120.39 133.565 118.854 133.867 117.38C130.912 115.537 127.879 113.634 124.964 111.718C123.497 110.756 122.02 109.773 120.831 108.472C120.057 107.616 119.407 106.637 118.631 105.775C117.837 104.939 116.981 104.166 116.072 103.463L109.104 97.7799C107.102 96.1497 105.062 94.4289 103.104 92.7415C102.002 91.7914 100.781 90.792 99.3408 90.7467C98.1078 90.7072 96.9736 91.3794 95.9129 92.026C89.683 95.8251 83.3601 99.4535 76.9444 102.911C75.6456 103.609 74.3411 104.303 73.1023 105.105C70.6921 106.666 68.5521 108.623 66.7692 110.896C66.442 111.312 66.0278 111.785 65.5091 111.722C65.3665 111.701 65.2292 111.652 65.1046 111.578C64.3052 111.143 63.8155 110.301 63.3626 109.503C62.9096 108.704 62.4045 107.865 61.5935 107.451C60.7825 107.037 59.5843 107.279 59.2959 108.156C57.3043 109.345 55.1751 110.496 53.5067 112.095C52.1886 113.358 51.1085 114.855 50.0382 116.347C49.3239 117.342 48.9136 118.308 48.2923 119.367Z" fill="#464353"/>
<path opacity="0.06" d="M43.0992 86.3528C43.0992 86.3528 46.2871 87.7938 48.573 89.42L43.0992 86.3528Z" fill="black"/>
<path d="M202.756 89.3155C202.814 91.1546 202.861 92.9977 202.839 94.8349C202.828 95.8087 202.787 96.8238 202.328 97.6774C202.001 98.2904 201.484 98.7694 200.973 99.2386L197.785 102.182C196.796 103.094 195.73 104.046 194.412 104.273C192.904 104.533 191.431 103.786 189.981 103.287C188.521 102.787 186.993 102.525 185.452 102.513C184.569 102.513 183.679 102.584 182.808 102.442C182.178 102.32 181.56 102.141 180.962 101.908L178.083 100.89C178.165 100.151 178.858 99.6801 179.438 99.2129C181.5 97.5098 182.404 94.7718 183.054 92.1521C183.583 90.1068 183.959 88.024 184.18 85.9211C184.279 84.8803 184.324 83.8218 184.109 82.7987C183.906 81.9734 183.621 81.1715 183.257 80.4057L182.245 78.0816C181.664 76.7688 180.503 76.1853 179.32 75.4106C181.105 76.1005 183.28 76.3706 184.637 77.7386C184.899 78.0417 185.209 78.2976 185.555 78.4956C185.924 78.6749 186.344 78.6927 186.749 78.7597C188.764 79.0672 190.477 80.3564 192.141 81.549C194.179 83.0103 196.273 84.3829 198.424 85.6668C199.392 86.2463 200.391 86.816 201.206 87.6065C202.02 88.3969 202.659 89.4495 202.711 90.5948" fill="#464353"/>
<path opacity="0.06" d="M29.1824 86.0867C26.6449 86.5972 25.3249 89.6349 25.4739 92.2625C25.6171 94.6095 26.5636 96.831 28.1488 98.5408C29.2076 99.6742 30.5277 100.549 31.4838 101.774C32.8968 103.579 33.3884 105.966 34.6523 107.884C35.5698 109.276 36.8569 110.368 38.1363 111.415C41.0861 113.812 44.1321 116.081 47.2741 118.221C48.5516 119.091 49.9491 119.97 51.4859 119.936C52.9337 119.905 54.2673 119.039 55.2119 117.92C56.1564 116.8 56.7603 115.44 57.3739 114.1C59.5843 109.191 61.8102 104.23 62.867 98.939C63.198 97.2772 63.4206 95.5643 64.16 94.0445C64.7407 92.8617 65.6 91.8485 66.3665 90.7801C68.1774 88.2449 69.4484 85.3525 70.0983 82.2882C70.5202 80.2894 70.6615 78.1486 69.9686 76.2365C69.2757 74.3245 67.5937 72.6667 65.5904 72.5169C64.0051 72.3986 62.4489 73.2265 61.3844 74.4309C60.3198 75.6353 59.6927 77.1748 59.2649 78.7341C58.6517 80.9772 58.4161 83.31 58.5681 85.6333C58.692 87.5079 59.0675 89.4003 58.7501 91.2532C58.5256 92.5601 57.9662 93.7803 57.4126 94.9828C55.9822 98.0854 54.5286 101.228 52.3666 103.853C51.6621 104.709 50.6923 105.574 49.6142 105.373C48.1238 105.097 47.729 103.175 46.9935 101.825C46.0915 100.169 44.3805 99.1736 43.0391 97.8588C41.1307 95.9861 39.9867 93.4748 38.6299 91.1566C37.2731 88.8385 35.5175 86.5499 33.0168 85.6609C30.516 84.7719 27.183 85.9132 26.5404 88.531" fill="black"/>
<path opacity="0.06" d="M31.0968 87.8864C28.5573 88.3969 25.3249 88.7301 25.4837 91.3617C25.6253 93.709 26.572 95.9311 28.1586 97.64C29.2173 98.7754 30.5374 99.6506 31.4936 100.875C32.9065 102.68 33.3982 105.066 34.6621 106.985C35.5795 108.379 36.8667 109.471 38.1461 110.516C41.0959 112.914 44.1418 115.183 47.2839 117.322C48.5613 118.194 49.9588 119.073 51.4957 119.039C52.9435 119.008 54.2771 118.141 55.2216 117.023C56.1662 115.905 56.7701 114.543 57.3836 113.201C59.594 108.292 61.8199 103.331 62.8768 98.0401C63.2077 96.3804 63.4303 94.6654 64.1697 93.1476C64.7504 91.9648 65.6098 90.9516 66.3763 89.8813C68.1874 87.347 69.4585 84.4551 70.108 81.3913C70.53 79.3905 70.6713 77.2517 69.9783 75.3377C69.2854 73.4236 67.6034 71.7698 65.6001 71.618C64.0149 71.4997 62.4587 72.3296 61.3941 73.5321C60.3296 74.7345 59.7024 76.276 59.2747 77.8372C58.6613 80.0803 58.4257 82.4131 58.5779 84.7364C58.7018 86.613 59.0773 88.5054 58.7598 90.3563C58.5353 91.6652 57.9759 92.8854 57.4223 94.0878C55.992 97.1905 54.5384 100.331 52.3763 102.958C51.6718 103.814 50.7021 104.677 49.624 104.478C48.1336 104.2 47.7387 102.278 47.0032 100.93C46.1012 99.2741 44.3902 98.2786 43.0489 96.9638C41.1404 95.0932 39.9965 92.5799 38.6397 90.2617C37.2828 87.9436 35.5273 85.657 33.0265 84.766C30.5258 83.875 33.6575 89.5816 33.013 92.1994" fill="black"/>
<path d="M29.1824 85.6353C26.6449 86.1458 25.3249 89.1835 25.4739 91.8111C25.6167 94.1587 26.5632 96.3811 28.1488 98.0914C29.2076 99.2248 30.5277 100.1 31.4838 101.324C32.8968 103.13 33.3884 105.517 34.6523 107.435C35.5698 108.829 36.8569 109.921 38.1363 110.967C41.0861 113.364 44.1321 115.632 47.2741 117.772C48.5516 118.643 49.9491 119.522 51.4859 119.489C52.9337 119.457 54.2673 118.592 55.2119 117.472C56.1564 116.353 56.7603 114.993 57.3739 113.652C59.5843 108.744 61.8102 103.782 62.867 98.4895C63.198 96.8298 63.4206 95.1148 64.16 93.597C64.7407 92.4143 65.6 91.4011 66.3665 90.3307C68.1777 87.7964 69.4487 84.9046 70.0983 81.8407C70.5202 79.8399 70.6615 77.7012 69.9686 75.7871C69.2757 73.8731 67.5937 72.2192 65.5904 72.0694C64.0051 71.9492 62.4489 72.779 61.3844 73.9835C60.3198 75.1879 59.6927 76.7274 59.2649 78.2866C58.6517 80.5298 58.4161 82.8625 58.5681 85.1858C58.692 87.0605 59.0675 88.9528 58.7501 90.8038C58.5256 92.1127 57.9662 93.3329 57.4126 94.5353C55.9822 97.638 54.5286 100.78 52.3666 103.406C51.6621 104.261 50.6923 105.125 49.6142 104.926C48.1238 104.648 47.729 102.728 46.9935 101.377C46.0915 99.7196 44.3805 98.7241 43.0391 97.4113C41.1307 95.5386 39.9867 93.0273 38.6299 90.7092C37.2731 88.391 35.5175 86.1044 33.0168 85.2154C30.516 84.3264 27.183 85.4677 26.5404 88.0855" fill="#FBBEBE"/>
<g opacity="0.06">
<path opacity="0.06" d="M19.4834 69.8892C18.679 68.5365 18.003 67.1088 17.4646 65.6255L17.3988 65.4284C16.9903 64.9819 16.6468 64.478 16.3787 63.9322C15.9638 63.0025 15.7386 61.9965 15.7168 60.9754C15.7168 60.938 15.7168 60.9005 15.7168 60.8631C15.5783 61.1785 15.4763 61.5092 15.4129 61.8487C15.2193 62.9604 15.5387 64.0959 15.9219 65.1564C16.4608 66.6395 17.1367 68.0672 17.9407 69.4201C19.1427 71.4662 20.6776 73.4374 20.9157 75.7851C21.2738 79.2978 18.6724 82.3906 18.0298 85.8619C17.5381 88.5132 18.1614 91.476 16.7697 93.7704C16.2134 94.6356 15.4665 95.3565 14.5883 95.8757C14.0375 96.2332 13.4345 96.4993 12.8018 96.6642C12.6864 96.8036 12.5623 96.9353 12.4302 97.0584C13.6593 97.4921 15.0277 97.0249 16.1348 96.331C17.0127 95.8105 17.7595 95.0891 18.3162 94.2238C19.7079 91.9293 19.0904 88.9666 19.5743 86.3153C20.2189 82.846 22.8203 79.7512 22.4622 76.2385C22.2222 73.877 20.6892 71.9078 19.4834 69.8892Z" fill="black"/>
<path opacity="0.06" d="M41.8197 52.5426C41.3223 51.3697 40.2713 50.5379 39.1913 49.8854C37.8221 49.0487 36.3322 48.4367 34.7762 48.0719C35.7748 48.4269 36.7358 48.8832 37.6447 49.434C38.7248 50.0884 39.7739 50.9183 40.2752 52.0932C40.7765 53.268 40.5268 54.8529 39.4506 55.5073C38.6919 55.9705 37.7454 55.8877 36.8608 55.868C36.0964 55.8502 35.3317 55.8898 34.573 55.9863C34.299 56.0064 34.0312 56.0787 33.7833 56.1992C33.4603 56.4123 33.2059 56.7173 33.0517 57.0764C32.7404 57.6825 32.5311 58.3375 32.4323 59.0141C32.3239 59.771 32.3336 60.6009 31.869 61.2021C31.238 62.0202 30.2509 61.896 29.3528 62.0576C28.5729 62.2101 27.8253 62.501 27.1443 62.9171C25.6617 63.8297 24.6029 65.4974 24.5352 67.2774C24.512 67.9121 24.5971 68.5606 24.4287 69.1717C24.3201 69.5282 24.1497 69.862 23.9255 70.1573C24.2684 70.5307 24.5685 70.9427 24.8197 71.3854C25.2939 70.8591 25.7875 70.3071 25.981 69.6212C26.1514 69.0101 26.0643 68.3596 26.0894 67.7248C26.1572 65.9508 27.2159 64.2792 28.6986 63.3645C29.379 62.9477 30.1268 62.6574 30.907 62.5071C31.8013 62.3434 32.7884 62.4676 33.4233 61.6496C33.8878 61.0582 33.8762 60.2185 33.9865 59.4615C34.0846 58.7851 34.2934 58.1301 34.604 57.5238C34.7592 57.168 35.0136 56.8665 35.3356 56.6565C35.5829 56.5343 35.8511 56.462 36.1253 56.4436C36.8841 56.3474 37.6487 56.3072 38.4132 56.3234C39.2977 56.3451 40.2442 56.4259 41.0029 55.9626C42.0714 55.3023 42.3172 53.7253 41.8197 52.5426Z" fill="black"/>
</g>
<path opacity="0.06" d="M29.1457 71.3775C29.1457 71.3775 31.4316 73.3803 35.7731 72.166C35.7731 72.1621 33.0846 73.2403 29.1457 71.3775Z" fill="black"/>
<path opacity="0.06" d="M151.746 37.591C151.751 37.8954 151.67 38.1948 151.514 38.4544C151.39 38.605 151.235 38.7256 151.059 38.8072C150.324 39.1771 149.493 39.3016 148.684 39.1633C147.875 39.0249 147.129 38.6307 146.553 38.0365C146.143 37.5949 145.839 37.0509 145.434 36.6152C145.03 36.1796 144.466 35.7991 143.886 35.8465C143.392 35.8859 142.961 36.2052 142.622 36.5738C142.183 37.0579 141.861 37.6388 141.679 38.271C141.553 38.7205 141.486 39.2271 141.124 39.5247C140.762 39.8224 140.313 39.8027 139.879 39.7869C139.32 39.7672 138.739 39.7416 138.248 39.4715C137.316 38.9629 137.003 37.792 136.658 36.7769C136.078 35.0659 134.773 31.8331 132.743 31.4881C131.775 31.3245 130.596 31.8469 129.839 32.4067C128.696 33.2523 127.852 33.8003 126.371 33.7865C126.022 33.7934 125.675 33.7373 125.345 33.621C124.493 33.2799 124.039 32.3377 123.901 31.4034C123.849 31.8316 123.838 32.2641 123.868 32.6945C123.95 33.7156 124.406 34.8195 125.345 35.196C125.675 35.3123 126.022 35.3684 126.371 35.3615C127.852 35.3852 128.694 34.8372 129.839 33.9915C130.6 33.4317 131.775 32.9074 132.743 33.073C134.765 33.4081 136.082 36.6409 136.651 38.3499C136.995 39.367 137.309 40.5379 138.24 41.0465C138.731 41.3146 139.312 41.3422 139.871 41.3619C140.305 41.3777 140.781 41.3796 141.116 41.0997C141.451 40.8198 141.546 40.2935 141.672 39.846C141.852 39.2136 142.175 38.6326 142.614 38.1488C142.953 37.7802 143.388 37.4609 143.878 37.4215C144.474 37.3741 145.039 37.7428 145.427 38.1902C145.814 38.6377 146.135 39.1758 146.545 39.6115C147.122 40.2057 147.867 40.5999 148.676 40.7383C149.485 40.8766 150.316 40.752 151.051 40.3822C151.226 40.2999 151.382 40.1795 151.506 40.0294C151.663 39.7692 151.743 39.4691 151.738 39.164C151.89 37.5037 151.954 35.8363 151.932 34.169C151.916 35.3103 151.833 36.4516 151.746 37.591Z" fill="black"/>
<path d="M17.3833 121.683C17.3833 121.683 17.691 121.334 17.1123 121.196V120.622H17.4607C17.4599 119.929 17.2256 119.257 16.7968 118.719C16.3681 118.181 15.7709 117.809 15.1051 117.665V116.97H15.1961V116.065H12.9566V116.97H13.0205V117.673C12.361 117.824 11.7715 118.199 11.3493 118.736C10.9271 119.274 10.6973 119.942 10.6978 120.63H11.0056V121.18C11.0056 121.18 10.272 121.533 11.0056 122.166C11.7392 122.799 11.625 123.256 11.625 123.256C11.625 123.256 11.3172 124.439 10.6998 124.592V135.558C10.6995 135.878 10.7612 136.195 10.8813 136.491C11.0014 136.787 11.1776 137.056 11.3998 137.282C11.622 137.509 11.8858 137.688 12.1762 137.811C12.4666 137.933 12.7778 137.997 13.0921 137.997H14.9832C15.6182 137.997 16.2272 137.74 16.6762 137.282C17.1252 136.825 17.3775 136.205 17.3775 135.558V124.592C17.3775 124.592 16.2955 123.766 16.489 123.256C16.7487 122.71 17.0476 122.184 17.3833 121.683Z" fill="#464353"/>
</g>
<defs>
<linearGradient id="paint0_linear" x1="107.426" y1="139.93" x2="107.426" y2="19.5091" gradientUnits="userSpaceOnUse">
<stop stop-color="#808080" stop-opacity="0.25"/>
<stop offset="0.54" stop-color="#808080" stop-opacity="0.12"/>
<stop offset="1" stop-color="#808080" stop-opacity="0.1"/>
</linearGradient>
<clipPath id="clip0">
<rect width="223" height="152" fill="white"/>
</clipPath>
</defs>
</svg>
