<svg width="261" height="201" viewBox="0 0 261 201" fill="none" xmlns="http://www.w3.org/2000/svg">
<g clip-path="url(#clip0)">
<path d="M199.96 190.385L213.548 166.406L199.988 192.965L200.016 195.663C199.024 195.672 198.042 195.653 197.069 195.605L197.743 160.92L197.724 160.653L197.749 160.601L197.814 157.324L182.933 131.685L197.796 154.871L197.849 155.563L198.358 129.358L185.505 102.777L198.395 124.754L198.26 70.4637L198.26 70.283L198.265 70.4607L199.118 113.249L210.832 95.8684L199.156 116.935L199.412 140.375L210.191 117.499L199.452 143.821L199.594 156.855L215.27 124.988L199.642 161.402L199.96 190.385Z" fill="#2A2D48"/>
<path d="M245.69 191.141L259.278 167.162L245.718 193.72L245.746 196.419C244.754 196.428 243.772 196.408 242.799 196.36L243.473 161.676L243.454 161.408L243.479 161.356L243.544 158.079L228.663 132.441L243.526 155.626L243.579 156.319L244.088 130.113L231.235 103.532L244.125 125.51L243.99 71.219L243.99 71.0383L243.995 71.216L244.848 114.004L256.562 96.6237L244.886 117.691L245.142 141.131L255.921 118.254L245.182 144.577L245.324 157.611L261 125.744L245.372 162.158L245.69 191.141Z" fill="#2A2D48"/>
<path d="M108.222 0H26.9087V130.517H108.222V0Z" fill="#2A2D48"/>
<path d="M105.357 4.59918H29.7742V125.918H105.357V4.59918Z" fill="white"/>
<path d="M95.4223 25.8782H39.9512C39.5019 25.8775 39.0712 25.6652 38.7537 25.2879C38.4361 24.9107 38.2578 24.3993 38.2578 23.8661C38.2578 23.3329 38.4361 22.8215 38.7537 22.4442C39.0712 22.0669 39.5019 21.8546 39.9512 21.8539H95.4223C95.6452 21.8536 95.8659 21.9054 96.0719 22.0063C96.2779 22.1073 96.465 22.2555 96.6227 22.4423C96.7804 22.6292 96.9055 22.8511 96.9909 23.0954C97.0762 23.3397 97.1202 23.6016 97.1202 23.8661C97.1202 24.1305 97.0762 24.3924 96.9909 24.6367C96.9055 24.881 96.7804 25.1029 96.6227 25.2898C96.465 25.4767 96.2779 25.6248 96.0719 25.7258C95.8659 25.8268 95.6452 25.8786 95.4223 25.8782Z" fill="#2A2D48"/>
<path d="M95.4223 46.5745H39.9512C39.5019 46.5738 39.0712 46.3615 38.7537 45.9843C38.4361 45.607 38.2578 45.0956 38.2578 44.5624C38.2578 44.0292 38.4361 43.5178 38.7537 43.1405C39.0712 42.7633 39.5019 42.551 39.9512 42.5503H95.4223C95.6452 42.5499 95.8659 42.6017 96.0719 42.7027C96.2779 42.8036 96.465 42.9518 96.6227 43.1387C96.7804 43.3255 96.9055 43.5475 96.9909 43.7918C97.0762 44.0361 97.1202 44.2979 97.1202 44.5624C97.1202 44.8269 97.0762 45.0887 96.9909 45.333C96.9055 45.5773 96.7804 45.7993 96.6227 45.9861C96.465 46.173 96.2779 46.3212 96.0719 46.4221C95.8659 46.5231 95.6452 46.5749 95.4223 46.5745Z" fill="#2A2D48"/>
<path d="M95.4223 67.2709H39.9512C39.5019 67.2702 39.0712 67.0579 38.7537 66.6806C38.4361 66.3033 38.2578 65.7919 38.2578 65.2587C38.2578 64.7255 38.4361 64.2141 38.7537 63.8369C39.0712 63.4596 39.5019 63.2473 39.9512 63.2466H95.4223C95.6452 63.2462 95.8659 63.298 96.0719 63.399C96.2779 63.5 96.465 63.6481 96.6227 63.835C96.7804 64.0219 96.9055 64.2438 96.9909 64.4881C97.0762 64.7324 97.1202 64.9943 97.1202 65.2587C97.1202 65.5232 97.0762 65.7851 96.9909 66.0294C96.9055 66.2737 96.7804 66.4956 96.6227 66.6825C96.465 66.8694 96.2779 67.0175 96.0719 67.1185C95.8659 67.2194 95.6452 67.2712 95.4223 67.2709Z" fill="#2A2D48"/>
<path d="M95.4223 87.9672H39.9512C39.5019 87.9665 39.0712 87.7542 38.7537 87.3769C38.4361 86.9997 38.2578 86.4883 38.2578 85.9551C38.2578 85.4219 38.4361 84.9105 38.7537 84.5332C39.0712 84.1559 39.5019 83.9436 39.9512 83.9429H95.4223C95.6452 83.9426 95.8659 83.9944 96.0719 84.0953C96.2779 84.1963 96.465 84.3444 96.6227 84.5313C96.7804 84.7182 96.9055 84.9401 96.9909 85.1844C97.0762 85.4287 97.1202 85.6906 97.1202 85.9551C97.1202 86.2195 97.0762 86.4814 96.9909 86.7257C96.9055 86.97 96.7804 87.1919 96.6227 87.3788C96.465 87.5657 96.2779 87.7138 96.0719 87.8148C95.8659 87.9158 95.6452 87.9676 95.4223 87.9672Z" fill="#2A2D48"/>
<path d="M95.4223 108.664H39.9512C39.5019 108.663 39.0712 108.451 38.7537 108.073C38.4361 107.696 38.2578 107.185 38.2578 106.651C38.2578 106.118 38.4361 105.607 38.7537 105.23C39.0712 104.852 39.5019 104.64 39.9512 104.639H95.4223C95.6452 104.639 95.8659 104.691 96.0719 104.792C96.2779 104.893 96.465 105.041 96.6227 105.228C96.7804 105.415 96.9055 105.636 96.9909 105.881C97.0762 106.125 97.1202 106.387 97.1202 106.651C97.1202 106.916 97.0762 107.178 96.9909 107.422C96.9055 107.666 96.7804 107.888 96.6227 108.075C96.465 108.262 96.2779 108.41 96.0719 108.511C95.8659 108.612 95.6452 108.664 95.4223 108.664Z" fill="#2A2D48"/>
<path d="M85.7329 25.8782H39.7088C39.486 25.8786 39.2653 25.8268 39.0593 25.7258C38.8533 25.6248 38.6661 25.4767 38.5084 25.2898C38.3507 25.1029 38.2256 24.881 38.1403 24.6367C38.0549 24.3924 38.011 24.1305 38.011 23.8661C38.011 23.6016 38.0549 23.3397 38.1403 23.0954C38.2256 22.8511 38.3507 22.6292 38.5084 22.4423C38.6661 22.2555 38.8533 22.1073 39.0593 22.0063C39.2653 21.9054 39.486 21.8536 39.7088 21.8539H85.7329C86.1822 21.8546 86.6129 22.0669 86.9305 22.4442C87.248 22.8215 87.4263 23.3329 87.4263 23.8661C87.4263 24.3993 87.248 24.9107 86.9305 25.2879C86.6129 25.6652 86.1822 25.8775 85.7329 25.8782Z" fill="#71FF80"/>
<path d="M71.4412 46.5745H39.7088C39.2591 46.5745 38.8278 46.3626 38.5098 45.9852C38.1918 45.6079 38.0132 45.0961 38.0132 44.5624C38.0132 44.0288 38.1918 43.517 38.5098 43.1396C38.8278 42.7623 39.2591 42.5503 39.7088 42.5503H71.4412C71.664 42.5499 71.8848 42.6017 72.0908 42.7027C72.2967 42.8036 72.4839 42.9518 72.6416 43.1387C72.7993 43.3255 72.9244 43.5475 73.0097 43.7918C73.0951 44.0361 73.139 44.2979 73.139 44.5624C73.139 44.8269 73.0951 45.0887 73.0097 45.333C72.9244 45.5773 72.7993 45.7993 72.6416 45.9861C72.4839 46.173 72.2967 46.3212 72.0908 46.4221C71.8848 46.5231 71.664 46.5749 71.4412 46.5745Z" fill="#71FF80"/>
<path d="M54.0005 67.2709H39.7088C39.486 67.2712 39.2652 67.2194 39.0593 67.1185C38.8533 67.0175 38.6661 66.8694 38.5084 66.6825C38.3507 66.4956 38.2256 66.2737 38.1403 66.0294C38.0549 65.7851 38.011 65.5232 38.011 65.2587C38.011 64.9943 38.0549 64.7324 38.1403 64.4881C38.2256 64.2438 38.3507 64.0219 38.5084 63.835C38.6661 63.6481 38.8533 63.5 39.0593 63.399C39.2652 63.298 39.486 63.2462 39.7088 63.2466H54.0005C54.4498 63.2473 54.8805 63.4596 55.1981 63.8369C55.5156 64.2141 55.6939 64.7255 55.6939 65.2587C55.6939 65.7919 55.5156 66.3033 55.1981 66.6806C54.8805 67.0579 54.4498 67.2702 54.0005 67.2709Z" fill="#71FF80"/>
<path d="M90.093 87.9672H39.7088C39.2591 87.9672 38.8278 87.7552 38.5098 87.3779C38.1918 87.0005 38.0132 86.4887 38.0132 85.9551C38.0132 85.4214 38.1918 84.9096 38.5098 84.5323C38.8278 84.1549 39.2591 83.9429 39.7088 83.9429H90.093C90.5427 83.9429 90.974 84.1549 91.292 84.5323C91.61 84.9096 91.7887 85.4214 91.7887 85.9551C91.7887 86.4887 91.61 87.0005 91.292 87.3779C90.974 87.7552 90.5427 87.9672 90.093 87.9672Z" fill="#71FF80"/>
<path d="M78.9504 108.664H39.7088C39.486 108.664 39.2652 108.612 39.0593 108.511C38.8533 108.41 38.6661 108.262 38.5084 108.075C38.3507 107.888 38.2256 107.666 38.1403 107.422C38.0549 107.178 38.011 106.916 38.011 106.651C38.011 106.387 38.0549 106.125 38.1403 105.881C38.2256 105.636 38.3507 105.415 38.5084 105.228C38.6661 105.041 38.8533 104.893 39.0593 104.792C39.2652 104.691 39.486 104.639 39.7088 104.639H78.9504C79.1732 104.639 79.394 104.691 79.6 104.792C79.8059 104.893 79.9931 105.041 80.1508 105.228C80.3085 105.415 80.4336 105.636 80.519 105.881C80.6043 106.125 80.6482 106.387 80.6482 106.651C80.6482 106.916 80.6043 107.178 80.519 107.422C80.4336 107.666 80.3085 107.888 80.1508 108.075C79.9931 108.262 79.8059 108.41 79.6 108.511C79.394 108.612 79.1732 108.664 78.9504 108.664Z" fill="#71FF80"/>
<path d="M259.728 195.666H0V196.36H259.728V195.666Z" fill="#3F3D56"/>
<path d="M147.994 94.0278C147.994 94.0278 146.156 78.0294 143.092 82.3926C140.028 86.7558 143.092 93.3006 143.092 93.3006L145.543 96.9366L147.994 94.755V94.0278Z" fill="#9F616A"/>
<path d="M155.348 99.1181C155.348 99.1181 149.22 91.119 147.994 92.5734C146.769 94.0278 143.092 94.7549 143.705 97.6637C144.318 100.573 157.187 110.026 157.187 110.026L155.348 99.1181Z" fill="#71FF80"/>
<path opacity="0.1" d="M155.348 99.1181C155.348 99.1181 149.22 91.119 147.994 92.5734C146.769 94.0278 143.092 94.7549 143.705 97.6637C144.318 100.573 157.187 110.026 157.187 110.026L155.348 99.1181Z" fill="black"/>
<path d="M190.278 98.3909V104.209C190.278 104.209 190.891 117.298 187.214 116.571C183.537 115.844 185.376 104.936 185.376 104.936L185.988 98.391L190.278 98.3909Z" fill="#9F616A"/>
<path d="M188.44 140.568C188.44 140.568 193.955 150.749 195.793 151.476C197.632 152.204 207.437 158.748 208.662 165.293L217.241 178.383L212.952 184.927C212.952 184.927 193.342 160.203 187.827 158.021C182.312 155.84 176.796 144.932 176.796 144.932L188.44 140.568Z" fill="#9F616A"/>
<path d="M144.93 123.843C144.93 123.843 133.287 126.024 135.126 134.751C136.964 143.477 154.735 161.657 154.735 161.657L155.348 166.02L162.089 167.475L165.153 163.839L164.54 161.657C164.54 161.657 157.187 153.658 156.574 150.749C155.961 147.84 149.22 136.205 146.156 135.478L150.446 132.569L144.93 123.843Z" fill="#9F616A"/>
<path d="M215.403 178.383C215.403 178.383 212.952 174.019 216.629 174.747C220.306 175.474 222.757 176.201 222.757 179.11C222.757 182.019 219.693 202.38 216.016 200.926C212.339 199.471 215.403 192.927 215.403 192.927C215.403 192.927 213.565 187.109 212.339 186.382C211.114 185.655 211.114 182.019 212.339 182.019C213.565 182.019 216.016 179.837 215.403 178.383Z" fill="#2F2E41"/>
<path d="M163.314 162.384C163.314 162.384 163.314 158.748 165.766 162.384C168.217 166.02 169.443 168.929 166.991 171.111C164.54 173.292 155.961 178.383 155.961 178.383C155.961 178.383 146.769 180.564 147.994 175.474C147.994 175.474 154.122 171.838 154.122 168.929C154.122 166.02 154.122 160.93 155.961 162.384C157.799 163.839 163.314 164.566 163.314 162.384Z" fill="#2F2E41"/>
<path d="M174.958 107.844C174.958 107.844 183.537 109.299 182.924 123.843C182.924 123.843 193.955 136.932 190.891 141.296C187.827 145.659 181.086 153.658 178.635 151.476C176.184 149.295 168.83 132.569 168.83 132.569C168.83 132.569 151.671 139.841 148.607 136.205C145.543 132.569 142.479 123.843 142.479 123.843L157.799 114.389L174.958 107.844Z" fill="#2F2E41"/>
<path d="M151.058 66.3943C155.12 66.3943 158.412 62.4874 158.412 57.6679C158.412 52.8485 155.12 48.9415 151.058 48.9415C146.997 48.9415 143.705 52.8485 143.705 57.6679C143.705 62.4874 146.997 66.3943 151.058 66.3943Z" fill="#9F616A"/>
<path d="M156.574 58.3951C156.574 58.3951 160.864 66.3943 162.089 67.1215C163.315 67.8487 153.51 75.1206 153.51 75.1206C153.51 75.1206 153.51 65.6671 150.446 63.4855L156.574 58.3951Z" fill="#9F616A"/>
<path d="M157.187 66.3943C157.187 66.3943 166.992 62.7583 168.83 68.5759C170.668 74.3935 174.958 85.3014 174.345 92.5734C173.732 99.8454 172.507 98.391 174.345 100.573C176.184 102.754 177.409 101.3 176.796 104.209C176.184 107.117 175.571 107.117 176.184 108.572C176.796 110.026 168.83 115.117 162.089 115.844L155.348 116.571C155.348 116.571 155.348 103.481 154.123 100.573C152.897 97.6638 150.446 91.8462 150.446 89.6646V83.8923C150.446 80.0503 151.291 76.2748 152.897 72.9391C152.897 72.9391 156.574 66.3943 157.187 66.3943Z" fill="#71FF80"/>
<path d="M164.54 69.3031C164.54 69.3031 187.214 71.4847 189.665 78.7566C192.116 86.0286 193.342 100.573 190.891 100.573C188.439 100.573 185.375 102.027 184.763 100.573C184.15 99.1182 181.699 84.5742 181.086 84.5742C180.473 84.5742 162.089 82.3926 162.089 82.3926C162.089 82.3926 154.122 70.7575 164.54 69.3031Z" fill="#71FF80"/>
<path d="M150.763 55.5045C150.763 55.5045 148.812 51.4802 146.372 54.9757C143.933 58.4712 139.965 52.0476 140.574 50.677C141.183 49.3063 143.334 50.7386 147.021 49.3085C150.708 47.8783 157.809 44.9649 158.999 54.4687C160.188 63.9724 157.355 62.9761 157.355 62.9761C157.355 62.9761 156.057 54.5547 154.883 56.9737L153.71 59.3927L152.692 59.69L150.763 55.5045Z" fill="#2F2E41"/>
</g>
<defs>
<clipPath id="clip0">
<rect width="261" height="201" fill="white"/>
</clipPath>
</defs>
</svg>
