<svg width="266" height="160" viewBox="0 0 266 160" fill="none" xmlns="http://www.w3.org/2000/svg">
<path d="M35.7699 83.3947H27.257C26.9577 83.3947 26.6706 83.5255 26.459 83.7584C26.2473 83.9912 26.1284 84.3071 26.1284 84.6364V88.7473C26.1284 89.0767 26.2473 89.3925 26.459 89.6254C26.6706 89.8582 26.9577 89.9891 27.257 89.9891H28.6678V96.1487H34.3592V89.9891H35.7699C36.0692 89.9891 36.3563 89.8582 36.568 89.6254C36.7796 89.3925 36.8985 89.0767 36.8985 88.7473V84.6364C36.8985 84.3071 36.7796 83.9912 36.568 83.7584C36.3563 83.5255 36.0692 83.3947 35.7699 83.3947Z" fill="#4AD85D"/>
<path d="M44.2965 121.018C39.0829 112.625 36.4177 102.632 36.6825 92.4697C36.6873 92.2352 36.6181 92.0062 36.4868 91.8215C36.3554 91.6367 36.17 91.5077 35.962 91.4563V89.68H26.9713V91.4316H26.8475C26.7207 91.4318 26.5952 91.4607 26.4791 91.5166C26.3629 91.5725 26.2584 91.6542 26.1722 91.7565C26.086 91.8588 26.0199 91.9795 25.978 92.1112C25.9361 92.2429 25.9193 92.3826 25.9287 92.5218C26.637 103.385 24.2452 113.126 18.7534 121.747C18.4374 122.242 18.2759 122.837 18.2933 123.442L19.2763 156.898C19.3 157.645 19.5847 158.352 20.071 158.873C20.5573 159.394 21.2076 159.688 21.8863 159.694H42.2219C42.9084 159.688 43.5655 159.387 44.0533 158.856C44.5411 158.324 44.821 157.604 44.8335 156.849L45.2123 124.365C45.2235 123.173 44.9041 122.005 44.2965 121.018Z" fill="#3F3D56"/>
<path opacity="0.2" d="M33.9952 84.7342C33.9952 85.4447 33.7387 86.1261 33.282 86.6285C32.8254 87.1309 32.206 87.4131 31.5602 87.4131C30.9144 87.4131 30.2951 87.1309 29.8384 86.6285C29.3818 86.1261 29.1252 85.4447 29.1252 84.7342" fill="black"/>
<path d="M41.0772 132.131H38.6147C38.3796 130.453 37.6063 128.923 36.4347 127.817C35.2631 126.711 33.7705 126.104 32.227 126.104C30.6834 126.104 29.1909 126.711 28.0193 127.817C26.8476 128.923 26.0744 130.453 25.8393 132.131H23.3766C23.1146 132.131 22.8557 132.194 22.6176 132.314C22.3795 132.434 22.168 132.61 21.9974 132.829C21.8267 133.048 21.7012 133.304 21.6292 133.582C21.5572 133.859 21.5406 134.15 21.5805 134.435L24.2553 153.563H39.6144L42.8633 134.499C42.9125 134.21 42.9033 133.913 42.8363 133.629C42.7693 133.345 42.6461 133.08 42.4756 132.854C42.3051 132.628 42.0913 132.446 41.8496 132.321C41.6079 132.196 41.3442 132.131 41.0772 132.131Z" fill="#4AD85D"/>
<path d="M248.013 101.385L247.422 127.36L246.69 159.569H221.791L220.933 121.832L220.469 101.385H248.013Z" fill="#E6E6E6"/>
<path d="M235.893 87.5666H232.367V138.962H235.893V87.5666Z" fill="#4AD85D"/>
<path d="M246.25 120.957L245.583 157.875H222.887L222.106 114.621C224.15 113.989 226.292 113.828 228.396 114.146C230.5 114.464 232.522 115.256 234.335 116.472C238.127 118.939 242.387 120.268 246.25 120.957Z" fill="#3F3D56"/>
<path d="M228.506 125.113H225.271V128.672H228.506V125.113Z" fill="#E6E6E6"/>
<path d="M230.709 117.84H227.474V121.399H230.709V117.84Z" fill="#E6E6E6"/>
<path d="M237.656 122.875L235.057 120.754L233.13 123.613L235.729 125.734L237.656 122.875Z" fill="#E6E6E6"/>
<path d="M243.501 129.181L240.903 127.061L238.975 129.92L241.574 132.04L243.501 129.181Z" fill="#E6E6E6"/>
<path d="M233.585 132.818L230.987 130.697L229.06 133.556L231.658 135.676L233.585 132.818Z" fill="#E6E6E6"/>
<path d="M241.182 116.416C241.547 116.416 241.843 116.09 241.843 115.689C241.843 115.287 241.547 114.961 241.182 114.961C240.816 114.961 240.521 115.287 240.521 115.689C240.521 116.09 240.816 116.416 241.182 116.416Z" fill="#3F3D56"/>
<path d="M227.74 111.567C228.105 111.567 228.401 111.242 228.401 110.84C228.401 110.438 228.105 110.113 227.74 110.113C227.375 110.113 227.079 110.438 227.079 110.84C227.079 111.242 227.375 111.567 227.74 111.567Z" fill="#3F3D56"/>
<path d="M238.978 106.476C239.343 106.476 239.639 106.151 239.639 105.749C239.639 105.347 239.343 105.022 238.978 105.022C238.613 105.022 238.317 105.347 238.317 105.749C238.317 106.151 238.613 106.476 238.978 106.476Z" fill="#3F3D56"/>
<path d="M133.152 159.347C173.147 159.347 205.569 123.676 205.569 79.6736C205.569 35.6711 173.147 0 133.152 0C93.1572 0 60.7349 35.6711 60.7349 79.6736C60.7349 123.676 93.1572 159.347 133.152 159.347Z" fill="#4AD85D"/>
<path opacity="0.2" d="M133.152 137.828C120.923 137.827 109.073 133.162 99.62 124.627C90.167 116.092 83.6965 104.215 81.3108 91.0189C78.9252 77.8232 80.772 64.1258 86.5367 52.2603C92.3013 40.3948 101.627 31.0956 112.925 25.9469C124.223 20.7983 136.794 20.1189 148.496 24.0244C160.199 27.93 170.308 36.1789 177.102 47.3656C183.896 58.5523 186.954 71.9847 185.755 85.374C184.557 98.7634 179.175 111.281 170.528 120.795C165.631 126.212 159.807 130.506 153.391 133.43C146.975 136.354 140.096 137.848 133.152 137.828ZM133.152 25.1061C105.804 25.1061 83.5545 49.585 83.5545 79.6736C83.5545 109.762 105.804 134.241 133.152 134.241C160.5 134.241 182.75 109.762 182.75 79.6736C182.75 49.585 160.5 25.1061 133.152 25.1061Z" fill="black"/>
<path d="M133.152 136.034C161.445 136.034 184.38 110.801 184.38 79.6736C184.38 48.5464 161.445 23.3128 133.152 23.3128C104.86 23.3128 81.9246 48.5464 81.9246 79.6736C81.9246 110.801 104.86 136.034 133.152 136.034Z" fill="#3F3D56"/>
<path d="M95.0553 57.1373C94.6668 56.3001 94.4321 55.3869 94.3646 54.4499C94.2971 53.5129 94.3981 52.5704 94.6618 51.6763C94.9256 50.7823 95.3469 49.9542 95.9018 49.2394C96.4566 48.5247 97.134 47.9372 97.8954 47.5107C98.6567 47.0841 99.487 46.8268 100.339 46.7535C101.19 46.6803 102.047 46.7924 102.859 47.0835C103.672 47.3746 104.424 47.8391 105.073 48.4503C105.722 49.0614 106.255 49.8074 106.642 50.6454L121.115 81.914C121.504 82.7511 121.739 83.6643 121.806 84.6014C121.874 85.5384 121.773 86.4809 121.509 87.3749C121.245 88.2689 120.824 89.097 120.269 89.8118C119.714 90.5266 119.037 91.114 118.275 91.5406C117.514 91.9671 116.684 92.2244 115.832 92.2977C114.98 92.371 114.124 92.2589 113.311 91.9677C112.499 91.6766 111.747 91.2122 111.098 90.601C110.449 89.9898 109.915 89.2439 109.528 88.4058L95.0553 57.1373Z" fill="#FF6584"/>
<path opacity="0.2" d="M96.6695 60.6249L96.0015 59.1817C99.3352 56.3319 103.25 54.236 107.588 52.6899L108.256 54.1331C103.561 55.2089 99.566 57.1997 96.6695 60.6249Z" fill="black"/>
<path opacity="0.2" d="M99.7869 67.3597L99.1189 65.9165C102.453 63.0666 106.367 60.9707 110.706 59.4247L111.374 60.8678C106.678 61.9436 102.683 63.9345 99.7869 67.3597Z" fill="black"/>
<path opacity="0.2" d="M102.904 74.0944L102.236 72.6513C105.57 69.8014 109.485 67.7055 113.823 66.1594L114.491 67.6026C109.795 68.6784 105.801 70.6693 102.904 74.0944Z" fill="black"/>
<path opacity="0.2" d="M106.022 80.8292L105.354 79.386C108.687 76.5362 112.602 74.4402 116.94 72.8942L117.608 74.3374C112.913 75.4131 108.918 77.404 106.022 80.8292Z" fill="black"/>
<path opacity="0.2" d="M109.139 87.5639L108.471 86.1208C111.805 83.2709 115.719 81.175 120.058 79.629L120.726 81.0721C116.03 82.1479 112.035 84.1388 109.139 87.5639Z" fill="black"/>
<path d="M84.1971 68.8431C83.8087 68.0059 83.5741 67.0928 83.5066 66.1558C83.4392 65.2188 83.5402 64.2764 83.804 63.3824C84.0678 62.4885 84.4892 61.6605 85.044 60.9458C85.5988 60.231 86.2762 59.6436 87.0375 59.2171C87.7987 58.7906 88.6289 58.5333 89.4806 58.46C90.3323 58.3867 91.1888 58.4988 92.0011 58.7899C92.8134 59.0809 93.5656 59.5453 94.2147 60.1564C94.8638 60.7674 95.3971 61.5133 95.784 62.3512L110.257 93.6198C111.037 95.31 111.176 97.2719 110.642 99.0744C110.109 100.877 108.946 102.373 107.411 103.233C105.875 104.093 104.092 104.248 102.453 103.662C100.814 103.077 99.4538 101.8 98.6702 100.112L84.1971 68.8431Z" fill="#FF6584"/>
<path opacity="0.2" d="M85.8113 72.3307L85.1433 70.8875C88.477 68.0377 92.3918 65.9418 96.7302 64.3957L97.3982 65.8389C92.7027 66.9147 88.7078 68.9055 85.8113 72.3307Z" fill="black"/>
<path opacity="0.2" d="M88.9287 79.0655L88.2607 77.6223C91.5945 74.7724 95.5092 72.6765 99.8477 71.1305L100.516 72.5736C95.8201 73.6494 91.8253 75.6403 88.9287 79.0655Z" fill="black"/>
<path opacity="0.2" d="M92.0462 85.8002L91.3782 84.3571C94.7119 81.5072 98.6266 79.4113 102.965 77.8652L103.633 79.3084C98.9375 80.3842 94.9427 82.3751 92.0462 85.8002Z" fill="black"/>
<path opacity="0.2" d="M95.1634 92.535L94.4954 91.0918C97.8291 88.242 101.744 86.146 106.082 84.6L106.75 86.0432C102.055 87.119 98.0599 89.1098 95.1634 92.535Z" fill="black"/>
<path opacity="0.2" d="M98.2805 99.2698L97.6125 97.8266C100.946 94.9767 104.861 92.8808 109.199 91.3348L109.867 92.7779C105.172 93.8537 101.177 95.8446 98.2805 99.2698Z" fill="black"/>
<path d="M167.382 81.4669L167.427 81.4669C168.986 81.4813 170.513 80.9784 171.808 80.0239C173.103 79.0694 174.107 77.7076 174.688 76.116C175.883 72.7919 176.486 69.2456 176.462 65.6708C176.381 50.5403 165.193 38.1274 151.441 37.9181C145.585 37.8279 139.88 39.9686 135.294 43.9772C130.709 47.9859 127.524 53.6158 126.28 59.9128C125.036 66.2097 125.81 72.7861 128.47 78.5272C131.129 84.2683 135.512 88.8209 140.874 91.4131C142.291 92.1034 143.865 92.3064 145.389 91.9955C146.912 91.6847 148.315 90.8744 149.413 89.6711C151.768 87.0667 154.568 85.0009 157.652 83.5928C160.736 82.1847 164.043 81.4622 167.382 81.4669Z" fill="#E6E6E6"/>
<path d="M154.342 73.0128C158.971 73.0128 162.724 68.8836 162.724 63.7901C162.724 58.6966 158.971 54.5674 154.342 54.5674C149.712 54.5674 145.959 58.6966 145.959 63.7901C145.959 68.8836 149.712 73.0128 154.342 73.0128Z" fill="#F9A825"/>
<path d="M136.123 62.753C136.668 62.753 137.111 62.2666 137.111 61.6665C137.111 61.0665 136.668 60.5801 136.123 60.5801C135.578 60.5801 135.135 61.0665 135.135 61.6665C135.135 62.2666 135.578 62.753 136.123 62.753Z" fill="#3F3D56"/>
<path d="M103.524 63.7777C104.069 63.7777 104.511 63.2913 104.511 62.6913C104.511 62.0912 104.069 61.6048 103.524 61.6048C102.979 61.6048 102.536 62.0912 102.536 62.6913C102.536 63.2913 102.979 63.7777 103.524 63.7777Z" fill="#3F3D56"/>
<path d="M141.386 51.4932C141.932 51.4932 142.374 51.0068 142.374 50.4067C142.374 49.8067 141.932 49.3203 141.386 49.3203C140.841 49.3203 140.399 49.8067 140.399 50.4067C140.399 51.0068 140.841 51.4932 141.386 51.4932Z" fill="#3F3D56"/>
<path d="M141.358 82.8095C141.904 82.8095 142.346 82.3231 142.346 81.7231C142.346 81.123 141.904 80.6366 141.358 80.6366C140.813 80.6366 140.371 81.123 140.371 81.7231C140.371 82.3231 140.813 82.8095 141.358 82.8095Z" fill="#3F3D56"/>
<path d="M160.918 49.2493C161.463 49.2493 161.905 48.7628 161.905 48.1628C161.905 47.5628 161.463 47.0763 160.918 47.0763C160.373 47.0763 159.93 47.5628 159.93 48.1628C159.93 48.7628 160.373 49.2493 160.918 49.2493Z" fill="#3F3D56"/>
<path d="M97.1159 78.9667C97.6613 78.9667 98.1035 78.4803 98.1035 77.8803C98.1035 77.2802 97.6613 76.7938 97.1159 76.7938C96.5705 76.7938 96.1284 77.2802 96.1284 77.8803C96.1284 78.4803 96.5705 78.9667 97.1159 78.9667Z" fill="#3F3D56"/>
<path d="M104.334 94.594C104.88 94.594 105.322 94.1076 105.322 93.5076C105.322 92.9075 104.88 92.4211 104.334 92.4211C103.789 92.4211 103.347 92.9075 103.347 93.5076C103.347 94.1076 103.789 94.594 104.334 94.594Z" fill="#3F3D56"/>
<path d="M149.685 99.656C151.742 99.656 153.41 97.8208 153.41 95.557C153.41 93.2932 151.742 91.4581 149.685 91.4581C147.627 91.4581 145.959 93.2932 145.959 95.557C145.959 97.8208 147.627 99.656 149.685 99.656Z" fill="#FF6584"/>
<path opacity="0.2" d="M152.479 95.8132C152.479 96.6286 152.185 97.4105 151.661 97.987C151.137 98.5636 150.426 98.8875 149.685 98.8875C148.944 98.8875 148.233 98.5636 147.709 97.987C147.185 97.4105 146.891 96.6286 146.891 95.8132" fill="black"/>
<path opacity="0.2" d="M146.891 95.3009C146.891 94.4855 147.185 93.7036 147.709 93.1271C148.233 92.5505 148.944 92.2266 149.685 92.2266C150.426 92.2266 151.137 92.5505 151.661 93.1271C152.185 93.7036 152.479 94.4855 152.479 95.3009" fill="black"/>
<path d="M148.288 94.5323C148.416 94.5323 148.52 94.3603 148.52 94.148C148.52 93.9358 148.416 93.7637 148.288 93.7637C148.159 93.7637 148.055 93.9358 148.055 94.148C148.055 94.3603 148.159 94.5323 148.288 94.5323Z" fill="#FF6584"/>
<path d="M149.685 94.0199C149.813 94.0199 149.918 93.8479 149.918 93.6357C149.918 93.4234 149.813 93.2514 149.685 93.2514C149.556 93.2514 149.452 93.4234 149.452 93.6357C149.452 93.8479 149.556 94.0199 149.685 94.0199Z" fill="#FF6584"/>
<path d="M149.685 97.3503C149.813 97.3503 149.918 97.1783 149.918 96.9661C149.918 96.7538 149.813 96.5818 149.685 96.5818C149.556 96.5818 149.452 96.7538 149.452 96.9661C149.452 97.1783 149.556 97.3503 149.685 97.3503Z" fill="#FF6584"/>
<path d="M151.082 95.3009C151.211 95.3009 151.315 95.1288 151.315 94.9166C151.315 94.7043 151.211 94.5323 151.082 94.5323C150.953 94.5323 150.849 94.7043 150.849 94.9166C150.849 95.1288 150.953 95.3009 151.082 95.3009Z" fill="#FF6584"/>
<path d="M150.849 98.1189C150.978 98.1189 151.082 97.9469 151.082 97.7346C151.082 97.5224 150.978 97.3503 150.849 97.3503C150.72 97.3503 150.616 97.5224 150.616 97.7346C150.616 97.9469 150.72 98.1189 150.849 98.1189Z" fill="#FF6584"/>
<path d="M148.055 96.838C148.183 96.838 148.288 96.6659 148.288 96.4537C148.288 96.2415 148.183 96.0694 148.055 96.0694C147.926 96.0694 147.822 96.2415 147.822 96.4537C147.822 96.6659 147.926 96.838 148.055 96.838Z" fill="#FF6584"/>
<path d="M157.136 88.6401C159.194 88.6401 160.862 86.8049 160.862 84.5411C160.862 82.2773 159.194 80.4421 157.136 80.4421C155.078 80.4421 153.41 82.2773 153.41 84.5411C153.41 86.8049 155.078 88.6401 157.136 88.6401Z" fill="#FF6584"/>
<path opacity="0.2" d="M159.93 84.7973C159.93 85.6126 159.636 86.3945 159.112 86.9711C158.588 87.5476 157.877 87.8715 157.136 87.8715C156.395 87.8715 155.684 87.5476 155.16 86.9711C154.636 86.3945 154.342 85.6126 154.342 84.7973" fill="black"/>
<path opacity="0.2" d="M154.342 84.2849C154.342 83.4696 154.636 82.6876 155.16 82.1111C155.684 81.5346 156.395 81.2107 157.136 81.2107C157.877 81.2107 158.588 81.5346 159.112 82.1111C159.636 82.6876 159.93 83.4696 159.93 84.2849" fill="black"/>
<path d="M155.739 83.5163C155.868 83.5163 155.972 83.3443 155.972 83.1321C155.972 82.9198 155.868 82.7478 155.739 82.7478C155.61 82.7478 155.506 82.9198 155.506 83.1321C155.506 83.3443 155.61 83.5163 155.739 83.5163Z" fill="#FF6584"/>
<path d="M157.136 83.004C157.265 83.004 157.369 82.8319 157.369 82.6197C157.369 82.4075 157.265 82.2354 157.136 82.2354C157.008 82.2354 156.903 82.4075 156.903 82.6197C156.903 82.8319 157.008 83.004 157.136 83.004Z" fill="#FF6584"/>
<path d="M157.136 86.3344C157.265 86.3344 157.369 86.1623 157.369 85.9501C157.369 85.7379 157.265 85.5658 157.136 85.5658C157.008 85.5658 156.903 85.7379 156.903 85.9501C156.903 86.1623 157.008 86.3344 157.136 86.3344Z" fill="#FF6584"/>
<path d="M158.533 84.2849C158.662 84.2849 158.766 84.1128 158.766 83.9006C158.766 83.6884 158.662 83.5163 158.533 83.5163C158.405 83.5163 158.3 83.6884 158.3 83.9006C158.3 84.1128 158.405 84.2849 158.533 84.2849Z" fill="#FF6584"/>
<path d="M158.3 87.1029C158.429 87.1029 158.533 86.9309 158.533 86.7187C158.533 86.5064 158.429 86.3344 158.3 86.3344C158.172 86.3344 158.068 86.5064 158.068 86.7187C158.068 86.9309 158.172 87.1029 158.3 87.1029Z" fill="#FF6584"/>
<path d="M155.506 85.822C155.635 85.822 155.739 85.65 155.739 85.4377C155.739 85.2255 155.635 85.0535 155.506 85.0535C155.377 85.0535 155.273 85.2255 155.273 85.4377C155.273 85.65 155.377 85.822 155.506 85.822Z" fill="#FF6584"/>
<path d="M164.587 94.2761C166.645 94.2761 168.313 92.441 168.313 90.1772C168.313 87.9134 166.645 86.0782 164.587 86.0782C162.53 86.0782 160.862 87.9134 160.862 90.1772C160.862 92.441 162.53 94.2761 164.587 94.2761Z" fill="#4AD85D"/>
<path opacity="0.2" d="M167.382 90.4333C167.382 91.2487 167.087 92.0306 166.563 92.6072C166.039 93.1837 165.329 93.5076 164.587 93.5076C163.846 93.5076 163.136 93.1837 162.612 92.6072C162.088 92.0306 161.793 91.2487 161.793 90.4333" fill="black"/>
<path opacity="0.2" d="M161.793 89.921C161.793 89.1056 162.088 88.3237 162.612 87.7472C163.136 87.1706 163.846 86.8468 164.587 86.8468C165.329 86.8468 166.039 87.1706 166.563 87.7472C167.087 88.3237 167.382 89.1056 167.382 89.921" fill="black"/>
<path d="M163.19 89.1524C163.319 89.1524 163.423 88.9804 163.423 88.7681C163.423 88.5559 163.319 88.3839 163.19 88.3839C163.062 88.3839 162.958 88.5559 162.958 88.7681C162.958 88.9804 163.062 89.1524 163.19 89.1524Z" fill="#4AD85D"/>
<path d="M164.587 88.6401C164.716 88.6401 164.82 88.468 164.82 88.2558C164.82 88.0435 164.716 87.8715 164.587 87.8715C164.459 87.8715 164.354 88.0435 164.354 88.2558C164.354 88.468 164.459 88.6401 164.587 88.6401Z" fill="#4AD85D"/>
<path d="M164.587 91.9705C164.716 91.9705 164.82 91.7984 164.82 91.5862C164.82 91.3739 164.716 91.2019 164.587 91.2019C164.459 91.2019 164.354 91.3739 164.354 91.5862C164.354 91.7984 164.459 91.9705 164.587 91.9705Z" fill="#4AD85D"/>
<path d="M165.985 89.921C166.113 89.921 166.217 89.7489 166.217 89.5367C166.217 89.3245 166.113 89.1524 165.985 89.1524C165.856 89.1524 165.752 89.3245 165.752 89.5367C165.752 89.7489 165.856 89.921 165.985 89.921Z" fill="#4AD85D"/>
<path d="M165.752 92.739C165.88 92.739 165.985 92.567 165.985 92.3547C165.985 92.1425 165.88 91.9705 165.752 91.9705C165.623 91.9705 165.519 92.1425 165.519 92.3547C165.519 92.567 165.623 92.739 165.752 92.739Z" fill="#4AD85D"/>
<path d="M162.957 91.4581C163.086 91.4581 163.19 91.286 163.19 91.0738C163.19 90.8616 163.086 90.6895 162.957 90.6895C162.829 90.6895 162.725 90.8616 162.725 91.0738C162.725 91.286 162.829 91.4581 162.957 91.4581Z" fill="#4AD85D"/>
<path d="M145.959 94.7885C148.017 94.7885 149.685 92.9533 149.685 90.6895C149.685 88.4257 148.017 86.5906 145.959 86.5906C143.901 86.5906 142.233 88.4257 142.233 90.6895C142.233 92.9533 143.901 94.7885 145.959 94.7885Z" fill="#4AD85D"/>
<path opacity="0.2" d="M148.753 90.9457C148.753 91.761 148.459 92.543 147.935 93.1195C147.411 93.6961 146.7 94.0199 145.959 94.0199C145.218 94.0199 144.507 93.6961 143.983 93.1195C143.459 92.543 143.165 91.761 143.165 90.9457" fill="black"/>
<path opacity="0.2" d="M143.165 90.4333C143.165 89.618 143.459 88.8361 143.983 88.2595C144.507 87.683 145.218 87.3591 145.959 87.3591C146.7 87.3591 147.411 87.683 147.935 88.2595C148.459 88.8361 148.753 89.618 148.753 90.4333" fill="black"/>
<path d="M144.562 89.6648C144.691 89.6648 144.795 89.4927 144.795 89.2805C144.795 89.0683 144.691 88.8962 144.562 88.8962C144.433 88.8962 144.329 89.0683 144.329 89.2805C144.329 89.4927 144.433 89.6648 144.562 89.6648Z" fill="#4AD85D"/>
<path d="M145.959 89.1524C146.088 89.1524 146.192 88.9804 146.192 88.7681C146.192 88.5559 146.088 88.3839 145.959 88.3839C145.831 88.3839 145.726 88.5559 145.726 88.7681C145.726 88.9804 145.831 89.1524 145.959 89.1524Z" fill="#4AD85D"/>
<path d="M145.959 92.4828C146.088 92.4828 146.192 92.3108 146.192 92.0985C146.192 91.8863 146.088 91.7143 145.959 91.7143C145.831 91.7143 145.726 91.8863 145.726 92.0985C145.726 92.3108 145.831 92.4828 145.959 92.4828Z" fill="#4AD85D"/>
<path d="M147.356 90.4333C147.485 90.4333 147.589 90.2613 147.589 90.0491C147.589 89.8368 147.485 89.6648 147.356 89.6648C147.228 89.6648 147.124 89.8368 147.124 90.0491C147.124 90.2613 147.228 90.4333 147.356 90.4333Z" fill="#4AD85D"/>
<path d="M147.123 93.2514C147.252 93.2514 147.356 93.0793 147.356 92.8671C147.356 92.6549 147.252 92.4828 147.123 92.4828C146.995 92.4828 146.891 92.6549 146.891 92.8671C146.891 93.0793 146.995 93.2514 147.123 93.2514Z" fill="#4AD85D"/>
<path d="M144.329 91.9705C144.458 91.9705 144.562 91.7984 144.562 91.5862C144.562 91.3739 144.458 91.2019 144.329 91.2019C144.201 91.2019 144.096 91.3739 144.096 91.5862C144.096 91.7984 144.201 91.9705 144.329 91.9705Z" fill="#4AD85D"/>
<path d="M154.342 96.5818C156.4 96.5818 158.068 94.7466 158.068 92.4828C158.068 90.219 156.4 88.3839 154.342 88.3839C152.284 88.3839 150.616 90.219 150.616 92.4828C150.616 94.7466 152.284 96.5818 154.342 96.5818Z" fill="#4AD85D"/>
<path opacity="0.2" d="M157.136 92.739C157.136 93.1427 157.064 93.5425 156.923 93.9155C156.783 94.2884 156.577 94.6273 156.318 94.9128C156.058 95.1983 155.75 95.4247 155.411 95.5792C155.072 95.7337 154.709 95.8132 154.342 95.8132C153.975 95.8132 153.612 95.7337 153.273 95.5792C152.934 95.4247 152.625 95.1983 152.366 94.9128C152.107 94.6273 151.901 94.2884 151.76 93.9155C151.62 93.5425 151.548 93.1427 151.548 92.739" fill="black"/>
<path opacity="0.2" d="M151.548 92.2266C151.548 91.8229 151.62 91.4232 151.76 91.0502C151.901 90.6772 152.107 90.3383 152.366 90.0528C152.625 89.7674 152.934 89.5409 153.273 89.3864C153.612 89.2319 153.975 89.1524 154.342 89.1524C154.709 89.1524 155.072 89.2319 155.411 89.3864C155.75 89.5409 156.058 89.7674 156.318 90.0528C156.577 90.3383 156.783 90.6772 156.923 91.0502C157.064 91.4232 157.136 91.8229 157.136 92.2266" fill="black"/>
<path d="M152.945 91.4581C153.073 91.4581 153.178 91.286 153.178 91.0738C153.178 90.8616 153.073 90.6895 152.945 90.6895C152.816 90.6895 152.712 90.8616 152.712 91.0738C152.712 91.286 152.816 91.4581 152.945 91.4581Z" fill="#4AD85D"/>
<path d="M154.342 90.9457C154.47 90.9457 154.575 90.7737 154.575 90.5614C154.575 90.3492 154.47 90.1772 154.342 90.1772C154.213 90.1772 154.109 90.3492 154.109 90.5614C154.109 90.7737 154.213 90.9457 154.342 90.9457Z" fill="#4AD85D"/>
<path d="M154.342 94.2761C154.47 94.2761 154.575 94.1041 154.575 93.8918C154.575 93.6796 154.47 93.5076 154.342 93.5076C154.213 93.5076 154.109 93.6796 154.109 93.8918C154.109 94.1041 154.213 94.2761 154.342 94.2761Z" fill="#4AD85D"/>
<path d="M155.739 92.2266C155.868 92.2266 155.972 92.0546 155.972 91.8424C155.972 91.6301 155.868 91.4581 155.739 91.4581C155.61 91.4581 155.506 91.6301 155.506 91.8424C155.506 92.0546 155.61 92.2266 155.739 92.2266Z" fill="#4AD85D"/>
<path d="M155.506 95.0447C155.635 95.0447 155.739 94.8726 155.739 94.6604C155.739 94.4482 155.635 94.2761 155.506 94.2761C155.377 94.2761 155.273 94.4482 155.273 94.6604C155.273 94.8726 155.377 95.0447 155.506 95.0447Z" fill="#4AD85D"/>
<path d="M152.712 93.7638C152.84 93.7638 152.945 93.5917 152.945 93.3795C152.945 93.1672 152.84 92.9952 152.712 92.9952C152.583 92.9952 152.479 93.1672 152.479 93.3795C152.479 93.5917 152.583 93.7638 152.712 93.7638Z" fill="#4AD85D"/>
<path d="M160.163 100.937C162.221 100.937 163.889 99.1018 163.889 96.838C163.889 94.5742 162.221 92.739 160.163 92.739C158.106 92.739 156.438 94.5742 156.438 96.838C156.438 99.1018 158.106 100.937 160.163 100.937Z" fill="#FF6584"/>
<path opacity="0.2" d="M162.957 97.0942C162.957 97.9095 162.663 98.6914 162.139 99.268C161.615 99.8445 160.904 100.168 160.163 100.168C159.422 100.168 158.711 99.8445 158.187 99.268C157.663 98.6914 157.369 97.9095 157.369 97.0942" fill="black"/>
<path opacity="0.2" d="M157.369 96.5818C157.369 95.7665 157.663 94.9845 158.187 94.408C158.711 93.8315 159.422 93.5076 160.163 93.5076C160.904 93.5076 161.615 93.8315 162.139 94.408C162.663 94.9845 162.957 95.7665 162.957 96.5818" fill="black"/>
<path d="M158.766 95.8132C158.895 95.8132 158.999 95.6412 158.999 95.4289C158.999 95.2167 158.895 95.0447 158.766 95.0447C158.637 95.0447 158.533 95.2167 158.533 95.4289C158.533 95.6412 158.637 95.8132 158.766 95.8132Z" fill="#FF6584"/>
<path d="M160.163 95.3009C160.292 95.3009 160.396 95.1288 160.396 94.9166C160.396 94.7043 160.292 94.5323 160.163 94.5323C160.035 94.5323 159.93 94.7043 159.93 94.9166C159.93 95.1288 160.035 95.3009 160.163 95.3009Z" fill="#FF6584"/>
<path d="M160.163 98.6313C160.292 98.6313 160.396 98.4592 160.396 98.247C160.396 98.0348 160.292 97.8627 160.163 97.8627C160.035 97.8627 159.93 98.0348 159.93 98.247C159.93 98.4592 160.035 98.6313 160.163 98.6313Z" fill="#FF6584"/>
<path d="M161.56 96.5818C161.689 96.5818 161.793 96.4097 161.793 96.1975C161.793 95.9853 161.689 95.8132 161.56 95.8132C161.432 95.8132 161.327 95.9853 161.327 96.1975C161.327 96.4097 161.432 96.5818 161.56 96.5818Z" fill="#FF6584"/>
<path d="M161.328 99.3998C161.456 99.3998 161.56 99.2278 161.56 99.0156C161.56 98.8033 161.456 98.6313 161.328 98.6313C161.199 98.6313 161.095 98.8033 161.095 99.0156C161.095 99.2278 161.199 99.3998 161.328 99.3998Z" fill="#FF6584"/>
<path d="M158.533 98.1189C158.662 98.1189 158.766 97.9469 158.766 97.7346C158.766 97.5224 158.662 97.3503 158.533 97.3503C158.405 97.3503 158.3 97.5224 158.3 97.7346C158.3 97.9469 158.405 98.1189 158.533 98.1189Z" fill="#FF6584"/>
<path d="M112.251 82.2971C112.797 82.2971 113.239 81.8107 113.239 81.2107C113.239 80.6106 112.797 80.1242 112.251 80.1242C111.706 80.1242 111.264 80.6106 111.264 81.2107C111.264 81.8107 111.706 82.2971 112.251 82.2971Z" fill="#3F3D56"/>
<path d="M139.095 120.647L115.378 113.411L116.286 109.698L140.003 116.934L139.095 120.647Z" fill="#F9A825"/>
<path d="M135.618 119.406C127.496 121.117 119.153 121.117 111.031 119.406V115.557C119.171 117.042 127.478 117.042 135.618 115.557V119.406Z" fill="#F9A825"/>
<path d="M138.145 107.86C130.023 109.57 121.681 109.57 113.559 107.86V104.011C121.699 105.495 130.005 105.495 138.145 104.011V107.86Z" fill="#F9A825"/>
<path d="M146.647 112.478C138.525 114.189 130.182 114.189 122.061 112.478V108.63C130.2 110.114 138.507 110.114 146.647 108.63V112.478Z" fill="#F9A825"/>
<path d="M148.715 116.84C140.593 118.551 132.25 118.551 124.129 116.84V112.992C132.269 114.476 140.575 114.476 148.715 112.992V116.84Z" fill="#F9A825"/>
<path d="M155.925 122.54L131.668 127.023L131.106 123.226L155.362 118.743L155.925 122.54Z" fill="#F9A825"/>
<path d="M152.302 123.033C145.577 128.367 137.997 132.256 129.961 134.497L128.522 131C136.488 128.546 144.034 124.674 150.862 119.536L152.302 123.033Z" fill="#F9A825"/>
<path d="M150.281 111.363C143.556 116.697 135.976 120.586 127.94 122.827L126.501 119.33C134.467 116.876 142.013 113.004 148.841 107.866L150.281 111.363Z" fill="#F9A825"/>
<path d="M159.733 111.596C153.008 116.929 145.428 120.819 137.392 123.06L135.953 119.562C143.919 117.108 151.465 113.236 158.294 108.099L159.733 111.596Z" fill="#F9A825"/>
<path d="M163.243 114.595C156.518 119.929 148.939 123.818 140.903 126.059L139.463 122.562C147.429 120.108 154.976 116.235 161.804 111.098L163.243 114.595Z" fill="#F9A825"/>
<path d="M133.851 107.085H132.687V108.366H133.851V107.085Z" fill="#00BF71"/>
<path d="M137.343 129.373H136.179V130.654H137.343V129.373Z" fill="#00BF71"/>
<path d="M118.715 107.085H117.551V108.366H118.715V107.085Z" fill="#00BF71"/>
<path d="M145.726 122.969H144.562V124.25H145.726V122.969Z" fill="#00BF71"/>
<path d="M146.425 115.539H145.26V116.82H146.425V115.539Z" fill="#00BF71"/>
<path d="M127.219 112.032L125.87 111.025L125.347 111.873L126.696 112.88L127.219 112.032Z" fill="#00BF71"/>
<path d="M140.957 114.85L139.608 113.844L139.085 114.692L140.434 115.698L140.957 114.85Z" fill="#00BF71"/>
<path d="M124.192 119.718L122.843 118.711L122.32 119.559L123.669 120.566L124.192 119.718Z" fill="#00BF71"/>
<path d="M132.731 119.643L133.646 118.159L132.875 117.584L131.96 119.068L132.731 119.643Z" fill="#00BF71"/>
<path d="M139.018 121.437L139.933 119.953L139.162 119.377L138.247 120.861L139.018 121.437Z" fill="#00BF71"/>
<path d="M155.785 115.288L156.7 113.804L155.929 113.229L155.014 114.713L155.785 115.288Z" fill="#00BF71"/>
<path d="M266 159.262H0V160H266V159.262Z" fill="#3F3D56"/>
</svg>
