<svg width="718" height="608" viewBox="0 0 718 608" fill="none" xmlns="http://www.w3.org/2000/svg">
<g clip-path="url(#clip0)">
<path d="M592.76 543.684C592.816 543.586 592.876 543.491 592.941 543.4C593.101 543.001 593.301 542.622 593.54 542.271L613.372 512.852L629.712 488.623H657.583L655.612 491.539L652.105 496.746L641.236 512.86L617.943 547.403L639.533 593.387C640.416 595.26 638.91 597.951 636.191 599.388L625.778 604.888C624.745 605.447 623.604 605.75 622.444 605.774C620.978 605.774 619.757 605.197 619.244 604.102L592.405 546.935C592.194 546.407 592.115 545.829 592.177 545.26C592.24 544.69 592.44 544.147 592.76 543.684Z" fill="#4AD85D"/>
<path d="M630.265 541.921L602.188 530.86C600.916 530.357 599.883 529.339 599.317 528.029C598.751 526.72 598.699 525.226 599.17 523.875L607.406 500.372C607.881 499.022 608.841 497.928 610.076 497.328C611.31 496.728 612.719 496.672 613.993 497.171L642.07 508.233C643.343 508.736 644.375 509.754 644.941 511.064C645.507 512.373 645.56 513.867 645.088 515.218L636.852 538.721C636.618 539.39 636.262 540.003 635.804 540.526C635.346 541.049 634.796 541.471 634.184 541.768C633.572 542.065 632.911 542.232 632.239 542.258C631.567 542.284 630.896 542.17 630.265 541.921H630.265Z" fill="#7300B9"/>
<path d="M606.39 528.857C606.201 528.856 606.013 528.82 605.835 528.749H605.835C605.444 528.592 605.128 528.276 604.956 527.873C604.784 527.469 604.77 527.009 604.918 526.594L615.227 497.667C615.374 497.252 615.672 496.916 616.053 496.734C616.434 496.552 616.867 496.537 617.259 496.694C617.65 496.851 617.966 497.166 618.138 497.57C618.31 497.974 618.324 498.434 618.176 498.849L607.867 527.776C607.753 528.094 607.551 528.367 607.288 528.56C607.024 528.753 606.711 528.857 606.39 528.857Z" fill="white"/>
<path d="M651.695 601.469V496.989C651.692 496.891 651.698 496.794 651.712 496.698C651.76 495.486 652.14 494.315 652.808 493.329C653.475 492.344 654.399 491.587 655.467 491.151C656.148 490.865 656.874 490.718 657.607 490.72H669.241C670.808 490.722 672.311 491.383 673.419 492.558C674.527 493.733 675.151 495.327 675.152 496.989V601.469C675.151 603.131 674.527 604.725 673.419 605.9C672.311 607.075 670.808 607.736 669.241 607.738H657.607C656.039 607.736 654.537 607.075 653.428 605.9C652.32 604.725 651.697 603.131 651.695 601.469Z" fill="#4AD85D"/>
<path d="M645.381 536.262V511.189C645.383 509.748 645.923 508.368 646.884 507.349C647.844 506.331 649.146 505.758 650.505 505.756H680.457C681.815 505.758 683.118 506.331 684.078 507.349C685.039 508.368 685.579 509.748 685.581 511.189V536.262C685.579 537.702 685.039 539.083 684.078 540.102C683.118 541.12 681.815 541.693 680.457 541.695H650.505C649.146 541.693 647.844 541.12 646.884 540.102C645.923 539.083 645.383 537.702 645.381 536.262Z" fill="#7300B9"/>
<path d="M668.299 539.048C667.881 539.048 667.48 538.871 667.184 538.558C666.889 538.245 666.723 537.82 666.722 537.377V506.453C666.722 506.009 666.888 505.584 667.184 505.271C667.48 504.957 667.881 504.781 668.299 504.781C668.717 504.781 669.118 504.957 669.413 505.271C669.709 505.584 669.875 506.009 669.875 506.453V537.377C669.875 537.82 669.708 538.245 669.413 538.558C669.117 538.871 668.717 539.048 668.299 539.048Z" fill="white"/>
<path d="M614.437 417.518L528.254 370.406C526.863 369.641 525.815 368.323 525.338 366.74C524.862 365.158 524.996 363.439 525.711 361.961L531.04 350.995C531.761 349.521 533.004 348.409 534.497 347.904C535.989 347.399 537.609 347.542 539.003 348.3L625.188 395.413C625.621 395.649 626.023 395.943 626.384 396.288C627.374 397.209 628.045 398.455 628.289 399.827C628.532 401.199 628.335 402.618 627.729 403.857L622.4 414.823C622.045 415.556 621.557 416.207 620.964 416.739C620.37 417.271 619.684 417.673 618.943 417.922C618.357 418.116 617.746 418.215 617.132 418.216C616.194 418.216 615.27 417.976 614.437 417.518Z" fill="#4AD85D"/>
<path d="M616.112 420.227L574.212 402.686C572.813 401.94 571.75 400.637 571.255 399.061C570.761 397.486 570.875 395.767 571.573 394.28L581.128 373.399C581.834 371.917 583.064 370.79 584.549 370.264C585.296 370.003 586.085 369.902 586.87 369.967C587.654 370.033 588.418 370.264 589.118 370.646L626.955 394.967C627.103 395.045 627.238 395.146 627.359 395.265C628.323 396.185 628.803 398.394 629.189 400.168L629.25 400.443C629.355 400.919 629.446 401.33 629.538 401.618L629.57 401.728C629.603 401.845 629.638 401.966 629.661 402.077C629.999 403.525 629.838 405.053 629.205 406.385L623.987 417.409C623.489 418.448 622.731 419.321 621.795 419.932C620.86 420.543 619.784 420.869 618.685 420.874C617.791 420.876 616.91 420.655 616.112 420.227Z" fill="#7300B9"/>
<path d="M647.019 363.003C670.317 363.003 689.204 342.976 689.204 318.272C689.204 293.569 670.317 273.542 647.019 273.542C623.721 273.542 604.834 293.569 604.834 318.272C604.834 342.976 623.721 363.003 647.019 363.003Z" fill="#4AD85D"/>
<path d="M649.482 342.373L649.526 340.701C646.593 340.615 644.008 340.42 642.065 338.915C641.514 338.464 641.061 337.892 640.737 337.239C640.413 336.586 640.226 335.867 640.188 335.13C640.154 334.68 640.218 334.227 640.375 333.808C640.533 333.388 640.78 333.013 641.096 332.711C642.386 331.556 644.461 331.93 645.974 332.665L647.278 333.299L644.777 313.917L643.215 314.144L645.343 330.631C643.288 329.99 641.383 330.266 640.079 331.434C639.578 331.898 639.185 332.478 638.931 333.129C638.676 333.781 638.567 334.485 638.612 335.189C638.658 336.179 638.908 337.146 639.344 338.023C639.78 338.9 640.391 339.665 641.135 340.265C643.631 342.199 646.875 342.295 649.482 342.373Z" fill="#7300B9"/>
<path d="M635.491 315.566H627.001V317.237H635.491V315.566Z" fill="#7300B9"/>
<path d="M662.291 315.566H653.8V317.237H662.291V315.566Z" fill="#7300B9"/>
<path d="M608.564 513.257C605.779 513.086 603.606 508.23 603.606 502.139V423.85C603.605 420.037 604.057 416.24 604.95 412.546L604.951 412.546C605.276 411.218 605.661 409.898 606.096 408.624C608.742 400.783 613.387 393.875 619.515 388.666C620.207 388.067 620.931 387.487 621.666 386.943C625.235 384.272 629.173 382.204 633.339 380.813C633.224 380.262 633.165 379.7 633.164 379.136C633.166 377.031 633.956 375.012 635.36 373.524C636.764 372.035 638.667 371.198 640.652 371.196H651.687C653.673 371.198 655.576 372.035 656.98 373.524C658.383 375.012 659.173 377.031 659.175 379.136C659.174 379.699 659.116 380.26 659.001 380.809C667.626 383.705 675.157 389.437 680.503 397.176C685.848 404.915 688.731 414.257 688.734 423.85V502.139C688.734 508.386 686.483 513.278 683.61 513.278H608.729C608.674 513.279 608.618 513.272 608.564 513.257Z" fill="#7300B9"/>
<path d="M657.31 520.403C656.82 519.491 656.554 518.464 656.535 517.415L654.877 414.619C654.863 413.796 655.002 412.978 655.287 412.212C655.571 411.446 655.996 410.747 656.535 410.155L656.537 410.153C657.076 409.561 657.72 409.087 658.432 408.759C659.143 408.43 659.909 408.254 660.685 408.24L672.319 408.033C673.785 408.005 675.208 408.556 676.312 409.579C677.416 410.601 678.122 412.023 678.293 413.566C678.318 413.772 678.33 413.979 678.331 414.186L679.995 516.989C680.018 518.651 679.419 520.254 678.329 521.448C677.239 522.642 675.748 523.33 674.181 523.361L662.551 523.574C661.49 523.591 660.444 523.305 659.522 522.747C658.6 522.19 657.837 521.38 657.31 520.403V520.403Z" fill="#4AD85D"/>
<path d="M652.421 449.812C651.98 448.991 651.72 448.074 651.661 447.131L652.158 399.506C652.037 397.849 652.541 396.208 653.559 394.945C654.578 393.682 656.027 392.898 657.59 392.766L669.187 391.803C670.598 391.689 672.002 392.112 673.146 392.997C673.265 393.092 673.384 393.208 673.5 393.292C673.79 393.548 674.092 393.787 674.405 394.011L674.656 394.2C676.323 395.451 678.213 396.87 678.305 398.252L685.282 444.717C685.386 446.044 685.083 447.371 684.418 448.5C684.261 448.777 684.082 449.04 683.884 449.285C683.71 449.502 683.52 449.705 683.315 449.89C682.353 450.808 681.131 451.362 679.841 451.465L658.014 452.958C656.897 453.049 655.778 452.802 654.788 452.245C653.797 451.688 652.977 450.844 652.421 449.812V449.812Z" fill="#7300B9"/>
<path d="M611.547 502.274C611.129 502.274 610.728 502.097 610.433 501.784C610.137 501.47 609.971 501.046 609.971 500.602V419.532C609.971 419.089 610.137 418.663 610.432 418.35C610.728 418.036 611.129 417.86 611.547 417.86C611.965 417.86 612.366 418.036 612.662 418.35C612.958 418.663 613.124 419.089 613.124 419.532V500.602C613.123 501.046 612.957 501.47 612.661 501.784C612.366 502.097 611.965 502.274 611.547 502.274Z" fill="white"/>
<path d="M685.278 307.647L611.994 279.22C611.606 279.069 611.249 278.838 610.944 278.541C610.639 278.244 610.392 277.886 610.218 277.488C610.044 277.09 609.945 276.659 609.928 276.22C609.91 275.782 609.974 275.344 610.117 274.931L610.365 273.689C616.088 257.1 635.058 246.66 650.703 252.728L673.254 261.476C688.898 267.545 695.698 287.188 689.975 303.777L689.322 305.656C689.035 306.488 688.448 307.166 687.689 307.539C686.931 307.913 686.063 307.951 685.278 307.647Z" fill="#7300B9"/>
<path d="M689.226 309.224C587.083 313.22 578.158 299.612 609.28 278.213L615.882 265.331L691.551 294.583L689.226 309.224Z" fill="#7300B9"/>
<path d="M669.197 259.436C669.761 257.447 667.346 254.919 663.802 253.789C660.259 252.66 656.929 253.357 656.365 255.346C655.801 257.335 658.216 259.863 661.76 260.993C665.304 262.122 668.633 261.425 669.197 259.436Z" fill="#7300B9"/>
<path d="M223.527 0C150.289 0 90.7149 63.169 90.7149 140.826C90.694 160.705 94.6636 180.36 102.36 198.486C123.174 247.471 169.648 281.652 223.527 281.652C258.745 281.632 292.515 266.788 317.418 240.382C342.321 213.977 356.32 178.169 356.34 140.826C356.34 63.169 296.755 0 223.527 0ZM333.411 197.438C323.382 219.294 307.762 237.721 288.334 250.619C268.905 263.517 246.45 270.366 223.527 270.386C171.752 270.386 127.392 236.058 109.638 187.738C104.136 172.787 101.321 156.876 101.34 140.826C101.34 69.3878 156.154 11.2661 223.527 11.2661C290.9 11.2661 345.715 69.3878 345.715 140.826C345.738 160.445 341.529 179.809 333.411 197.438Z" fill="#E6E6E6"/>
<path d="M223.528 282.07C198.37 282.048 173.732 274.482 152.457 260.246C131.183 246.009 114.139 225.682 103.295 201.613C102.862 200.653 102.675 199.59 102.75 198.529C102.826 197.468 103.163 196.447 103.727 195.567L103.798 195.457C104.362 194.591 105.13 193.898 106.025 193.447C106.921 192.996 107.913 192.803 108.902 192.887C109.89 192.97 110.841 193.328 111.658 193.925C112.474 194.521 113.129 195.335 113.555 196.284C133.705 241.045 176.872 269.968 223.527 269.968C244.849 269.911 265.785 263.943 284.26 252.658C302.735 241.373 318.106 225.162 328.848 205.633C329.348 204.716 330.067 203.956 330.934 203.429C331.8 202.902 332.783 202.628 333.782 202.635C334.77 202.632 335.741 202.909 336.595 203.436C337.448 203.964 338.154 204.724 338.639 205.637L338.701 205.753C339.192 206.674 339.448 207.716 339.443 208.775C339.438 209.833 339.171 210.872 338.671 211.788C326.918 233.126 310.11 250.837 289.913 263.165C269.716 275.493 246.832 282.01 223.528 282.07Z" fill="#4AD85D"/>
<path d="M193.593 153.707C197.203 153.682 200.709 154.986 203.513 157.397C206.316 159.808 208.244 163.177 208.967 166.927C209.689 170.678 209.161 174.578 207.474 177.961C205.786 181.345 203.044 184.003 199.714 185.482C196.384 186.96 192.673 187.167 189.215 186.067C185.757 184.967 182.767 182.629 180.754 179.451C178.741 176.274 177.83 172.454 178.178 168.644C178.526 164.834 180.109 161.27 182.659 158.56C184.088 157.025 185.791 155.805 187.667 154.972C189.544 154.139 191.558 153.709 193.593 153.707ZM193.593 146.665C189.214 146.663 184.933 148.037 181.291 150.615C177.649 153.192 174.809 156.857 173.131 161.145C171.453 165.434 171.013 170.154 171.865 174.708C172.716 179.262 174.823 183.446 177.917 186.731C181.012 190.016 184.956 192.254 189.25 193.162C193.544 194.07 197.996 193.608 202.042 191.834C206.089 190.059 209.548 187.052 211.982 183.193C214.417 179.334 215.718 174.796 215.72 170.153C215.723 163.927 213.394 157.955 209.244 153.55C205.094 149.145 199.464 146.669 193.593 146.665H193.593ZM239.721 113.093C241.724 113.104 243.649 112.271 245.072 110.777C246.495 109.283 247.3 107.251 247.311 105.127C247.311 105.1 247.311 105.073 247.311 105.046C247.32 104.006 247.136 102.974 246.769 102.009C246.402 101.044 245.86 100.165 245.173 99.4227C244.486 98.6801 243.667 98.0883 242.765 97.6811C241.862 97.2738 240.892 97.0591 239.911 97.0492C239.864 97.0487 239.816 97.0487 239.769 97.0492C237.762 97.0291 235.83 97.855 234.398 99.3453C232.966 100.835 232.151 102.868 232.132 104.995C232.113 107.123 232.892 109.171 234.297 110.69C235.703 112.209 237.62 113.073 239.626 113.093C239.658 113.093 239.69 113.093 239.721 113.093ZM255.588 153.707C259.198 153.682 262.704 154.986 265.508 157.397C268.311 159.808 270.239 163.177 270.962 166.927C271.684 170.678 271.157 174.578 269.469 177.961C267.781 181.345 265.039 184.003 261.709 185.482C258.379 186.96 254.668 187.167 251.21 186.067C247.752 184.967 244.762 182.629 242.749 179.451C240.736 176.274 239.825 172.454 240.173 168.644C240.521 164.834 242.104 161.27 244.654 158.56C246.083 157.025 247.786 155.805 249.662 154.972C251.539 154.139 253.553 153.709 255.588 153.707ZM255.588 146.665C251.211 146.665 246.933 148.041 243.294 150.619C239.655 153.198 236.819 156.862 235.144 161.149C233.47 165.436 233.031 170.154 233.885 174.705C234.739 179.257 236.847 183.437 239.941 186.719C243.036 190 246.978 192.234 251.271 193.14C255.563 194.045 260.012 193.58 264.055 191.805C268.099 190.029 271.555 187.021 273.986 183.163C276.417 179.305 277.715 174.768 277.715 170.128C277.715 167.047 277.143 163.996 276.031 161.149C274.919 158.303 273.289 155.716 271.234 153.537C269.179 151.359 266.74 149.63 264.055 148.451C261.371 147.272 258.493 146.665 255.588 146.665Z" fill="#E6E6E6"/>
<path d="M251.153 129.238H239.769L232.772 114.125C232.208 113.065 231.419 112.158 230.468 111.476C229.517 110.794 228.43 110.356 227.292 110.195C226.154 110.034 224.997 110.155 223.911 110.549C222.825 110.943 221.839 111.599 221.033 112.465L204.028 129.842C202.636 131.348 201.846 133.366 201.822 135.475C201.822 139.85 204.811 141.41 206.21 142.29C217.001 148.878 220.795 149.608 220.795 152.902V169.474C220.795 170.541 221.195 171.565 221.907 172.319C222.619 173.074 223.584 173.498 224.59 173.498C225.596 173.498 226.562 173.074 227.273 172.319C227.985 171.565 228.385 170.541 228.385 169.474V146.841C228.385 143.522 221.175 140.806 216.93 137.285L228.527 124.334C232.962 131.501 235.002 137.285 237.539 137.285H251.153C252.159 137.287 253.125 136.865 253.838 136.111C254.55 135.358 254.952 134.335 254.953 133.268C254.955 132.201 254.557 131.177 253.846 130.421C253.136 129.665 252.171 129.24 251.165 129.238H251.153V129.238Z" fill="#E6E6E6"/>
<path d="M116.701 357.593C113.432 357.593 110.725 367.685 110.201 380.917H47.3141C46.7895 367.685 44.0831 357.593 40.8142 357.593C37.1698 357.593 34.2153 370.124 34.2153 385.581C34.2153 401.039 37.1698 413.569 40.8142 413.569C44.0831 413.569 46.7895 403.478 47.3141 390.246H110.201C110.725 403.478 113.432 413.569 116.701 413.569C120.345 413.569 123.299 401.038 123.299 385.581C123.299 370.124 120.345 357.593 116.701 357.593Z" fill="#E6E6E6"/>
<path d="M147.333 344.259C138.012 326.545 122.922 313.041 104.887 306.275C86.8525 299.51 67.1105 299.946 49.3576 307.504C31.6047 315.061 17.0584 329.22 8.44234 347.331C-0.173718 365.441 -2.26868 386.261 2.54972 405.891C7.36812 425.522 18.7695 442.617 34.6189 453.976C50.4684 465.334 69.6791 470.178 88.654 467.599C107.629 465.021 125.067 455.197 137.703 439.967C150.338 424.737 157.305 405.146 157.299 384.862C157.295 370.648 153.864 356.671 147.333 344.259ZM78.6319 461.595C59.5653 461.492 41.3156 453.375 27.8852 439.024C14.4549 424.673 6.94035 405.26 6.98968 385.043C7.03901 364.826 14.6482 345.454 28.1484 331.178C41.6486 316.901 59.9377 308.884 79.0046 308.885C98.0714 308.886 116.36 316.906 129.858 331.185C143.356 345.463 150.963 364.836 151.01 385.053C151.057 405.27 143.54 424.682 130.108 439.031C116.676 453.38 98.4251 461.494 79.3584 461.595C79.1163 461.596 78.8741 461.596 78.6319 461.595Z" fill="#E6E6E6"/>
<path d="M78.6701 468.694C63.6808 468.702 48.9996 464.181 36.3452 455.663C35.7132 455.235 35.2255 454.606 34.9523 453.866L34.9126 453.758C34.6379 453.024 34.5928 452.217 34.7838 451.454C34.9748 450.692 35.392 450.015 35.9736 449.523C36.5359 449.021 37.2353 448.725 37.9685 448.677C38.7017 448.63 39.4299 448.834 40.0456 449.259C53.496 458.337 69.4096 462.42 85.2863 460.866C101.163 459.313 116.103 452.211 127.76 440.676C139.416 429.141 147.128 413.827 149.685 397.14C152.242 380.452 149.498 363.337 141.884 348.483C141.527 347.802 141.386 347.017 141.482 346.245C141.577 345.472 141.904 344.753 142.414 344.192C142.918 343.611 143.585 343.216 144.317 343.067C145.048 342.918 145.805 343.022 146.477 343.364L146.575 343.413C147.249 343.747 147.805 344.3 148.164 344.991C154.681 357.752 157.96 372.09 157.682 386.599C157.403 401.108 153.576 415.292 146.574 427.762C139.573 440.232 129.637 450.56 117.74 457.735C105.844 464.91 92.3935 468.686 78.7069 468.694H78.6701Z" fill="#4AD85D"/>
<path d="M368.387 301.463C358.054 301.458 347.822 303.611 338.275 307.8C328.727 311.989 320.052 318.131 312.743 325.876C305.435 333.62 299.637 342.816 295.68 352.937C291.724 363.058 289.686 373.906 289.685 384.862C289.683 395.818 291.716 406.667 295.669 416.789C299.622 426.911 305.417 436.109 312.723 443.856C320.029 451.604 328.702 457.749 338.248 461.942C347.794 466.134 358.026 468.292 368.358 468.291H368.387C368.897 468.291 369.396 468.291 369.906 468.268C390.635 467.845 410.367 458.762 424.814 442.995C439.261 427.227 447.253 406.05 447.052 384.068C446.852 362.085 438.476 341.076 423.745 325.607C409.014 310.138 389.119 301.461 368.387 301.463V301.463ZM384.42 459.706C374.49 462.097 364.196 462.239 354.211 460.124C344.226 458.008 334.775 453.682 326.474 447.429C318.174 441.175 311.211 433.135 306.041 423.833C300.872 414.531 297.611 404.177 296.473 393.448C295.335 382.718 296.346 371.855 299.438 361.568C302.53 351.281 307.634 341.802 314.418 333.75C321.201 325.697 329.51 319.254 338.803 314.839C348.095 310.425 358.162 308.139 368.344 308.132H368.387C386.185 308.131 403.36 315.084 416.629 327.663C429.897 340.242 438.329 357.564 440.313 376.319C442.297 395.073 437.694 413.946 427.383 429.329C417.072 444.712 401.776 455.527 384.42 459.706Z" fill="#E6E6E6"/>
<path d="M368.387 468.709C348.876 468.709 330.054 461.058 315.541 447.23C301.029 433.402 291.851 414.372 289.774 393.801C287.697 373.23 292.867 352.571 304.289 335.798C315.711 319.025 332.579 307.323 351.648 302.943C352.117 302.837 352.601 302.83 353.073 302.923L353.237 302.956C354.028 303.119 354.742 303.566 355.259 304.222C355.775 304.878 356.062 305.703 356.071 306.558C356.081 307.412 355.812 308.244 355.31 308.913C354.808 309.581 354.104 310.046 353.317 310.228C335.934 314.179 320.545 324.811 310.114 340.076C299.683 355.34 294.948 374.157 296.821 392.902C298.693 411.648 307.041 428.995 320.257 441.604C333.472 454.213 350.62 461.19 368.398 461.192C369.093 461.186 369.769 461.182 370.455 461.161C371.221 461.127 371.973 461.38 372.58 461.876C373.187 462.371 373.61 463.078 373.775 463.871C373.957 464.637 373.876 465.447 373.548 466.156C373.221 466.866 372.667 467.429 371.984 467.747V467.748C371.521 467.973 371.056 468.194 370.589 468.411C370.195 468.595 369.771 468.695 369.34 468.704C369.023 468.709 368.707 468.709 368.387 468.709Z" fill="#4AD85D"/>
<path d="M407.195 381.33C405.1 381.219 403.027 381.838 401.294 383.092C399.56 384.347 398.262 386.168 397.596 388.278H389.849L384.193 370.244C383.983 369.568 383.577 368.979 383.034 368.562C382.49 368.145 381.836 367.921 381.165 367.921H381.106C380.425 367.932 379.766 368.176 379.227 368.618C378.689 369.06 378.3 369.674 378.118 370.37L369.256 403.166L358.84 336.836C358.719 336.068 358.353 335.368 357.802 334.852C357.252 334.337 356.552 334.038 355.818 334.006C355.085 333.974 354.363 334.21 353.775 334.676C353.186 335.141 352.766 335.807 352.586 336.561L342.031 388.278H330.201C329.356 388.278 328.545 388.634 327.947 389.268C327.35 389.901 327.014 390.761 327.014 391.657C327.014 392.553 327.35 393.412 327.947 394.046C328.545 394.68 329.356 395.036 330.201 395.036H344.54C345.25 395.037 345.94 394.786 346.499 394.322C347.059 393.859 347.456 393.211 347.627 392.48L355.076 354.004L365.292 419.025C365.409 419.783 365.768 420.475 366.308 420.986C366.848 421.497 367.537 421.796 368.26 421.834H368.439C369.132 421.833 369.805 421.593 370.358 421.152C370.911 420.71 371.314 420.09 371.506 419.384L381.404 382.724L384.531 392.713C384.744 393.386 385.151 393.972 385.694 394.389C386.236 394.805 386.888 395.031 387.558 395.036H397.735C398.344 396.744 399.376 398.247 400.724 399.385C402.071 400.523 403.683 401.253 405.39 401.5C407.097 401.746 408.835 401.5 410.42 400.785C412.005 400.071 413.379 398.916 414.396 397.442C415.414 395.968 416.037 394.23 416.199 392.412C416.362 390.594 416.059 388.763 415.321 387.112C414.583 385.462 413.439 384.053 412.009 383.036C410.578 382.018 408.915 381.429 407.195 381.33H407.195Z" fill="#E6E6E6"/>
<path d="M717.212 608H572.968C572.759 608 572.558 607.912 572.411 607.755C572.263 607.598 572.18 607.386 572.18 607.164C572.18 606.942 572.263 606.73 572.411 606.573C572.558 606.416 572.759 606.328 572.968 606.328H717.212C717.421 606.328 717.621 606.416 717.769 606.573C717.917 606.73 718 606.942 718 607.164C718 607.386 717.917 607.598 717.769 607.755C717.621 607.912 717.421 608 717.212 608Z" fill="#3F3D56"/>
</g>
<defs>
<clipPath id="clip0">
<rect width="718" height="608" fill="white"/>
</clipPath>
</defs>
</svg>
