<svg width="663" height="647" viewBox="0 0 663 647" fill="none" xmlns="http://www.w3.org/2000/svg">
<path d="M605.731 247.607H91.043V554.65H605.731V247.607Z" fill="#3F3D56"/>
<path d="M109.633 273.768L143.519 260.146C133.711 247.418 120.675 234.416 106.917 222.252L60.1671 230.718L98.7617 215.203C64.7262 186.415 29.3737 163.924 29.3737 163.924C29.3737 163.924 -9.26858 279.655 2.08993 331.066C8.67808 360.885 26.4316 384.422 48.6866 396.785L49.5921 330.354L61.6808 402.544C74.5952 406.951 88.3862 407.526 101.582 404.205C145.171 393.189 171.3 342.582 159.941 291.171C158.24 283.47 154.11 275.22 148.332 266.76L109.633 273.768Z" fill="#D0CDE1"/>
<path opacity="0.1" d="M114.927 388.6C126.218 381.628 133.569 372.635 131.345 368.515C129.12 364.395 118.164 366.707 106.873 373.679C95.5812 380.652 88.2308 389.644 90.4549 393.764C92.6791 397.885 103.636 395.572 114.927 388.6Z" fill="black"/>
<path d="M245.824 554.651H199.524C192.885 547.986 186.691 540.833 180.985 533.244L148.709 475.071L108.268 402.158L103.767 394.054L100.067 387.379L120.067 375.498L124.318 381.56L125.148 382.738L130.023 389.68L162.857 436.459L166.448 401.341H179.781L168.834 444.971L245.824 554.651Z" fill="#F2F2F2"/>
<path d="M537.664 276.831L499.319 272.739C506.151 256.774 516.234 239.583 527.274 223.042L577.532 218.064L533.859 213.403C561.504 173.824 592.116 140.338 592.116 140.338C592.116 140.338 661.485 248.079 662.958 304.29C663.812 336.894 651.573 366.304 631.843 385.538L613.91 317.465L619.949 395.266C607.792 403.581 593.752 408.209 579.328 408.656C531.668 410.084 491.838 365.674 490.366 309.462C490.145 301.042 492.282 291.346 496.061 280.952L537.664 276.831Z" fill="#D0CDE1"/>
<path opacity="0.1" d="M588.102 394.658C589.336 389.768 579.473 382.669 566.073 378.802C552.674 374.935 540.811 375.764 539.577 380.654C538.344 385.544 548.206 392.642 561.606 396.509C575.006 400.376 586.869 399.547 588.102 394.658Z" fill="black"/>
<path d="M576.582 390.897L576.355 391.769L574.482 398.86L571.927 408.511V408.519L548.983 495.347L533.506 553.905C533.241 554.156 532.977 554.399 532.705 554.651H488.711L520.576 470.281L498.153 428.606L511.868 424.703L524.548 459.766L546.354 402.048L546.362 402.04L549.592 393.473L550.143 392.012L552.962 384.528L575.848 390.708L576.582 390.897Z" fill="#F2F2F2"/>
<path d="M284.158 574.52L265.828 647H328.596L335.817 639.871L338.595 647H405.807C405.807 647 413.028 600.066 404.141 596.501C395.253 592.937 284.158 574.52 284.158 574.52Z" fill="#2F2E41"/>
<path d="M354.704 288.757C375.871 288.757 393.031 270.404 393.031 247.764C393.031 225.124 375.871 206.771 354.704 206.771C333.536 206.771 316.376 225.124 316.376 247.764C316.376 270.404 333.536 288.757 354.704 288.757Z" fill="#A0616A"/>
<path d="M326.096 268.26C326.096 268.26 333.318 326.482 322.208 333.018C311.099 339.553 388.31 340.147 388.31 340.147C388.31 340.147 371.09 289.648 378.866 274.201L326.096 268.26Z" fill="#A0616A"/>
<path d="M351.926 323.215C351.926 323.215 332.48 320.108 328.316 309.78L269.716 337.473C269.716 337.473 280.27 420.053 286.38 434.906L278.603 584.025C278.603 584.025 333.04 622.642 406.362 601.848L424.693 437.876L444.69 340.444L380.666 312.942C380.666 312.942 368.035 322.027 351.926 323.215Z" fill="#4AD85D"/>
<path d="M392.476 510.951C392.476 510.951 321.931 508.574 326.93 531.15C331.929 553.726 396.92 529.962 396.92 529.962L392.476 510.951Z" fill="#A0616A"/>
<path d="M322.819 208.988L315.652 205.92C315.652 205.92 330.636 188.276 351.484 189.81L345.62 182.906C345.62 182.906 359.953 176.769 372.983 192.879C379.832 201.347 387.757 211.301 392.698 222.515H400.372L397.169 230.058L408.38 237.601L396.873 236.246C397.559 240.377 397.664 244.594 397.185 248.758C396.692 252.924 394.704 256.721 391.643 259.349C391.643 259.349 382.755 239.673 382.755 236.605V244.276C382.755 244.276 375.589 237.372 375.589 232.769L371.68 238.139L369.725 229.701L345.62 238.139L349.529 231.235L334.545 233.536L340.409 225.098C340.409 225.098 323.47 235.071 322.819 243.509C322.167 251.947 317.209 259.943 317.209 259.943C317.209 259.943 303.925 220.495 322.819 208.988Z" fill="#2F2E41"/>
<path d="M369.424 486.854V496.967C369.423 497.06 369.389 497.15 369.327 497.216C369.265 497.282 369.181 497.319 369.094 497.319H368.859V549.997C368.859 551.455 368.318 552.853 367.354 553.884C366.39 554.915 365.083 555.494 363.72 555.494H332.945C331.582 555.494 330.275 554.915 329.312 553.884C328.348 552.853 327.807 551.455 327.807 549.998V499.167H327.637C327.576 499.167 327.517 499.141 327.473 499.094C327.429 499.048 327.404 498.985 327.404 498.919V493.164C327.404 493.098 327.429 493.034 327.472 492.987C327.516 492.941 327.575 492.914 327.637 492.914H327.807V490.747H327.636C327.571 490.746 327.509 490.719 327.464 490.67C327.418 490.62 327.392 490.554 327.393 490.485V484.808C327.393 484.739 327.418 484.673 327.464 484.624C327.51 484.576 327.571 484.548 327.636 484.548H327.807V481.589H327.633C327.605 481.589 327.577 481.583 327.55 481.571C327.524 481.56 327.5 481.543 327.48 481.522C327.46 481.5 327.444 481.475 327.434 481.447C327.423 481.419 327.417 481.389 327.417 481.359V478.26C327.417 478.199 327.44 478.14 327.48 478.096C327.521 478.053 327.576 478.028 327.633 478.028H327.807V471.755C327.807 470.298 328.349 468.9 329.312 467.87C330.276 466.839 331.582 466.261 332.945 466.26H363.72C365.083 466.26 366.39 466.839 367.354 467.87C368.317 468.9 368.859 470.298 368.859 471.755V486.502H369.094C369.181 486.502 369.265 486.539 369.327 486.605C369.389 486.672 369.423 486.761 369.424 486.854Z" fill="#3F3D56"/>
<path d="M348.384 495.115C351.167 495.115 353.422 492.703 353.422 489.727C353.422 486.75 351.167 484.338 348.384 484.338C345.601 484.338 343.346 486.75 343.346 489.727C343.346 492.703 345.601 495.115 348.384 495.115Z" fill="#F2F2F2"/>
<path d="M427.47 340.444H444.69C444.69 340.444 499.682 468.77 486.351 484.216C473.019 499.663 392.476 541.844 392.476 541.844C392.476 541.844 386.365 509.169 380.811 509.169L436.358 472.334L409.14 402.824L427.47 340.444Z" fill="#4AD85D"/>
<path d="M304.155 505.604C304.155 505.604 366.924 541.25 355.259 556.696C343.594 572.143 287.491 529.368 287.491 529.368L304.155 505.604Z" fill="#A0616A"/>
<path d="M277.492 338.067H269.716C269.716 338.067 258.606 349.355 255.273 374.902L223.003 451.813C222.027 454.138 221.542 456.665 221.581 459.213C221.62 461.762 222.183 464.27 223.229 466.56C230.391 482.248 249.241 517.65 277.492 528.18L291.935 540.062C291.935 540.062 290.268 510.951 313.043 510.951L274.16 465.799L289.157 413.518L277.492 338.067Z" fill="#4AD85D"/>
<path d="M540.033 0H348.754V157.82H540.033V0Z" fill="#3F3D56"/>
<path d="M408.567 56.8281H381.849V132.166H408.567V56.8281Z" fill="#D0CDE1"/>
<path d="M457.753 86.054H431.035V132.166H457.753V86.054Z" fill="#D0CDE1"/>
<path d="M506.939 25.6538H480.221V132.166H506.939V25.6538Z" fill="#D0CDE1"/>
<path d="M444.394 71.1162C451.772 71.1162 457.753 64.7192 457.753 56.828C457.753 48.9368 451.772 42.5398 444.394 42.5398C437.016 42.5398 431.035 48.9368 431.035 56.828C431.035 64.7192 437.016 71.1162 444.394 71.1162Z" fill="#4AD85D"/>
<path d="M302.498 30.3525H111.219V188.172H302.498V30.3525Z" fill="#3F3D56"/>
<path d="M140.366 155.699C140.366 155.699 142.188 103.092 178.622 111.535C215.056 119.978 269.1 71.2686 269.1 71.2686" fill="#4AD85D"/>
<path d="M140.67 153.101V52.4346H128.525V153.101V165.441V166.091H285.192V153.101H140.67Z" fill="#D0CDE1"/>
<path d="M321.844 413.551L328.492 421.847C330.962 421.343 333.541 420.751 336.197 420.086L334.288 413.551L338.957 419.377C367.101 411.973 401.985 397.58 401.985 397.58C401.985 397.58 364.324 400.533 336.204 393.963C323.762 391.055 310.961 397.652 305.856 410.13C302.888 417.383 303.354 423.667 313.879 423.667C317.436 423.602 320.982 423.245 324.487 422.599L321.844 413.551Z" fill="#2F2E41"/>
</svg>
