<svg width="721" height="568" viewBox="0 0 721 568" fill="none" xmlns="http://www.w3.org/2000/svg">
<path opacity="0.1" d="M360.5 568C559.599 568 721 556.824 721 543.037C721 529.25 559.599 518.074 360.5 518.074C161.401 518.074 0 529.25 0 543.037C0 556.824 161.401 568 360.5 568Z" fill="#4AD85D"/>
<path d="M664.453 524.549C664.458 526.522 664.274 528.49 663.904 530.419C663.835 530.783 663.759 531.176 663.684 531.486C661.734 540.102 656.234 546.403 649.669 546.804C649.449 546.804 649.23 546.804 648.982 546.804C642.04 546.804 636.169 540.208 634.233 531.123C634.178 530.881 634.13 530.639 634.082 530.366C633.711 528.437 633.527 526.469 633.532 524.496C633.532 512.189 640.447 502.219 648.982 502.219C657.518 502.219 664.453 512.257 664.453 524.549Z" fill="#3F3D56"/>
<path opacity="0.1" d="M664.453 524.549C664.458 526.522 664.274 528.489 663.904 530.419C663.835 530.782 663.759 531.176 663.684 531.486C663.45 531.486 663.224 531.486 662.997 531.486C661.297 531.385 659.607 531.132 657.943 530.729C656.47 531.231 654.964 531.61 653.439 531.864C652.269 532.058 651.091 532.179 649.909 532.227H648.715C647.3 532.227 645.887 532.124 644.485 531.917C642.217 531.583 639.99 530.975 637.845 530.101C636.67 530.532 635.473 530.886 634.26 531.16C634.205 530.918 634.157 530.676 634.109 530.404C633.739 528.474 633.555 526.506 633.56 524.534C633.56 512.226 640.475 502.256 649.01 502.256C657.545 502.256 664.453 512.257 664.453 524.549Z" fill="black"/>
<path d="M697.413 483.057C697.419 477.644 696.266 472.305 694.048 467.474L675.879 473.7L691.83 463.367C689.156 459.108 685.648 455.565 681.564 453.001C677.48 450.436 672.926 448.914 668.237 448.548C667.489 447.302 666.67 446.109 665.785 444.977L639.692 453.926L661.095 440.068C657.001 436.608 652.196 434.313 647.105 433.385C642.014 432.458 636.794 432.926 631.906 434.749C627.019 436.573 622.614 439.694 619.082 443.839C615.55 447.983 612.999 453.022 611.655 458.51L634.006 486.862L609.76 467.535C603.612 472.331 599.234 479.402 597.424 487.459C595.614 495.515 596.493 504.019 599.9 511.421C603.307 518.823 609.016 524.629 615.985 527.78C622.955 530.932 630.72 531.219 637.865 528.589C644.328 531.198 651.388 531.411 657.971 529.194C662.56 530.312 667.319 530.282 671.896 529.104C676.473 527.927 680.752 525.633 684.417 522.392C688.082 519.151 691.04 515.044 693.073 510.376C695.106 505.707 696.162 500.596 696.163 495.418C696.163 494.661 696.163 493.905 696.095 493.149C696.985 489.875 697.429 486.474 697.413 483.057Z" fill="#4AD85D"/>
<path opacity="0.1" d="M696.87 489.48C687.276 487.473 677.435 487.334 667.797 489.072C656.886 491.061 645.734 495.433 635.064 492.234C628.801 490.358 623.39 486.015 617.272 483.61C611.37 481.335 605.011 480.913 598.904 482.392C596.575 488.525 595.898 495.267 596.955 501.812C598.012 508.357 600.757 514.429 604.862 519.301C608.968 524.173 614.26 527.64 620.107 529.287C625.953 530.934 632.106 530.692 637.831 528.589C644.294 531.199 651.354 531.411 657.937 529.194C662.526 530.312 667.284 530.282 671.861 529.105C676.438 527.928 680.717 525.634 684.383 522.392C688.048 519.151 691.006 515.045 693.039 510.376C695.072 505.708 696.128 500.596 696.129 495.418C696.129 494.662 696.129 493.905 696.06 493.149C696.392 491.943 696.662 490.718 696.87 489.48Z" fill="black"/>
<path d="M479.705 130.088H475.771C474.902 130.088 474.198 130.863 474.198 131.82V192.669C474.198 193.626 474.902 194.402 475.771 194.402H479.705C480.574 194.402 481.278 193.626 481.278 192.669V131.82C481.278 130.863 480.574 130.088 479.705 130.088Z" fill="#3F3D56"/>
<path d="M241.741 79.7002H239.825C239.256 79.7002 238.795 80.2082 238.795 80.8349V99.7387C238.795 100.365 239.256 100.873 239.825 100.873H241.741C242.31 100.873 242.771 100.365 242.771 99.7387V80.8349C242.771 80.2082 242.31 79.7002 241.741 79.7002Z" fill="#3F3D56"/>
<path d="M241.968 118.469H239.811C239.171 118.469 238.651 119.041 238.651 119.747V154.045C238.651 154.751 239.171 155.323 239.811 155.323H241.968C242.609 155.323 243.128 154.751 243.128 154.045V119.747C243.128 119.041 242.609 118.469 241.968 118.469Z" fill="#3F3D56"/>
<path d="M241.878 168.213H239.825C239.215 168.213 238.72 168.758 238.72 169.431V204.167C238.72 204.84 239.215 205.385 239.825 205.385H241.878C242.489 205.385 242.984 204.84 242.984 204.167V169.431C242.984 168.758 242.489 168.213 241.878 168.213Z" fill="#3F3D56"/>
<path d="M453.509 9.7356H265.555C252.02 9.7356 241.047 21.823 241.047 36.7335V513.293C241.047 528.204 252.02 540.291 265.555 540.291H453.509C467.044 540.291 478.016 528.204 478.016 513.293V36.7335C478.016 21.823 467.044 9.7356 453.509 9.7356Z" fill="#3F3D56"/>
<path d="M368.019 25.5757H338.417C337.454 25.5757 336.673 26.4359 336.673 27.4971V31.06C336.673 32.1211 337.454 32.9814 338.417 32.9814H368.019C368.982 32.9814 369.763 32.1211 369.763 31.06V27.4971C369.763 26.4359 368.982 25.5757 368.019 25.5757Z" fill="#E6E8EC"/>
<path d="M378.58 33.4733C380.685 33.4733 382.391 31.5937 382.391 29.275C382.391 26.9563 380.685 25.0767 378.58 25.0767C376.475 25.0767 374.769 26.9563 374.769 29.275C374.769 31.5937 376.475 33.4733 378.58 33.4733Z" fill="#E6E8EC"/>
<path d="M463.383 44.283V505.721C463.381 511.219 461.398 516.491 457.868 520.378C454.339 524.265 449.552 526.448 444.562 526.448H274.502C269.511 526.448 264.725 524.265 261.195 520.378C257.666 516.491 255.682 511.219 255.68 505.721V44.283C255.68 41.5602 256.167 38.8639 257.113 36.3483C258.059 33.8327 259.445 31.5469 261.193 29.6216C262.941 27.6962 265.016 26.1689 267.299 25.1269C269.583 24.0849 272.03 23.5486 274.502 23.5486H299.95V27.1493C299.957 31.6729 301.593 36.0085 304.498 39.205C307.404 42.4015 311.342 44.1978 315.448 44.1998H401.968C404.003 44.1998 406.018 43.7582 407.899 42.9002C409.779 42.0422 411.487 40.7846 412.927 39.1992C414.366 37.6138 415.507 35.7317 416.286 33.6603C417.065 31.5888 417.466 29.3687 417.466 27.1266V23.5486H444.596C449.582 23.5586 454.36 25.7475 457.883 29.6349C461.405 33.5223 463.383 38.7905 463.383 44.283Z" fill="white"/>
<path opacity="0.2" d="M464.873 234.827V391.738H463.383V391.897H255.68V200.196C257.012 198.522 258.363 196.785 259.732 194.984C288.901 156.609 328.549 146.51 359.237 145.451C380.262 144.695 401.192 149.483 421.174 158.992C431.728 164.015 446.876 169.522 463.383 170.067V229.388C464.393 232.557 464.873 234.827 464.873 234.827Z" fill="#4AD85D"/>
<path opacity="0.2" d="M464.873 234.827V391.738H255.68V288.951C263.131 286.886 273.534 278.943 286.882 256.998C302.847 230.742 324.539 223.835 341.328 223.109C352.83 222.61 364.284 225.863 375.215 232.376C387.513 239.691 411.217 248.511 429.229 222.905C449.142 194.591 459.73 217.943 463.383 229.388C464.393 232.557 464.873 234.827 464.873 234.827Z" fill="#4AD85D"/>
<path d="M434.66 363H284.967C280.416 363 276.727 367.065 276.727 372.078V411.414C276.727 416.427 280.416 420.491 284.967 420.491H434.66C439.211 420.491 442.9 416.427 442.9 411.414V372.078C442.9 367.065 439.211 363 434.66 363Z" fill="#736E9E"/>
<path d="M92.0545 517.204L105.197 508.664C103.42 505.319 101.148 502.325 98.4749 499.805L73.6793 508.331L93.112 495.743C88.3016 492.84 82.8879 491.367 77.4038 491.469C71.9196 491.571 66.5541 493.245 61.8354 496.325C57.1166 499.405 53.2072 503.785 50.4919 509.036C47.7767 514.286 46.3492 520.224 46.35 526.266C46.35 545.488 60.4885 546.154 77.9367 546.154C95.3849 546.154 109.523 545.488 109.523 526.266C109.529 521.404 108.605 516.594 106.811 512.151L92.0545 517.204Z" fill="#4AD85D"/>
<path opacity="0.1" d="M95.3986 535.896C93.9998 534.35 92.4366 532.997 90.743 531.864C88.3534 530.117 85.8883 528.339 83.0729 527.741C80.6009 527.219 78.0534 527.658 75.5196 527.507C71.1478 527.21 67.0329 525.131 63.9767 521.675C62.1845 519.632 60.77 517.136 58.6139 515.555C56.2861 513.876 53.3334 513.513 50.573 513.929C49.7731 514.062 48.98 514.241 48.1971 514.466C46.9579 518.253 46.3259 522.248 46.3294 526.274C46.3294 545.495 60.4679 546.161 77.9161 546.161C86.3827 546.161 94.0665 546.002 99.7383 543.642L98.7907 541.69C97.8869 539.609 96.7471 537.662 95.3986 535.896Z" fill="black"/>
<path d="M156.725 440.484C155.721 441.454 154.948 442.68 154.473 444.055C153.298 448.094 156.581 452.058 156.896 456.287C157.144 459.645 155.523 462.777 154.603 466C153.565 470.003 153.632 474.256 154.796 478.217C155.96 482.177 158.169 485.667 161.14 488.239C161.773 488.831 162.52 489.255 163.324 489.48C163.987 489.568 164.66 489.506 165.301 489.298C165.942 489.09 166.538 488.74 167.052 488.27C168.647 486.992 169.863 485.223 170.547 483.186C171.117 481.184 171.425 479.103 171.461 477.006L171.948 468.912C172.456 460.462 172.916 451.748 171.049 443.45C170.438 440.726 169.305 434.47 166.448 434.092C163.591 433.714 158.62 438.442 156.725 440.484Z" fill="#3F3D56"/>
<path d="M204.627 405.717C201.197 418.987 198.71 432.531 197.19 446.226C196.97 448.155 196.744 450.182 195.686 451.74C193.578 454.864 189.355 454.668 185.853 454.161C185.013 454.112 184.193 453.854 183.457 453.404C182.138 452.421 181.85 450.454 181.692 448.707C179.293 422.947 177.691 397.119 176.885 371.223C176.851 370.232 206.199 370.141 208.712 372.736C211.226 375.331 209.275 385.036 208.712 388.342C207.792 394.227 206.13 399.961 204.627 405.717Z" fill="#FBBEBE"/>
<path opacity="0.05" d="M204.627 405.717C201.197 418.987 198.71 432.531 197.19 446.226C196.97 448.155 196.744 450.182 195.686 451.74C193.578 454.864 189.355 454.668 185.853 454.161C185.013 454.112 184.193 453.854 183.457 453.404C182.138 452.421 181.85 450.454 181.692 448.707C179.293 422.947 177.691 397.119 176.885 371.223C176.851 370.232 206.199 370.141 208.712 372.736C211.226 375.331 209.275 385.036 208.712 388.342C207.792 394.227 206.13 399.961 204.627 405.717Z" fill="black"/>
<path d="M143.513 367.539L155.4 396.337C159.355 405.914 163.337 415.597 165.226 425.907C165.983 430.215 166.467 434.575 166.675 438.956C166.961 442.712 166.855 446.491 166.359 450.22C165.926 452.988 165.13 455.681 164.779 458.465C163.406 469.562 169.112 480.001 173.019 490.327C176.395 499.195 178.543 508.571 179.392 518.142C179.749 522.219 179.948 526.546 182.063 529.912C185.929 528.634 189.705 527.53 193.736 528.029C194.457 521.516 190.722 515.517 189.348 509.117C186.828 497.392 192.397 485.07 190.502 473.201C189.472 466.771 186.279 460.719 186.54 454.199C187.027 442.307 189.053 430.295 186.993 418.645C184.672 405.475 177.998 393.501 176.521 380.187C175.388 369.96 177.208 358.651 172.037 350.057C160.742 349.324 149.062 356.669 143.513 367.539Z" fill="#FBBEBE"/>
<path d="M182.578 548.393C181.39 548.438 180.003 548.393 179.268 547.356C178.91 546.754 178.703 546.056 178.671 545.337C178.108 540.776 177.833 536.179 177.847 531.577C177.847 529.897 177.915 528.112 178.767 526.728C179.392 525.883 180.104 525.121 180.889 524.458C182.708 522.605 184.034 519.92 186.382 519.065C187.411 518.735 188.502 518.719 189.538 519.019C190.574 519.319 191.517 519.923 192.267 520.767C193.748 522.507 194.666 524.739 194.876 527.114C195.219 529.928 194.931 532.991 196.284 535.435C196.819 536.38 197.568 537.152 198.172 538.044C200.232 541.07 202.079 546.993 197.829 548.219C193.324 549.512 187.254 548.226 182.578 548.393Z" fill="#3F3D56"/>
<path d="M192.885 197.11C195.288 191.996 193.853 185.415 190.42 181.073C186.986 176.731 181.967 174.31 176.844 173.002C169.977 171.231 162.616 171.247 156.045 174.03C150.806 176.247 146.294 180.082 141.46 183.214C132.917 188.754 123.356 192.114 113.479 193.048C102.492 194.069 90.2211 192.48 81.7271 200.189C66.1672 214.304 77.0028 246.113 62.5004 261.514C58.5864 265.667 53.3609 267.914 48.8769 271.295C44.393 274.677 40.3829 280.086 41.1039 286.016C41.4472 288.868 42.8617 291.44 44.496 293.687C51.5137 303.347 63.2969 308.407 74.4415 306.902C85.5861 305.397 95.79 297.514 101.222 286.667C102.595 283.951 103.707 280.978 105.87 279.004C110.203 275.063 116.562 276.659 122.179 276.47C134.669 276.046 146.013 264.253 147.105 250.531C147.572 244.668 146.665 237.845 150.49 233.73C153.573 230.401 158.393 230.432 162.61 229.411C170.355 227.542 175.993 221.369 179.529 213.835C181.15 210.371 180.985 206.497 183.388 203.623C185.949 200.461 190.598 201.966 192.885 197.11Z" fill="#3F3D56"/>
<g opacity="0.1">
<path opacity="0.1" d="M103.24 195.445C107.796 195.017 112.299 194.072 116.678 192.624C115.442 192.813 114.206 192.972 112.964 193.085C104.353 193.88 94.9317 193.085 87.1723 196.421C92.4597 195.824 98.0011 195.93 103.24 195.445Z" fill="black"/>
<path opacity="0.1" d="M95.5771 281.401C93.4141 283.368 92.2743 286.349 90.9284 289.064C86.7671 297.328 80.103 303.719 72.1 307.121C72.7111 307.076 73.3223 307.015 73.9334 306.932C85.078 305.419 95.2819 297.552 100.713 286.704C102.087 283.988 103.192 281.008 105.362 279.041L105.733 278.724C101.963 278.625 98.3513 278.875 95.5771 281.401Z" fill="black"/>
<path opacity="0.1" d="M189.905 181.118C186.471 176.776 181.417 174.363 176.329 173.047C169.462 171.277 162.101 171.299 155.523 174.083L155.084 174.28C158.954 174.037 162.835 174.417 166.606 175.407C171.694 176.723 176.755 179.136 180.181 183.486C183.608 187.836 185.05 194.409 182.646 199.523C180.36 204.379 175.711 202.866 173.095 206.006C170.692 208.873 170.856 212.753 169.236 216.218C166.194 222.701 161.586 228.162 155.434 230.757C157.583 230.197 159.89 229.947 162.033 229.433C169.778 227.557 175.416 221.392 178.952 213.858C180.58 210.393 180.415 206.512 182.811 203.645C185.434 200.506 190.083 202.011 192.363 197.163C194.766 192.064 193.331 185.483 189.905 181.118Z" fill="black"/>
<path opacity="0.1" d="M152.316 231.801C148.1 232.814 143.28 232.792 140.197 236.113C136.372 240.235 137.278 247.058 136.811 252.921C135.994 263.171 129.45 272.347 120.984 276.515H121.609C134.099 276.091 145.436 264.29 146.528 250.576C147.002 244.706 146.095 237.883 149.92 233.767C150.796 232.846 151.827 232.122 152.955 231.634L152.316 231.801Z" fill="black"/>
</g>
<path d="M193.091 265.955C192.521 267.067 191.347 267.581 190.255 268.027C178.952 272.611 167.059 277.279 155.139 275.35C154.692 273.285 154.253 271.212 153.813 269.147C153.177 266.151 152.536 263.156 151.891 260.16C151.589 258.73 151.28 257.286 151.032 255.833C150.606 253.54 150.47 251.193 150.627 248.859C150.7 248.013 150.838 247.175 151.039 246.355C151.392 244.863 151.982 243.451 152.783 242.187C152.921 241.983 153.065 241.778 153.216 241.582C153.895 240.68 154.719 239.923 155.647 239.35C157.672 238.125 160.453 237.603 161.271 235.227C161.587 233.985 161.556 232.667 161.181 231.445C160.495 228.419 159.252 225.575 158.483 222.579C157.508 218.797 158.977 219.032 162.294 218.116C168.268 216.46 174.516 215.272 180.648 216.603C180.36 219.939 180.078 223.359 180.841 226.611C181.603 229.864 183.642 232.95 186.574 233.851C187.007 233.987 187.467 234.07 187.948 234.183C188.584 234.296 189.189 234.571 189.712 234.985C190.074 235.314 190.361 235.731 190.55 236.203C190.849 237.002 191.045 237.842 191.134 238.7C192.209 246.637 192.985 254.613 193.461 262.626V262.929C193.603 263.956 193.474 265.006 193.091 265.955Z" fill="#FBBEBE"/>
<path d="M134.903 252.921C132.334 257.225 131.469 262.46 130.686 267.543L125.701 299.39C125.015 303.747 124.403 308.536 126.429 312.356C127.116 313.649 128.077 314.769 128.578 316.138C128.957 317.516 129.206 318.933 129.32 320.367C130.487 327.666 137.004 332.591 143.541 334.361C145.903 335.004 148.663 335.254 150.524 333.521C152.584 331.638 152.584 328.052 151.369 325.465C150.153 322.878 147.935 321.047 145.786 319.315L138.665 313.536L142.785 278.739C143.088 276.212 144.159 272.937 146.48 273.217C148.595 273.466 150.222 276.863 152.104 275.766C152.693 275.326 153.108 274.655 153.264 273.89C154.088 271.038 153.861 267.967 153.628 264.979L152.776 254.192C152.495 250.689 153.312 248.064 153.697 244.774C154.143 240.939 151.822 242.104 148.959 242.928C143.458 244.532 138.082 247.58 134.903 252.921Z" fill="#FBBEBE"/>
<path d="M223.448 305.222C222.925 306.192 222.15 306.967 221.223 307.446C215.664 310.9 209.125 311.913 202.917 310.283C201.486 309.82 200.033 309.446 198.563 309.164C196.215 308.846 193.825 309.36 191.456 309.164C186.65 308.763 182.427 305.457 179.096 301.599C177.091 299.33 175.272 295.615 177.139 293.18C177.661 292.592 178.309 292.159 179.023 291.921C179.738 291.683 180.495 291.647 181.225 291.818C182.679 292.175 184.081 292.75 185.393 293.528C189.989 295.875 194.905 297.367 199.944 297.945C203.377 298.339 207.744 297.696 208.932 294.103C209.509 292.355 209.104 290.419 208.699 288.611C207.591 283.658 206.483 278.704 205.375 273.746C205.299 273.314 205.16 272.897 204.963 272.513C204.907 272.409 204.84 272.313 204.764 272.226C204.326 271.824 203.796 271.562 203.233 271.469C200.671 270.773 198.11 269.646 196.277 267.566C195.075 266.089 194.118 264.392 193.448 262.551C193.255 262.089 193.077 261.62 192.892 261.151C191.484 257.535 190.001 253.829 188.854 250.031C188.053 247.465 187.463 244.824 187.089 242.142C186.787 239.819 186.622 238.753 187.776 237.724C188.085 237.467 188.414 237.239 188.758 237.043C189.287 236.733 189.884 236.423 190.516 236.128L191.127 235.848C193.005 235.02 194.935 234.343 196.902 233.821C201.667 232.603 206.755 235.144 210.024 239.161C213.292 243.178 214.988 248.435 216.073 253.693C217.158 258.95 217.715 264.336 219.074 269.51C219.603 271.537 220.262 273.534 220.715 275.562C221.202 277.973 221.548 280.417 221.752 282.877C222.398 289.145 223.041 295.414 223.682 301.682C223.919 302.862 223.837 304.093 223.448 305.222Z" fill="#FBBEBE"/>
<path d="M152.941 302.499C154.315 312.151 150.366 321.645 146.548 330.488C148.711 332.228 151.355 333.09 153.937 333.839C171.217 338.843 189.182 340.333 206.948 338.234C207.373 334.966 207.772 331.502 206.556 328.491C205.801 326.623 204.496 325.102 203.665 323.271C202.292 320.246 202.429 316.728 202.58 313.369L203.81 284.753C195.288 280.426 185.407 284.48 176.034 285.063C171.179 285.365 166.263 284.715 161.477 285.66C158.991 286.152 151.177 287.506 150.002 290.328C148.828 293.149 152.522 299.428 152.941 302.499Z" fill="#FBBEBE"/>
<path opacity="0.05" d="M152.941 302.499C154.315 312.151 150.366 321.645 146.548 330.488C148.711 332.228 151.355 333.09 153.937 333.839C171.217 338.843 189.182 340.333 206.948 338.234C207.373 334.966 207.772 331.502 206.556 328.491C205.801 326.623 204.496 325.102 203.665 323.271C202.292 320.246 202.429 316.728 202.58 313.369L203.81 284.753C195.288 280.426 185.407 284.48 176.034 285.063C171.179 285.365 166.263 284.715 161.477 285.66C158.991 286.152 151.177 287.506 150.002 290.328C148.828 293.149 152.522 299.428 152.941 302.499Z" fill="black"/>
<path d="M175.519 330.201C166.283 328.083 157.205 324.58 147.778 324.338C147.304 324.285 146.827 324.385 146.404 324.626C145.944 325.045 145.637 325.633 145.539 326.282C144.564 329.989 143.692 333.723 142.923 337.485C140.368 349.99 139.112 363.802 144.729 375.028C144.674 371.382 146.754 367.97 149.535 365.951C152.316 363.931 155.647 363.114 158.943 362.781C162.239 362.448 165.761 362.584 168.831 364.075C170.976 365.148 172.826 366.825 174.197 368.936C175.567 371.048 176.409 373.519 176.638 376.102L209.083 377.26C209.273 377.321 209.474 377.329 209.667 377.283C209.861 377.237 210.04 377.138 210.191 376.996C210.341 376.854 210.456 376.673 210.526 376.47C210.597 376.266 210.62 376.046 210.594 375.83C211.79 364.364 211.746 352.783 210.463 341.328C210.106 338.128 210.058 333.688 206.79 332.485C202.889 331.048 196.723 332.727 192.555 332.53C186.828 332.265 181.131 331.486 175.519 330.201Z" fill="#3F3D56"/>
<path d="M204.97 274.162L204.867 290.048L172.044 291.251C166.022 291.478 159.952 291.705 154.081 293.18C152.392 293.603 150.723 294.133 149.062 294.655C147.331 287.673 145.628 280.358 146.081 273.239C146.207 271.319 146.51 269.418 146.988 267.566C148.032 263.572 149.989 259.805 151.032 255.856C151.453 254.319 151.684 252.726 151.719 251.121C151.641 249.518 151.411 247.928 151.032 246.378C150.731 245.106 150.588 243.796 150.607 242.482L153.209 241.597C153.285 241.937 153.346 242.27 153.401 242.618C153.511 243.337 153.6 244.07 153.662 244.804C153.809 246.623 153.855 248.449 153.8 250.273C153.71 253.92 153.264 257.982 155.331 260.864C158.016 264.563 163.179 263.988 167.396 263.065L178.437 260.637C181.925 259.88 185.819 258.806 187.639 255.44C188.415 253.805 188.825 251.99 188.833 250.145V249.782C188.998 245.764 188.635 241.741 187.755 237.837C187.487 236.612 187.158 235.402 186.787 234.214H187.893C188.529 234.327 189.134 234.601 189.657 235.016C190.019 235.344 190.306 235.761 190.495 236.234L191.106 235.954C193.542 246.925 197.558 257.396 202.999 266.968C203.699 268.064 204.254 269.264 204.647 270.531C204.811 271.219 204.903 271.924 204.922 272.634C204.977 273.081 204.97 273.618 204.97 274.162Z" fill="#8F5AFF"/>
<path d="M170.293 226.082C181.291 226.082 190.207 216.26 190.207 204.145C190.207 192.029 181.291 182.208 170.293 182.208C159.296 182.208 150.38 192.029 150.38 204.145C150.38 216.26 159.296 226.082 170.293 226.082Z" fill="#FBBEBE"/>
<path d="M134.903 252.921C132.334 257.225 131.469 262.46 130.686 267.543L125.701 299.39C125.015 303.747 124.403 308.536 126.429 312.356C127.116 313.649 128.077 314.769 128.578 316.138C128.957 317.516 129.206 318.933 129.32 320.367C130.487 327.666 137.004 332.591 143.541 334.361C145.903 335.004 148.663 335.254 150.524 333.521C152.584 331.638 152.584 328.052 151.369 325.465C150.153 322.878 147.935 321.047 145.786 319.315L138.665 313.536L142.785 278.739C143.06 276.235 138.082 247.58 134.903 252.921Z" fill="#FBBEBE"/>
<path d="M216.08 253.738C217.165 258.995 217.721 264.381 219.081 269.556C219.61 271.59 220.269 273.58 220.722 275.607C221.208 278.016 221.555 280.457 221.759 282.915L223.689 301.72C223.911 302.881 223.827 304.089 223.448 305.2C222.923 306.168 222.149 306.942 221.223 307.424C215.661 310.868 209.126 311.881 202.917 310.26C201.488 309.79 200.034 309.416 198.563 309.141C196.215 308.816 193.825 309.338 191.456 309.141C186.65 308.74 182.427 305.442 179.096 301.614C177.091 299.345 175.272 295.623 177.139 293.187C177.661 292.599 178.309 292.166 179.023 291.928C179.738 291.69 180.495 291.655 181.225 291.826C182.679 292.185 184.082 292.763 185.393 293.543C189.99 295.884 194.906 297.374 199.944 297.953C203.377 298.354 207.744 297.711 208.932 294.11C209.509 292.363 209.104 290.426 208.699 288.618L205.375 273.754C205.238 273.239 214.995 248.488 216.08 253.738Z" fill="#FBBEBE"/>
<path d="M157.968 210.9C157.082 207.398 155.839 203.018 158.332 200.642C159.227 199.881 160.307 199.426 161.435 199.334C167.032 198.577 172.82 202.208 178.176 200.272C179.885 199.657 181.395 198.51 182.525 196.971C183.655 195.431 184.356 193.564 184.544 191.595C184.732 189.626 184.399 187.639 183.585 185.874C182.77 184.109 181.51 182.641 179.955 181.648C177.613 180.135 174.818 179.84 172.12 179.575C165.013 178.857 157.604 178.191 150.957 181.088C144.31 183.985 138.707 191.444 140.08 199.167C140.719 202.851 142.785 206.021 144.887 208.956C146.5 211.187 152.976 221.816 155.578 221.664C159.245 221.437 158.544 213.177 157.968 210.9Z" fill="#3F3D56"/>
<path opacity="0.1" d="M179.955 181.648C179.558 181.395 179.145 181.175 178.719 180.99C179.924 182.195 180.822 183.728 181.321 185.435C181.82 187.142 181.903 188.964 181.563 190.718C181.222 192.472 180.469 194.096 179.38 195.429C178.29 196.762 176.902 197.756 175.354 198.312C169.998 200.249 164.209 196.618 158.613 197.374C157.484 197.466 156.405 197.921 155.509 198.683C153.017 201.058 154.26 205.438 155.145 208.941C155.722 211.21 156.423 219.478 152.77 219.705H152.708C153.841 220.923 154.864 221.717 155.592 221.672C159.245 221.445 158.544 213.184 157.968 210.907C157.082 207.405 155.839 203.025 158.332 200.65C159.227 199.888 160.307 199.433 161.435 199.341C167.032 198.585 172.82 202.216 178.176 200.279C179.885 199.664 181.395 198.518 182.525 196.978C183.655 195.438 184.356 193.571 184.544 191.602C184.732 189.633 184.399 187.646 183.585 185.881C182.77 184.116 181.51 182.648 179.955 181.655V181.648Z" fill="black"/>
<path d="M472.427 454.531H248.573V530.934H472.427V454.531Z" fill="#3F3D56"/>
<path d="M350.887 479.222V506.228L370.113 492.725L350.887 479.222Z" fill="white"/>
<path d="M179.22 25.8171L168.563 33.2606L175.031 20.3025C173.198 18.6905 170.929 17.7987 168.584 17.7684H168.412C167.671 17.7803 166.931 17.7196 166.201 17.5869L162.589 20.1059L164.141 17.0044C161.578 16.0224 159.366 14.1679 157.823 11.7092L151.355 16.2479L155.441 8.07065C151.657 3.07048 146.562 0.00683594 140.959 0.00683594C134.236 0.00683594 128.249 4.40941 124.383 11.2705C123.24 13.3306 121.62 15.0188 119.689 16.1619C117.758 17.3051 115.587 17.8622 113.396 17.776H113.032C105.609 17.776 99.5941 27.0426 99.5941 38.4802C99.5941 49.9178 105.609 59.1844 113.032 59.1844C114.665 59.176 116.272 58.7321 117.715 57.8908C120.24 56.5369 123.003 55.8045 125.811 55.7444C128.618 55.6843 131.405 56.298 133.976 57.5429C136.151 58.6149 138.507 59.1691 140.89 59.1691C143.273 59.1691 145.63 58.6149 147.805 57.5429C150.358 56.3236 153.119 55.7237 155.901 55.7837C158.683 55.8438 161.42 56.5624 163.928 57.8908C165.356 58.7144 166.944 59.1477 168.556 59.1541C175.979 59.1541 181.994 49.88 181.994 38.4499C182.045 34.0494 181.091 29.7054 179.22 25.8171Z" fill="#F2F2F2"/>
<path opacity="0.03" d="M159.128 56.114C155.257 55.3054 151.256 55.7846 147.633 57.4908C145.457 58.5605 143.101 59.1134 140.719 59.1134C138.336 59.1134 135.98 58.5605 133.804 57.4908C131.232 56.2486 128.446 55.637 125.638 55.6984C122.831 55.7597 120.069 56.4926 117.544 57.8463C116.099 58.6844 114.493 59.1256 112.861 59.1323C106.269 59.1323 100.782 51.8174 99.6422 42.165C100.956 41.1038 102.075 39.7765 102.938 38.2541C106.804 31.3855 112.792 26.9829 119.514 26.9829C126.237 26.9829 132.149 31.3325 135.994 38.1255C137.151 40.1686 138.767 41.8484 140.686 43.0025C142.605 44.1567 144.761 44.7463 146.947 44.7142H147.118C152.371 44.7142 156.917 49.3513 159.128 56.114Z" fill="black"/>
<path d="M543.84 194.538L538.525 198.252L541.753 191.784C540.838 190.982 539.708 190.538 538.539 190.521H538.45C538.082 190.528 537.714 190.5 537.351 190.438L535.518 191.709L536.294 190.158C535.017 189.67 533.913 188.748 533.142 187.525L529.914 189.795L531.974 185.717C531.117 184.498 530.024 183.505 528.774 182.808C527.525 182.112 526.15 181.731 524.751 181.693C521.4 181.693 518.413 183.887 516.511 187.314C515.938 188.342 515.128 189.185 514.163 189.755C513.197 190.325 512.112 190.603 511.017 190.559H510.839C507.138 190.559 504.137 195.188 504.137 200.884C504.137 206.581 507.138 211.218 510.839 211.218C511.653 211.214 512.454 210.993 513.174 210.575C514.433 209.899 515.81 209.533 517.21 209.502C518.61 209.47 520 209.774 521.283 210.393C522.362 210.931 523.532 211.212 524.716 211.218C525.899 211.213 527.067 210.94 528.15 210.416C529.423 209.808 530.799 209.508 532.187 209.536C533.574 209.565 534.939 209.922 536.191 210.582C536.902 210.996 537.693 211.214 538.498 211.218C542.199 211.218 545.2 206.588 545.2 200.884C545.24 198.676 544.772 196.493 543.84 194.538Z" fill="#F2F2F2"/>
<path opacity="0.03" d="M533.794 209.652C531.861 209.243 529.861 209.483 528.054 210.34C526.973 210.871 525.803 211.145 524.62 211.145C523.437 211.145 522.267 210.871 521.187 210.34C519.904 209.722 518.515 209.418 517.115 209.448C515.715 209.478 514.337 209.842 513.077 210.514C512.358 210.936 511.557 211.159 510.743 211.165C507.453 211.165 504.721 207.511 504.151 202.7C504.806 202.171 505.364 201.509 505.792 200.748C507.721 197.321 510.708 195.128 514.032 195.128C517.355 195.128 520.335 197.299 522.272 200.68C522.849 201.708 523.659 202.554 524.622 203.133C525.585 203.713 526.668 204.007 527.765 203.986H527.848C530.423 203.963 532.695 206.278 533.794 209.652Z" fill="black"/>
<path d="M555.603 98.0821L564.138 104.051L558.947 93.6644C560.416 92.376 562.233 91.6628 564.11 91.6371H564.248C564.841 91.6469 565.434 91.5988 566.019 91.4934L568.917 93.5131L567.674 91.032C569.723 90.2402 571.494 88.7581 572.735 86.7958L577.919 90.4117L574.644 83.8608C577.672 79.8515 581.758 77.4006 586.249 77.4006C591.639 77.4006 596.432 80.9257 599.529 86.4252C600.444 88.0708 601.74 89.42 603.282 90.3354C604.825 91.2509 606.56 91.7 608.311 91.6371H608.6C614.546 91.6371 619.367 99.0655 619.367 108.226C619.367 117.387 614.56 124.815 608.6 124.815C607.292 124.808 606.006 124.452 604.85 123.779C602.825 122.691 600.608 122.102 598.355 122.054C596.102 122.006 593.866 122.499 591.804 123.499C590.061 124.357 588.174 124.8 586.266 124.8C584.357 124.8 582.47 124.357 580.728 123.499C578.683 122.521 576.471 122.039 574.243 122.086C572.014 122.133 569.821 122.708 567.812 123.771C566.664 124.43 565.39 124.777 564.097 124.785C558.15 124.785 553.33 117.357 553.33 108.196C553.308 104.668 554.089 101.191 555.603 98.0821Z" fill="#F2F2F2"/>
<path opacity="0.03" d="M571.691 122.357C574.799 121.705 578.012 122.089 580.92 123.461C582.662 124.319 584.549 124.762 586.458 124.762C588.366 124.762 590.253 124.319 591.996 123.461C594.059 122.464 596.295 121.973 598.548 122.023C600.801 122.073 603.017 122.661 605.043 123.749C606.199 124.42 607.485 124.772 608.792 124.777C614.072 124.777 618.467 118.915 619.387 111.161C618.328 110.315 617.43 109.249 616.743 108.022C613.647 102.53 608.847 98.9973 603.463 98.9973C598.08 98.9973 593.335 102.485 590.238 107.923C589.313 109.564 588.019 110.913 586.481 111.84C584.944 112.768 583.215 113.243 581.462 113.219H581.325C577.109 113.226 573.463 116.94 571.691 122.357Z" fill="black"/>
</svg>
