<svg width="607" height="413" viewBox="0 0 607 413" fill="none" xmlns="http://www.w3.org/2000/svg">
<g clip-path="url(#clip0)">
<path opacity="0.1" d="M352.259 68.091C313.391 66.7091 276.375 53.9512 241.049 39.9774C205.722 26.0036 170.685 10.5195 132.749 3.1175C108.321 -1.64397 80.4146 -2.31347 60.7543 11.0069C41.836 23.8184 35.7212 45.9386 32.4374 66.4574C29.9641 81.8987 28.5117 98.1541 35.2844 112.605C39.989 122.642 48.3404 131.077 54.1184 140.691C74.2313 174.134 60.0228 215.381 38.2313 248.041C28.0118 263.359 16.1609 277.976 8.27784 294.285C0.394795 310.594 -3.25203 329.281 3.64695 345.917C10.488 362.402 26.7751 374.791 44.4251 383.5C80.2725 401.174 122.514 406.257 163.702 409.128C254.884 415.475 346.549 412.727 437.972 409.974C471.804 408.957 505.789 407.923 539.068 402.599C557.555 399.643 576.636 394.951 590.055 383.617C607.089 369.237 611.31 344.883 599.896 326.844C580.751 296.593 527.801 289.084 514.429 256.616C507.062 238.749 514.629 218.841 525.333 202.269C548.298 166.716 586.787 135.528 588.818 94.887C590.208 66.9769 571.705 39.0294 543.094 25.7947C513.098 11.9549 471.525 13.6956 449.397 36.6085C426.616 60.2284 386.58 69.3068 352.259 68.091Z" fill="#71FF80"/>
<g opacity="0.5">
<path opacity="0.5" d="M263.519 215.619L245.911 215.988L243.032 220.011V233.909L246.626 236.469H263.519L267.113 232.447V219.277L263.519 215.619Z" fill="#71FF80"/>
<path opacity="0.2" d="M263.15 217.817C263.15 217.817 246.979 220.377 245.542 217.817L245.906 215.991L263.15 215.605V217.817Z" fill="white"/>
<path opacity="0.5" d="M264.955 255.855L267.828 258.785V272.71L264.955 275.592C264.955 275.592 254.536 279.25 247.705 276.32L244.469 273.032V259.106L247.347 255.812L264.955 255.855Z" fill="#71FF80"/>
<path opacity="0.2" d="M264.234 259.149C264.234 259.149 251.657 262.074 247.347 259.149V255.855H264.955L264.234 259.149Z" fill="white"/>
<path opacity="0.5" d="M258.125 236.375V256.16C258.084 256.943 257.74 257.679 257.168 258.204C256.596 258.73 255.843 259.004 255.073 258.967C254.303 259.004 253.549 258.73 252.977 258.204C252.405 257.679 252.061 256.943 252.021 256.16V236.375C252.021 234.693 253.599 233.392 255.43 233.584C256.139 233.629 256.806 233.938 257.304 234.454C257.801 234.969 258.094 235.653 258.125 236.375Z" fill="#71FF80"/>
<path opacity="0.5" d="M291.72 216.189L274.112 216.553L271.233 220.575V234.474L274.828 237.034H291.72L295.314 233.012V219.842L291.72 216.189Z" fill="#71FF80"/>
<path opacity="0.2" d="M291.356 218.38C291.356 218.38 275.185 220.94 273.749 218.38L274.106 216.553L291.356 216.189V218.38Z" fill="white"/>
<path opacity="0.5" d="M293.146 256.418L296.019 259.348V273.273L293.146 276.171C293.146 276.171 282.721 279.829 275.896 276.899L272.659 273.611V259.712L275.538 256.418H293.146Z" fill="#71FF80"/>
<path opacity="0.2" d="M292.435 259.712C292.435 259.712 279.858 262.636 275.548 259.712V256.418H293.146L292.435 259.712Z" fill="white"/>
<path opacity="0.5" d="M286.304 236.938V256.723C286.262 257.506 285.918 258.24 285.346 258.766C284.774 259.291 284.022 259.566 283.252 259.529C282.482 259.567 281.728 259.294 281.155 258.768C280.582 258.242 280.237 257.507 280.195 256.723V236.938C280.195 235.256 281.774 233.955 283.61 234.147C284.319 234.192 284.986 234.501 285.483 235.017C285.981 235.532 286.273 236.216 286.304 236.938Z" fill="#71FF80"/>
<path opacity="0.5" d="M327.62 226.767L313.122 227.072L310.754 230.382V241.823L313.711 243.933H327.62L330.577 240.618V229.777L327.62 226.767Z" fill="#71FF80"/>
<path opacity="0.2" d="M327.32 228.577C327.32 228.577 314.011 230.682 312.827 228.577L313.122 227.072L327.33 226.767L327.32 228.577Z" fill="white"/>
<path opacity="0.5" d="M328.798 259.888L331.166 262.298V273.739L328.798 276.149C328.798 276.149 320.221 279.159 314.59 276.749L311.927 274.039V262.598L314.295 259.888H328.798Z" fill="#71FF80"/>
<path opacity="0.2" d="M328.209 262.598C328.209 262.598 317.853 265.009 314.306 262.598V259.888H328.798L328.209 262.598Z" fill="white"/>
<path opacity="0.5" d="M323.178 243.852V260.139C323.144 260.785 322.86 261.39 322.389 261.822C321.917 262.255 321.296 262.48 320.662 262.448C320.029 262.48 319.409 262.255 318.938 261.822C318.468 261.389 318.185 260.784 318.152 260.139V243.852C318.172 243.507 318.263 243.171 318.419 242.864C318.574 242.557 318.791 242.287 319.055 242.071C319.319 241.854 319.625 241.697 319.952 241.608C320.28 241.519 320.622 241.5 320.957 241.554C321.541 241.59 322.09 241.845 322.5 242.269C322.91 242.694 323.152 243.257 323.178 243.852Z" fill="#71FF80"/>
<path opacity="0.5" d="M350.832 227.233L336.334 227.533L333.971 230.843V242.289L336.929 244.394H350.832L353.789 241.084V230.243L350.832 227.233Z" fill="#71FF80"/>
<path opacity="0.2" d="M350.537 229.038C350.537 229.038 337.224 231.148 336.04 229.038L336.334 227.533L350.543 227.233L350.537 229.038Z" fill="white"/>
<path opacity="0.5" d="M352.016 260.354L354.379 262.759V274.2L352.016 276.61C352.016 276.61 343.433 279.62 337.807 277.215L335.15 274.521V263.065L337.518 260.354H352.016Z" fill="#71FF80"/>
<path opacity="0.2" d="M351.422 263.065C351.422 263.065 341.071 265.469 337.519 263.065V260.354H352.016L351.422 263.065Z" fill="white"/>
<path opacity="0.5" d="M346.396 244.313V260.595C346.362 261.241 346.078 261.846 345.606 262.278C345.135 262.711 344.514 262.936 343.88 262.904C343.246 262.936 342.625 262.711 342.154 262.278C341.683 261.846 341.399 261.241 341.365 260.595V244.313C341.365 242.931 342.68 241.86 344.175 242.021C344.758 242.056 345.308 242.31 345.718 242.733C346.128 243.156 346.369 243.719 346.396 244.313Z" fill="#71FF80"/>
</g>
<path d="M552.055 286.342C550.924 284.258 548.808 282.887 546.582 282.255C544.33 281.704 542.001 281.555 539.699 281.816C535.98 282.085 532.293 282.704 528.685 283.664C526.448 284.263 524.128 285.067 522.617 286.877C522.575 286.931 522.528 286.995 522.481 287.049C520.17 287.665 517.876 288.613 515.639 289.384C513.395 290.142 511.111 290.773 508.798 291.274C511.824 289.523 514.771 287.67 517.266 285.195C518.445 284.031 519.503 282.746 520.423 281.361C522.132 281.859 523.926 281.981 525.685 281.719C529.248 281.098 532.126 278.506 534.805 275.978L543.42 267.912C544.793 266.626 546.188 265.309 547.103 263.627C548.34 261.286 548.45 258.501 548.482 255.829C548.524 252.154 548.482 248.48 548.377 244.811L551.103 246.954C550.688 242.428 551.515 237.875 553.492 233.799C554.439 231.855 555.681 229.922 555.707 227.742C555.749 224.378 552.908 221.732 549.998 220.243C547.087 218.754 543.814 217.801 541.43 215.514C537.884 212.113 537.22 206.687 535.468 202.028C534.429 199.476 533.197 197.011 531.784 194.652L528.374 188.6C526.66 185.411 524.747 182.336 522.649 179.393C519.102 174.632 514.634 170.706 510.198 166.823L487.128 146.593C481.518 141.671 475.887 136.744 469.82 132.437C457.511 123.702 443.624 117.703 429.826 111.763C426.353 110.264 422.737 108.742 418.98 108.925C416.15 109.111 413.468 110.279 411.381 112.235C409.404 111.623 407.47 110.875 405.593 109.996L405.445 109.926C405.487 109.61 405.535 109.299 405.566 108.983C405.614 108.566 405.64 108.148 405.671 107.725C406.711 107.562 407.717 107.227 408.65 106.734C409.124 106.506 409.542 106.175 409.876 105.764C410.3 105.049 410.517 104.227 410.502 103.392C410.923 97.7948 411.344 92.1442 410.892 86.574C410.439 81.0038 409.066 75.3639 406.156 70.6292C405.256 69.1617 404.13 67.7316 402.567 67.0943C400.462 66.2373 398.025 67.0354 395.778 66.6497C391.889 65.9802 389.463 62.1078 386.648 59.2531C379.528 52.0279 367.351 50.9406 359.131 56.7894C356.016 59.0121 353.521 62.0275 350.743 64.6841C347.964 67.3406 344.707 69.7455 340.955 70.265C340.263 70.2948 339.586 70.4776 338.971 70.8006C338.203 71.2934 337.855 72.2414 337.56 73.1198C336.508 76.1512 335.498 79.2631 335.177 82.4338C335.14 82.241 335.108 82.0482 335.077 81.8554C334.934 83.0297 334.904 84.2154 334.987 85.3957C335.092 86.8999 335.52 88.3623 336.24 89.6805C336.839 90.9335 337.86 91.9258 339.118 92.4763C340.008 92.7967 340.948 92.951 341.891 92.9316H342.307C342.155 93.344 342.007 93.7564 341.87 94.1741C340.699 97.7136 340.103 101.424 340.107 105.159C340.107 123.905 354.805 139.095 372.95 139.095C375.134 139.084 377.311 138.851 379.449 138.399C380.159 138.629 380.87 138.864 381.554 139.116C382.955 139.587 384.329 140.138 385.669 140.766C386.238 141.039 388.537 142.405 391.316 144.167L391.126 144.569C388.415 147.145 386.427 150.41 385.364 154.027C384.302 157.644 384.204 161.483 385.08 165.152C387.09 173.116 393.684 179.945 393.021 188.145C392.926 189.313 392.684 190.496 392.879 191.653C393.147 193.26 394.215 194.567 395.284 195.756C396.21 196.795 397.173 197.802 398.152 198.787C398.073 204.02 397.625 209.247 397.141 214.464C397.099 214.919 397.089 215.38 397.083 215.846C397.112 218.101 397.916 220.275 399.357 221.989C400.883 223.88 401.493 226.713 401.204 229.241C400.788 232.862 399.036 236.145 397.862 239.578C392.568 255.02 399.072 272.432 395.41 288.377C394.51 292.303 392.994 296.122 392.779 300.16C392.658 302.683 393.047 305.329 392.095 307.658C391.268 309.683 389.548 311.145 387.921 312.565C385.624 314.568 383.385 316.639 381.207 318.777C377.914 316.945 374.515 315.318 371.029 313.904C370.461 313.67 369.881 313.467 369.293 313.293C365.177 309.372 359.989 306.866 355.116 303.984C351.074 301.601 347.222 298.923 343.349 296.245C339.665 293.674 335.903 291.082 332.788 287.777C331.209 286.106 329.804 284.263 328.104 282.737C326.61 281.471 325.027 280.318 323.368 279.288C315.901 274.365 308.783 268.915 302.066 262.979C296.945 258.458 292.757 252.636 287.284 248.582C283.932 246.097 280.032 243.831 275.928 244.297C274.621 244.454 273.353 244.851 272.186 245.47C271.098 245.001 269.936 244.736 268.755 244.688C265.419 244.581 262.356 246.423 259.493 248.196C242.653 258.612 225.551 268.563 208.185 278.051C204.68 279.968 201.154 281.869 197.807 284.065C191.277 288.364 185.491 293.734 180.684 299.956C179.8 301.097 178.684 302.393 177.279 302.222C176.894 302.162 176.524 302.028 176.19 301.826C174.027 300.631 172.701 298.323 171.453 296.132C170.548 294.526 169.569 292.849 168.243 291.628C167.96 290.868 167.581 290.148 167.117 289.486C168.985 284.794 170.596 279.989 172.09 275.153C172.869 272.614 173.622 270.059 174.616 267.596C177.068 261.501 180.978 255.979 182.362 249.53C182.694 247.971 182.889 246.37 183.146 244.795C198.276 241.764 209.695 228.01 209.695 211.492C209.695 192.746 194.992 177.556 176.853 177.556C158.713 177.556 144.015 192.746 144.015 211.492C143.999 217.197 145.393 222.816 148.069 227.83C150.745 232.844 154.617 237.092 159.329 240.184C159.329 240.248 159.329 240.312 159.329 240.371C159.297 241.448 159.194 242.522 159.018 243.585C158.413 247.173 156.913 250.548 155.403 253.82C154.403 256.011 153.403 258.212 152.367 260.397C151.869 260.295 151.387 260.13 150.93 259.904C150.041 259.401 149.651 258.298 149.315 257.323C147.824 252.856 146 248.512 143.857 244.329C143.022 242.551 141.96 240.893 140.7 239.396C138.479 236.922 135.438 235.454 132.496 233.971C131.97 233.714 131.48 233.435 130.975 233.189C130.538 232.858 130.081 232.556 129.607 232.284C127.16 230.875 124.445 229.863 122.403 227.892C120.871 226.413 119.819 224.491 118.388 222.921C116.004 220.313 112.715 218.824 109.52 217.405C107.858 216.666 106.11 215.91 104.295 216.012C104.039 216.025 103.784 216.053 103.532 216.098C103.095 216.174 102.663 216.274 102.237 216.398C101.823 216.174 101.432 215.908 101.069 215.605C99.1167 214.073 98.3589 211.443 97.7222 208.996C96.6697 204.904 95.5594 200.667 96.2119 196.479C96.3255 195.756 96.4801 195.041 96.675 194.336C96.8381 194.063 96.996 193.801 97.1381 193.506C101.328 192.225 105.156 189.942 108.303 186.85C111.451 183.757 113.827 179.944 115.233 175.728C116.639 171.511 117.035 167.014 116.387 162.61C115.739 158.207 114.067 154.025 111.51 150.412C111.241 150.037 110.983 149.673 110.683 149.309L110.999 149.132C113.909 147.322 114.572 142.994 113.225 139.77C111.878 136.545 109.015 134.269 106.116 132.48C105.695 132.218 105.268 131.971 104.837 131.725L104.469 131.521C104.142 131.339 103.821 131.163 103.495 130.986L103.111 130.788C102.727 130.59 102.343 130.402 101.958 130.22L101.785 130.134C101.306 129.915 100.827 129.7 100.343 129.497C99.8745 129.299 99.4062 129.117 98.9325 128.961L98.7378 128.886C98.2905 128.72 97.838 128.565 97.3854 128.415L97.2854 128.383C93.9754 127.288 90.5247 126.696 87.0448 126.626C83.6383 126.647 80.2433 127.029 76.9147 127.767C73.674 128.364 70.5006 129.292 67.4425 130.536C62.3882 132.716 57.9321 136.117 54.4602 140.445C53.7284 140.501 53.0029 140.623 52.2921 140.809C49.4451 141.542 46.8823 143.16 44.5406 144.992C42.5792 146.459 40.8414 148.214 39.3834 150.198C37.6664 152.74 36.4823 155.615 35.905 158.644C33.9106 168.14 36.3628 177.926 38.1678 187.47C39.9728 197.014 41.0148 207.416 36.5891 215.98C34.9209 219.194 32.5529 221.984 30.8005 225.139C29.0481 228.293 27.8325 232.101 28.8429 235.599C30.069 239.846 34.1053 242.519 36.2102 246.375C38.673 250.869 37.9942 256.905 34.7736 260.836C34.6315 261.008 34.4894 261.179 34.3368 261.372C34.1842 261.565 33.9684 261.768 33.7685 261.95C37.089 263.139 40.7885 261.859 43.767 259.953C46.149 258.52 48.1691 256.541 49.6661 254.174C53.4287 247.886 51.7395 239.755 53.0656 232.487C54.8075 222.97 61.838 214.48 60.8697 204.845C60.2172 198.38 56.0704 192.976 52.813 187.417C50.6478 183.685 48.833 179.754 47.3928 175.676C47.3349 175.505 47.277 175.328 47.2139 175.141C46.2614 172.382 45.5299 169.458 46.0193 166.571C46.1862 165.636 46.4618 164.724 46.8402 163.856C46.8402 163.957 46.8402 164.064 46.8402 164.166C46.9042 166.958 47.5143 169.71 48.6347 172.259C51.9237 179.222 59.8383 182.435 64.8639 188.081C65.0744 188.316 65.2743 188.557 65.4743 188.804C65.5322 188.868 65.5848 188.938 65.6375 189.007L66.0637 189.543L66.2426 189.795C66.3742 189.982 66.5057 190.169 66.6268 190.362L66.7899 190.603C66.9583 190.876 67.1267 191.139 67.2846 191.433C68.5633 189.993 69.8842 188.477 70.3999 186.613C70.4473 186.452 70.4788 186.286 70.5104 186.12C70.5525 186.163 70.5894 186.211 70.6315 186.26C70.7314 186.833 70.8104 187.406 70.884 187.984C70.884 188.811 70.9704 189.635 71.1419 190.443C71.5418 195.584 71.2208 200.865 70.884 206.023C70.7051 208.782 71.4103 212.879 69.6842 214.936L69.6316 214.994C69.5304 215.114 69.4195 215.225 69.3001 215.327C69.0054 215.637 68.7054 215.942 68.4265 216.264C62.6379 222.905 60.0067 232.332 60.1435 241.362C60.2803 251.64 63.5062 261.597 67.1635 271.157C68.4408 274.648 69.9457 278.047 71.6681 281.334C72.5573 283.108 73.7331 284.718 75.1466 286.095C76.6253 287.429 78.425 288.307 80.1985 289.164C80.6405 289.378 81.0878 289.587 81.5298 289.807L82.6613 290.342L91.2758 294.509C92.8545 296.871 94.3806 299.298 95.9225 301.729C96.1435 302.072 96.3592 302.426 96.5855 302.768C98.2695 305.446 99.964 308.124 101.69 310.727L116.209 332.612C117.261 334.219 118.361 335.826 119.84 337.015C120.261 337.351 120.716 337.64 121.198 337.877C121.442 337.997 121.694 338.102 121.95 338.193C121.631 338.68 121.495 339.267 121.566 339.848C121.76 340.417 122.129 340.907 122.619 341.246C125.902 344.009 129.549 346.923 130.58 351.17C131.312 354.197 130.58 357.437 131.238 360.479C132.443 365.964 137.774 369.29 142.816 371.4C154.114 376.124 166.665 377.94 178.668 375.744C190.672 373.548 202.075 367.212 209.848 357.533C212.237 354.545 214.273 351.283 216.542 348.198C218.12 346.023 219.857 343.951 221.651 341.953C223.588 341.052 225.454 340.002 227.235 338.814C231.029 336.249 234.297 332.955 237.759 329.902C240.343 327.609 243.048 325.446 245.421 322.939C247.552 320.561 249.543 318.058 251.384 315.441C255.594 309.763 259.942 304.198 264.429 298.746C266.829 295.827 269.371 292.854 272.723 291.248L272.875 291.183C273.275 293.583 275.143 295.618 276.454 297.691C281.874 306.26 287.547 315.082 295.925 320.545C300.513 323.534 305.702 325.365 310.88 327.036C324.036 331.268 337.403 334.588 350.78 337.914C351.222 337.057 351.653 336.265 352.137 335.493C352.345 335.717 352.538 335.953 352.716 336.2C352.774 336.286 352.821 336.377 352.879 336.463C352.783 336.482 352.688 336.509 352.595 336.543C351.736 336.95 351.061 337.674 350.706 338.568C349.264 341.508 349.127 344.92 349.059 348.209C349.011 351.422 349.059 354.636 349.059 357.849C348.982 359.049 349.161 360.251 349.585 361.374C350.606 363.516 353.2 364.314 355.521 364.587C359.552 365.042 363.615 364.657 367.624 364.105C367.856 365.068 368.234 365.988 368.745 366.831C370.998 370.581 374.887 373.055 378.933 374.506C382.98 375.958 387.269 376.536 391.474 377.388C398.941 378.898 406.582 381.314 414.007 379.611C416.97 378.931 419.796 377.613 422.758 377.035C429.542 375.728 436.572 378.373 443.403 377.313C446.702 376.777 449.823 375.438 452.812 373.901C454.319 373.228 455.685 372.269 456.838 371.073C457.932 369.82 458.59 368.042 458.137 366.419C457.88 365.487 457.29 364.694 456.896 363.816C456.366 362.411 456.066 360.927 456.006 359.424C455.457 353.735 454.511 348.094 453.175 342.542C453.138 342.387 453.096 342.226 453.054 342.065C458.216 339.982 462.842 336.709 467.41 333.453L477.235 326.458C480.392 324.192 483.628 321.916 487.175 320.331C492.617 317.899 498.642 317.203 504.573 317.208C506.999 317.208 509.43 317.331 511.845 317.556C511.537 317.898 511.306 318.304 511.166 318.745C510.682 320.277 511.451 321.959 512.593 323.078C513.734 324.198 515.224 324.83 516.566 325.606C520.273 327.731 523.361 330.82 525.512 334.556C526.859 336.907 527.838 339.762 526.985 342.349C525.933 345.595 522.181 347.834 522.396 351.251C522.523 353.265 524.117 354.93 525.933 355.675C527.748 356.419 529.764 356.409 531.721 356.35C534.926 356.248 538.226 355.996 541.094 354.513C543.025 353.511 544.661 352.001 546.267 350.506C547.729 349.141 549.224 347.721 550.055 345.879C550.834 344.143 550.955 342.178 550.992 340.271C551.15 331.294 549.629 322.195 551.382 313.4C551.908 310.722 552.75 308.103 553.197 305.404C553.902 301.119 553.634 296.791 553.365 292.485C553.234 290.364 553.076 288.179 552.055 286.342Z" fill="url(#paint0_linear)"/>
<path opacity="0.06" d="M440.872 162.195C438.804 163.615 438.083 166.357 437.82 168.885C436.699 179.634 441.056 190.277 440.767 201.08C440.535 209.676 437.388 217.876 434.283 225.873C428.99 239.514 426.232 254.329 425.164 268.956C424.096 283.583 422.533 298.816 414.818 311.188C413.066 313.989 411.024 316.592 409.308 319.409C407.508 322.355 406.082 325.515 404.493 328.579C399.811 337.627 393.775 345.879 386.601 353.04C384.496 355.128 382.265 357.153 379.581 358.358C377.851 359.122 375.989 359.526 374.104 359.546C372.219 359.566 370.349 359.202 368.604 358.476C365.004 356.96 361.973 353.543 361.826 349.58C361.694 346.034 363.773 342.837 365.857 339.998C372.92 330.381 381.042 321.618 390.064 313.882C391.7 312.479 393.426 311.027 394.274 309.024C395.226 306.716 394.837 304.097 394.958 301.595C395.152 297.605 396.678 293.819 397.589 289.93C401.273 274.135 394.726 256.889 400.052 241.587C401.236 238.186 402.993 234.935 403.409 231.352C403.704 228.845 403.093 226.044 401.551 224.164C400.108 222.475 399.3 220.318 399.273 218.08C399.273 217.619 399.273 217.164 399.325 216.714C399.968 209.703 400.604 202.66 400.257 195.627C399.91 188.595 398.536 181.525 395.347 175.275C393.695 172.034 391.558 169.003 390.537 165.505C388.895 159.844 390.411 153.722 392.858 148.366C394.768 144.178 397.315 140.187 400.873 137.317C407.482 131.987 417.375 131.372 424.611 135.779C429.947 139.025 433.599 144.483 436.562 150.048C438.688 154.113 440.904 157.557 440.872 162.195Z" fill="black"/>
<path d="M423.332 119.508C422.322 122.283 421.317 125.057 420.317 127.831C419.654 129.652 418.996 131.49 418.312 133.311C415.155 141.703 411.623 149.962 406.098 156.909C406.924 155.87 399.152 150.643 393.421 147.075C390.627 145.324 388.311 143.974 387.743 143.707C386.392 143.085 385.01 142.538 383.601 142.068C381.417 141.318 379.207 140.67 377.023 139.861C371.971 138.002 375.502 135.212 377.665 132.213C384.743 122.39 386.085 108.968 394.121 99.9429C397.068 105.642 401.73 110.231 407.424 113.038C407.535 113.097 407.65 113.151 407.766 113.199C412.539 115.47 417.812 116.45 422.748 118.351C423.017 118.453 423.327 118.598 423.416 118.887C423.45 119.098 423.421 119.314 423.332 119.508Z" fill="#A1616A"/>
<path d="M409.592 317.905C407.306 321.238 405.883 325.105 405.455 329.146C405.028 333.188 405.609 337.274 407.145 341.027C407.533 342.075 408.138 343.027 408.918 343.817C409.912 344.607 411.069 345.157 412.302 345.424C422.753 348.45 433.909 347.856 444.613 345.96C448.239 345.392 451.803 344.468 455.254 343.201C460.553 341.139 465.284 337.845 469.957 334.557L479.84 327.626C483.039 325.382 486.265 323.127 489.838 321.552C495.311 319.148 501.373 318.457 507.335 318.462C512.457 318.468 517.566 318.965 522.596 319.946C525.949 320.604 529.964 321.285 532.321 318.794C533.668 317.385 534.068 315.323 534.331 313.379C535.373 305.815 535.353 298.138 534.274 290.579C534.247 289.943 534.02 289.332 533.626 288.838C533.255 288.517 532.803 288.308 532.321 288.233C527.664 287.162 522.991 289.384 518.465 290.911C509.061 294.092 498.963 294.473 489.396 297.092C479.355 299.839 469.925 305.04 459.548 306.095C454.601 306.598 449.633 306.159 444.676 306.272C440.077 306.374 435.788 307.991 431.284 308.184C422.601 308.575 415.049 310.117 409.592 317.905Z" fill="#A1616A"/>
<path opacity="0.06" d="M409.592 317.905C407.306 321.238 405.883 325.105 405.455 329.146C405.028 333.188 405.609 337.274 407.145 341.027C407.533 342.075 408.138 343.027 408.918 343.817C409.912 344.607 411.069 345.157 412.302 345.424C422.753 348.45 433.909 347.856 444.613 345.96C448.239 345.392 451.803 344.468 455.254 343.201C460.553 341.139 465.284 337.845 469.957 334.557L479.84 327.626C483.039 325.382 486.265 323.127 489.838 321.552C495.311 319.148 501.373 318.457 507.335 318.462C512.457 318.468 517.566 318.965 522.596 319.946C525.949 320.604 529.964 321.285 532.321 318.794C533.668 317.385 534.068 315.323 534.331 313.379C535.373 305.815 535.353 298.138 534.274 290.579C534.247 289.943 534.02 289.332 533.626 288.838C533.255 288.517 532.803 288.308 532.321 288.233C527.664 287.162 522.991 289.384 518.465 290.911C509.061 294.092 498.963 294.473 489.396 297.092C479.355 299.839 469.925 305.04 459.548 306.095C454.601 306.598 449.633 306.159 444.676 306.272C440.077 306.374 435.788 307.991 431.284 308.184C422.601 308.575 415.049 310.117 409.592 317.905Z" fill="black"/>
<path d="M418.086 306.582C417.838 307.766 417.617 309.019 417.965 310.176C418.395 311.314 419.123 312.31 420.07 313.058C429.016 321.21 441.798 322.897 453.749 324.22C456.985 324.578 460.28 324.937 463.484 324.343C466.405 323.807 469.131 322.495 471.82 321.199C477.609 318.408 483.429 315.586 488.391 311.483C493.259 307.466 497.164 302.324 502.205 298.538C507.936 294.253 514.982 291.8 520.097 286.754C523.795 283.123 526.253 278.382 527.112 273.225C527.691 269.706 527.501 266.112 527.112 262.567C526.696 258.491 526.028 254.345 524.123 250.735C521.918 246.558 518.213 243.403 514.303 240.811C506.031 235.337 496.29 231.941 486.413 232.027C472.73 232.15 460.101 240.254 450.281 249.354C439.894 258.991 431.488 270.629 425.548 283.594C422.194 290.937 419.69 298.651 418.086 306.582Z" fill="#464353"/>
<path opacity="0.06" d="M418.086 306.582C417.838 307.766 417.617 309.019 417.965 310.176C418.395 311.314 419.123 312.31 420.07 313.058C429.016 321.21 441.798 322.897 453.749 324.22C456.985 324.578 460.28 324.937 463.484 324.343C466.405 323.807 469.131 322.495 471.82 321.199C477.609 318.408 483.429 315.586 488.391 311.483C493.259 307.466 497.164 302.324 502.205 298.538C507.936 294.253 514.982 291.8 520.097 286.754C523.795 283.123 526.253 278.382 527.112 273.225C527.691 269.706 527.501 266.112 527.112 262.567C526.696 258.491 526.028 254.345 524.123 250.735C521.918 246.558 518.213 243.403 514.303 240.811C506.031 235.337 496.29 231.941 486.413 232.027C472.73 232.15 460.101 240.254 450.281 249.354C439.894 258.991 431.488 270.629 425.548 283.594C422.194 290.937 419.69 298.651 418.086 306.582Z" fill="black"/>
<path d="M440.872 162.195C438.804 163.615 438.083 166.357 437.82 168.885C436.699 179.634 441.056 190.277 440.767 201.08C440.535 209.676 437.388 217.876 434.283 225.873C428.99 239.514 426.232 254.329 425.164 268.956C424.096 283.583 422.533 298.816 414.818 311.188C413.066 313.989 411.024 316.592 409.308 319.409C407.508 322.355 406.082 325.515 404.493 328.579C399.811 337.627 393.775 345.879 386.601 353.04C384.496 355.128 382.265 357.153 379.581 358.358C377.851 359.122 375.989 359.526 374.104 359.546C372.219 359.566 370.349 359.202 368.604 358.476C365.004 356.96 361.973 353.543 361.826 349.58C361.694 346.034 363.773 342.837 365.857 339.998C372.92 330.381 381.042 321.618 390.064 313.882C391.7 312.479 393.426 311.027 394.274 309.024C395.226 306.716 394.837 304.097 394.958 301.595C395.152 297.605 396.678 293.819 397.589 289.93C401.273 274.135 394.726 256.889 400.052 241.587C401.236 238.186 402.993 234.935 403.409 231.352C403.704 228.845 403.093 226.044 401.551 224.164C400.108 222.475 399.3 220.318 399.273 218.08C399.273 217.619 399.273 217.164 399.325 216.714C399.968 209.703 400.604 202.66 400.257 195.627C399.91 188.595 398.536 181.525 395.347 175.275C393.695 172.034 391.558 169.003 390.537 165.505C388.895 159.844 390.411 153.722 392.858 148.366C394.768 144.178 397.315 140.187 400.873 137.317C407.482 131.987 417.375 131.372 424.611 135.779C429.947 139.025 433.599 144.483 436.562 150.048C438.688 154.113 440.904 157.557 440.872 162.195Z" fill="#A1616A"/>
<path d="M411.797 198.177C422.798 198.177 431.715 183.935 431.715 166.367C431.715 148.8 422.798 134.558 411.797 134.558C400.797 134.558 391.879 148.8 391.879 166.367C391.879 183.935 400.797 198.177 411.797 198.177Z" fill="#A1616A"/>
<path d="M360.999 332.591C361.588 333.434 361.987 334.399 362.169 335.417C362.35 336.435 362.311 337.482 362.052 338.482C363.929 339.854 366.211 340.531 368.519 340.4C370.81 340.273 373.061 339.745 375.176 338.841C377.015 338.158 378.757 337.229 380.354 336.077C383.101 334.01 385.09 331.053 386.669 327.99C387.558 326.297 388.316 324.107 387.195 322.586C386.755 322.07 386.218 321.647 385.617 321.343C381.562 318.989 377.34 316.946 372.987 315.232C371.792 314.671 370.493 314.375 369.177 314.364C367.561 314.455 366.093 315.355 364.809 316.362C361.923 318.646 359.596 321.579 358.01 324.932C357.516 326.003 356.021 328.547 356.763 329.65C357.1 330.159 358.342 330.336 358.868 330.657C359.705 331.141 360.431 331.8 360.999 332.591Z" fill="#FBBEBE"/>
<path opacity="0.03" d="M360.999 332.591C361.588 333.434 361.987 334.399 362.169 335.417C362.35 336.435 362.311 337.482 362.052 338.482C363.929 339.854 366.211 340.531 368.519 340.4C370.81 340.273 373.061 339.745 375.176 338.841C377.015 338.158 378.757 337.229 380.354 336.077C383.101 334.01 385.09 331.053 386.669 327.99C387.558 326.297 388.316 324.107 387.195 322.586C386.755 322.07 386.218 321.647 385.617 321.343C381.562 318.989 377.34 316.946 372.987 315.232C371.792 314.671 370.493 314.375 369.177 314.364C367.561 314.455 366.093 315.355 364.809 316.362C361.923 318.646 359.596 321.579 358.01 324.932C357.516 326.003 356.021 328.547 356.763 329.65C357.1 330.159 358.342 330.336 358.868 330.657C359.705 331.141 360.431 331.8 360.999 332.591Z" fill="black"/>
<path d="M382.791 320.18C391.695 321.862 399.883 326.243 408.634 328.605C412.176 329.559 415.823 330.212 419.206 331.615C422.59 333.019 425.779 335.418 427.237 338.835C427.853 340.476 428.262 342.189 428.452 343.934C428.831 346.403 429.142 349.162 427.7 351.186C426.179 353.329 423.306 353.8 420.733 354.116C411.481 355.235 402.23 356.36 392.947 357.153C391.068 357.269 389.196 357.496 387.343 357.833C385.817 358.144 384.327 358.615 382.812 358.979C380.849 359.445 378.855 359.74 376.865 360.05C371.777 360.795 366.63 361.539 361.52 360.972C359.189 360.709 356.579 359.943 355.553 357.801C355.127 356.69 354.947 355.498 355.026 354.309C355 351.127 354.974 347.951 355.026 344.775C355.074 341.513 355.232 338.128 356.684 335.22C357.044 334.33 357.723 333.612 358.584 333.212C359.113 333.057 359.667 333.006 360.215 333.062C362.952 333.158 365.783 333.276 368.23 334.518C370.172 335.499 371.75 337.132 373.729 338.021C377.476 339.714 381.996 338.498 385.79 340.089C386.674 337.314 386.474 334.508 385.817 331.664C385.159 328.82 384.238 326.029 383.959 323.126C383.948 322.488 383.827 321.857 383.601 321.262C383.317 320.668 383.412 320.089 382.791 320.18Z" fill="#464353"/>
<path opacity="0.06" d="M382.791 320.18C391.695 321.862 399.883 326.243 408.634 328.605C412.176 329.559 415.823 330.212 419.206 331.615C422.59 333.019 425.779 335.418 427.237 338.835C427.853 340.476 428.262 342.189 428.452 343.934C428.831 346.403 429.142 349.162 427.7 351.186C426.179 353.329 423.306 353.8 420.733 354.116C411.481 355.235 402.23 356.36 392.947 357.153C391.068 357.269 389.196 357.496 387.343 357.833C385.817 358.144 384.327 358.615 382.812 358.979C380.849 359.445 378.855 359.74 376.865 360.05C371.777 360.795 366.63 361.539 361.52 360.972C359.189 360.709 356.579 359.943 355.553 357.801C355.127 356.69 354.947 355.498 355.026 354.309C355 351.127 354.974 347.951 355.026 344.775C355.074 341.513 355.232 338.128 356.684 335.22C357.044 334.33 357.723 333.612 358.584 333.212C359.113 333.057 359.667 333.006 360.215 333.062C362.952 333.158 365.783 333.276 368.23 334.518C370.172 335.499 371.75 337.132 373.729 338.021C377.476 339.714 381.996 338.498 385.79 340.089C386.674 337.314 386.474 334.508 385.817 331.664C385.159 328.82 384.238 326.029 383.959 323.126C383.948 322.488 383.827 321.857 383.601 321.262C383.317 320.668 383.412 320.089 382.791 320.18Z" fill="black"/>
<path d="M85.3558 228.856C83.5614 228.278 81.83 229.895 80.8249 231.534C76.6466 238.218 76.9886 247.142 80.3303 254.297C81.1253 256.112 82.2219 257.773 83.5719 259.209C85.3821 261.024 87.7134 262.186 89.8867 263.493C95.9172 267.119 101.085 272.058 105.021 277.954C107.595 281.816 109.621 286.063 112.541 289.657C119.73 298.505 131.544 302.512 138.516 311.51C140.185 313.652 141.595 316.137 143.821 317.696C145.144 318.622 146.686 319.172 148.288 319.288C149.89 319.405 151.493 319.084 152.932 318.359C154.371 317.634 155.594 316.531 156.475 315.164C157.355 313.797 157.861 312.216 157.94 310.583C160.65 306.529 162.865 302.051 164.976 297.638C168.098 290.901 170.736 283.944 172.869 276.819C173.653 274.302 174.411 271.768 175.411 269.321C177.879 263.279 181.81 257.811 183.199 251.426C183.757 248.866 183.894 246.204 184.704 243.719C185.43 241.488 186.672 239.468 188.325 237.827C193.798 232.413 196.745 224.523 201.097 218.15C202.865 215.573 204.701 213.002 205.87 210.089C207.038 207.175 207.485 203.838 206.396 200.893C205.307 197.947 202.46 195.569 199.376 195.735C197.996 195.88 196.657 196.299 195.434 196.967C191.184 199.019 187.286 201.754 183.889 205.065C182.403 206.52 180.997 208.058 179.679 209.671C173.248 217.491 168.217 226.982 167.775 237.169C167.628 240.661 167.902 244.533 165.723 247.238C159.713 254.71 157.782 264.982 152.656 273.113C150.283 276.862 147.562 280.745 143.505 282.454C142.906 282.747 142.243 282.88 141.579 282.839C139.958 282.652 139.027 280.916 138.343 279.406C135.669 273.515 132.576 267.831 129.086 262.401C127.707 260.258 126.187 258.062 123.982 256.804C122.477 255.952 120.73 255.572 119.314 254.576C117.341 253.188 116.309 250.826 115.283 248.614C111.957 241.47 107.746 234.789 102.753 228.733C100.469 225.964 97.4593 223.104 93.9335 223.516C90.5761 223.918 88.5238 227.512 85.3558 228.856Z" fill="#FBBEBE"/>
<path opacity="0.03" d="M85.3558 228.856C83.5614 228.278 81.83 229.895 80.8249 231.534C76.6466 238.218 76.9886 247.142 80.3303 254.297C81.1253 256.112 82.2219 257.773 83.5719 259.209C85.3821 261.024 87.7134 262.186 89.8867 263.493C95.9172 267.119 101.085 272.058 105.021 277.954C107.595 281.816 109.621 286.063 112.541 289.657C119.73 298.505 131.544 302.512 138.516 311.51C140.185 313.652 141.595 316.137 143.821 317.696C145.144 318.622 146.686 319.172 148.288 319.288C149.89 319.405 151.493 319.084 152.932 318.359C154.371 317.634 155.594 316.531 156.475 315.164C157.355 313.797 157.861 312.216 157.94 310.583C160.65 306.529 162.865 302.051 164.976 297.638C168.098 290.901 170.736 283.944 172.869 276.819C173.653 274.302 174.411 271.768 175.411 269.321C177.879 263.279 181.81 257.811 183.199 251.426C183.757 248.866 183.894 246.204 184.704 243.719C185.43 241.488 186.672 239.468 188.325 237.827C193.798 232.413 196.745 224.523 201.097 218.15C202.865 215.573 204.701 213.002 205.87 210.089C207.038 207.175 207.485 203.838 206.396 200.893C205.307 197.947 202.46 195.569 199.376 195.735C197.996 195.88 196.657 196.299 195.434 196.967C191.184 199.019 187.286 201.754 183.889 205.065C182.403 206.52 180.997 208.058 179.679 209.671C173.248 217.491 168.217 226.982 167.775 237.169C167.628 240.661 167.902 244.533 165.723 247.238C159.713 254.71 157.782 264.982 152.656 273.113C150.283 276.862 147.562 280.745 143.505 282.454C142.906 282.747 142.243 282.88 141.579 282.839C139.958 282.652 139.027 280.916 138.343 279.406C135.669 273.515 132.576 267.831 129.086 262.401C127.707 260.258 126.187 258.062 123.982 256.804C122.477 255.952 120.73 255.572 119.314 254.576C117.341 253.188 116.309 250.826 115.283 248.614C111.957 241.47 107.746 234.789 102.753 228.733C100.469 225.964 97.4593 223.104 93.9335 223.516C90.5761 223.918 88.5238 227.512 85.3558 228.856Z" fill="black"/>
<path d="M84.9874 203.265C92.6485 203.265 98.859 197.56 98.859 190.523C98.859 183.486 92.6485 177.781 84.9874 177.781C77.3263 177.781 71.1157 183.486 71.1157 190.523C71.1157 197.56 77.3263 203.265 84.9874 203.265Z" fill="#FBBEBE"/>
<path d="M97.996 192.986C100.754 192.986 102.99 190.711 102.99 187.904C102.99 185.096 100.754 182.821 97.996 182.821C95.2378 182.821 93.002 185.096 93.002 187.904C93.002 190.711 95.2378 192.986 97.996 192.986Z" fill="#FBBEBE"/>
<path d="M86.8079 190.523C97.3608 190.523 105.916 188.195 105.916 185.323C105.916 182.45 97.3608 180.122 86.8079 180.122C76.255 180.122 67.7002 182.45 67.7002 185.323C67.7002 188.195 76.255 190.523 86.8079 190.523Z" fill="#FBBEBE"/>
<path d="M69.7686 184.214C70.2335 185.714 70.5991 187.243 70.8632 188.793C69.2588 187.135 67.8688 185.276 66.7269 183.26C66.4191 182.913 66.1717 182.514 65.9954 182.082C64.2904 178.044 63.1274 173.957 63.1274 169.533C63.127 164.403 64.5358 159.376 67.1947 155.018C69.8536 150.661 73.6566 147.147 78.1743 144.873C82.692 142.599 87.7444 141.656 92.7608 142.151C97.7772 142.645 102.558 144.557 106.563 147.671C110.568 150.785 113.637 154.977 115.425 159.773C117.213 164.569 117.647 169.778 116.68 174.812C115.712 179.846 113.381 184.505 109.949 188.262C106.517 192.018 102.122 194.724 97.2593 196.072C98.0855 193.362 99.2169 190.716 99.3642 187.904C99.453 186.966 99.3195 186.02 98.9748 185.146C98.513 184.215 97.8312 183.417 96.9909 182.821C93.9808 180.481 90.1077 179.458 86.3188 179.522C82.5254 179.682 78.7989 180.592 75.3467 182.2C74.2574 182.677 72.9523 183.319 71.663 183.758C71.0484 183.975 70.4136 184.128 69.7686 184.214Z" fill="#FBBEBE"/>
<path d="M138.311 244.405C136.58 247.227 132.88 248.09 129.628 247.838C123.566 247.383 118.051 244.089 113.367 240.125C108.684 236.162 104.59 231.556 99.8007 227.742C90.8915 220.635 80.8562 217.78 69.521 217.614C71.7365 215.745 70.9208 211.31 71.0997 208.396C71.4891 202.505 71.8575 196.458 71.0997 190.652C71.0208 190.025 70.9313 189.409 70.8261 188.793C71.005 188.986 71.1944 189.174 71.3891 189.367C74.76 192.659 78.9109 195.007 83.4379 196.182C87.965 197.357 92.7138 197.319 97.2222 196.072C96.9322 197.005 96.7054 197.957 96.5433 198.922C95.8908 203.062 96.9854 207.261 98.0642 211.315C98.7062 213.742 99.4692 216.345 101.432 217.86C102.706 218.846 104.311 219.232 105.821 219.751C108.831 220.795 111.61 222.433 113.999 224.571C115.662 226.055 117.156 227.785 118.94 229.076C120.637 230.168 122.424 231.107 124.281 231.882C128.84 234.024 133.147 236.681 137.122 239.804C137.872 240.28 138.455 240.985 138.79 241.818C138.888 242.259 138.896 242.717 138.814 243.162C138.731 243.607 138.56 244.03 138.311 244.405Z" fill="#FBBEBE"/>
<path d="M169.396 296.299C169.033 298.741 166.833 300.648 165.281 302.544C161.06 307.728 156.782 312.929 152.062 317.674C147.01 322.746 141.463 327.267 135.922 331.787L128.733 337.641C127.847 338.467 126.807 339.104 125.676 339.516C124.351 339.852 122.95 339.683 121.74 339.039C121.258 338.804 120.801 338.519 120.377 338.188C118.888 337.009 117.793 335.403 116.725 333.823C111.862 326.599 106.995 319.374 102.122 312.147C100.385 309.565 98.68 306.914 96.9855 304.263C96.7592 303.92 96.5435 303.572 96.3172 303.229C94.7701 300.819 93.2282 298.409 91.6442 296.079L82.9823 291.95L81.8456 291.414L80.5037 290.777C78.7198 289.925 76.9095 289.057 75.4255 287.74C74.0045 286.38 72.8211 284.785 71.9261 283.021C70.1928 279.76 68.6773 276.383 67.3899 272.914C63.7062 263.45 60.4646 253.585 60.3278 243.398C60.2067 234.437 62.8063 225.118 68.6581 218.54C69.458 217.635 70.3178 216.787 71.2314 216.002C72.3576 215.043 73.5206 214.481 74.9677 214.689C76.4149 214.898 77.7883 215.113 79.1776 215.354C83.0086 216.025 86.8098 216.846 90.5812 217.817C93.9807 218.701 97.5012 219.708 100.938 219.006C101.49 218.894 102.037 218.733 102.585 218.589C103.032 218.471 103.474 218.358 103.932 218.283C104.186 218.239 104.443 218.21 104.7 218.198C106.526 218.101 108.279 218.846 109.963 219.579C113.178 220.983 116.488 222.461 118.909 225.043C120.351 226.596 121.408 228.502 122.945 229.965C124.997 231.92 127.734 232.921 130.196 234.319C130.672 234.588 131.131 234.886 131.57 235.214C132.541 235.955 133.424 236.808 134.201 237.758C137.39 241.587 139.285 246.756 142.805 250.564C145.623 253.606 148.071 256.981 150.099 260.617C150.43 261.222 150.751 261.833 151.067 262.454C151.593 263.488 152.083 264.538 152.535 265.598C152.651 265.871 152.767 266.134 152.872 266.418C153.534 268.022 154.112 269.662 154.603 271.329C155.798 275.373 156.593 279.738 159.245 282.984C161.097 285.238 163.665 286.733 165.828 288.677C167.221 289.878 168.317 291.395 169.028 293.106C169.418 294.12 169.545 295.22 169.396 296.299Z" fill="#FBBEBE"/>
<path opacity="0.06" d="M154.745 264.13C154.142 264.905 153.523 265.669 152.888 266.423C152.783 266.562 152.667 266.696 152.551 266.83C147.012 273.425 140.67 279.276 133.68 284.242C129.354 287.317 124.792 290.043 120.24 292.764L111.82 297.782C108.3 299.887 104.732 302.008 100.827 303.218C99.5746 303.599 98.2643 303.904 96.9855 304.263C96.7593 303.92 96.5435 303.572 96.3172 303.229C94.7701 300.819 93.2282 298.409 91.6442 296.079L82.9824 291.949C87.766 288.872 92.0099 285.001 95.5384 280.498C100.801 273.894 104.848 266.364 108.836 258.882C109.544 257.674 110.094 256.377 110.473 255.025C110.999 252.781 110.557 250.425 109.91 248.218C107.541 240.306 102.559 233.47 95.8068 228.867C91.0706 225.653 85.682 223.698 80.3248 221.813C76.5833 220.495 72.4839 219.221 68.6792 219.762C69.4778 218.857 70.3377 218.01 71.2525 217.228C72.3787 216.264 73.5416 215.702 74.9888 215.911C76.436 216.119 77.8094 216.334 79.1987 216.58C82.0141 217.458 84.7821 218.508 87.5343 219.59C89.3448 220.266 91.1038 221.077 92.7967 222.016C94.4817 223.063 96.1005 224.217 97.6433 225.471C102.206 229.011 107.011 232.217 112.02 235.064C117.809 238.315 123.887 240.955 129.96 243.633C130.604 243.97 131.314 244.153 132.038 244.169C132.401 244.168 132.753 244.045 133.039 243.818C133.325 243.591 133.528 243.273 133.617 242.915C133.641 242.525 133.553 242.136 133.364 241.796C132.312 239.605 129.923 238.502 127.76 237.436C118.782 233.012 110.889 226.644 103.079 220.324C102.89 220.171 102.723 219.99 102.585 219.788L103.932 219.483C112.672 225.872 121.902 231.535 131.533 236.419C132.042 236.683 132.552 236.94 133.064 237.19C133.433 237.377 133.796 237.559 134.17 237.725C136.764 239.022 139.358 240.403 141.311 242.546C142.57 244.024 143.631 245.664 144.468 247.425C146.619 251.561 148.456 255.858 149.962 260.28C149.991 260.374 150.024 260.467 150.062 260.558C150.253 261.233 150.583 261.86 151.03 262.395C151.188 262.575 151.375 262.725 151.583 262.84C152.572 263.434 153.93 263.37 154.745 264.13Z" fill="black"/>
<path d="M103.953 218.283C112.691 224.672 121.922 230.334 131.554 235.214L133.085 235.99C136.032 237.458 139.1 238.915 141.337 241.346C142.595 242.827 143.656 244.469 144.494 246.231C146.647 250.365 148.482 254.663 149.983 259.085C150.32 260.065 150.714 261.142 151.609 261.645C152.504 262.149 153.925 262.111 154.719 262.872C154.003 263.782 153.277 264.682 152.525 265.55C146.987 272.148 140.646 278.001 133.654 282.967C129.328 286.042 124.766 288.768 120.214 291.489L111.794 296.507C108.273 298.607 104.705 300.728 100.801 301.938C99.3326 302.394 97.7802 302.736 96.2909 303.176C94.7438 300.765 93.2019 298.355 91.6179 296.025L81.8194 291.355C87.0817 288.323 91.6705 284.012 95.5016 279.218C100.764 272.62 104.811 265.089 108.8 257.607C109.506 256.398 110.056 255.102 110.436 253.751C110.962 251.506 110.52 249.144 109.873 246.938C107.502 239.051 102.535 232.236 95.8068 227.64C91.0706 224.427 85.682 222.477 80.3248 220.586C76.5833 219.274 72.4839 217.994 68.6792 218.54C69.4791 217.635 70.3388 216.787 71.2525 216.002C72.3787 215.043 73.5416 214.481 74.9888 214.689C76.436 214.898 77.8094 215.113 79.1987 215.354C82.0141 216.237 84.7821 217.287 87.5343 218.369C89.3458 219.042 91.1049 219.853 92.7967 220.795C94.4817 221.842 96.1005 222.996 97.6433 224.25C102.214 227.782 107.025 230.978 112.041 233.816C117.83 237.072 123.908 239.734 129.981 242.385C130.625 242.722 131.335 242.905 132.059 242.921C132.422 242.922 132.775 242.799 133.062 242.572C133.348 242.345 133.551 242.026 133.638 241.667C133.662 241.279 133.574 240.892 133.385 240.553C132.333 238.363 129.944 237.254 127.781 236.194C118.803 231.77 110.91 225.396 103.1 219.055C102.909 218.903 102.742 218.723 102.606 218.519L103.953 218.283Z" fill="#71FF80"/>
<path d="M177.684 247.361C195.927 247.361 210.716 232.309 210.716 213.742C210.716 195.174 195.927 180.122 177.684 180.122C159.441 180.122 144.652 195.174 144.652 213.742C144.652 232.309 159.441 247.361 177.684 247.361Z" fill="#71FF80"/>
<path d="M210.527 347.545C216.71 345.568 222.988 343.554 228.419 339.939C232.234 337.4 235.523 334.133 238.986 331.112C241.59 328.841 244.306 326.699 246.695 324.192C248.835 321.847 250.838 319.375 252.694 316.79C256.918 311.163 261.281 305.643 265.782 300.23C268.197 297.343 270.749 294.402 274.122 292.796C280.116 289.93 287.152 291.864 293.478 293.829C302.95 296.775 312.375 299.898 321.237 304.381C326.278 306.935 331.161 309.785 336.25 312.233C345.554 316.705 355.432 319.774 365.272 322.827C366.003 323.143 366.816 323.211 367.588 323.019C368.14 322.762 368.614 322.359 368.961 321.852C370.244 320.239 371.272 318.432 372.008 316.496C372.148 316.276 372.201 316.01 372.155 315.752C372.109 315.495 371.968 315.264 371.761 315.109C367.551 310.936 362.088 308.371 356.984 305.398C352.921 303.036 349.032 300.385 345.149 297.734C341.418 295.19 337.655 292.619 334.524 289.346C332.945 287.691 331.525 285.865 329.814 284.355C328.303 283.097 326.703 281.954 325.025 280.938C317.524 276.062 310.364 270.663 303.597 264.779C298.45 260.301 294.235 254.533 288.736 250.516C285.363 248.052 281.437 245.808 277.311 246.258C272.291 246.793 268.586 251.078 265.087 254.774C253.326 267.205 238.486 276.101 225.361 287.033C214.647 295.945 204.633 306.534 191.582 311.236C192.166 313.207 192.371 315.178 192.961 317.128C193.695 319.838 194.611 322.494 195.702 325.076C196.784 327.363 198.002 329.581 199.349 331.718L204.58 340.41C205.633 342.178 206.732 343.972 208.237 345.375C209.027 346.147 210.527 346.425 210.527 347.545Z" fill="#464353"/>
<path opacity="0.06" d="M210.527 347.545C216.71 345.568 222.988 343.554 228.419 339.939C232.234 337.4 235.523 334.133 238.986 331.112C241.59 328.841 244.306 326.699 246.695 324.192C248.835 321.847 250.838 319.375 252.694 316.79C256.918 311.163 261.281 305.643 265.782 300.23C268.197 297.343 270.749 294.402 274.122 292.796C280.116 289.93 287.152 291.864 293.478 293.829C302.95 296.775 312.375 299.898 321.237 304.381C326.278 306.935 331.161 309.785 336.25 312.233C345.554 316.705 355.432 319.774 365.272 322.827C366.003 323.143 366.816 323.211 367.588 323.019C368.14 322.762 368.614 322.359 368.961 321.852C370.244 320.239 371.272 318.432 372.008 316.496C372.148 316.276 372.201 316.01 372.155 315.752C372.109 315.495 371.968 315.264 371.761 315.109C367.551 310.936 362.088 308.371 356.984 305.398C352.921 303.036 349.032 300.385 345.149 297.734C341.418 295.19 337.655 292.619 334.524 289.346C332.945 287.691 331.525 285.865 329.814 284.355C328.303 283.097 326.703 281.954 325.025 280.938C317.524 276.062 310.364 270.663 303.597 264.779C298.45 260.301 294.235 254.533 288.736 250.516C285.363 248.052 281.437 245.808 277.311 246.258C272.291 246.793 268.586 251.078 265.087 254.774C253.326 267.205 238.486 276.101 225.361 287.033C214.647 295.945 204.633 306.534 191.582 311.236C192.166 313.207 192.371 315.178 192.961 317.128C193.695 319.838 194.611 322.494 195.702 325.076C196.784 327.363 198.002 329.581 199.349 331.718L204.58 340.41C205.633 342.178 206.732 343.972 208.237 345.375C209.027 346.147 210.527 346.425 210.527 347.545Z" fill="black"/>
<path d="M354.59 337.341C355.177 338.186 355.576 339.151 355.758 340.168C355.94 341.186 355.9 342.232 355.642 343.233C357.513 344.609 359.79 345.291 362.094 345.166C364.389 345.037 366.645 344.512 368.767 343.613C370.605 342.928 372.346 341.999 373.945 340.849C376.697 338.782 378.681 335.826 380.286 332.757C381.176 331.069 381.933 328.879 380.786 327.358C380.348 326.839 379.811 326.416 379.207 326.115C375.161 323.763 370.948 321.72 366.604 320.004C365.408 319.444 364.11 319.147 362.794 319.131C361.173 319.222 359.705 320.127 358.421 321.134C355.537 323.419 353.212 326.352 351.627 329.704C351.133 330.775 349.638 333.324 350.375 334.428C350.712 334.936 351.954 335.113 352.48 335.429C353.307 335.909 354.026 336.561 354.59 337.341Z" fill="#FBBEBE"/>
<path d="M378.686 324.669C387.59 326.356 395.779 330.732 404.53 333.094C408.072 334.047 411.718 334.7 415.102 336.104C418.486 337.507 421.675 339.906 423.132 343.324C423.748 344.964 424.157 346.677 424.348 348.422C424.727 350.892 425.037 353.65 423.596 355.675C422.075 357.817 419.201 358.294 416.628 358.604C407.377 359.729 398.126 360.848 388.843 361.641C386.967 361.76 385.099 361.987 383.249 362.321C381.723 362.637 380.234 363.103 378.718 363.467C376.76 363.939 374.761 364.228 372.771 364.539C367.683 365.278 362.536 366.028 357.426 365.455C355.095 365.192 352.485 364.426 351.459 362.284C351.033 361.173 350.853 359.981 350.933 358.792C350.933 355.616 350.88 352.434 350.933 349.258C350.98 345.996 351.138 342.611 352.59 339.703C352.952 338.813 353.63 338.096 354.49 337.694C355.02 337.54 355.573 337.489 356.121 337.544C358.858 337.641 361.689 337.759 364.136 339.001C366.078 339.981 367.478 337.052 369.456 337.93C373.208 339.617 370.667 334.502 374.455 336.093C375.34 333.319 379.097 334.968 378.444 332.124C377.792 329.28 380.134 330.517 379.865 327.593C379.854 326.955 379.732 326.324 379.507 325.729C379.213 325.156 379.307 324.578 378.686 324.669Z" fill="#464353"/>
<path opacity="0.06" d="M111.968 153.304C109.926 154.515 107.395 154.29 105.016 154.236C102.936 154.193 100.856 154.302 98.791 154.563C98.0475 154.616 97.3206 154.812 96.6492 155.142C95.7748 155.716 95.0836 156.536 94.66 157.504C93.8179 159.15 93.2506 160.927 92.9813 162.763C92.6866 164.825 92.7182 167.08 91.4552 168.714C89.7344 170.936 87.0506 170.594 84.6141 171.033C82.4936 171.447 80.4613 172.237 78.6097 173.368C76.7841 174.49 75.2176 175.999 74.017 177.794C72.8165 179.588 72.0101 181.624 71.6529 183.764C71.5845 184.251 71.5371 184.733 71.5161 185.221C71.4634 186.603 71.6003 188.011 71.4213 189.366C71.378 189.705 71.3112 190.039 71.2214 190.368C71.1981 190.465 71.1682 190.559 71.1319 190.652C71.053 190.025 70.9635 189.409 70.8583 188.793C69.2539 187.136 67.8639 185.276 66.722 183.26C66.4142 182.913 66.1668 182.514 65.9906 182.082C64.2855 178.044 63.1226 173.957 63.1226 169.533C63.1222 163.731 64.9245 158.078 68.2717 153.382C71.6189 148.686 76.3395 145.187 81.7584 143.386C87.1773 141.586 93.0169 141.575 98.4419 143.357C103.867 145.138 108.599 148.62 111.963 153.304H111.968Z" fill="black"/>
<path d="M113.699 142.764C112.346 139.577 109.489 137.316 106.552 135.544C100.764 132.03 94.1016 129.823 87.3447 129.732C83.9356 129.733 80.5356 130.092 77.1988 130.804C73.9472 131.395 70.7617 132.316 67.6897 133.551C62.6208 135.697 58.1402 139.064 54.6337 143.363C53.8972 143.42 53.1666 143.54 52.4499 143.722C49.5871 144.451 47.0085 146.052 44.6563 147.868C42.6878 149.319 40.9395 151.057 39.4676 153.026C37.7448 155.54 36.5532 158.39 35.9681 161.397C33.9631 170.802 36.4312 180.507 38.2414 189.95C40.0517 199.392 41.1094 209.708 36.6627 218.192C34.984 221.405 32.6001 224.137 30.8109 227.265C29.0217 230.393 27.8324 234.158 28.8481 237.629C30.0584 241.849 34.1315 244.527 36.2575 248.325C37.5595 250.809 38.0243 253.659 37.5803 256.438C37.1363 259.217 35.8082 261.771 33.8 263.707C37.1416 264.885 40.8621 263.616 43.8722 261.731C46.2588 260.316 48.2892 258.356 49.8029 256.005C53.5865 249.771 51.9078 241.721 53.2234 234.517C54.9758 225.09 62.0484 216.682 61.0749 207.137C60.4171 200.71 56.2493 195.381 52.9708 189.869C50.784 186.194 48.9461 182.315 47.4822 178.284C46.4297 175.408 45.5772 172.318 46.0982 169.297C46.2705 168.375 46.5478 167.476 46.9243 166.619C46.9243 166.721 46.9243 166.823 46.9243 166.924C46.9843 169.699 47.5966 172.432 48.7241 174.958C52.6393 183.099 63.0641 186.099 67.4792 193.967C68.7685 192.537 70.1104 191.037 70.6366 189.173C71.0997 187.513 70.8629 185.745 70.9313 184.021C71.1155 179.2 73.994 174.658 78.025 172.173C79.8751 171.041 81.9081 170.252 84.0294 169.843C86.4606 169.399 89.1444 169.736 90.8705 167.514C92.1335 165.907 92.1019 163.625 92.4019 161.568C92.6686 159.73 93.236 157.951 94.0806 156.303C94.5027 155.337 95.1943 154.517 96.0697 153.947C96.742 153.615 97.4711 153.418 98.2168 153.368C100.28 153.107 102.359 152.998 104.437 153.042C106.842 153.101 109.415 153.32 111.478 152.062C114.383 150.262 115.051 145.977 113.699 142.764Z" fill="#464353"/>
<path opacity="0.06" d="M407.766 113.198C407.766 113.273 407.766 113.343 407.766 113.418C406.814 121.773 398.92 121.388 397.078 134.553C396.352 139.711 388.658 140.664 383.601 142.051C381.417 141.301 379.207 140.653 377.023 139.844C371.971 137.986 375.502 135.195 377.665 132.196C384.743 122.373 386.085 108.951 394.121 99.9263C397.068 105.625 401.73 110.214 407.424 113.022C407.535 113.097 407.65 113.15 407.766 113.198Z" fill="black"/>
<path d="M407.95 108.405C407.949 109.672 407.879 110.938 407.74 112.197C406.771 120.893 402.508 128.862 395.857 134.41C389.206 139.958 380.692 142.647 372.124 141.907C363.556 141.166 355.609 137.054 349.972 130.445C344.336 123.835 341.454 115.249 341.939 106.511C342.424 97.7732 346.238 89.5721 352.57 83.6508C358.902 77.7295 367.253 74.5549 375.849 74.8014C384.445 75.048 392.607 78.6965 398.601 84.9714C404.596 91.2463 407.95 99.653 407.95 108.405Z" fill="#A1616A"/>
<path d="M421.238 112.165C425.021 111.977 428.658 113.488 432.152 114.971C446.008 120.863 459.979 126.803 472.362 135.453C478.466 139.737 484.123 144.601 489.77 149.48L512.971 169.543C517.429 173.394 521.918 177.283 525.496 181.996C527.602 184.903 529.523 187.944 531.248 191.101L534.689 197.073C536.099 199.411 537.331 201.855 538.373 204.384C540.141 208.996 540.799 214.373 544.367 217.742C546.761 220.008 550.061 220.929 552.987 222.423C555.913 223.917 558.775 226.542 558.728 229.873C558.728 232.016 557.454 233.944 556.497 235.872C554.513 239.901 553.681 244.416 554.097 248.903L516.155 219.392C514.645 218.219 513.066 217.008 511.209 216.612C508.798 216.076 506.341 217.003 504.015 217.838C485.678 224.42 466.192 227.027 446.808 225.492C438.235 224.806 429.531 223.237 422.027 218.968C417.875 216.612 414.202 213.489 410.555 210.399C406.003 206.521 401.435 202.633 397.399 198.198C396.347 197.014 395.252 195.713 394.984 194.127C394.784 192.981 395.031 191.814 395.126 190.657C395.789 182.532 389.158 175.767 387.137 167.878C386.24 164.158 386.364 160.258 387.497 156.605C388.631 152.952 390.729 149.687 393.563 147.166C398.083 151.194 397.92 158.269 397.394 164.359C396.683 172.559 398.936 176.624 398.225 184.829C401.088 184.722 400.567 186.597 401.788 183.956C403.009 181.316 403.246 178.338 403.477 175.43C404.323 164.911 405.349 154.409 406.556 143.926C407.156 138.682 407.84 133.449 408.498 128.211C408.897 125.024 408.845 122.047 410.497 119.219C412.792 115.303 416.691 112.384 421.238 112.165Z" fill="#71FF80"/>
<path d="M426.19 121.72C428.6 120.949 431.194 121.656 433.615 122.39C437.895 123.682 442.15 125.048 446.381 126.487C449.839 127.66 453.343 128.919 456.269 131.131C459.306 133.423 461.532 136.61 463.737 139.743C465.315 141.998 466.894 144.28 467.947 146.84C469.315 150.193 469.683 153.867 470.052 157.477C470.293 159.035 470.274 160.623 469.994 162.174C469.499 163.858 468.63 165.403 467.452 166.689C465.64 168.871 463.54 170.788 461.211 172.382C455.017 176.624 447.529 178.392 440.235 179.95C433.725 181.338 427.168 182.628 420.527 183.046C417.943 183.212 414.944 183.046 413.365 180.968C412.916 180.32 412.561 179.609 412.313 178.858C408.432 168.398 406.752 157.225 407.382 146.063C407.439 144.028 407.748 142.009 408.303 140.054C408.849 138.489 409.527 136.974 410.329 135.528C412.323 131.688 414.423 127.713 417.859 125.143C421.453 122.465 426.111 121.618 430.568 121.79" fill="#A1616A"/>
<path opacity="0.06" d="M450.434 161.44C448.366 162.859 447.645 165.601 447.381 168.129C446.261 178.879 450.618 189.521 450.328 200.324C450.097 208.894 446.95 217.121 443.845 225.117C438.551 238.759 435.794 253.573 434.725 268.201C433.657 282.828 432.094 298.06 424.38 310.433C422.627 313.234 420.585 315.837 418.87 318.654C417.07 321.6 415.644 324.76 414.055 327.824C409.372 336.872 403.336 345.124 396.163 352.284C394.058 354.373 391.826 356.398 389.143 357.603C387.413 358.367 385.551 358.77 383.666 358.791C381.78 358.811 379.91 358.447 378.165 357.721C374.566 356.205 371.535 352.788 371.387 348.824C371.256 345.279 373.334 342.081 375.418 339.242C382.481 329.625 390.603 320.863 399.625 313.127C401.262 311.723 402.988 310.272 403.835 308.269C404.788 305.96 404.398 303.341 404.519 300.84C404.714 296.85 406.24 293.063 407.15 289.175C410.834 273.38 404.288 256.134 409.613 240.832C410.797 237.431 412.555 234.179 412.971 230.596C413.265 228.09 412.65 225.289 411.113 223.409C409.67 221.719 408.861 219.563 408.829 217.324C408.829 216.864 408.829 216.408 408.887 215.958C409.529 208.947 410.166 201.904 409.819 194.872C409.471 187.839 408.098 180.77 404.909 174.519C403.256 171.279 401.12 168.247 400.099 164.75C398.457 159.089 399.973 152.967 402.42 147.611C404.33 143.422 406.877 139.432 410.434 136.561C417.044 131.232 426.937 130.616 434.173 135.024C439.509 138.27 443.161 143.728 446.124 149.292C448.25 153.358 450.492 156.802 450.434 161.44Z" fill="black"/>
<path d="M451.633 161.44C449.565 162.859 448.844 165.601 448.581 168.129C447.46 178.879 451.817 189.521 451.528 200.324C451.296 208.894 448.15 217.121 445.045 225.117C439.751 238.759 436.999 253.573 435.925 268.201C434.852 282.828 433.294 298.06 425.579 310.433C423.827 313.234 421.79 315.837 420.069 318.654C418.275 321.6 416.844 324.76 415.254 327.824C410.57 336.871 404.534 345.123 397.362 352.284C395.257 354.373 393.021 356.398 390.337 357.603C388.607 358.367 386.745 358.77 384.86 358.791C382.975 358.811 381.105 358.447 379.36 357.721C375.765 356.205 372.734 352.788 372.587 348.824C372.45 345.279 374.529 342.081 376.618 339.242C383.681 329.625 391.803 320.863 400.825 313.127C402.462 311.723 404.193 310.272 405.035 308.269C405.993 305.96 405.598 303.341 405.719 300.84C405.914 296.85 407.44 293.063 408.35 289.175C412.034 273.38 405.487 256.134 410.813 240.832C411.997 237.431 413.76 234.179 414.176 230.596C414.465 228.09 413.855 225.289 412.318 223.409C410.848 221.73 410.015 219.572 409.971 217.324C409.971 216.864 409.971 216.408 410.029 215.958C410.666 208.947 411.302 201.904 410.955 194.872C410.608 187.839 409.234 180.77 406.045 174.519C404.393 171.279 402.256 168.247 401.235 164.75C399.594 159.089 401.109 152.967 403.556 147.611C405.472 143.422 408.013 139.432 411.571 136.561C418.18 131.232 428.074 130.616 435.309 135.024C440.645 138.27 444.298 143.728 447.26 149.292C449.439 153.358 451.67 156.802 451.633 161.44Z" fill="#A1616A"/>
<path d="M504.852 301.301L504.399 301.44L504.852 301.301Z" fill="#464353"/>
<path d="M412.681 325.199C412.701 325.019 412.732 324.84 412.776 324.664L412.681 325.199Z" fill="#464353"/>
<path d="M525.507 288.447C527.022 286.663 529.359 285.865 531.606 285.271C535.227 284.318 538.926 283.705 542.657 283.439C544.973 283.185 547.314 283.332 549.582 283.873C551.824 284.5 553.95 285.86 555.087 287.922C556.092 289.743 556.25 291.907 556.381 293.99C556.655 298.275 556.907 302.56 556.213 306.781C555.765 309.459 554.929 312.051 554.387 314.707C552.629 323.416 554.155 332.43 553.997 341.321C553.96 343.217 553.839 345.162 553.055 346.881C552.219 348.707 550.714 350.094 549.245 351.466C547.63 352.949 545.988 354.443 544.041 355.434C541.157 356.907 537.836 357.154 534.611 357.255C532.648 357.314 530.627 357.32 528.822 356.586C527.017 355.852 525.391 354.202 525.259 352.205C525.049 348.814 528.806 346.597 529.88 343.383C530.732 340.823 529.753 337.995 528.396 335.665C526.218 331.951 523.111 328.892 519.392 326.801C518.013 326.03 516.545 325.382 515.398 324.295C514.25 323.207 513.471 321.52 513.961 320.01C514.545 318.183 516.634 317.332 518.513 317.15C520.392 316.968 522.375 317.107 524.065 316.255C525.57 315.5 526.617 314.043 527.338 312.506C528.872 309.225 529.086 305.463 527.933 302.024C527.476 300.716 526.815 299.492 525.975 298.398C525.186 297.37 523.565 296.502 523.002 295.378C522.002 293.353 524.165 290.054 525.507 288.447Z" fill="#71FF80"/>
<path opacity="0.06" d="M494.927 210.828C486.233 203.008 474.114 200.881 462.747 198.509C456.892 197.291 451.065 195.934 445.266 194.438C441.456 193.453 437.635 192.403 433.689 192.13C429.742 191.857 425.679 192.419 422.301 194.465C418.922 196.511 416.375 200.217 416.354 204.218C416.354 205.825 416.728 207.4 416.612 208.99C416.428 211.551 415.033 213.811 414.081 216.205C412.624 219.99 412.401 224.15 413.444 228.074C415.128 234.324 419.98 239.83 419.559 246.284C418.859 257.087 419.075 268.378 421.254 278.956C423.432 289.534 426.153 300.16 426.09 310.984C426.027 321.809 422.806 333.19 414.865 340.4C420.245 345.541 426.826 349.2 433.983 351.031C440.103 352.59 447.381 352.434 451.739 347.791C452.749 346.72 453.586 345.29 453.375 343.817C453.158 342.887 452.775 342.007 452.244 341.219C449.249 335.761 449.613 329.034 450.939 322.939C452.265 316.844 454.533 310.92 455.106 304.697C455.527 300.181 455.054 295.591 455.901 291.135C456.554 287.723 457.964 284.51 458.811 281.141C461.311 271.147 458.685 260.654 456.075 250.698C458.259 255.812 462.39 259.803 466.663 263.273C473.146 268.533 480.987 273.177 489.228 272.245C496.564 271.409 502.81 266.219 507.12 260.129C507.157 253.086 509.556 246.429 509.13 239.402C508.855 236.315 508.313 233.259 507.509 230.27C506.704 226.928 505.878 223.553 504.352 220.484C502.336 216.408 498.284 213.843 494.927 210.828Z" fill="black"/>
<path d="M496.727 210.828C488.034 203.008 475.92 200.881 464.548 198.509C458.692 197.291 452.867 195.934 447.071 194.438C443.261 193.453 439.436 192.403 435.494 192.13C431.553 191.857 427.49 192.419 424.112 194.465C420.733 196.511 418.181 200.217 418.165 204.218C418.165 205.825 418.533 207.4 418.418 208.99C418.239 211.551 416.813 213.811 415.886 216.205C414.431 219.99 414.21 224.151 415.255 228.074C416.934 234.324 421.786 239.83 421.37 246.284C420.665 257.087 420.88 268.378 423.059 278.956C425.238 289.534 427.958 300.16 427.895 310.984C427.832 321.809 424.59 333.153 416.644 340.351C422.025 345.492 428.605 349.151 435.762 350.983C441.883 352.542 449.166 352.386 453.518 347.743C454.528 346.671 455.365 345.241 455.154 343.768C454.937 342.839 454.554 341.959 454.023 341.171C451.029 335.713 451.392 328.986 452.718 322.891C454.044 316.796 456.312 310.872 456.891 304.648C457.307 300.133 456.833 295.543 457.685 291.087C458.333 287.675 459.748 284.462 460.59 281.093C463.09 271.098 460.469 260.606 457.854 250.649C460.038 255.764 464.169 259.754 468.447 263.225C474.93 268.485 482.766 273.128 491.007 272.196C498.343 271.361 504.589 266.171 508.899 260.081C508.931 253.038 511.33 246.381 510.904 239.354C510.629 236.267 510.087 233.211 509.283 230.222C508.483 226.879 507.652 223.505 506.126 220.436C504.168 216.408 500.084 213.843 496.727 210.828Z" fill="#A1616A"/>
<path d="M436.336 345.986C432.475 343.593 429.141 340.415 426.543 336.65C425.606 335.301 424.764 333.865 423.596 332.719C422.428 331.573 420.844 330.721 419.228 330.893C417.402 331.085 415.939 332.499 414.781 333.956C411.676 337.871 409.677 342.66 406.23 346.275C402.252 350.458 396.7 352.702 391.158 354.138C385.617 355.573 379.897 356.328 374.466 358.144C372.761 358.712 370.967 359.483 370.046 361.052C368.878 363.05 369.52 365.669 370.751 367.651C373.019 371.4 376.924 373.815 380.997 375.251C385.07 376.686 389.38 377.259 393.627 378.106C401.131 379.6 408.819 381.994 416.286 380.307C419.265 379.632 422.075 378.325 425.085 377.757C431.926 376.461 438.983 379.08 445.85 378.031C449.171 377.522 452.307 376.172 455.323 374.651C456.835 373.986 458.21 373.035 459.375 371.85C460.475 370.607 461.138 368.845 460.685 367.238C460.427 366.312 459.833 365.53 459.438 364.657C458.817 363.307 458.691 361.791 458.543 360.308C457.975 354.66 457.011 349.062 455.659 343.554C455.191 341.631 454.491 339.489 452.728 338.648C452.369 338.451 451.948 338.403 451.555 338.514C450.929 338.755 450.723 339.526 450.534 340.175C450.017 341.966 449.028 343.58 447.674 344.84C446.32 346.099 444.652 346.958 442.853 347.321C441.053 347.684 439.19 347.539 437.466 346.9C435.742 346.261 434.223 345.154 433.073 343.699" fill="#71FF80"/>
<path opacity="0.06" d="M407.95 108.405C407.95 109.672 407.879 110.938 407.74 112.197C406.081 112.45 404.388 112.301 402.797 111.762C401.206 111.223 399.762 110.31 398.583 109.096C397.473 107.896 396.641 106.445 395.542 105.235C394.442 104.024 392.91 103.017 391.332 103.146C389.985 103.247 388.816 104.115 387.895 105.122C386.697 106.433 385.819 108.013 385.333 109.734C384.98 110.949 384.806 112.331 383.817 113.14C382.828 113.949 381.612 113.895 380.439 113.852C378.918 113.799 377.339 113.724 375.997 112.995C373.471 111.608 372.619 108.432 371.682 105.668C370.103 101.025 366.551 92.2409 361.031 91.3036C358.4 90.8591 355.2 92.2731 353.137 93.7995C350.027 96.0972 347.733 97.5862 343.712 97.5219C346.247 89.9931 351.324 83.6234 358.039 79.5457C364.754 75.4681 372.673 73.9468 380.386 75.2526C388.1 76.5584 395.108 80.6065 400.165 86.677C405.222 92.7474 407.999 100.447 408.003 108.405H407.95Z" fill="black"/>
<path d="M343.665 96.2949C342.717 96.3157 341.772 96.1634 340.876 95.845C338.324 94.8274 337.082 91.828 336.866 89.0483C336.53 84.8117 337.919 80.6554 339.313 76.6438C339.608 75.7708 339.961 74.8335 340.729 74.3461C341.351 74.0353 342.031 73.8619 342.723 73.8373C346.502 73.3017 349.78 70.9504 352.569 68.3153C355.358 65.6801 357.874 62.6915 360.989 60.4955C369.251 54.695 381.513 55.7769 388.659 62.9325C391.49 65.7605 393.921 69.5953 397.847 70.2595C400.11 70.6398 402.536 69.8471 404.688 70.704C406.267 71.3307 407.393 72.75 408.298 74.2015C411.234 78.8933 412.613 84.4528 413.071 89.9963C413.529 95.5397 413.108 101.115 412.682 106.659C412.706 107.489 412.496 108.308 412.076 109.021C411.74 109.432 411.317 109.761 410.84 109.985C408.839 110.989 406.578 111.326 404.379 110.949C402.179 110.572 400.151 109.5 398.584 107.885C397.468 106.691 396.642 105.239 395.542 104.024C394.442 102.808 392.911 101.812 391.332 101.94C389.99 102.042 388.811 102.91 387.896 103.916C386.697 105.227 385.82 106.807 385.333 108.528C384.986 109.744 384.807 111.126 383.817 111.929C382.828 112.732 381.612 112.69 380.434 112.647C378.918 112.588 377.339 112.518 375.998 111.784C373.466 110.403 372.614 107.226 371.682 104.463C370.104 99.8191 366.557 91.03 361.031 90.098C358.4 89.6481 355.201 91.0675 353.138 92.5939C349.98 94.8756 347.707 96.3645 343.665 96.2949Z" fill="#464353"/>
<path opacity="0.06" d="M169.396 296.298C169.033 298.74 166.833 300.647 165.281 302.543C161.06 307.728 156.782 312.928 152.062 317.674C147.01 322.746 141.463 327.266 135.922 331.787L128.733 337.641C127.847 338.466 126.807 339.103 125.676 339.515C124.351 339.852 122.95 339.682 121.74 339.039C121.845 338.825 121.956 338.626 122.077 338.428L130.696 323.726C132.391 320.845 133.501 318.22 135.432 315.515C138.343 311.466 141.279 307.396 144.863 303.962C149.394 299.619 155.203 296.464 160.592 293.325C161.371 290.947 164.633 290.289 166.838 291.413C167.656 291.844 168.391 292.419 169.012 293.111C169.407 294.122 169.539 295.22 169.396 296.298Z" fill="black"/>
<path d="M131.296 324.332L122.677 339.039C122.324 339.634 121.961 340.309 122.113 340.984C122.307 341.55 122.677 342.037 123.166 342.371C126.471 345.108 130.133 347.995 131.17 352.199C131.912 355.198 131.17 358.412 131.833 361.422C133.049 366.853 138.411 370.152 143.484 372.241C154.851 376.922 167.47 378.722 179.547 376.526C191.624 374.33 203.086 368.074 210.906 358.455C213.305 355.498 215.358 352.263 217.636 349.21C223.951 340.775 231.966 333.85 239.917 326.994C250.152 318.167 256.183 305.002 265.177 294.858C266.813 293.01 268.618 291.109 270.965 290.498C272.281 290.161 274.123 290.659 274.175 292.041C274.296 294.719 276.412 296.909 277.859 299.148C283.311 307.632 289.015 316.378 297.44 321.788C302.05 324.755 307.276 326.571 312.485 328.215C325.694 332.403 339.16 335.713 352.611 338.991C353.29 337.61 354.105 336.301 355.042 335.087C356.437 333.346 358.273 332.018 359.673 330.266C362.236 327.112 363.136 322.939 363.957 318.933C355.921 313.925 347.675 308.757 339.75 303.551C335.761 300.937 331.746 298.264 328.515 294.729C326.41 292.405 324.641 289.743 322.531 287.402C320.373 285.131 318.047 283.031 315.574 281.12L296.63 265.679C291.189 261.249 285.642 256.573 280.316 251.989C277.322 249.407 274.002 246.692 270.086 246.568C266.734 246.461 263.65 248.288 260.767 250.044C243.829 260.367 226.638 270.226 209.195 279.62C205.664 281.516 202.117 283.402 198.75 285.581C192.197 289.824 186.379 295.141 181.531 301.317C180.642 302.447 179.516 303.733 178.105 303.561C177.717 303.503 177.344 303.371 177.005 303.17C174.832 301.987 173.501 299.7 172.269 297.531C171.038 295.361 169.664 293.08 167.459 291.955C165.254 290.83 161.997 291.489 161.213 293.872C155.798 297.102 150.009 300.23 145.473 304.574C141.889 308.007 138.953 312.072 136.043 316.127C134.101 318.831 132.986 321.456 131.296 324.332Z" fill="#464353"/>
<path opacity="0.06" d="M117.177 234.63C117.177 234.63 125.844 238.545 132.059 242.964L117.177 234.63Z" fill="black"/>
<path d="M551.25 242.68C551.408 247.677 551.535 252.685 551.477 257.677C551.445 260.323 551.335 263.081 550.088 265.4C549.198 267.066 547.793 268.367 546.404 269.642L537.737 277.638C535.048 280.118 532.148 282.705 528.564 283.321C524.465 284.028 520.46 281.998 516.519 280.643C512.55 279.282 508.393 278.572 504.205 278.538C501.805 278.538 499.384 278.731 497.016 278.345C495.304 278.014 493.624 277.528 491.996 276.894L484.171 274.13C484.392 272.122 486.276 270.842 487.855 269.572C493.459 264.945 495.917 257.505 497.685 250.387C499.122 244.83 500.146 239.171 500.747 233.457C501.016 230.629 501.137 227.753 500.553 224.973C500.002 222.731 499.226 220.552 498.237 218.471L495.485 212.156C493.906 208.589 490.749 207.004 487.534 204.899C492.385 206.774 498.3 207.507 501.989 211.224C502.701 212.048 503.544 212.743 504.484 213.281C505.489 213.768 506.631 213.817 507.731 213.999C513.209 214.834 517.866 218.337 522.392 221.577C527.931 225.548 533.625 229.278 539.473 232.766C542.104 234.341 544.82 235.889 547.035 238.036C549.251 240.184 550.987 243.044 551.129 246.156" fill="#464353"/>
<path opacity="0.06" d="M79.3407 233.907C72.4417 235.294 68.8528 243.548 69.258 250.687C69.6474 257.064 72.2208 263.101 76.5306 267.746C79.4091 270.826 82.9981 273.204 85.5977 276.53C89.4392 281.436 90.7759 287.922 94.2122 293.133C96.7066 296.915 100.206 299.882 103.684 302.726C111.704 309.239 119.986 315.404 128.528 321.22C132.001 323.582 135.801 325.971 139.979 325.88C143.915 325.794 147.541 323.443 150.109 320.401C152.677 317.359 154.319 313.663 155.987 310.021C161.997 296.685 168.049 283.203 170.922 268.828C171.822 264.313 172.427 259.659 174.437 255.529C176.016 252.316 178.352 249.563 180.436 246.66C185.36 239.771 188.815 231.912 190.582 223.586C191.729 218.155 192.114 212.338 190.23 207.143C188.346 201.948 183.773 197.443 178.326 197.036C174.016 196.715 169.785 198.965 166.891 202.237C163.997 205.51 162.292 209.693 161.129 213.929C159.461 220.024 158.821 226.362 159.234 232.675C159.571 237.769 160.592 242.91 159.729 247.945C159.118 251.496 157.598 254.811 156.093 258.079C152.204 266.509 148.252 275.046 142.374 282.18C140.458 284.505 137.822 286.856 134.89 286.31C130.838 285.56 129.765 280.338 127.765 276.669C125.313 272.17 120.661 269.465 117.014 265.893C111.825 260.805 108.715 253.981 105.026 247.683C101.337 241.384 96.5645 235.166 89.7655 232.75C82.9665 230.335 73.9047 233.436 72.1575 240.548" fill="black"/>
<path opacity="0.06" d="M84.5452 238.797C77.641 240.184 68.8528 241.089 69.2843 248.239C69.6693 254.618 72.2433 260.655 76.5569 265.298C79.4355 268.383 83.0244 270.761 85.624 274.088C89.4656 278.994 90.8022 285.474 94.2385 290.691C96.7329 294.478 100.232 297.445 103.711 300.284C111.731 306.8 120.012 312.965 128.555 318.778C132.028 321.145 135.827 323.534 140.005 323.443C143.942 323.357 147.567 321.001 150.136 317.964C152.704 314.927 154.345 311.226 156.014 307.578C162.023 294.242 168.075 280.761 170.948 266.386C171.848 261.876 172.453 257.216 174.464 253.092C176.042 249.878 178.379 247.125 180.463 244.217C185.387 237.331 188.843 229.474 190.608 221.149C191.756 215.713 192.14 209.901 190.256 204.701C188.372 199.5 183.799 195.006 178.352 194.594C174.043 194.273 169.812 196.527 166.917 199.795C164.023 203.062 162.318 207.25 161.155 211.492C159.487 217.587 158.847 223.925 159.26 230.238C159.597 235.337 160.618 240.479 159.755 245.508C159.145 249.064 157.624 252.38 156.119 255.647C152.23 264.077 148.278 272.609 142.4 279.749C140.484 282.073 137.848 284.419 134.917 283.878C130.865 283.123 129.791 277.901 127.791 274.237C125.339 269.738 120.687 267.034 117.04 263.461C111.852 258.378 108.742 251.549 105.053 245.251C101.364 238.952 96.5908 232.739 89.7918 230.318C82.9928 227.897 91.5074 243.403 89.755 250.516" fill="black"/>
<path d="M79.3407 232.68C72.4417 234.068 68.8528 242.321 69.258 249.461C69.6462 255.84 72.2196 261.878 76.5306 266.525C79.4091 269.605 82.9981 271.983 85.5977 275.309C89.4392 280.215 90.7759 286.701 94.2122 291.912C96.7066 295.699 100.206 298.666 103.684 301.51C111.704 308.023 119.986 314.186 128.528 319.999C132.001 322.366 135.801 324.755 139.979 324.664C143.915 324.578 147.541 322.227 150.109 319.185C152.677 316.143 154.319 312.447 155.987 308.805C161.997 295.469 168.049 281.988 170.922 267.607C171.822 263.097 172.427 258.437 174.437 254.313C176.016 251.1 178.352 248.347 180.436 245.438C185.36 238.552 188.816 230.695 190.582 222.37C191.729 216.934 192.114 211.123 190.23 205.922C188.346 200.721 183.773 196.228 178.326 195.82C174.016 195.494 169.785 197.749 166.891 201.021C163.997 204.294 162.292 208.477 161.129 212.713C159.461 218.808 158.821 225.147 159.234 231.459C159.571 236.553 160.592 241.694 159.729 246.724C159.118 250.28 157.598 253.596 156.093 256.863C152.204 265.293 148.252 273.83 142.374 280.965C140.458 283.289 137.822 285.635 134.89 285.094C130.838 284.339 129.765 279.122 127.765 275.453C125.313 270.949 120.661 268.244 117.014 264.677C111.825 259.589 108.715 252.765 105.026 246.467C101.337 240.168 96.5645 233.955 89.7655 231.54C82.9665 229.124 73.9047 232.225 72.1575 239.338" fill="#FBBEBE"/>
<g opacity="0.06">
<path opacity="0.06" d="M52.971 189.897C50.7842 186.221 48.9464 182.342 47.4824 178.312L47.3035 177.776C46.193 176.563 45.259 175.194 44.5302 173.711C43.402 171.185 42.7897 168.451 42.7304 165.677C42.7304 165.575 42.7304 165.473 42.7304 165.372C42.3539 166.229 42.0766 167.127 41.9043 168.05C41.378 171.07 42.2463 174.155 43.2883 177.037C44.7533 181.067 46.5911 184.946 48.7769 188.622C52.0449 194.181 56.2179 199.537 56.8652 205.916C57.8388 215.461 50.7661 223.864 49.019 233.296C47.6824 240.5 49.3768 248.55 45.5932 254.784C44.0808 257.135 42.05 259.094 39.6625 260.505C38.165 261.476 36.5256 262.199 34.8053 262.647C34.4916 263.026 34.1541 263.384 33.7949 263.718C37.1365 264.896 40.857 263.627 43.8671 261.742C46.2537 260.327 48.2842 258.367 49.7978 256.016C53.5815 249.782 51.9028 241.732 53.2184 234.528C54.9708 225.101 62.0434 216.693 61.0699 207.148C60.4173 200.732 56.2495 195.381 52.971 189.897Z" fill="black"/>
<path opacity="0.06" d="M113.699 142.764C112.347 139.577 109.489 137.317 106.553 135.544C102.83 133.271 98.7797 131.608 94.5493 130.617C97.2642 131.581 99.8769 132.821 102.348 134.318C105.285 136.096 108.137 138.351 109.5 141.543C110.863 144.735 110.184 149.041 107.258 150.819C105.195 152.078 102.622 151.853 100.217 151.8C98.1385 151.751 96.0595 151.859 93.9967 152.121C93.2518 152.176 92.5236 152.372 91.8496 152.699C90.9715 153.278 90.2799 154.107 89.8605 155.083C89.0143 156.73 88.4451 158.509 88.1765 160.348C87.8818 162.404 87.9081 164.659 86.6452 166.293C84.9296 168.516 82.2458 168.178 79.8041 168.617C77.6836 169.032 75.6512 169.822 73.7997 170.953C69.7687 173.432 66.8902 177.964 66.706 182.8C66.6428 184.525 66.8744 186.287 66.4166 187.947C66.1212 188.916 65.6578 189.823 65.0483 190.625C65.9808 191.64 66.7965 192.759 67.4796 193.962C68.7688 192.532 70.1107 191.032 70.637 189.168C71.1001 187.508 70.8633 185.74 70.9317 184.016C71.1159 179.195 73.9944 174.654 78.0254 172.168C79.8754 171.036 81.9085 170.247 84.0297 169.839C86.461 169.394 89.1448 169.731 90.8708 167.509C92.1338 165.902 92.1022 163.62 92.4022 161.564C92.669 159.725 93.2364 157.946 94.0809 156.299C94.503 155.332 95.1947 154.512 96.0701 153.942C96.7424 153.61 97.4715 153.414 98.2171 153.364C100.28 153.102 102.359 152.993 104.437 153.037C106.842 153.096 109.415 153.315 111.478 152.057C114.383 150.262 115.051 145.978 113.699 142.764Z" fill="black"/>
</g>
<path opacity="0.06" d="M79.2407 193.94C79.2407 193.94 85.4556 199.382 97.2591 196.082C97.2591 196.072 89.9497 199.001 79.2407 193.94Z" fill="black"/>
<path opacity="0.06" d="M412.565 102.139C412.577 102.966 412.358 103.779 411.934 104.485C411.597 104.894 411.174 105.221 410.697 105.443C408.698 106.448 406.438 106.787 404.239 106.411C402.04 106.035 400.013 104.964 398.446 103.349C397.331 102.149 396.504 100.671 395.405 99.4874C394.305 98.3037 392.773 97.27 391.195 97.3986C389.853 97.5057 388.679 98.3734 387.758 99.3749C386.566 100.69 385.689 102.269 385.196 103.986C384.854 105.208 384.669 106.584 383.685 107.393C382.701 108.202 381.48 108.148 380.302 108.105C378.781 108.052 377.202 107.982 375.865 107.248C373.334 105.866 372.482 102.685 371.545 99.9266C369.966 95.2776 366.419 86.4938 360.899 85.5565C358.268 85.1119 355.063 86.5313 353.006 88.0524C349.896 90.3501 347.601 91.8391 343.575 91.8016C342.627 91.8201 341.683 91.6678 340.786 91.3517C338.471 90.4251 337.234 87.8649 336.861 85.3262C336.718 86.4897 336.688 87.6648 336.771 88.8343C336.992 91.6087 338.234 94.6081 340.786 95.6311C341.683 95.9472 342.627 96.0995 343.575 96.081C347.601 96.1453 349.89 94.6563 353.006 92.3586C355.074 90.8375 358.268 89.4128 360.899 89.8627C366.398 90.7732 369.977 99.557 371.524 104.201C372.461 106.964 373.313 110.146 375.844 111.528C377.181 112.256 378.76 112.331 380.281 112.385C381.459 112.427 382.754 112.433 383.664 111.672C384.575 110.912 384.833 109.482 385.175 108.266C385.666 106.547 386.544 104.969 387.737 103.654C388.658 102.653 389.842 101.785 391.174 101.678C392.794 101.549 394.331 102.551 395.384 103.767C396.436 104.983 397.31 106.445 398.425 107.628C399.992 109.243 402.019 110.314 404.218 110.69C406.417 111.066 408.677 110.728 410.676 109.723C411.152 109.499 411.574 109.172 411.913 108.764C412.338 108.057 412.557 107.242 412.544 106.413C412.956 101.901 413.132 97.3709 413.07 92.8406C413.028 95.9417 412.802 99.0429 412.565 102.139Z" fill="black"/>
<path d="M47.2616 330.625C47.2616 330.625 48.0983 329.677 46.5249 329.302V327.743H47.4721C47.4701 325.86 46.8329 324.035 45.6672 322.573C44.5015 321.11 42.8778 320.1 41.0678 319.709V317.819H41.3151V315.36H35.2265V317.819H35.4002V319.731C33.6071 320.14 32.0045 321.159 30.8566 322.619C29.7086 324.08 29.0839 325.895 29.0853 327.765H29.9221V329.259C29.9221 329.259 27.9276 330.218 29.9221 331.937C31.9165 333.656 31.606 334.899 31.606 334.899C31.606 334.899 30.7693 338.113 29.0906 338.53V368.326C29.0899 369.196 29.2576 370.057 29.5842 370.861C29.9108 371.665 30.3898 372.395 30.9938 373.01C31.5979 373.625 32.3151 374.114 33.1046 374.447C33.8941 374.78 34.7403 374.951 35.5949 374.951H40.7363C42.4627 374.951 44.1184 374.253 45.3392 373.011C46.56 371.768 47.2458 370.083 47.2458 368.326V338.53C47.2458 338.53 44.3041 336.286 44.8304 334.899C45.5364 333.415 46.349 331.987 47.2616 330.625Z" fill="#464353"/>
</g>
<defs>
<linearGradient id="paint0_linear" x1="292.067" y1="380.205" x2="292.067" y2="53.008" gradientUnits="userSpaceOnUse">
<stop stop-color="#808080" stop-opacity="0.25"/>
<stop offset="0.54" stop-color="#808080" stop-opacity="0.12"/>
<stop offset="1" stop-color="#808080" stop-opacity="0.1"/>
</linearGradient>
<clipPath id="clip0">
<rect width="606.29" height="413" fill="white"/>
</clipPath>
</defs>
</svg>
